M48
; DRILL file {KiCad 7.0.9} date Tue 02 Jan 2024 05:06:03 PM CST
; FORMAT={-:-/ absolute / metric / decimal}
; #@! TF.CreationDate,2024-01-02T17:06:03-06:00
; #@! TF.GenerationSoftware,Kicad,Pcbnew,7.0.9
; #@! TF.FileFunction,Plated,1,2,PTH
FMAT,2
METRIC
; #@! TA.AperFunction,Plated,PTH,ComponentDrill
T1C1.000
; #@! TA.AperFunction,Plated,PTH,ComponentDrill
T2C1.100
%
G90
G05
T1
X82.7Y-55.0
X82.7Y-57.5
X82.7Y-60.0
X82.7Y-71.7
X82.7Y-74.2
X82.7Y-76.7
X99.5Y-53.17
X99.5Y-55.71
X99.5Y-58.25
X99.5Y-60.79
X99.5Y-63.33
X99.5Y-65.87
X99.5Y-68.41
X99.5Y-70.95
X99.5Y-73.49
X99.5Y-76.03
X99.5Y-78.57
X99.5Y-81.11
T2
X69.25Y-45.9
X69.25Y-50.4
X69.25Y-54.351
X69.25Y-58.851
X69.25Y-62.802
X69.25Y-67.302
X69.25Y-71.254
X69.25Y-75.754
X69.273Y-79.705
X69.273Y-84.205
X69.273Y-88.156
X69.273Y-92.656
X75.75Y-45.9
X75.75Y-50.4
X75.75Y-54.351
X75.75Y-58.851
X75.75Y-62.802
X75.75Y-67.302
X75.75Y-71.254
X75.75Y-75.754
X75.773Y-79.705
X75.773Y-84.205
X75.773Y-88.156
X75.773Y-92.656
T2
X89.65Y-52.7G85X90.75Y-52.7
G05
X89.65Y-62.3G85X90.75Y-62.3
G05
X89.65Y-69.4G85X90.75Y-69.4
G05
X89.65Y-79.0G85X90.75Y-79.0
G05
T0
M30
