%TF.GenerationSoftware,KiCad,Pcbnew,7.0.9*%
%TF.CreationDate,2024-01-02T17:06:05-06:00*%
%TF.ProjectId,basic_expander_v2.1,62617369-635f-4657-9870-616e6465725f,rev?*%
%TF.SameCoordinates,Original*%
%TF.FileFunction,Drillmap*%
%TF.FilePolarity,Positive*%
%FSLAX45Y45*%
G04 Gerber Fmt 4.5, Leading zero omitted, Abs format (unit mm)*
G04 Created by KiCad (PCBNEW 7.0.9) date 2024-01-02 17:06:05*
%MOMM*%
%LPD*%
G01*
G04 APERTURE LIST*
%ADD10C,0.050000*%
%ADD11C,0.200000*%
%ADD12C,0.100000*%
%ADD13C,0.110000*%
G04 APERTURE END LIST*
D10*
X6000000Y-4100000D02*
X6000000Y-9600000D01*
X6200000Y-9800000D02*
X10300000Y-9800000D01*
X10500000Y-4100000D02*
X10500000Y-9600000D01*
X6000000Y-9600000D02*
G75*
G03*
X6200000Y-9800000I200000J0D01*
G01*
X6100000Y-4000000D02*
G75*
G03*
X6000000Y-4100000I0J-100000D01*
G01*
X10300000Y-9800000D02*
G75*
G03*
X10500000Y-9600000I0J200000D01*
G01*
X6100000Y-4000000D02*
X10400000Y-4000000D01*
X10500000Y-4100000D02*
G75*
G03*
X10400000Y-4000000I-100000J0D01*
G01*
D11*
D12*
X8220000Y-5450000D02*
X8320000Y-5550000D01*
X8320000Y-5450000D02*
X8220000Y-5550000D01*
X8220000Y-5700000D02*
X8320000Y-5800000D01*
X8320000Y-5700000D02*
X8220000Y-5800000D01*
X8220000Y-5950000D02*
X8320000Y-6050000D01*
X8320000Y-5950000D02*
X8220000Y-6050000D01*
X8220000Y-7120000D02*
X8320000Y-7220000D01*
X8320000Y-7120000D02*
X8220000Y-7220000D01*
X8220000Y-7370000D02*
X8320000Y-7470000D01*
X8320000Y-7370000D02*
X8220000Y-7470000D01*
X8220000Y-7620000D02*
X8320000Y-7720000D01*
X8320000Y-7620000D02*
X8220000Y-7720000D01*
X9900000Y-5267000D02*
X10000000Y-5367000D01*
X10000000Y-5267000D02*
X9900000Y-5367000D01*
X9900000Y-5521000D02*
X10000000Y-5621000D01*
X10000000Y-5521000D02*
X9900000Y-5621000D01*
X9900000Y-5775000D02*
X10000000Y-5875000D01*
X10000000Y-5775000D02*
X9900000Y-5875000D01*
X9900000Y-6029000D02*
X10000000Y-6129000D01*
X10000000Y-6029000D02*
X9900000Y-6129000D01*
X9900000Y-6283000D02*
X10000000Y-6383000D01*
X10000000Y-6283000D02*
X9900000Y-6383000D01*
X9900000Y-6537000D02*
X10000000Y-6637000D01*
X10000000Y-6537000D02*
X9900000Y-6637000D01*
X9900000Y-6791000D02*
X10000000Y-6891000D01*
X10000000Y-6791000D02*
X9900000Y-6891000D01*
X9900000Y-7045000D02*
X10000000Y-7145000D01*
X10000000Y-7045000D02*
X9900000Y-7145000D01*
X9900000Y-7299000D02*
X10000000Y-7399000D01*
X10000000Y-7299000D02*
X9900000Y-7399000D01*
X9900000Y-7553000D02*
X10000000Y-7653000D01*
X10000000Y-7553000D02*
X9900000Y-7653000D01*
X9900000Y-7807000D02*
X10000000Y-7907000D01*
X10000000Y-7807000D02*
X9900000Y-7907000D01*
X9900000Y-8061000D02*
X10000000Y-8161000D01*
X10000000Y-8061000D02*
X9900000Y-8161000D01*
D13*
X6980000Y-4590000D02*
G75*
G03*
X6980000Y-4590000I-55000J0D01*
G01*
X6980000Y-5040000D02*
G75*
G03*
X6980000Y-5040000I-55000J0D01*
G01*
X6980000Y-5435122D02*
G75*
G03*
X6980000Y-5435122I-55000J0D01*
G01*
X6980000Y-5885122D02*
G75*
G03*
X6980000Y-5885122I-55000J0D01*
G01*
X6980000Y-6280244D02*
G75*
G03*
X6980000Y-6280244I-55000J0D01*
G01*
X6980000Y-6730244D02*
G75*
G03*
X6980000Y-6730244I-55000J0D01*
G01*
X6980000Y-7125367D02*
G75*
G03*
X6980000Y-7125367I-55000J0D01*
G01*
X6980000Y-7575367D02*
G75*
G03*
X6980000Y-7575367I-55000J0D01*
G01*
X6982331Y-7970489D02*
G75*
G03*
X6982331Y-7970489I-55000J0D01*
G01*
X6982331Y-8420489D02*
G75*
G03*
X6982331Y-8420489I-55000J0D01*
G01*
X6982331Y-8815611D02*
G75*
G03*
X6982331Y-8815611I-55000J0D01*
G01*
X6982331Y-9265611D02*
G75*
G03*
X6982331Y-9265611I-55000J0D01*
G01*
X7630000Y-4590000D02*
G75*
G03*
X7630000Y-4590000I-55000J0D01*
G01*
X7630000Y-5040000D02*
G75*
G03*
X7630000Y-5040000I-55000J0D01*
G01*
X7630000Y-5435122D02*
G75*
G03*
X7630000Y-5435122I-55000J0D01*
G01*
X7630000Y-5885122D02*
G75*
G03*
X7630000Y-5885122I-55000J0D01*
G01*
X7630000Y-6280244D02*
G75*
G03*
X7630000Y-6280244I-55000J0D01*
G01*
X7630000Y-6730244D02*
G75*
G03*
X7630000Y-6730244I-55000J0D01*
G01*
X7630000Y-7125367D02*
G75*
G03*
X7630000Y-7125367I-55000J0D01*
G01*
X7630000Y-7575367D02*
G75*
G03*
X7630000Y-7575367I-55000J0D01*
G01*
X7632331Y-7970489D02*
G75*
G03*
X7632331Y-7970489I-55000J0D01*
G01*
X7632331Y-8420489D02*
G75*
G03*
X7632331Y-8420489I-55000J0D01*
G01*
X7632331Y-8815611D02*
G75*
G03*
X7632331Y-8815611I-55000J0D01*
G01*
X7632331Y-9265611D02*
G75*
G03*
X7632331Y-9265611I-55000J0D01*
G01*
X9075000Y-5270000D02*
G75*
G03*
X9075000Y-5270000I-55000J0D01*
G01*
D12*
X8965000Y-5325000D02*
X9075000Y-5325000D01*
X9075000Y-5325000D02*
G75*
G03*
X9075000Y-5215000I0J55000D01*
G01*
X9075000Y-5215000D02*
X8965000Y-5215000D01*
X8965000Y-5215000D02*
G75*
G03*
X8965000Y-5325000I0J-55000D01*
G01*
D13*
X9075000Y-6230000D02*
G75*
G03*
X9075000Y-6230000I-55000J0D01*
G01*
D12*
X8965000Y-6285000D02*
X9075000Y-6285000D01*
X9075000Y-6285000D02*
G75*
G03*
X9075000Y-6175000I0J55000D01*
G01*
X9075000Y-6175000D02*
X8965000Y-6175000D01*
X8965000Y-6175000D02*
G75*
G03*
X8965000Y-6285000I0J-55000D01*
G01*
D13*
X9075000Y-6940000D02*
G75*
G03*
X9075000Y-6940000I-55000J0D01*
G01*
D12*
X8965000Y-6995000D02*
X9075000Y-6995000D01*
X9075000Y-6995000D02*
G75*
G03*
X9075000Y-6885000I0J55000D01*
G01*
X9075000Y-6885000D02*
X8965000Y-6885000D01*
X8965000Y-6885000D02*
G75*
G03*
X8965000Y-6995000I0J-55000D01*
G01*
D13*
X9075000Y-7900000D02*
G75*
G03*
X9075000Y-7900000I-55000J0D01*
G01*
D12*
X8965000Y-7955000D02*
X9075000Y-7955000D01*
X9075000Y-7955000D02*
G75*
G03*
X9075000Y-7845000I0J55000D01*
G01*
X9075000Y-7845000D02*
X8965000Y-7845000D01*
X8965000Y-7845000D02*
G75*
G03*
X8965000Y-7955000I0J-55000D01*
G01*
D11*
X6258277Y-10113984D02*
X6258277Y-9913984D01*
X6258277Y-9913984D02*
X6305896Y-9913984D01*
X6305896Y-9913984D02*
X6334467Y-9923508D01*
X6334467Y-9923508D02*
X6353515Y-9942555D01*
X6353515Y-9942555D02*
X6363039Y-9961603D01*
X6363039Y-9961603D02*
X6372562Y-9999698D01*
X6372562Y-9999698D02*
X6372562Y-10028270D01*
X6372562Y-10028270D02*
X6363039Y-10066365D01*
X6363039Y-10066365D02*
X6353515Y-10085412D01*
X6353515Y-10085412D02*
X6334467Y-10104460D01*
X6334467Y-10104460D02*
X6305896Y-10113984D01*
X6305896Y-10113984D02*
X6258277Y-10113984D01*
X6458277Y-10113984D02*
X6458277Y-9980650D01*
X6458277Y-10018746D02*
X6467801Y-9999698D01*
X6467801Y-9999698D02*
X6477324Y-9990174D01*
X6477324Y-9990174D02*
X6496372Y-9980650D01*
X6496372Y-9980650D02*
X6515420Y-9980650D01*
X6582086Y-10113984D02*
X6582086Y-9980650D01*
X6582086Y-9913984D02*
X6572562Y-9923508D01*
X6572562Y-9923508D02*
X6582086Y-9933031D01*
X6582086Y-9933031D02*
X6591610Y-9923508D01*
X6591610Y-9923508D02*
X6582086Y-9913984D01*
X6582086Y-9913984D02*
X6582086Y-9933031D01*
X6705896Y-10113984D02*
X6686848Y-10104460D01*
X6686848Y-10104460D02*
X6677324Y-10085412D01*
X6677324Y-10085412D02*
X6677324Y-9913984D01*
X6810658Y-10113984D02*
X6791610Y-10104460D01*
X6791610Y-10104460D02*
X6782086Y-10085412D01*
X6782086Y-10085412D02*
X6782086Y-9913984D01*
X7039229Y-10113984D02*
X7039229Y-9913984D01*
X7039229Y-9913984D02*
X7105896Y-10056841D01*
X7105896Y-10056841D02*
X7172562Y-9913984D01*
X7172562Y-9913984D02*
X7172562Y-10113984D01*
X7353515Y-10113984D02*
X7353515Y-10009222D01*
X7353515Y-10009222D02*
X7343991Y-9990174D01*
X7343991Y-9990174D02*
X7324943Y-9980650D01*
X7324943Y-9980650D02*
X7286848Y-9980650D01*
X7286848Y-9980650D02*
X7267801Y-9990174D01*
X7353515Y-10104460D02*
X7334467Y-10113984D01*
X7334467Y-10113984D02*
X7286848Y-10113984D01*
X7286848Y-10113984D02*
X7267801Y-10104460D01*
X7267801Y-10104460D02*
X7258277Y-10085412D01*
X7258277Y-10085412D02*
X7258277Y-10066365D01*
X7258277Y-10066365D02*
X7267801Y-10047317D01*
X7267801Y-10047317D02*
X7286848Y-10037793D01*
X7286848Y-10037793D02*
X7334467Y-10037793D01*
X7334467Y-10037793D02*
X7353515Y-10028270D01*
X7448753Y-9980650D02*
X7448753Y-10180650D01*
X7448753Y-9990174D02*
X7467801Y-9980650D01*
X7467801Y-9980650D02*
X7505896Y-9980650D01*
X7505896Y-9980650D02*
X7524943Y-9990174D01*
X7524943Y-9990174D02*
X7534467Y-9999698D01*
X7534467Y-9999698D02*
X7543991Y-10018746D01*
X7543991Y-10018746D02*
X7543991Y-10075889D01*
X7543991Y-10075889D02*
X7534467Y-10094936D01*
X7534467Y-10094936D02*
X7524943Y-10104460D01*
X7524943Y-10104460D02*
X7505896Y-10113984D01*
X7505896Y-10113984D02*
X7467801Y-10113984D01*
X7467801Y-10113984D02*
X7448753Y-10104460D01*
X7629705Y-10094936D02*
X7639229Y-10104460D01*
X7639229Y-10104460D02*
X7629705Y-10113984D01*
X7629705Y-10113984D02*
X7620182Y-10104460D01*
X7620182Y-10104460D02*
X7629705Y-10094936D01*
X7629705Y-10094936D02*
X7629705Y-10113984D01*
X7629705Y-9990174D02*
X7639229Y-9999698D01*
X7639229Y-9999698D02*
X7629705Y-10009222D01*
X7629705Y-10009222D02*
X7620182Y-9999698D01*
X7620182Y-9999698D02*
X7629705Y-9990174D01*
X7629705Y-9990174D02*
X7629705Y-10009222D01*
D12*
X5897500Y-10392500D02*
X5997500Y-10492500D01*
X5997500Y-10392500D02*
X5897500Y-10492500D01*
D11*
X6363039Y-10533984D02*
X6248753Y-10533984D01*
X6305896Y-10533984D02*
X6305896Y-10333984D01*
X6305896Y-10333984D02*
X6286848Y-10362555D01*
X6286848Y-10362555D02*
X6267801Y-10381603D01*
X6267801Y-10381603D02*
X6248753Y-10391127D01*
X6448753Y-10514936D02*
X6458277Y-10524460D01*
X6458277Y-10524460D02*
X6448753Y-10533984D01*
X6448753Y-10533984D02*
X6439229Y-10524460D01*
X6439229Y-10524460D02*
X6448753Y-10514936D01*
X6448753Y-10514936D02*
X6448753Y-10533984D01*
X6582086Y-10333984D02*
X6601134Y-10333984D01*
X6601134Y-10333984D02*
X6620182Y-10343508D01*
X6620182Y-10343508D02*
X6629705Y-10353031D01*
X6629705Y-10353031D02*
X6639229Y-10372079D01*
X6639229Y-10372079D02*
X6648753Y-10410174D01*
X6648753Y-10410174D02*
X6648753Y-10457793D01*
X6648753Y-10457793D02*
X6639229Y-10495889D01*
X6639229Y-10495889D02*
X6629705Y-10514936D01*
X6629705Y-10514936D02*
X6620182Y-10524460D01*
X6620182Y-10524460D02*
X6601134Y-10533984D01*
X6601134Y-10533984D02*
X6582086Y-10533984D01*
X6582086Y-10533984D02*
X6563039Y-10524460D01*
X6563039Y-10524460D02*
X6553515Y-10514936D01*
X6553515Y-10514936D02*
X6543991Y-10495889D01*
X6543991Y-10495889D02*
X6534467Y-10457793D01*
X6534467Y-10457793D02*
X6534467Y-10410174D01*
X6534467Y-10410174D02*
X6543991Y-10372079D01*
X6543991Y-10372079D02*
X6553515Y-10353031D01*
X6553515Y-10353031D02*
X6563039Y-10343508D01*
X6563039Y-10343508D02*
X6582086Y-10333984D01*
X6772562Y-10333984D02*
X6791610Y-10333984D01*
X6791610Y-10333984D02*
X6810658Y-10343508D01*
X6810658Y-10343508D02*
X6820182Y-10353031D01*
X6820182Y-10353031D02*
X6829705Y-10372079D01*
X6829705Y-10372079D02*
X6839229Y-10410174D01*
X6839229Y-10410174D02*
X6839229Y-10457793D01*
X6839229Y-10457793D02*
X6829705Y-10495889D01*
X6829705Y-10495889D02*
X6820182Y-10514936D01*
X6820182Y-10514936D02*
X6810658Y-10524460D01*
X6810658Y-10524460D02*
X6791610Y-10533984D01*
X6791610Y-10533984D02*
X6772562Y-10533984D01*
X6772562Y-10533984D02*
X6753515Y-10524460D01*
X6753515Y-10524460D02*
X6743991Y-10514936D01*
X6743991Y-10514936D02*
X6734467Y-10495889D01*
X6734467Y-10495889D02*
X6724943Y-10457793D01*
X6724943Y-10457793D02*
X6724943Y-10410174D01*
X6724943Y-10410174D02*
X6734467Y-10372079D01*
X6734467Y-10372079D02*
X6743991Y-10353031D01*
X6743991Y-10353031D02*
X6753515Y-10343508D01*
X6753515Y-10343508D02*
X6772562Y-10333984D01*
X6963039Y-10333984D02*
X6982086Y-10333984D01*
X6982086Y-10333984D02*
X7001134Y-10343508D01*
X7001134Y-10343508D02*
X7010658Y-10353031D01*
X7010658Y-10353031D02*
X7020182Y-10372079D01*
X7020182Y-10372079D02*
X7029705Y-10410174D01*
X7029705Y-10410174D02*
X7029705Y-10457793D01*
X7029705Y-10457793D02*
X7020182Y-10495889D01*
X7020182Y-10495889D02*
X7010658Y-10514936D01*
X7010658Y-10514936D02*
X7001134Y-10524460D01*
X7001134Y-10524460D02*
X6982086Y-10533984D01*
X6982086Y-10533984D02*
X6963039Y-10533984D01*
X6963039Y-10533984D02*
X6943991Y-10524460D01*
X6943991Y-10524460D02*
X6934467Y-10514936D01*
X6934467Y-10514936D02*
X6924943Y-10495889D01*
X6924943Y-10495889D02*
X6915420Y-10457793D01*
X6915420Y-10457793D02*
X6915420Y-10410174D01*
X6915420Y-10410174D02*
X6924943Y-10372079D01*
X6924943Y-10372079D02*
X6934467Y-10353031D01*
X6934467Y-10353031D02*
X6943991Y-10343508D01*
X6943991Y-10343508D02*
X6963039Y-10333984D01*
X7115420Y-10533984D02*
X7115420Y-10400650D01*
X7115420Y-10419698D02*
X7124943Y-10410174D01*
X7124943Y-10410174D02*
X7143991Y-10400650D01*
X7143991Y-10400650D02*
X7172563Y-10400650D01*
X7172563Y-10400650D02*
X7191610Y-10410174D01*
X7191610Y-10410174D02*
X7201134Y-10429222D01*
X7201134Y-10429222D02*
X7201134Y-10533984D01*
X7201134Y-10429222D02*
X7210658Y-10410174D01*
X7210658Y-10410174D02*
X7229705Y-10400650D01*
X7229705Y-10400650D02*
X7258277Y-10400650D01*
X7258277Y-10400650D02*
X7277324Y-10410174D01*
X7277324Y-10410174D02*
X7286848Y-10429222D01*
X7286848Y-10429222D02*
X7286848Y-10533984D01*
X7382086Y-10533984D02*
X7382086Y-10400650D01*
X7382086Y-10419698D02*
X7391610Y-10410174D01*
X7391610Y-10410174D02*
X7410658Y-10400650D01*
X7410658Y-10400650D02*
X7439229Y-10400650D01*
X7439229Y-10400650D02*
X7458277Y-10410174D01*
X7458277Y-10410174D02*
X7467801Y-10429222D01*
X7467801Y-10429222D02*
X7467801Y-10533984D01*
X7467801Y-10429222D02*
X7477324Y-10410174D01*
X7477324Y-10410174D02*
X7496372Y-10400650D01*
X7496372Y-10400650D02*
X7524943Y-10400650D01*
X7524943Y-10400650D02*
X7543991Y-10410174D01*
X7543991Y-10410174D02*
X7553515Y-10429222D01*
X7553515Y-10429222D02*
X7553515Y-10533984D01*
X7943991Y-10324460D02*
X7772563Y-10581603D01*
X8201134Y-10333984D02*
X8220182Y-10333984D01*
X8220182Y-10333984D02*
X8239229Y-10343508D01*
X8239229Y-10343508D02*
X8248753Y-10353031D01*
X8248753Y-10353031D02*
X8258277Y-10372079D01*
X8258277Y-10372079D02*
X8267801Y-10410174D01*
X8267801Y-10410174D02*
X8267801Y-10457793D01*
X8267801Y-10457793D02*
X8258277Y-10495889D01*
X8258277Y-10495889D02*
X8248753Y-10514936D01*
X8248753Y-10514936D02*
X8239229Y-10524460D01*
X8239229Y-10524460D02*
X8220182Y-10533984D01*
X8220182Y-10533984D02*
X8201134Y-10533984D01*
X8201134Y-10533984D02*
X8182086Y-10524460D01*
X8182086Y-10524460D02*
X8172563Y-10514936D01*
X8172563Y-10514936D02*
X8163039Y-10495889D01*
X8163039Y-10495889D02*
X8153515Y-10457793D01*
X8153515Y-10457793D02*
X8153515Y-10410174D01*
X8153515Y-10410174D02*
X8163039Y-10372079D01*
X8163039Y-10372079D02*
X8172563Y-10353031D01*
X8172563Y-10353031D02*
X8182086Y-10343508D01*
X8182086Y-10343508D02*
X8201134Y-10333984D01*
X8353515Y-10514936D02*
X8363039Y-10524460D01*
X8363039Y-10524460D02*
X8353515Y-10533984D01*
X8353515Y-10533984D02*
X8343991Y-10524460D01*
X8343991Y-10524460D02*
X8353515Y-10514936D01*
X8353515Y-10514936D02*
X8353515Y-10533984D01*
X8486848Y-10333984D02*
X8505896Y-10333984D01*
X8505896Y-10333984D02*
X8524944Y-10343508D01*
X8524944Y-10343508D02*
X8534468Y-10353031D01*
X8534468Y-10353031D02*
X8543991Y-10372079D01*
X8543991Y-10372079D02*
X8553515Y-10410174D01*
X8553515Y-10410174D02*
X8553515Y-10457793D01*
X8553515Y-10457793D02*
X8543991Y-10495889D01*
X8543991Y-10495889D02*
X8534468Y-10514936D01*
X8534468Y-10514936D02*
X8524944Y-10524460D01*
X8524944Y-10524460D02*
X8505896Y-10533984D01*
X8505896Y-10533984D02*
X8486848Y-10533984D01*
X8486848Y-10533984D02*
X8467801Y-10524460D01*
X8467801Y-10524460D02*
X8458277Y-10514936D01*
X8458277Y-10514936D02*
X8448753Y-10495889D01*
X8448753Y-10495889D02*
X8439229Y-10457793D01*
X8439229Y-10457793D02*
X8439229Y-10410174D01*
X8439229Y-10410174D02*
X8448753Y-10372079D01*
X8448753Y-10372079D02*
X8458277Y-10353031D01*
X8458277Y-10353031D02*
X8467801Y-10343508D01*
X8467801Y-10343508D02*
X8486848Y-10333984D01*
X8620182Y-10333984D02*
X8743991Y-10333984D01*
X8743991Y-10333984D02*
X8677325Y-10410174D01*
X8677325Y-10410174D02*
X8705896Y-10410174D01*
X8705896Y-10410174D02*
X8724944Y-10419698D01*
X8724944Y-10419698D02*
X8734468Y-10429222D01*
X8734468Y-10429222D02*
X8743991Y-10448270D01*
X8743991Y-10448270D02*
X8743991Y-10495889D01*
X8743991Y-10495889D02*
X8734468Y-10514936D01*
X8734468Y-10514936D02*
X8724944Y-10524460D01*
X8724944Y-10524460D02*
X8705896Y-10533984D01*
X8705896Y-10533984D02*
X8648753Y-10533984D01*
X8648753Y-10533984D02*
X8629706Y-10524460D01*
X8629706Y-10524460D02*
X8620182Y-10514936D01*
X8839229Y-10533984D02*
X8877325Y-10533984D01*
X8877325Y-10533984D02*
X8896372Y-10524460D01*
X8896372Y-10524460D02*
X8905896Y-10514936D01*
X8905896Y-10514936D02*
X8924944Y-10486365D01*
X8924944Y-10486365D02*
X8934468Y-10448270D01*
X8934468Y-10448270D02*
X8934468Y-10372079D01*
X8934468Y-10372079D02*
X8924944Y-10353031D01*
X8924944Y-10353031D02*
X8915420Y-10343508D01*
X8915420Y-10343508D02*
X8896372Y-10333984D01*
X8896372Y-10333984D02*
X8858277Y-10333984D01*
X8858277Y-10333984D02*
X8839229Y-10343508D01*
X8839229Y-10343508D02*
X8829706Y-10353031D01*
X8829706Y-10353031D02*
X8820182Y-10372079D01*
X8820182Y-10372079D02*
X8820182Y-10419698D01*
X8820182Y-10419698D02*
X8829706Y-10438746D01*
X8829706Y-10438746D02*
X8839229Y-10448270D01*
X8839229Y-10448270D02*
X8858277Y-10457793D01*
X8858277Y-10457793D02*
X8896372Y-10457793D01*
X8896372Y-10457793D02*
X8915420Y-10448270D01*
X8915420Y-10448270D02*
X8924944Y-10438746D01*
X8924944Y-10438746D02*
X8934468Y-10419698D01*
X9105896Y-10400650D02*
X9105896Y-10533984D01*
X9058277Y-10324460D02*
X9010658Y-10467317D01*
X9010658Y-10467317D02*
X9134468Y-10467317D01*
X9201134Y-10333984D02*
X9201134Y-10372079D01*
X9277325Y-10333984D02*
X9277325Y-10372079D01*
X9572563Y-10610174D02*
X9563039Y-10600650D01*
X9563039Y-10600650D02*
X9543991Y-10572079D01*
X9543991Y-10572079D02*
X9534468Y-10553031D01*
X9534468Y-10553031D02*
X9524944Y-10524460D01*
X9524944Y-10524460D02*
X9515420Y-10476841D01*
X9515420Y-10476841D02*
X9515420Y-10438746D01*
X9515420Y-10438746D02*
X9524944Y-10391127D01*
X9524944Y-10391127D02*
X9534468Y-10362555D01*
X9534468Y-10362555D02*
X9543991Y-10343508D01*
X9543991Y-10343508D02*
X9563039Y-10314936D01*
X9563039Y-10314936D02*
X9572563Y-10305412D01*
X9753515Y-10533984D02*
X9639230Y-10533984D01*
X9696372Y-10533984D02*
X9696372Y-10333984D01*
X9696372Y-10333984D02*
X9677325Y-10362555D01*
X9677325Y-10362555D02*
X9658277Y-10381603D01*
X9658277Y-10381603D02*
X9639230Y-10391127D01*
X9867801Y-10419698D02*
X9848753Y-10410174D01*
X9848753Y-10410174D02*
X9839230Y-10400650D01*
X9839230Y-10400650D02*
X9829706Y-10381603D01*
X9829706Y-10381603D02*
X9829706Y-10372079D01*
X9829706Y-10372079D02*
X9839230Y-10353031D01*
X9839230Y-10353031D02*
X9848753Y-10343508D01*
X9848753Y-10343508D02*
X9867801Y-10333984D01*
X9867801Y-10333984D02*
X9905896Y-10333984D01*
X9905896Y-10333984D02*
X9924944Y-10343508D01*
X9924944Y-10343508D02*
X9934468Y-10353031D01*
X9934468Y-10353031D02*
X9943991Y-10372079D01*
X9943991Y-10372079D02*
X9943991Y-10381603D01*
X9943991Y-10381603D02*
X9934468Y-10400650D01*
X9934468Y-10400650D02*
X9924944Y-10410174D01*
X9924944Y-10410174D02*
X9905896Y-10419698D01*
X9905896Y-10419698D02*
X9867801Y-10419698D01*
X9867801Y-10419698D02*
X9848753Y-10429222D01*
X9848753Y-10429222D02*
X9839230Y-10438746D01*
X9839230Y-10438746D02*
X9829706Y-10457793D01*
X9829706Y-10457793D02*
X9829706Y-10495889D01*
X9829706Y-10495889D02*
X9839230Y-10514936D01*
X9839230Y-10514936D02*
X9848753Y-10524460D01*
X9848753Y-10524460D02*
X9867801Y-10533984D01*
X9867801Y-10533984D02*
X9905896Y-10533984D01*
X9905896Y-10533984D02*
X9924944Y-10524460D01*
X9924944Y-10524460D02*
X9934468Y-10514936D01*
X9934468Y-10514936D02*
X9943991Y-10495889D01*
X9943991Y-10495889D02*
X9943991Y-10457793D01*
X9943991Y-10457793D02*
X9934468Y-10438746D01*
X9934468Y-10438746D02*
X9924944Y-10429222D01*
X9924944Y-10429222D02*
X9905896Y-10419698D01*
X10182087Y-10533984D02*
X10182087Y-10333984D01*
X10267801Y-10533984D02*
X10267801Y-10429222D01*
X10267801Y-10429222D02*
X10258277Y-10410174D01*
X10258277Y-10410174D02*
X10239230Y-10400650D01*
X10239230Y-10400650D02*
X10210658Y-10400650D01*
X10210658Y-10400650D02*
X10191611Y-10410174D01*
X10191611Y-10410174D02*
X10182087Y-10419698D01*
X10391611Y-10533984D02*
X10372563Y-10524460D01*
X10372563Y-10524460D02*
X10363039Y-10514936D01*
X10363039Y-10514936D02*
X10353515Y-10495889D01*
X10353515Y-10495889D02*
X10353515Y-10438746D01*
X10353515Y-10438746D02*
X10363039Y-10419698D01*
X10363039Y-10419698D02*
X10372563Y-10410174D01*
X10372563Y-10410174D02*
X10391611Y-10400650D01*
X10391611Y-10400650D02*
X10420182Y-10400650D01*
X10420182Y-10400650D02*
X10439230Y-10410174D01*
X10439230Y-10410174D02*
X10448753Y-10419698D01*
X10448753Y-10419698D02*
X10458277Y-10438746D01*
X10458277Y-10438746D02*
X10458277Y-10495889D01*
X10458277Y-10495889D02*
X10448753Y-10514936D01*
X10448753Y-10514936D02*
X10439230Y-10524460D01*
X10439230Y-10524460D02*
X10420182Y-10533984D01*
X10420182Y-10533984D02*
X10391611Y-10533984D01*
X10572563Y-10533984D02*
X10553515Y-10524460D01*
X10553515Y-10524460D02*
X10543992Y-10505412D01*
X10543992Y-10505412D02*
X10543992Y-10333984D01*
X10724944Y-10524460D02*
X10705896Y-10533984D01*
X10705896Y-10533984D02*
X10667801Y-10533984D01*
X10667801Y-10533984D02*
X10648753Y-10524460D01*
X10648753Y-10524460D02*
X10639230Y-10505412D01*
X10639230Y-10505412D02*
X10639230Y-10429222D01*
X10639230Y-10429222D02*
X10648753Y-10410174D01*
X10648753Y-10410174D02*
X10667801Y-10400650D01*
X10667801Y-10400650D02*
X10705896Y-10400650D01*
X10705896Y-10400650D02*
X10724944Y-10410174D01*
X10724944Y-10410174D02*
X10734468Y-10429222D01*
X10734468Y-10429222D02*
X10734468Y-10448270D01*
X10734468Y-10448270D02*
X10639230Y-10467317D01*
X10810658Y-10524460D02*
X10829706Y-10533984D01*
X10829706Y-10533984D02*
X10867801Y-10533984D01*
X10867801Y-10533984D02*
X10886849Y-10524460D01*
X10886849Y-10524460D02*
X10896373Y-10505412D01*
X10896373Y-10505412D02*
X10896373Y-10495889D01*
X10896373Y-10495889D02*
X10886849Y-10476841D01*
X10886849Y-10476841D02*
X10867801Y-10467317D01*
X10867801Y-10467317D02*
X10839230Y-10467317D01*
X10839230Y-10467317D02*
X10820182Y-10457793D01*
X10820182Y-10457793D02*
X10810658Y-10438746D01*
X10810658Y-10438746D02*
X10810658Y-10429222D01*
X10810658Y-10429222D02*
X10820182Y-10410174D01*
X10820182Y-10410174D02*
X10839230Y-10400650D01*
X10839230Y-10400650D02*
X10867801Y-10400650D01*
X10867801Y-10400650D02*
X10886849Y-10410174D01*
X10963039Y-10610174D02*
X10972563Y-10600650D01*
X10972563Y-10600650D02*
X10991611Y-10572079D01*
X10991611Y-10572079D02*
X11001134Y-10553031D01*
X11001134Y-10553031D02*
X11010658Y-10524460D01*
X11010658Y-10524460D02*
X11020182Y-10476841D01*
X11020182Y-10476841D02*
X11020182Y-10438746D01*
X11020182Y-10438746D02*
X11010658Y-10391127D01*
X11010658Y-10391127D02*
X11001134Y-10362555D01*
X11001134Y-10362555D02*
X10991611Y-10343508D01*
X10991611Y-10343508D02*
X10972563Y-10314936D01*
X10972563Y-10314936D02*
X10963039Y-10305412D01*
D13*
X5997500Y-10706500D02*
G75*
G03*
X5997500Y-10706500I-55000J0D01*
G01*
D11*
X6363039Y-10797984D02*
X6248753Y-10797984D01*
X6305896Y-10797984D02*
X6305896Y-10597984D01*
X6305896Y-10597984D02*
X6286848Y-10626555D01*
X6286848Y-10626555D02*
X6267801Y-10645603D01*
X6267801Y-10645603D02*
X6248753Y-10655127D01*
X6448753Y-10778936D02*
X6458277Y-10788460D01*
X6458277Y-10788460D02*
X6448753Y-10797984D01*
X6448753Y-10797984D02*
X6439229Y-10788460D01*
X6439229Y-10788460D02*
X6448753Y-10778936D01*
X6448753Y-10778936D02*
X6448753Y-10797984D01*
X6648753Y-10797984D02*
X6534467Y-10797984D01*
X6591610Y-10797984D02*
X6591610Y-10597984D01*
X6591610Y-10597984D02*
X6572562Y-10626555D01*
X6572562Y-10626555D02*
X6553515Y-10645603D01*
X6553515Y-10645603D02*
X6534467Y-10655127D01*
X6772562Y-10597984D02*
X6791610Y-10597984D01*
X6791610Y-10597984D02*
X6810658Y-10607508D01*
X6810658Y-10607508D02*
X6820182Y-10617031D01*
X6820182Y-10617031D02*
X6829705Y-10636079D01*
X6829705Y-10636079D02*
X6839229Y-10674174D01*
X6839229Y-10674174D02*
X6839229Y-10721793D01*
X6839229Y-10721793D02*
X6829705Y-10759889D01*
X6829705Y-10759889D02*
X6820182Y-10778936D01*
X6820182Y-10778936D02*
X6810658Y-10788460D01*
X6810658Y-10788460D02*
X6791610Y-10797984D01*
X6791610Y-10797984D02*
X6772562Y-10797984D01*
X6772562Y-10797984D02*
X6753515Y-10788460D01*
X6753515Y-10788460D02*
X6743991Y-10778936D01*
X6743991Y-10778936D02*
X6734467Y-10759889D01*
X6734467Y-10759889D02*
X6724943Y-10721793D01*
X6724943Y-10721793D02*
X6724943Y-10674174D01*
X6724943Y-10674174D02*
X6734467Y-10636079D01*
X6734467Y-10636079D02*
X6743991Y-10617031D01*
X6743991Y-10617031D02*
X6753515Y-10607508D01*
X6753515Y-10607508D02*
X6772562Y-10597984D01*
X6963039Y-10597984D02*
X6982086Y-10597984D01*
X6982086Y-10597984D02*
X7001134Y-10607508D01*
X7001134Y-10607508D02*
X7010658Y-10617031D01*
X7010658Y-10617031D02*
X7020182Y-10636079D01*
X7020182Y-10636079D02*
X7029705Y-10674174D01*
X7029705Y-10674174D02*
X7029705Y-10721793D01*
X7029705Y-10721793D02*
X7020182Y-10759889D01*
X7020182Y-10759889D02*
X7010658Y-10778936D01*
X7010658Y-10778936D02*
X7001134Y-10788460D01*
X7001134Y-10788460D02*
X6982086Y-10797984D01*
X6982086Y-10797984D02*
X6963039Y-10797984D01*
X6963039Y-10797984D02*
X6943991Y-10788460D01*
X6943991Y-10788460D02*
X6934467Y-10778936D01*
X6934467Y-10778936D02*
X6924943Y-10759889D01*
X6924943Y-10759889D02*
X6915420Y-10721793D01*
X6915420Y-10721793D02*
X6915420Y-10674174D01*
X6915420Y-10674174D02*
X6924943Y-10636079D01*
X6924943Y-10636079D02*
X6934467Y-10617031D01*
X6934467Y-10617031D02*
X6943991Y-10607508D01*
X6943991Y-10607508D02*
X6963039Y-10597984D01*
X7115420Y-10797984D02*
X7115420Y-10664650D01*
X7115420Y-10683698D02*
X7124943Y-10674174D01*
X7124943Y-10674174D02*
X7143991Y-10664650D01*
X7143991Y-10664650D02*
X7172563Y-10664650D01*
X7172563Y-10664650D02*
X7191610Y-10674174D01*
X7191610Y-10674174D02*
X7201134Y-10693222D01*
X7201134Y-10693222D02*
X7201134Y-10797984D01*
X7201134Y-10693222D02*
X7210658Y-10674174D01*
X7210658Y-10674174D02*
X7229705Y-10664650D01*
X7229705Y-10664650D02*
X7258277Y-10664650D01*
X7258277Y-10664650D02*
X7277324Y-10674174D01*
X7277324Y-10674174D02*
X7286848Y-10693222D01*
X7286848Y-10693222D02*
X7286848Y-10797984D01*
X7382086Y-10797984D02*
X7382086Y-10664650D01*
X7382086Y-10683698D02*
X7391610Y-10674174D01*
X7391610Y-10674174D02*
X7410658Y-10664650D01*
X7410658Y-10664650D02*
X7439229Y-10664650D01*
X7439229Y-10664650D02*
X7458277Y-10674174D01*
X7458277Y-10674174D02*
X7467801Y-10693222D01*
X7467801Y-10693222D02*
X7467801Y-10797984D01*
X7467801Y-10693222D02*
X7477324Y-10674174D01*
X7477324Y-10674174D02*
X7496372Y-10664650D01*
X7496372Y-10664650D02*
X7524943Y-10664650D01*
X7524943Y-10664650D02*
X7543991Y-10674174D01*
X7543991Y-10674174D02*
X7553515Y-10693222D01*
X7553515Y-10693222D02*
X7553515Y-10797984D01*
X7943991Y-10588460D02*
X7772563Y-10845603D01*
X8201134Y-10597984D02*
X8220182Y-10597984D01*
X8220182Y-10597984D02*
X8239229Y-10607508D01*
X8239229Y-10607508D02*
X8248753Y-10617031D01*
X8248753Y-10617031D02*
X8258277Y-10636079D01*
X8258277Y-10636079D02*
X8267801Y-10674174D01*
X8267801Y-10674174D02*
X8267801Y-10721793D01*
X8267801Y-10721793D02*
X8258277Y-10759889D01*
X8258277Y-10759889D02*
X8248753Y-10778936D01*
X8248753Y-10778936D02*
X8239229Y-10788460D01*
X8239229Y-10788460D02*
X8220182Y-10797984D01*
X8220182Y-10797984D02*
X8201134Y-10797984D01*
X8201134Y-10797984D02*
X8182086Y-10788460D01*
X8182086Y-10788460D02*
X8172563Y-10778936D01*
X8172563Y-10778936D02*
X8163039Y-10759889D01*
X8163039Y-10759889D02*
X8153515Y-10721793D01*
X8153515Y-10721793D02*
X8153515Y-10674174D01*
X8153515Y-10674174D02*
X8163039Y-10636079D01*
X8163039Y-10636079D02*
X8172563Y-10617031D01*
X8172563Y-10617031D02*
X8182086Y-10607508D01*
X8182086Y-10607508D02*
X8201134Y-10597984D01*
X8353515Y-10778936D02*
X8363039Y-10788460D01*
X8363039Y-10788460D02*
X8353515Y-10797984D01*
X8353515Y-10797984D02*
X8343991Y-10788460D01*
X8343991Y-10788460D02*
X8353515Y-10778936D01*
X8353515Y-10778936D02*
X8353515Y-10797984D01*
X8486848Y-10597984D02*
X8505896Y-10597984D01*
X8505896Y-10597984D02*
X8524944Y-10607508D01*
X8524944Y-10607508D02*
X8534468Y-10617031D01*
X8534468Y-10617031D02*
X8543991Y-10636079D01*
X8543991Y-10636079D02*
X8553515Y-10674174D01*
X8553515Y-10674174D02*
X8553515Y-10721793D01*
X8553515Y-10721793D02*
X8543991Y-10759889D01*
X8543991Y-10759889D02*
X8534468Y-10778936D01*
X8534468Y-10778936D02*
X8524944Y-10788460D01*
X8524944Y-10788460D02*
X8505896Y-10797984D01*
X8505896Y-10797984D02*
X8486848Y-10797984D01*
X8486848Y-10797984D02*
X8467801Y-10788460D01*
X8467801Y-10788460D02*
X8458277Y-10778936D01*
X8458277Y-10778936D02*
X8448753Y-10759889D01*
X8448753Y-10759889D02*
X8439229Y-10721793D01*
X8439229Y-10721793D02*
X8439229Y-10674174D01*
X8439229Y-10674174D02*
X8448753Y-10636079D01*
X8448753Y-10636079D02*
X8458277Y-10617031D01*
X8458277Y-10617031D02*
X8467801Y-10607508D01*
X8467801Y-10607508D02*
X8486848Y-10597984D01*
X8724944Y-10664650D02*
X8724944Y-10797984D01*
X8677325Y-10588460D02*
X8629706Y-10731317D01*
X8629706Y-10731317D02*
X8753515Y-10731317D01*
X8810658Y-10597984D02*
X8934468Y-10597984D01*
X8934468Y-10597984D02*
X8867801Y-10674174D01*
X8867801Y-10674174D02*
X8896372Y-10674174D01*
X8896372Y-10674174D02*
X8915420Y-10683698D01*
X8915420Y-10683698D02*
X8924944Y-10693222D01*
X8924944Y-10693222D02*
X8934468Y-10712270D01*
X8934468Y-10712270D02*
X8934468Y-10759889D01*
X8934468Y-10759889D02*
X8924944Y-10778936D01*
X8924944Y-10778936D02*
X8915420Y-10788460D01*
X8915420Y-10788460D02*
X8896372Y-10797984D01*
X8896372Y-10797984D02*
X8839229Y-10797984D01*
X8839229Y-10797984D02*
X8820182Y-10788460D01*
X8820182Y-10788460D02*
X8810658Y-10778936D01*
X9001134Y-10597984D02*
X9124944Y-10597984D01*
X9124944Y-10597984D02*
X9058277Y-10674174D01*
X9058277Y-10674174D02*
X9086849Y-10674174D01*
X9086849Y-10674174D02*
X9105896Y-10683698D01*
X9105896Y-10683698D02*
X9115420Y-10693222D01*
X9115420Y-10693222D02*
X9124944Y-10712270D01*
X9124944Y-10712270D02*
X9124944Y-10759889D01*
X9124944Y-10759889D02*
X9115420Y-10778936D01*
X9115420Y-10778936D02*
X9105896Y-10788460D01*
X9105896Y-10788460D02*
X9086849Y-10797984D01*
X9086849Y-10797984D02*
X9029706Y-10797984D01*
X9029706Y-10797984D02*
X9010658Y-10788460D01*
X9010658Y-10788460D02*
X9001134Y-10778936D01*
X9201134Y-10597984D02*
X9201134Y-10636079D01*
X9277325Y-10597984D02*
X9277325Y-10636079D01*
X9572563Y-10874174D02*
X9563039Y-10864650D01*
X9563039Y-10864650D02*
X9543991Y-10836079D01*
X9543991Y-10836079D02*
X9534468Y-10817031D01*
X9534468Y-10817031D02*
X9524944Y-10788460D01*
X9524944Y-10788460D02*
X9515420Y-10740841D01*
X9515420Y-10740841D02*
X9515420Y-10702746D01*
X9515420Y-10702746D02*
X9524944Y-10655127D01*
X9524944Y-10655127D02*
X9534468Y-10626555D01*
X9534468Y-10626555D02*
X9543991Y-10607508D01*
X9543991Y-10607508D02*
X9563039Y-10578936D01*
X9563039Y-10578936D02*
X9572563Y-10569412D01*
X9639230Y-10617031D02*
X9648753Y-10607508D01*
X9648753Y-10607508D02*
X9667801Y-10597984D01*
X9667801Y-10597984D02*
X9715420Y-10597984D01*
X9715420Y-10597984D02*
X9734468Y-10607508D01*
X9734468Y-10607508D02*
X9743991Y-10617031D01*
X9743991Y-10617031D02*
X9753515Y-10636079D01*
X9753515Y-10636079D02*
X9753515Y-10655127D01*
X9753515Y-10655127D02*
X9743991Y-10683698D01*
X9743991Y-10683698D02*
X9629706Y-10797984D01*
X9629706Y-10797984D02*
X9753515Y-10797984D01*
X9924944Y-10664650D02*
X9924944Y-10797984D01*
X9877325Y-10588460D02*
X9829706Y-10731317D01*
X9829706Y-10731317D02*
X9953515Y-10731317D01*
X10182087Y-10797984D02*
X10182087Y-10597984D01*
X10267801Y-10797984D02*
X10267801Y-10693222D01*
X10267801Y-10693222D02*
X10258277Y-10674174D01*
X10258277Y-10674174D02*
X10239230Y-10664650D01*
X10239230Y-10664650D02*
X10210658Y-10664650D01*
X10210658Y-10664650D02*
X10191611Y-10674174D01*
X10191611Y-10674174D02*
X10182087Y-10683698D01*
X10391611Y-10797984D02*
X10372563Y-10788460D01*
X10372563Y-10788460D02*
X10363039Y-10778936D01*
X10363039Y-10778936D02*
X10353515Y-10759889D01*
X10353515Y-10759889D02*
X10353515Y-10702746D01*
X10353515Y-10702746D02*
X10363039Y-10683698D01*
X10363039Y-10683698D02*
X10372563Y-10674174D01*
X10372563Y-10674174D02*
X10391611Y-10664650D01*
X10391611Y-10664650D02*
X10420182Y-10664650D01*
X10420182Y-10664650D02*
X10439230Y-10674174D01*
X10439230Y-10674174D02*
X10448753Y-10683698D01*
X10448753Y-10683698D02*
X10458277Y-10702746D01*
X10458277Y-10702746D02*
X10458277Y-10759889D01*
X10458277Y-10759889D02*
X10448753Y-10778936D01*
X10448753Y-10778936D02*
X10439230Y-10788460D01*
X10439230Y-10788460D02*
X10420182Y-10797984D01*
X10420182Y-10797984D02*
X10391611Y-10797984D01*
X10572563Y-10797984D02*
X10553515Y-10788460D01*
X10553515Y-10788460D02*
X10543992Y-10769412D01*
X10543992Y-10769412D02*
X10543992Y-10597984D01*
X10724944Y-10788460D02*
X10705896Y-10797984D01*
X10705896Y-10797984D02*
X10667801Y-10797984D01*
X10667801Y-10797984D02*
X10648753Y-10788460D01*
X10648753Y-10788460D02*
X10639230Y-10769412D01*
X10639230Y-10769412D02*
X10639230Y-10693222D01*
X10639230Y-10693222D02*
X10648753Y-10674174D01*
X10648753Y-10674174D02*
X10667801Y-10664650D01*
X10667801Y-10664650D02*
X10705896Y-10664650D01*
X10705896Y-10664650D02*
X10724944Y-10674174D01*
X10724944Y-10674174D02*
X10734468Y-10693222D01*
X10734468Y-10693222D02*
X10734468Y-10712270D01*
X10734468Y-10712270D02*
X10639230Y-10731317D01*
X10810658Y-10788460D02*
X10829706Y-10797984D01*
X10829706Y-10797984D02*
X10867801Y-10797984D01*
X10867801Y-10797984D02*
X10886849Y-10788460D01*
X10886849Y-10788460D02*
X10896373Y-10769412D01*
X10896373Y-10769412D02*
X10896373Y-10759889D01*
X10896373Y-10759889D02*
X10886849Y-10740841D01*
X10886849Y-10740841D02*
X10867801Y-10731317D01*
X10867801Y-10731317D02*
X10839230Y-10731317D01*
X10839230Y-10731317D02*
X10820182Y-10721793D01*
X10820182Y-10721793D02*
X10810658Y-10702746D01*
X10810658Y-10702746D02*
X10810658Y-10693222D01*
X10810658Y-10693222D02*
X10820182Y-10674174D01*
X10820182Y-10674174D02*
X10839230Y-10664650D01*
X10839230Y-10664650D02*
X10867801Y-10664650D01*
X10867801Y-10664650D02*
X10886849Y-10674174D01*
X11134468Y-10721793D02*
X11286849Y-10721793D01*
X11210658Y-10797984D02*
X11210658Y-10645603D01*
X11620182Y-10664650D02*
X11620182Y-10797984D01*
X11572563Y-10588460D02*
X11524944Y-10731317D01*
X11524944Y-10731317D02*
X11648753Y-10731317D01*
X11867801Y-10788460D02*
X11886849Y-10797984D01*
X11886849Y-10797984D02*
X11924944Y-10797984D01*
X11924944Y-10797984D02*
X11943992Y-10788460D01*
X11943992Y-10788460D02*
X11953515Y-10769412D01*
X11953515Y-10769412D02*
X11953515Y-10759889D01*
X11953515Y-10759889D02*
X11943992Y-10740841D01*
X11943992Y-10740841D02*
X11924944Y-10731317D01*
X11924944Y-10731317D02*
X11896373Y-10731317D01*
X11896373Y-10731317D02*
X11877325Y-10721793D01*
X11877325Y-10721793D02*
X11867801Y-10702746D01*
X11867801Y-10702746D02*
X11867801Y-10693222D01*
X11867801Y-10693222D02*
X11877325Y-10674174D01*
X11877325Y-10674174D02*
X11896373Y-10664650D01*
X11896373Y-10664650D02*
X11924944Y-10664650D01*
X11924944Y-10664650D02*
X11943992Y-10674174D01*
X12067801Y-10797984D02*
X12048754Y-10788460D01*
X12048754Y-10788460D02*
X12039230Y-10769412D01*
X12039230Y-10769412D02*
X12039230Y-10597984D01*
X12172563Y-10797984D02*
X12153515Y-10788460D01*
X12153515Y-10788460D02*
X12143992Y-10778936D01*
X12143992Y-10778936D02*
X12134468Y-10759889D01*
X12134468Y-10759889D02*
X12134468Y-10702746D01*
X12134468Y-10702746D02*
X12143992Y-10683698D01*
X12143992Y-10683698D02*
X12153515Y-10674174D01*
X12153515Y-10674174D02*
X12172563Y-10664650D01*
X12172563Y-10664650D02*
X12201135Y-10664650D01*
X12201135Y-10664650D02*
X12220182Y-10674174D01*
X12220182Y-10674174D02*
X12229706Y-10683698D01*
X12229706Y-10683698D02*
X12239230Y-10702746D01*
X12239230Y-10702746D02*
X12239230Y-10759889D01*
X12239230Y-10759889D02*
X12229706Y-10778936D01*
X12229706Y-10778936D02*
X12220182Y-10788460D01*
X12220182Y-10788460D02*
X12201135Y-10797984D01*
X12201135Y-10797984D02*
X12172563Y-10797984D01*
X12296373Y-10664650D02*
X12372563Y-10664650D01*
X12324944Y-10597984D02*
X12324944Y-10769412D01*
X12324944Y-10769412D02*
X12334468Y-10788460D01*
X12334468Y-10788460D02*
X12353515Y-10797984D01*
X12353515Y-10797984D02*
X12372563Y-10797984D01*
X12429706Y-10788460D02*
X12448754Y-10797984D01*
X12448754Y-10797984D02*
X12486849Y-10797984D01*
X12486849Y-10797984D02*
X12505896Y-10788460D01*
X12505896Y-10788460D02*
X12515420Y-10769412D01*
X12515420Y-10769412D02*
X12515420Y-10759889D01*
X12515420Y-10759889D02*
X12505896Y-10740841D01*
X12505896Y-10740841D02*
X12486849Y-10731317D01*
X12486849Y-10731317D02*
X12458277Y-10731317D01*
X12458277Y-10731317D02*
X12439230Y-10721793D01*
X12439230Y-10721793D02*
X12429706Y-10702746D01*
X12429706Y-10702746D02*
X12429706Y-10693222D01*
X12429706Y-10693222D02*
X12439230Y-10674174D01*
X12439230Y-10674174D02*
X12458277Y-10664650D01*
X12458277Y-10664650D02*
X12486849Y-10664650D01*
X12486849Y-10664650D02*
X12505896Y-10674174D01*
X12582087Y-10874174D02*
X12591611Y-10864650D01*
X12591611Y-10864650D02*
X12610658Y-10836079D01*
X12610658Y-10836079D02*
X12620182Y-10817031D01*
X12620182Y-10817031D02*
X12629706Y-10788460D01*
X12629706Y-10788460D02*
X12639230Y-10740841D01*
X12639230Y-10740841D02*
X12639230Y-10702746D01*
X12639230Y-10702746D02*
X12629706Y-10655127D01*
X12629706Y-10655127D02*
X12620182Y-10626555D01*
X12620182Y-10626555D02*
X12610658Y-10607508D01*
X12610658Y-10607508D02*
X12591611Y-10578936D01*
X12591611Y-10578936D02*
X12582087Y-10569412D01*
M02*
