G04 #@! TF.GenerationSoftware,KiCad,Pcbnew,7.0.9*
G04 #@! TF.CreationDate,2024-01-02T17:05:22-06:00*
G04 #@! TF.ProjectId,basic_expander_v2.1,62617369-635f-4657-9870-616e6465725f,rev?*
G04 #@! TF.SameCoordinates,Original*
G04 #@! TF.FileFunction,Copper,L1,Top*
G04 #@! TF.FilePolarity,Positive*
%FSLAX46Y46*%
G04 Gerber Fmt 4.6, Leading zero omitted, Abs format (unit mm)*
G04 Created by KiCad (PCBNEW 7.0.9) date 2024-01-02 17:05:22*
%MOMM*%
%LPD*%
G01*
G04 APERTURE LIST*
G04 #@! TA.AperFunction,ComponentPad*
%ADD10O,3.580000X2.720000*%
G04 #@! TD*
G04 #@! TA.AperFunction,ComponentPad*
%ADD11O,3.580000X2.696000*%
G04 #@! TD*
G04 #@! TA.AperFunction,ComponentPad*
%ADD12R,1.800000X1.800000*%
G04 #@! TD*
G04 #@! TA.AperFunction,ComponentPad*
%ADD13C,1.800000*%
G04 #@! TD*
G04 #@! TA.AperFunction,ComponentPad*
%ADD14C,2.000000*%
G04 #@! TD*
G04 #@! TA.AperFunction,ComponentPad*
%ADD15R,1.700000X1.700000*%
G04 #@! TD*
G04 #@! TA.AperFunction,ComponentPad*
%ADD16O,1.700000X1.700000*%
G04 #@! TD*
G04 #@! TA.AperFunction,Conductor*
%ADD17C,0.200000*%
G04 #@! TD*
G04 APERTURE END LIST*
D10*
X90200000Y-69400000D03*
D11*
X90212000Y-78988000D03*
D12*
X82700000Y-71700000D03*
D13*
X82700000Y-74200000D03*
X82700000Y-76700000D03*
D10*
X90200000Y-52700000D03*
D11*
X90212000Y-62288000D03*
D12*
X82700000Y-55000000D03*
D13*
X82700000Y-57500000D03*
X82700000Y-60000000D03*
D14*
X69250000Y-54351222D03*
X75750000Y-54351222D03*
X69250000Y-58851222D03*
X75750000Y-58851222D03*
X69273315Y-88156111D03*
X75773315Y-88156111D03*
X69273315Y-92656111D03*
X75773315Y-92656111D03*
D15*
X99500000Y-53170000D03*
D16*
X99500000Y-55710000D03*
X99500000Y-58250000D03*
X99500000Y-60790000D03*
X99500000Y-63330000D03*
X99500000Y-65870000D03*
X99500000Y-68410000D03*
X99500000Y-70950000D03*
X99500000Y-73490000D03*
X99500000Y-76030000D03*
X99500000Y-78570000D03*
X99500000Y-81110000D03*
D14*
X69250000Y-45900000D03*
X75750000Y-45900000D03*
X69250000Y-50400000D03*
X75750000Y-50400000D03*
X69273315Y-79704888D03*
X75773315Y-79704888D03*
X69273315Y-84204888D03*
X75773315Y-84204888D03*
X69250000Y-62802444D03*
X75750000Y-62802444D03*
X69250000Y-67302444D03*
X75750000Y-67302444D03*
X69250000Y-71253666D03*
X75750000Y-71253666D03*
X69250000Y-75753666D03*
X75750000Y-75753666D03*
D17*
X93670000Y-57500000D02*
X99500000Y-63330000D01*
X82700000Y-57500000D02*
X93670000Y-57500000D01*
X82700000Y-74200000D02*
X91170000Y-74200000D01*
X91170000Y-74200000D02*
X99500000Y-65870000D01*
X100650000Y-71534314D02*
X100650000Y-69560000D01*
X102250000Y-77082942D02*
X101450000Y-76282942D01*
X101450000Y-76282942D02*
X101450000Y-72334314D01*
X69273315Y-88156111D02*
X75773315Y-88156111D01*
X101450000Y-72334314D02*
X100650000Y-71534314D01*
X75773315Y-88156111D02*
X96342975Y-88156111D01*
X102250000Y-82249086D02*
X102250000Y-77082942D01*
X100650000Y-69560000D02*
X99500000Y-68410000D01*
X96342975Y-88156111D02*
X102250000Y-82249086D01*
X96177290Y-87756111D02*
X101850000Y-82083401D01*
X101850000Y-82083401D02*
X101850000Y-77248628D01*
X77850000Y-87350000D02*
X78256111Y-87756111D01*
X101050000Y-72500000D02*
X99500000Y-70950000D01*
X101850000Y-77248628D02*
X101050000Y-76448628D01*
X78256111Y-87756111D02*
X96177290Y-87756111D01*
X69273315Y-79704888D02*
X75773315Y-79704888D01*
X101050000Y-76448628D02*
X101050000Y-72500000D01*
X77850000Y-81781573D02*
X77850000Y-87350000D01*
X75773315Y-79704888D02*
X77850000Y-81781573D01*
X101450000Y-77414314D02*
X100650000Y-76614314D01*
X96011605Y-87356111D02*
X101450000Y-81917716D01*
X101450000Y-81917716D02*
X101450000Y-77414314D01*
X100650000Y-76614314D02*
X100650000Y-74640000D01*
X78250000Y-73753666D02*
X78250000Y-87000000D01*
X78250000Y-87000000D02*
X78606111Y-87356111D01*
X75750000Y-71253666D02*
X78250000Y-73753666D01*
X78606111Y-87356111D02*
X96011605Y-87356111D01*
X69250000Y-71253666D02*
X75750000Y-71253666D01*
X100650000Y-74640000D02*
X99500000Y-73490000D01*
X101050000Y-77580000D02*
X99500000Y-76030000D01*
X78650000Y-65702444D02*
X78650000Y-86834314D01*
X78771797Y-86956111D02*
X95845920Y-86956111D01*
X95845920Y-86956111D02*
X101050000Y-81752031D01*
X101050000Y-81752031D02*
X101050000Y-77580000D01*
X69250000Y-62802444D02*
X75750000Y-62802444D01*
X75750000Y-62802444D02*
X78650000Y-65702444D01*
X78650000Y-86834314D02*
X78771797Y-86956111D01*
X76000000Y-54250000D02*
X79050000Y-57300000D01*
X79050000Y-86556111D02*
X95680235Y-86556111D01*
X69250000Y-54351222D02*
X75750000Y-54351222D01*
X95680235Y-86556111D02*
X100650000Y-81586346D01*
X75898778Y-54351222D02*
X76000000Y-54250000D01*
X100650000Y-81586346D02*
X100650000Y-79720000D01*
X75750000Y-54351222D02*
X75898778Y-54351222D01*
X100650000Y-79720000D02*
X99500000Y-78570000D01*
X79050000Y-57300000D02*
X79050000Y-86556111D01*
X95514549Y-86156111D02*
X99500000Y-82170660D01*
X75750000Y-45900000D02*
X79450000Y-49600000D01*
X99500000Y-82170660D02*
X99500000Y-81110000D01*
X79450000Y-49600000D02*
X79450000Y-86156111D01*
X69250000Y-45900000D02*
X75750000Y-45900000D01*
X79450000Y-86156111D02*
X95514549Y-86156111D01*
G04 #@! TA.AperFunction,Conductor*
G36*
X104003458Y-40500889D02*
G01*
X104097266Y-40511459D01*
X104124331Y-40517636D01*
X104203540Y-40545352D01*
X104228553Y-40557398D01*
X104299606Y-40602043D01*
X104321313Y-40619355D01*
X104380644Y-40678686D01*
X104397957Y-40700395D01*
X104442600Y-40771444D01*
X104454648Y-40796462D01*
X104482362Y-40875666D01*
X104488540Y-40902735D01*
X104493133Y-40943501D01*
X104499110Y-40996535D01*
X104499500Y-41003482D01*
X104499500Y-95997786D01*
X104499342Y-96002210D01*
X104484869Y-96204557D01*
X104482351Y-96222068D01*
X104440646Y-96413787D01*
X104435662Y-96430763D01*
X104367090Y-96614609D01*
X104359740Y-96630701D01*
X104265711Y-96802904D01*
X104256146Y-96817789D01*
X104138558Y-96974867D01*
X104126972Y-96988237D01*
X103988237Y-97126972D01*
X103974867Y-97138558D01*
X103817789Y-97256146D01*
X103802904Y-97265711D01*
X103630701Y-97359740D01*
X103614609Y-97367090D01*
X103430763Y-97435662D01*
X103413787Y-97440646D01*
X103222068Y-97482351D01*
X103204557Y-97484869D01*
X103023733Y-97497802D01*
X103002208Y-97499342D01*
X102997786Y-97499500D01*
X62002214Y-97499500D01*
X61997791Y-97499342D01*
X61973413Y-97497598D01*
X61795442Y-97484869D01*
X61777931Y-97482351D01*
X61586212Y-97440646D01*
X61569236Y-97435662D01*
X61385390Y-97367090D01*
X61369298Y-97359740D01*
X61197095Y-97265711D01*
X61182210Y-97256146D01*
X61025132Y-97138558D01*
X61011762Y-97126972D01*
X60873027Y-96988237D01*
X60861441Y-96974867D01*
X60743849Y-96817784D01*
X60734288Y-96802904D01*
X60640259Y-96630701D01*
X60632909Y-96614609D01*
X60572091Y-96451551D01*
X60564334Y-96430755D01*
X60559355Y-96413797D01*
X60517647Y-96222063D01*
X60515130Y-96204556D01*
X60500658Y-96002210D01*
X60500500Y-95997786D01*
X60500500Y-94500000D01*
X62144341Y-94500000D01*
X62164936Y-94735403D01*
X62164938Y-94735413D01*
X62226094Y-94963655D01*
X62226096Y-94963659D01*
X62226097Y-94963663D01*
X62276031Y-95070746D01*
X62325964Y-95177828D01*
X62325965Y-95177830D01*
X62461505Y-95371402D01*
X62628597Y-95538494D01*
X62822169Y-95674034D01*
X62822171Y-95674035D01*
X63036337Y-95773903D01*
X63264592Y-95835063D01*
X63441034Y-95850500D01*
X63558966Y-95850500D01*
X63735408Y-95835063D01*
X63963663Y-95773903D01*
X64177829Y-95674035D01*
X64371401Y-95538495D01*
X64538495Y-95371401D01*
X64674035Y-95177830D01*
X64773903Y-94963663D01*
X64835063Y-94735408D01*
X64855659Y-94500000D01*
X100144341Y-94500000D01*
X100164936Y-94735403D01*
X100164938Y-94735413D01*
X100226094Y-94963655D01*
X100226096Y-94963659D01*
X100226097Y-94963663D01*
X100276031Y-95070746D01*
X100325964Y-95177828D01*
X100325965Y-95177830D01*
X100461505Y-95371402D01*
X100628597Y-95538494D01*
X100822169Y-95674034D01*
X100822171Y-95674035D01*
X101036337Y-95773903D01*
X101264592Y-95835063D01*
X101441034Y-95850500D01*
X101558966Y-95850500D01*
X101735408Y-95835063D01*
X101963663Y-95773903D01*
X102177829Y-95674035D01*
X102371401Y-95538495D01*
X102538495Y-95371401D01*
X102674035Y-95177830D01*
X102773903Y-94963663D01*
X102835063Y-94735408D01*
X102855659Y-94500000D01*
X102835063Y-94264592D01*
X102773903Y-94036337D01*
X102674035Y-93822171D01*
X102674034Y-93822169D01*
X102538494Y-93628597D01*
X102371402Y-93461505D01*
X102177830Y-93325965D01*
X102177828Y-93325964D01*
X102070746Y-93276031D01*
X101963663Y-93226097D01*
X101963659Y-93226096D01*
X101963655Y-93226094D01*
X101735413Y-93164938D01*
X101735403Y-93164936D01*
X101558966Y-93149500D01*
X101441034Y-93149500D01*
X101264596Y-93164936D01*
X101264586Y-93164938D01*
X101036344Y-93226094D01*
X101036335Y-93226098D01*
X100822171Y-93325964D01*
X100822169Y-93325965D01*
X100628597Y-93461505D01*
X100461506Y-93628597D01*
X100461501Y-93628604D01*
X100325967Y-93822165D01*
X100325965Y-93822169D01*
X100226098Y-94036335D01*
X100226094Y-94036344D01*
X100164938Y-94264586D01*
X100164936Y-94264596D01*
X100144341Y-94499999D01*
X100144341Y-94500000D01*
X64855659Y-94500000D01*
X64835063Y-94264592D01*
X64773903Y-94036337D01*
X64674035Y-93822171D01*
X64674034Y-93822169D01*
X64538494Y-93628597D01*
X64371402Y-93461505D01*
X64177830Y-93325965D01*
X64177828Y-93325964D01*
X64070746Y-93276031D01*
X63963663Y-93226097D01*
X63963659Y-93226096D01*
X63963655Y-93226094D01*
X63735413Y-93164938D01*
X63735403Y-93164936D01*
X63558966Y-93149500D01*
X63441034Y-93149500D01*
X63264596Y-93164936D01*
X63264586Y-93164938D01*
X63036344Y-93226094D01*
X63036335Y-93226098D01*
X62822171Y-93325964D01*
X62822169Y-93325965D01*
X62628597Y-93461505D01*
X62461506Y-93628597D01*
X62461501Y-93628604D01*
X62325967Y-93822165D01*
X62325965Y-93822169D01*
X62226098Y-94036335D01*
X62226094Y-94036344D01*
X62164938Y-94264586D01*
X62164936Y-94264596D01*
X62144341Y-94499999D01*
X62144341Y-94500000D01*
X60500500Y-94500000D01*
X60500500Y-92656116D01*
X67767672Y-92656116D01*
X67788205Y-92903923D01*
X67788207Y-92903935D01*
X67849251Y-93144992D01*
X67949141Y-93372717D01*
X68085148Y-93580893D01*
X68085151Y-93580896D01*
X68253571Y-93763849D01*
X68449806Y-93916585D01*
X68668505Y-94034939D01*
X68903701Y-94115682D01*
X69148980Y-94156611D01*
X69397650Y-94156611D01*
X69642929Y-94115682D01*
X69878125Y-94034939D01*
X70096824Y-93916585D01*
X70293059Y-93763849D01*
X70461479Y-93580896D01*
X70597488Y-93372718D01*
X70697378Y-93144992D01*
X70758423Y-92903932D01*
X70778958Y-92656116D01*
X74267672Y-92656116D01*
X74288205Y-92903923D01*
X74288207Y-92903935D01*
X74349251Y-93144992D01*
X74449141Y-93372717D01*
X74585148Y-93580893D01*
X74585151Y-93580896D01*
X74753571Y-93763849D01*
X74949806Y-93916585D01*
X75168505Y-94034939D01*
X75403701Y-94115682D01*
X75648980Y-94156611D01*
X75897650Y-94156611D01*
X76142929Y-94115682D01*
X76378125Y-94034939D01*
X76596824Y-93916585D01*
X76793059Y-93763849D01*
X76961479Y-93580896D01*
X77097488Y-93372718D01*
X77197378Y-93144992D01*
X77258423Y-92903932D01*
X77278958Y-92656111D01*
X77258423Y-92408290D01*
X77197378Y-92167230D01*
X77097488Y-91939504D01*
X76961481Y-91731328D01*
X76939872Y-91707855D01*
X76793059Y-91548373D01*
X76596824Y-91395637D01*
X76596822Y-91395636D01*
X76596821Y-91395635D01*
X76378126Y-91277283D01*
X76378117Y-91277280D01*
X76142931Y-91196540D01*
X75897650Y-91155611D01*
X75648980Y-91155611D01*
X75403698Y-91196540D01*
X75168512Y-91277280D01*
X75168503Y-91277283D01*
X74949808Y-91395635D01*
X74753572Y-91548372D01*
X74585148Y-91731328D01*
X74449141Y-91939504D01*
X74349251Y-92167229D01*
X74288207Y-92408286D01*
X74288205Y-92408298D01*
X74267672Y-92656105D01*
X74267672Y-92656116D01*
X70778958Y-92656116D01*
X70778958Y-92656111D01*
X70758423Y-92408290D01*
X70697378Y-92167230D01*
X70597488Y-91939504D01*
X70461481Y-91731328D01*
X70439872Y-91707855D01*
X70293059Y-91548373D01*
X70096824Y-91395637D01*
X70096822Y-91395636D01*
X70096821Y-91395635D01*
X69878126Y-91277283D01*
X69878117Y-91277280D01*
X69642931Y-91196540D01*
X69397650Y-91155611D01*
X69148980Y-91155611D01*
X68903698Y-91196540D01*
X68668512Y-91277280D01*
X68668503Y-91277283D01*
X68449808Y-91395635D01*
X68253572Y-91548372D01*
X68085148Y-91731328D01*
X67949141Y-91939504D01*
X67849251Y-92167229D01*
X67788207Y-92408286D01*
X67788205Y-92408298D01*
X67767672Y-92656105D01*
X67767672Y-92656116D01*
X60500500Y-92656116D01*
X60500500Y-84204893D01*
X67767672Y-84204893D01*
X67788205Y-84452700D01*
X67788207Y-84452712D01*
X67849251Y-84693769D01*
X67949141Y-84921494D01*
X68085148Y-85129670D01*
X68085151Y-85129673D01*
X68253571Y-85312626D01*
X68449806Y-85465362D01*
X68449808Y-85465363D01*
X68616571Y-85555611D01*
X68668505Y-85583716D01*
X68903701Y-85664459D01*
X69148980Y-85705388D01*
X69397650Y-85705388D01*
X69642929Y-85664459D01*
X69878125Y-85583716D01*
X70096824Y-85465362D01*
X70293059Y-85312626D01*
X70461479Y-85129673D01*
X70597488Y-84921495D01*
X70697378Y-84693769D01*
X70758423Y-84452709D01*
X70778958Y-84204888D01*
X70758423Y-83957067D01*
X70697378Y-83716007D01*
X70597488Y-83488281D01*
X70521180Y-83371482D01*
X70461481Y-83280105D01*
X70439872Y-83256632D01*
X70293059Y-83097150D01*
X70096824Y-82944414D01*
X70096822Y-82944413D01*
X70096821Y-82944412D01*
X69878126Y-82826060D01*
X69878117Y-82826057D01*
X69642931Y-82745317D01*
X69397650Y-82704388D01*
X69148980Y-82704388D01*
X68903698Y-82745317D01*
X68668512Y-82826057D01*
X68668503Y-82826060D01*
X68449808Y-82944412D01*
X68253572Y-83097149D01*
X68085148Y-83280105D01*
X67949141Y-83488281D01*
X67849251Y-83716006D01*
X67788207Y-83957063D01*
X67788205Y-83957075D01*
X67767672Y-84204882D01*
X67767672Y-84204893D01*
X60500500Y-84204893D01*
X60500500Y-75753671D01*
X67744357Y-75753671D01*
X67764890Y-76001478D01*
X67764892Y-76001490D01*
X67825936Y-76242547D01*
X67925826Y-76470272D01*
X68061833Y-76678448D01*
X68061836Y-76678451D01*
X68230256Y-76861404D01*
X68426491Y-77014140D01*
X68426493Y-77014141D01*
X68631253Y-77124952D01*
X68645190Y-77132494D01*
X68837240Y-77198425D01*
X68880100Y-77213139D01*
X68880386Y-77213237D01*
X69125665Y-77254166D01*
X69374335Y-77254166D01*
X69619614Y-77213237D01*
X69854810Y-77132494D01*
X70073509Y-77014140D01*
X70269744Y-76861404D01*
X70438164Y-76678451D01*
X70574173Y-76470273D01*
X70674063Y-76242547D01*
X70735108Y-76001487D01*
X70736653Y-75982845D01*
X70755643Y-75753671D01*
X74244357Y-75753671D01*
X74264890Y-76001478D01*
X74264892Y-76001490D01*
X74325936Y-76242547D01*
X74425826Y-76470272D01*
X74561833Y-76678448D01*
X74561836Y-76678451D01*
X74730256Y-76861404D01*
X74926491Y-77014140D01*
X74926493Y-77014141D01*
X75131253Y-77124952D01*
X75145190Y-77132494D01*
X75337240Y-77198425D01*
X75380100Y-77213139D01*
X75380386Y-77213237D01*
X75625665Y-77254166D01*
X75874335Y-77254166D01*
X76119614Y-77213237D01*
X76354810Y-77132494D01*
X76573509Y-77014140D01*
X76769744Y-76861404D01*
X76938164Y-76678451D01*
X77074173Y-76470273D01*
X77174063Y-76242547D01*
X77235108Y-76001487D01*
X77236653Y-75982845D01*
X77255643Y-75753671D01*
X77255643Y-75753660D01*
X77235109Y-75505853D01*
X77235107Y-75505841D01*
X77174063Y-75264784D01*
X77074173Y-75037059D01*
X76938166Y-74828883D01*
X76895467Y-74782500D01*
X76769744Y-74645928D01*
X76573509Y-74493192D01*
X76573507Y-74493191D01*
X76573506Y-74493190D01*
X76354811Y-74374838D01*
X76354802Y-74374835D01*
X76119616Y-74294095D01*
X75874335Y-74253166D01*
X75625665Y-74253166D01*
X75380383Y-74294095D01*
X75145197Y-74374835D01*
X75145188Y-74374838D01*
X74926493Y-74493190D01*
X74730257Y-74645927D01*
X74561833Y-74828883D01*
X74425826Y-75037059D01*
X74325936Y-75264784D01*
X74264892Y-75505841D01*
X74264890Y-75505853D01*
X74244357Y-75753660D01*
X74244357Y-75753671D01*
X70755643Y-75753671D01*
X70755643Y-75753660D01*
X70735109Y-75505853D01*
X70735107Y-75505841D01*
X70674063Y-75264784D01*
X70574173Y-75037059D01*
X70438166Y-74828883D01*
X70395467Y-74782500D01*
X70269744Y-74645928D01*
X70073509Y-74493192D01*
X70073507Y-74493191D01*
X70073506Y-74493190D01*
X69854811Y-74374838D01*
X69854802Y-74374835D01*
X69619616Y-74294095D01*
X69374335Y-74253166D01*
X69125665Y-74253166D01*
X68880383Y-74294095D01*
X68645197Y-74374835D01*
X68645188Y-74374838D01*
X68426493Y-74493190D01*
X68230257Y-74645927D01*
X68061833Y-74828883D01*
X67925826Y-75037059D01*
X67825936Y-75264784D01*
X67764892Y-75505841D01*
X67764890Y-75505853D01*
X67744357Y-75753660D01*
X67744357Y-75753671D01*
X60500500Y-75753671D01*
X60500500Y-71253671D01*
X67744357Y-71253671D01*
X67764890Y-71501478D01*
X67764892Y-71501490D01*
X67825936Y-71742547D01*
X67925826Y-71970272D01*
X68061833Y-72178448D01*
X68061836Y-72178451D01*
X68230256Y-72361404D01*
X68426491Y-72514140D01*
X68535840Y-72573317D01*
X68619510Y-72618597D01*
X68645190Y-72632494D01*
X68880386Y-72713237D01*
X69125665Y-72754166D01*
X69374335Y-72754166D01*
X69619614Y-72713237D01*
X69854810Y-72632494D01*
X70073509Y-72514140D01*
X70269744Y-72361404D01*
X70438164Y-72178451D01*
X70574173Y-71970273D01*
X70592560Y-71928355D01*
X70637517Y-71874870D01*
X70704253Y-71854180D01*
X70706116Y-71854166D01*
X74293884Y-71854166D01*
X74360923Y-71873851D01*
X74406678Y-71926655D01*
X74407440Y-71928355D01*
X74425827Y-71970274D01*
X74561833Y-72178448D01*
X74561836Y-72178451D01*
X74730256Y-72361404D01*
X74926491Y-72514140D01*
X75035840Y-72573317D01*
X75119510Y-72618597D01*
X75145190Y-72632494D01*
X75380386Y-72713237D01*
X75625665Y-72754166D01*
X75874335Y-72754166D01*
X76119608Y-72713238D01*
X76119607Y-72713238D01*
X76119614Y-72713237D01*
X76225607Y-72676848D01*
X76295402Y-72673699D01*
X76353548Y-72706449D01*
X77613181Y-73966082D01*
X77646666Y-74027405D01*
X77649500Y-74053763D01*
X77649500Y-80432476D01*
X77629815Y-80499515D01*
X77577011Y-80545270D01*
X77507853Y-80555214D01*
X77444297Y-80526189D01*
X77437819Y-80520157D01*
X77229831Y-80312169D01*
X77196346Y-80250846D01*
X77197307Y-80194047D01*
X77197376Y-80193772D01*
X77197378Y-80193769D01*
X77258423Y-79952709D01*
X77259346Y-79941575D01*
X77278958Y-79704893D01*
X77278958Y-79704882D01*
X77258424Y-79457075D01*
X77258422Y-79457063D01*
X77197378Y-79216006D01*
X77097488Y-78988281D01*
X76961481Y-78780105D01*
X76939872Y-78756632D01*
X76793059Y-78597150D01*
X76596824Y-78444414D01*
X76596822Y-78444413D01*
X76596821Y-78444412D01*
X76378126Y-78326060D01*
X76378117Y-78326057D01*
X76142931Y-78245317D01*
X75897650Y-78204388D01*
X75648980Y-78204388D01*
X75403698Y-78245317D01*
X75168512Y-78326057D01*
X75168503Y-78326060D01*
X74949808Y-78444412D01*
X74753572Y-78597149D01*
X74585148Y-78780105D01*
X74449142Y-78988279D01*
X74430755Y-79030199D01*
X74385798Y-79083684D01*
X74319062Y-79104374D01*
X74317199Y-79104388D01*
X70729431Y-79104388D01*
X70662392Y-79084703D01*
X70616637Y-79031899D01*
X70615875Y-79030199D01*
X70597487Y-78988279D01*
X70461481Y-78780105D01*
X70439872Y-78756632D01*
X70293059Y-78597150D01*
X70096824Y-78444414D01*
X70096822Y-78444413D01*
X70096821Y-78444412D01*
X69878126Y-78326060D01*
X69878117Y-78326057D01*
X69642931Y-78245317D01*
X69397650Y-78204388D01*
X69148980Y-78204388D01*
X68903698Y-78245317D01*
X68668512Y-78326057D01*
X68668503Y-78326060D01*
X68449808Y-78444412D01*
X68253572Y-78597149D01*
X68085148Y-78780105D01*
X67949141Y-78988281D01*
X67849251Y-79216006D01*
X67788207Y-79457063D01*
X67788205Y-79457075D01*
X67767672Y-79704882D01*
X67767672Y-79704893D01*
X67788205Y-79952700D01*
X67788207Y-79952712D01*
X67849251Y-80193769D01*
X67949141Y-80421494D01*
X68085148Y-80629670D01*
X68085151Y-80629673D01*
X68253571Y-80812626D01*
X68449806Y-80965362D01*
X68668505Y-81083716D01*
X68903701Y-81164459D01*
X69148980Y-81205388D01*
X69397650Y-81205388D01*
X69642929Y-81164459D01*
X69878125Y-81083716D01*
X70096824Y-80965362D01*
X70293059Y-80812626D01*
X70461479Y-80629673D01*
X70597488Y-80421495D01*
X70615875Y-80379577D01*
X70660832Y-80326092D01*
X70727568Y-80305402D01*
X70729431Y-80305388D01*
X74317199Y-80305388D01*
X74384238Y-80325073D01*
X74429993Y-80377877D01*
X74430755Y-80379577D01*
X74449142Y-80421496D01*
X74585148Y-80629670D01*
X74585151Y-80629673D01*
X74753571Y-80812626D01*
X74949806Y-80965362D01*
X75168505Y-81083716D01*
X75403701Y-81164459D01*
X75648980Y-81205388D01*
X75897650Y-81205388D01*
X76142923Y-81164460D01*
X76142922Y-81164460D01*
X76142929Y-81164459D01*
X76248922Y-81128070D01*
X76318717Y-81124921D01*
X76376863Y-81157671D01*
X77213181Y-81993989D01*
X77246666Y-82055312D01*
X77249500Y-82081670D01*
X77249500Y-83304443D01*
X77229815Y-83371482D01*
X77177011Y-83417237D01*
X77107853Y-83427181D01*
X77044297Y-83398156D01*
X77021691Y-83372264D01*
X76961481Y-83280105D01*
X76939872Y-83256632D01*
X76793059Y-83097150D01*
X76596824Y-82944414D01*
X76596822Y-82944413D01*
X76596821Y-82944412D01*
X76378126Y-82826060D01*
X76378117Y-82826057D01*
X76142931Y-82745317D01*
X75897650Y-82704388D01*
X75648980Y-82704388D01*
X75403698Y-82745317D01*
X75168512Y-82826057D01*
X75168503Y-82826060D01*
X74949808Y-82944412D01*
X74753572Y-83097149D01*
X74585148Y-83280105D01*
X74449141Y-83488281D01*
X74349251Y-83716006D01*
X74288207Y-83957063D01*
X74288205Y-83957075D01*
X74267672Y-84204882D01*
X74267672Y-84204893D01*
X74288205Y-84452700D01*
X74288207Y-84452712D01*
X74349251Y-84693769D01*
X74449141Y-84921494D01*
X74585148Y-85129670D01*
X74585151Y-85129673D01*
X74753571Y-85312626D01*
X74949806Y-85465362D01*
X74949808Y-85465363D01*
X75116571Y-85555611D01*
X75168505Y-85583716D01*
X75403701Y-85664459D01*
X75648980Y-85705388D01*
X75897650Y-85705388D01*
X76142929Y-85664459D01*
X76378125Y-85583716D01*
X76596824Y-85465362D01*
X76793059Y-85312626D01*
X76961479Y-85129673D01*
X77021691Y-85037510D01*
X77074837Y-84992154D01*
X77144068Y-84982730D01*
X77207404Y-85012231D01*
X77244736Y-85071292D01*
X77249500Y-85105332D01*
X77249500Y-87255666D01*
X77229815Y-87322705D01*
X77177011Y-87368460D01*
X77107853Y-87378404D01*
X77044297Y-87349379D01*
X77021691Y-87323487D01*
X76961481Y-87231328D01*
X76939872Y-87207855D01*
X76793059Y-87048373D01*
X76596824Y-86895637D01*
X76596822Y-86895636D01*
X76596821Y-86895635D01*
X76378126Y-86777283D01*
X76378117Y-86777280D01*
X76142931Y-86696540D01*
X75897650Y-86655611D01*
X75648980Y-86655611D01*
X75403698Y-86696540D01*
X75168512Y-86777280D01*
X75168503Y-86777283D01*
X74949808Y-86895635D01*
X74753572Y-87048372D01*
X74585148Y-87231328D01*
X74449142Y-87439502D01*
X74430755Y-87481422D01*
X74385798Y-87534907D01*
X74319062Y-87555597D01*
X74317199Y-87555611D01*
X70729431Y-87555611D01*
X70662392Y-87535926D01*
X70616637Y-87483122D01*
X70615875Y-87481422D01*
X70597487Y-87439502D01*
X70461481Y-87231328D01*
X70439872Y-87207855D01*
X70293059Y-87048373D01*
X70096824Y-86895637D01*
X70096822Y-86895636D01*
X70096821Y-86895635D01*
X69878126Y-86777283D01*
X69878117Y-86777280D01*
X69642931Y-86696540D01*
X69397650Y-86655611D01*
X69148980Y-86655611D01*
X68903698Y-86696540D01*
X68668512Y-86777280D01*
X68668503Y-86777283D01*
X68449808Y-86895635D01*
X68253572Y-87048372D01*
X68085148Y-87231328D01*
X67949141Y-87439504D01*
X67849251Y-87667229D01*
X67788207Y-87908286D01*
X67788205Y-87908298D01*
X67767672Y-88156105D01*
X67767672Y-88156116D01*
X67788205Y-88403923D01*
X67788207Y-88403935D01*
X67849251Y-88644992D01*
X67949141Y-88872717D01*
X68085148Y-89080893D01*
X68085151Y-89080896D01*
X68253571Y-89263849D01*
X68449806Y-89416585D01*
X68668505Y-89534939D01*
X68903701Y-89615682D01*
X69148980Y-89656611D01*
X69397650Y-89656611D01*
X69642929Y-89615682D01*
X69878125Y-89534939D01*
X70096824Y-89416585D01*
X70293059Y-89263849D01*
X70461479Y-89080896D01*
X70597488Y-88872718D01*
X70615875Y-88830800D01*
X70660832Y-88777315D01*
X70727568Y-88756625D01*
X70729431Y-88756611D01*
X74317199Y-88756611D01*
X74384238Y-88776296D01*
X74429993Y-88829100D01*
X74430755Y-88830800D01*
X74449142Y-88872719D01*
X74585148Y-89080893D01*
X74585151Y-89080896D01*
X74753571Y-89263849D01*
X74949806Y-89416585D01*
X75168505Y-89534939D01*
X75403701Y-89615682D01*
X75648980Y-89656611D01*
X75897650Y-89656611D01*
X76142929Y-89615682D01*
X76378125Y-89534939D01*
X76596824Y-89416585D01*
X76793059Y-89263849D01*
X76961479Y-89080896D01*
X77097488Y-88872718D01*
X77115875Y-88830800D01*
X77160832Y-88777315D01*
X77227568Y-88756625D01*
X77229431Y-88756611D01*
X96299547Y-88756611D01*
X96307645Y-88757141D01*
X96342975Y-88761793D01*
X96342976Y-88761793D01*
X96395229Y-88754913D01*
X96499737Y-88741155D01*
X96645816Y-88680647D01*
X96771257Y-88584393D01*
X96792958Y-88556110D01*
X96798286Y-88550033D01*
X102643922Y-82704397D01*
X102649999Y-82699069D01*
X102678282Y-82677368D01*
X102774536Y-82551927D01*
X102835044Y-82405848D01*
X102850500Y-82288447D01*
X102855682Y-82249086D01*
X102851030Y-82213755D01*
X102850500Y-82205657D01*
X102850500Y-77126370D01*
X102851031Y-77118268D01*
X102855682Y-77082941D01*
X102855682Y-77082940D01*
X102835044Y-76926181D01*
X102835044Y-76926180D01*
X102774536Y-76780101D01*
X102752566Y-76751469D01*
X102678282Y-76654660D01*
X102650005Y-76632962D01*
X102643904Y-76627611D01*
X102086819Y-76070526D01*
X102053334Y-76009203D01*
X102050500Y-75982845D01*
X102050500Y-72377742D01*
X102051031Y-72369640D01*
X102052116Y-72361404D01*
X102055682Y-72334314D01*
X102053266Y-72315965D01*
X102035044Y-72177553D01*
X102035044Y-72177552D01*
X101974536Y-72031473D01*
X101931559Y-71975464D01*
X101878282Y-71906032D01*
X101850005Y-71884334D01*
X101843904Y-71878983D01*
X101286819Y-71321898D01*
X101253334Y-71260575D01*
X101250500Y-71234217D01*
X101250500Y-69603428D01*
X101251031Y-69595326D01*
X101255682Y-69559999D01*
X101255682Y-69559998D01*
X101235044Y-69403239D01*
X101235042Y-69403234D01*
X101174538Y-69257163D01*
X101174538Y-69257162D01*
X101174536Y-69257159D01*
X101102450Y-69163215D01*
X101090366Y-69147466D01*
X101078283Y-69131718D01*
X101050009Y-69110023D01*
X101043912Y-69104677D01*
X100832766Y-68893531D01*
X100799281Y-68832208D01*
X100800672Y-68773757D01*
X100803818Y-68762014D01*
X100835063Y-68645408D01*
X100855659Y-68410000D01*
X100835063Y-68174592D01*
X100773903Y-67946337D01*
X100674035Y-67732171D01*
X100621830Y-67657613D01*
X100538494Y-67538597D01*
X100371402Y-67371506D01*
X100371396Y-67371501D01*
X100185842Y-67241575D01*
X100142217Y-67186998D01*
X100135023Y-67117500D01*
X100166546Y-67055145D01*
X100185842Y-67038425D01*
X100208026Y-67022891D01*
X100371401Y-66908495D01*
X100538495Y-66741401D01*
X100674035Y-66547830D01*
X100773903Y-66333663D01*
X100835063Y-66105408D01*
X100855659Y-65870000D01*
X100835063Y-65634592D01*
X100773903Y-65406337D01*
X100674035Y-65192171D01*
X100538495Y-64998599D01*
X100538494Y-64998597D01*
X100371402Y-64831506D01*
X100371396Y-64831501D01*
X100185842Y-64701575D01*
X100142217Y-64646998D01*
X100135023Y-64577500D01*
X100166546Y-64515145D01*
X100185842Y-64498425D01*
X100231948Y-64466141D01*
X100371401Y-64368495D01*
X100538495Y-64201401D01*
X100674035Y-64007830D01*
X100773903Y-63793663D01*
X100835063Y-63565408D01*
X100855659Y-63330000D01*
X100835063Y-63094592D01*
X100773903Y-62866337D01*
X100674035Y-62652171D01*
X100654768Y-62624654D01*
X100538494Y-62458597D01*
X100371402Y-62291506D01*
X100371401Y-62291505D01*
X100185405Y-62161269D01*
X100141781Y-62106692D01*
X100134588Y-62037193D01*
X100166110Y-61974839D01*
X100185405Y-61958119D01*
X100371082Y-61828105D01*
X100538105Y-61661082D01*
X100673600Y-61467578D01*
X100773429Y-61253492D01*
X100773432Y-61253486D01*
X100830636Y-61040000D01*
X99933686Y-61040000D01*
X99959493Y-60999844D01*
X100000000Y-60861889D01*
X100000000Y-60718111D01*
X99959493Y-60580156D01*
X99933686Y-60540000D01*
X100830636Y-60540000D01*
X100830635Y-60539999D01*
X100773432Y-60326513D01*
X100773429Y-60326507D01*
X100673600Y-60112422D01*
X100673599Y-60112420D01*
X100538113Y-59918926D01*
X100538108Y-59918920D01*
X100371078Y-59751890D01*
X100185405Y-59621879D01*
X100141780Y-59567302D01*
X100134588Y-59497804D01*
X100166110Y-59435449D01*
X100185406Y-59418730D01*
X100297697Y-59340103D01*
X100371401Y-59288495D01*
X100538495Y-59121401D01*
X100674035Y-58927830D01*
X100773903Y-58713663D01*
X100835063Y-58485408D01*
X100855659Y-58250000D01*
X100835063Y-58014592D01*
X100773903Y-57786337D01*
X100674035Y-57572171D01*
X100632195Y-57512416D01*
X100538494Y-57378597D01*
X100371402Y-57211506D01*
X100371396Y-57211501D01*
X100185842Y-57081575D01*
X100142217Y-57026998D01*
X100135023Y-56957500D01*
X100166546Y-56895145D01*
X100185842Y-56878425D01*
X100253356Y-56831151D01*
X100371401Y-56748495D01*
X100538495Y-56581401D01*
X100674035Y-56387830D01*
X100773903Y-56173663D01*
X100835063Y-55945408D01*
X100855659Y-55710000D01*
X100835063Y-55474592D01*
X100773903Y-55246337D01*
X100674035Y-55032171D01*
X100668461Y-55024211D01*
X100538496Y-54838600D01*
X100538495Y-54838599D01*
X100416567Y-54716671D01*
X100383084Y-54655351D01*
X100388068Y-54585659D01*
X100429939Y-54529725D01*
X100460915Y-54512810D01*
X100592331Y-54463796D01*
X100707546Y-54377546D01*
X100793796Y-54262331D01*
X100844091Y-54127483D01*
X100850500Y-54067873D01*
X100850499Y-52272128D01*
X100844091Y-52212517D01*
X100801259Y-52097679D01*
X100793797Y-52077671D01*
X100793793Y-52077664D01*
X100707547Y-51962455D01*
X100707544Y-51962452D01*
X100592335Y-51876206D01*
X100592328Y-51876202D01*
X100457482Y-51825908D01*
X100457483Y-51825908D01*
X100397883Y-51819501D01*
X100397881Y-51819500D01*
X100397873Y-51819500D01*
X100397864Y-51819500D01*
X98602129Y-51819500D01*
X98602123Y-51819501D01*
X98542516Y-51825908D01*
X98407671Y-51876202D01*
X98407664Y-51876206D01*
X98292455Y-51962452D01*
X98292452Y-51962455D01*
X98206206Y-52077664D01*
X98206202Y-52077671D01*
X98155908Y-52212517D01*
X98149501Y-52272116D01*
X98149501Y-52272123D01*
X98149500Y-52272135D01*
X98149500Y-54067870D01*
X98149501Y-54067876D01*
X98155908Y-54127483D01*
X98206202Y-54262328D01*
X98206206Y-54262335D01*
X98292452Y-54377544D01*
X98292455Y-54377547D01*
X98407664Y-54463793D01*
X98407671Y-54463797D01*
X98539081Y-54512810D01*
X98595015Y-54554681D01*
X98619432Y-54620145D01*
X98604580Y-54688418D01*
X98583430Y-54716673D01*
X98461503Y-54838600D01*
X98325965Y-55032169D01*
X98325964Y-55032171D01*
X98226098Y-55246335D01*
X98226094Y-55246344D01*
X98164938Y-55474586D01*
X98164936Y-55474596D01*
X98144341Y-55709999D01*
X98144341Y-55710000D01*
X98164936Y-55945403D01*
X98164938Y-55945413D01*
X98226094Y-56173655D01*
X98226096Y-56173659D01*
X98226097Y-56173663D01*
X98314618Y-56363497D01*
X98325965Y-56387830D01*
X98325967Y-56387834D01*
X98461501Y-56581395D01*
X98461506Y-56581402D01*
X98628597Y-56748493D01*
X98628603Y-56748498D01*
X98814158Y-56878425D01*
X98857783Y-56933002D01*
X98864977Y-57002500D01*
X98833454Y-57064855D01*
X98814158Y-57081575D01*
X98628597Y-57211505D01*
X98461505Y-57378597D01*
X98325965Y-57572169D01*
X98325964Y-57572171D01*
X98226098Y-57786335D01*
X98226094Y-57786344D01*
X98164938Y-58014586D01*
X98164936Y-58014596D01*
X98144341Y-58249999D01*
X98144341Y-58250000D01*
X98164936Y-58485403D01*
X98164938Y-58485413D01*
X98226094Y-58713655D01*
X98226096Y-58713659D01*
X98226097Y-58713663D01*
X98295407Y-58862298D01*
X98325965Y-58927830D01*
X98325967Y-58927834D01*
X98434281Y-59082521D01*
X98445843Y-59099034D01*
X98461501Y-59121395D01*
X98461506Y-59121402D01*
X98628597Y-59288493D01*
X98628603Y-59288498D01*
X98814594Y-59418730D01*
X98858219Y-59473307D01*
X98865413Y-59542805D01*
X98833890Y-59605160D01*
X98814595Y-59621880D01*
X98628922Y-59751890D01*
X98628920Y-59751891D01*
X98461891Y-59918920D01*
X98461886Y-59918926D01*
X98326400Y-60112420D01*
X98326399Y-60112422D01*
X98226570Y-60326507D01*
X98226567Y-60326513D01*
X98169364Y-60539999D01*
X98169364Y-60540000D01*
X99066314Y-60540000D01*
X99040507Y-60580156D01*
X99000000Y-60718111D01*
X99000000Y-60861889D01*
X99040507Y-60999844D01*
X99066314Y-61040000D01*
X98110597Y-61040000D01*
X98043558Y-61020315D01*
X98022916Y-61003681D01*
X96118269Y-59099034D01*
X94125320Y-57106085D01*
X94119980Y-57099995D01*
X94098282Y-57071718D01*
X93972841Y-56975464D01*
X93972839Y-56975463D01*
X93826763Y-56914956D01*
X93826758Y-56914955D01*
X93826620Y-56914937D01*
X93670001Y-56894318D01*
X93670000Y-56894318D01*
X93634670Y-56898969D01*
X93626572Y-56899500D01*
X84046801Y-56899500D01*
X83979762Y-56879815D01*
X83937747Y-56834519D01*
X83935924Y-56831151D01*
X83808981Y-56636849D01*
X83741608Y-56563662D01*
X83710686Y-56501008D01*
X83718547Y-56431582D01*
X83762694Y-56377426D01*
X83789499Y-56363500D01*
X83842331Y-56343796D01*
X83957546Y-56257546D01*
X84043796Y-56142331D01*
X84094091Y-56007483D01*
X84100500Y-55947873D01*
X84100499Y-54052128D01*
X84094091Y-53992517D01*
X84043796Y-53857669D01*
X84043795Y-53857668D01*
X84043793Y-53857664D01*
X83957547Y-53742455D01*
X83957544Y-53742452D01*
X83842335Y-53656206D01*
X83842328Y-53656202D01*
X83707482Y-53605908D01*
X83707483Y-53605908D01*
X83647883Y-53599501D01*
X83647881Y-53599500D01*
X83647873Y-53599500D01*
X83647864Y-53599500D01*
X81752129Y-53599500D01*
X81752123Y-53599501D01*
X81692516Y-53605908D01*
X81557671Y-53656202D01*
X81557664Y-53656206D01*
X81442455Y-53742452D01*
X81442452Y-53742455D01*
X81356206Y-53857664D01*
X81356202Y-53857671D01*
X81305908Y-53992517D01*
X81299501Y-54052116D01*
X81299501Y-54052123D01*
X81299500Y-54052135D01*
X81299500Y-55947870D01*
X81299501Y-55947876D01*
X81305908Y-56007483D01*
X81356202Y-56142328D01*
X81356206Y-56142335D01*
X81442452Y-56257544D01*
X81442455Y-56257547D01*
X81557664Y-56343793D01*
X81557673Y-56343798D01*
X81610493Y-56363498D01*
X81666427Y-56405368D01*
X81690845Y-56470832D01*
X81675994Y-56539105D01*
X81658392Y-56563662D01*
X81636125Y-56587850D01*
X81591021Y-56636847D01*
X81591019Y-56636848D01*
X81591016Y-56636853D01*
X81464075Y-56831151D01*
X81370842Y-57043699D01*
X81313866Y-57268691D01*
X81313864Y-57268702D01*
X81294700Y-57499993D01*
X81294700Y-57500006D01*
X81313864Y-57731297D01*
X81313866Y-57731308D01*
X81370842Y-57956300D01*
X81464075Y-58168848D01*
X81591016Y-58363147D01*
X81591019Y-58363151D01*
X81591021Y-58363153D01*
X81748216Y-58533913D01*
X81900529Y-58652462D01*
X81941341Y-58709172D01*
X81945016Y-58778945D01*
X81910385Y-58839628D01*
X81901204Y-58847582D01*
X81901200Y-58847647D01*
X82567466Y-59513913D01*
X82557685Y-59515320D01*
X82426900Y-59575048D01*
X82318239Y-59669202D01*
X82240507Y-59790156D01*
X82216923Y-59870476D01*
X81548812Y-59202365D01*
X81464516Y-59331391D01*
X81464514Y-59331395D01*
X81371317Y-59543864D01*
X81314361Y-59768781D01*
X81295202Y-59999994D01*
X81295202Y-60000005D01*
X81314361Y-60231218D01*
X81371317Y-60456135D01*
X81464516Y-60668609D01*
X81548811Y-60797633D01*
X82216922Y-60129523D01*
X82240507Y-60209844D01*
X82318239Y-60330798D01*
X82426900Y-60424952D01*
X82557685Y-60484680D01*
X82567466Y-60486086D01*
X81901199Y-61152351D01*
X81931650Y-61176050D01*
X82135697Y-61286476D01*
X82135706Y-61286479D01*
X82355139Y-61361811D01*
X82583993Y-61400000D01*
X82816007Y-61400000D01*
X83044860Y-61361811D01*
X83264293Y-61286479D01*
X83264302Y-61286476D01*
X83468350Y-61176050D01*
X83498798Y-61152351D01*
X82832533Y-60486086D01*
X82842315Y-60484680D01*
X82973100Y-60424952D01*
X83081761Y-60330798D01*
X83159493Y-60209844D01*
X83183076Y-60129524D01*
X83851186Y-60797634D01*
X83935484Y-60668606D01*
X84028682Y-60456135D01*
X84085638Y-60231218D01*
X84104798Y-60000005D01*
X84104798Y-59999994D01*
X84085638Y-59768781D01*
X84028682Y-59543864D01*
X83935483Y-59331390D01*
X83851186Y-59202364D01*
X83183076Y-59870475D01*
X83159493Y-59790156D01*
X83081761Y-59669202D01*
X82973100Y-59575048D01*
X82842315Y-59515320D01*
X82832534Y-59513913D01*
X83498799Y-58847648D01*
X83498770Y-58847195D01*
X83458658Y-58791460D01*
X83454983Y-58721687D01*
X83489614Y-58661004D01*
X83499465Y-58652466D01*
X83651784Y-58533913D01*
X83808979Y-58363153D01*
X83935924Y-58168849D01*
X83935926Y-58168843D01*
X83937747Y-58165481D01*
X83986967Y-58115891D01*
X84046801Y-58100500D01*
X93369903Y-58100500D01*
X93436942Y-58120185D01*
X93457584Y-58136819D01*
X98167233Y-62846468D01*
X98200718Y-62907791D01*
X98199327Y-62966241D01*
X98164939Y-63094583D01*
X98164936Y-63094596D01*
X98144341Y-63329999D01*
X98144341Y-63330000D01*
X98164936Y-63565403D01*
X98164938Y-63565413D01*
X98226094Y-63793655D01*
X98226096Y-63793659D01*
X98226097Y-63793663D01*
X98277685Y-63904294D01*
X98325965Y-64007830D01*
X98325967Y-64007834D01*
X98461501Y-64201395D01*
X98461506Y-64201402D01*
X98628597Y-64368493D01*
X98628603Y-64368498D01*
X98814158Y-64498425D01*
X98857783Y-64553002D01*
X98864977Y-64622500D01*
X98833454Y-64684855D01*
X98814158Y-64701575D01*
X98628597Y-64831505D01*
X98461505Y-64998597D01*
X98325965Y-65192169D01*
X98325964Y-65192171D01*
X98226098Y-65406335D01*
X98226094Y-65406344D01*
X98164938Y-65634586D01*
X98164936Y-65634596D01*
X98144341Y-65869999D01*
X98144341Y-65870000D01*
X98164936Y-66105403D01*
X98164938Y-66105413D01*
X98199327Y-66233756D01*
X98197664Y-66303606D01*
X98167233Y-66353530D01*
X90957584Y-73563181D01*
X90896261Y-73596666D01*
X90869903Y-73599500D01*
X84046801Y-73599500D01*
X83979762Y-73579815D01*
X83937747Y-73534519D01*
X83935924Y-73531151D01*
X83808981Y-73336849D01*
X83741608Y-73263662D01*
X83710686Y-73201008D01*
X83718547Y-73131582D01*
X83762694Y-73077426D01*
X83789499Y-73063500D01*
X83842331Y-73043796D01*
X83957546Y-72957546D01*
X84043796Y-72842331D01*
X84094091Y-72707483D01*
X84100500Y-72647873D01*
X84100499Y-70752128D01*
X84094091Y-70692517D01*
X84052377Y-70580677D01*
X84043797Y-70557671D01*
X84043793Y-70557664D01*
X83957547Y-70442455D01*
X83957544Y-70442452D01*
X83842335Y-70356206D01*
X83842328Y-70356202D01*
X83707482Y-70305908D01*
X83707483Y-70305908D01*
X83647883Y-70299501D01*
X83647881Y-70299500D01*
X83647873Y-70299500D01*
X83647864Y-70299500D01*
X81752129Y-70299500D01*
X81752123Y-70299501D01*
X81692516Y-70305908D01*
X81557671Y-70356202D01*
X81557664Y-70356206D01*
X81442455Y-70442452D01*
X81442452Y-70442455D01*
X81356206Y-70557664D01*
X81356202Y-70557671D01*
X81305908Y-70692517D01*
X81299501Y-70752116D01*
X81299501Y-70752123D01*
X81299500Y-70752135D01*
X81299500Y-72647870D01*
X81299501Y-72647876D01*
X81305908Y-72707483D01*
X81356202Y-72842328D01*
X81356206Y-72842335D01*
X81442452Y-72957544D01*
X81442455Y-72957547D01*
X81557664Y-73043793D01*
X81557673Y-73043798D01*
X81610493Y-73063498D01*
X81666427Y-73105368D01*
X81690845Y-73170832D01*
X81675994Y-73239105D01*
X81658392Y-73263662D01*
X81591021Y-73336847D01*
X81591019Y-73336848D01*
X81591016Y-73336853D01*
X81464075Y-73531151D01*
X81370842Y-73743699D01*
X81313866Y-73968691D01*
X81313864Y-73968702D01*
X81294700Y-74199993D01*
X81294700Y-74200006D01*
X81313864Y-74431297D01*
X81313866Y-74431308D01*
X81370842Y-74656300D01*
X81464075Y-74868848D01*
X81591016Y-75063147D01*
X81591019Y-75063151D01*
X81591021Y-75063153D01*
X81748216Y-75233913D01*
X81900529Y-75352462D01*
X81941341Y-75409172D01*
X81945016Y-75478945D01*
X81910385Y-75539628D01*
X81901204Y-75547582D01*
X81901200Y-75547647D01*
X82567466Y-76213913D01*
X82557685Y-76215320D01*
X82426900Y-76275048D01*
X82318239Y-76369202D01*
X82240507Y-76490156D01*
X82216923Y-76570476D01*
X81548812Y-75902365D01*
X81464516Y-76031391D01*
X81464514Y-76031395D01*
X81371317Y-76243864D01*
X81314361Y-76468781D01*
X81295202Y-76699994D01*
X81295202Y-76700005D01*
X81314361Y-76931218D01*
X81371317Y-77156135D01*
X81464516Y-77368609D01*
X81548811Y-77497633D01*
X82216922Y-76829523D01*
X82240507Y-76909844D01*
X82318239Y-77030798D01*
X82426900Y-77124952D01*
X82557685Y-77184680D01*
X82567466Y-77186086D01*
X81901199Y-77852351D01*
X81931650Y-77876050D01*
X82135697Y-77986476D01*
X82135706Y-77986479D01*
X82355139Y-78061811D01*
X82583993Y-78100000D01*
X82816007Y-78100000D01*
X83044860Y-78061811D01*
X83264293Y-77986479D01*
X83264302Y-77986476D01*
X83468350Y-77876050D01*
X83498798Y-77852351D01*
X82832533Y-77186086D01*
X82842315Y-77184680D01*
X82973100Y-77124952D01*
X83081761Y-77030798D01*
X83159493Y-76909844D01*
X83183076Y-76829524D01*
X83851186Y-77497634D01*
X83935484Y-77368606D01*
X84028682Y-77156135D01*
X84085638Y-76931218D01*
X84104798Y-76700005D01*
X84104798Y-76699994D01*
X84085638Y-76468781D01*
X84028682Y-76243864D01*
X83935483Y-76031390D01*
X83851186Y-75902364D01*
X83183076Y-76570475D01*
X83159493Y-76490156D01*
X83081761Y-76369202D01*
X82973100Y-76275048D01*
X82842315Y-76215320D01*
X82832534Y-76213913D01*
X83498799Y-75547648D01*
X83498770Y-75547195D01*
X83458658Y-75491460D01*
X83454983Y-75421687D01*
X83489614Y-75361004D01*
X83499465Y-75352466D01*
X83651784Y-75233913D01*
X83808979Y-75063153D01*
X83935924Y-74868849D01*
X83935926Y-74868843D01*
X83937747Y-74865481D01*
X83986967Y-74815891D01*
X84046801Y-74800500D01*
X91126572Y-74800500D01*
X91134670Y-74801030D01*
X91170000Y-74805682D01*
X91170001Y-74805682D01*
X91222254Y-74798802D01*
X91326762Y-74785044D01*
X91472841Y-74724536D01*
X91511415Y-74694937D01*
X91598282Y-74628282D01*
X91619983Y-74599999D01*
X91625311Y-74593922D01*
X97935570Y-68283663D01*
X97996891Y-68250180D01*
X98066583Y-68255164D01*
X98122516Y-68297036D01*
X98146933Y-68362500D01*
X98146777Y-68382153D01*
X98144341Y-68409997D01*
X98144341Y-68410000D01*
X98164936Y-68645403D01*
X98164938Y-68645413D01*
X98226094Y-68873655D01*
X98226096Y-68873659D01*
X98226097Y-68873663D01*
X98251509Y-68928159D01*
X98325965Y-69087830D01*
X98325967Y-69087834D01*
X98461501Y-69281395D01*
X98461506Y-69281402D01*
X98628597Y-69448493D01*
X98628603Y-69448498D01*
X98814158Y-69578425D01*
X98857783Y-69633002D01*
X98864977Y-69702500D01*
X98833454Y-69764855D01*
X98814158Y-69781575D01*
X98628597Y-69911505D01*
X98461505Y-70078597D01*
X98325965Y-70272169D01*
X98325964Y-70272171D01*
X98226098Y-70486335D01*
X98226094Y-70486344D01*
X98164938Y-70714586D01*
X98164936Y-70714596D01*
X98144341Y-70949999D01*
X98144341Y-70950000D01*
X98164936Y-71185397D01*
X98164938Y-71185413D01*
X98226094Y-71413655D01*
X98226096Y-71413659D01*
X98226097Y-71413663D01*
X98267046Y-71501478D01*
X98325965Y-71627830D01*
X98325967Y-71627834D01*
X98461501Y-71821395D01*
X98461506Y-71821402D01*
X98628597Y-71988493D01*
X98628603Y-71988498D01*
X98814158Y-72118425D01*
X98857783Y-72173002D01*
X98864977Y-72242500D01*
X98833454Y-72304855D01*
X98814158Y-72321575D01*
X98628597Y-72451505D01*
X98461505Y-72618597D01*
X98325965Y-72812169D01*
X98325964Y-72812171D01*
X98226098Y-73026335D01*
X98226094Y-73026344D01*
X98164938Y-73254586D01*
X98164936Y-73254596D01*
X98144341Y-73489999D01*
X98144341Y-73490000D01*
X98164936Y-73725403D01*
X98164938Y-73725413D01*
X98226094Y-73953655D01*
X98226096Y-73953659D01*
X98226097Y-73953663D01*
X98233105Y-73968691D01*
X98325965Y-74167830D01*
X98325967Y-74167834D01*
X98461501Y-74361395D01*
X98461506Y-74361402D01*
X98628597Y-74528493D01*
X98628603Y-74528498D01*
X98814158Y-74658425D01*
X98857783Y-74713002D01*
X98864977Y-74782500D01*
X98833454Y-74844855D01*
X98814158Y-74861575D01*
X98628597Y-74991505D01*
X98461505Y-75158597D01*
X98325965Y-75352169D01*
X98325964Y-75352171D01*
X98226098Y-75566335D01*
X98226094Y-75566344D01*
X98164938Y-75794586D01*
X98164936Y-75794596D01*
X98144341Y-76029999D01*
X98144341Y-76030000D01*
X98164936Y-76265403D01*
X98164938Y-76265413D01*
X98226094Y-76493655D01*
X98226096Y-76493659D01*
X98226097Y-76493663D01*
X98289901Y-76630490D01*
X98325965Y-76707830D01*
X98325967Y-76707834D01*
X98461501Y-76901395D01*
X98461506Y-76901402D01*
X98628597Y-77068493D01*
X98628603Y-77068498D01*
X98814158Y-77198425D01*
X98857783Y-77253002D01*
X98864977Y-77322500D01*
X98833454Y-77384855D01*
X98814158Y-77401575D01*
X98628597Y-77531505D01*
X98461505Y-77698597D01*
X98325965Y-77892169D01*
X98325964Y-77892171D01*
X98226098Y-78106335D01*
X98226094Y-78106344D01*
X98164938Y-78334586D01*
X98164936Y-78334596D01*
X98144341Y-78569999D01*
X98144341Y-78570000D01*
X98164936Y-78805403D01*
X98164938Y-78805413D01*
X98226094Y-79033655D01*
X98226096Y-79033659D01*
X98226097Y-79033663D01*
X98259077Y-79104388D01*
X98325965Y-79247830D01*
X98325967Y-79247834D01*
X98461501Y-79441395D01*
X98461506Y-79441402D01*
X98628597Y-79608493D01*
X98628603Y-79608498D01*
X98814158Y-79738425D01*
X98857783Y-79793002D01*
X98864977Y-79862500D01*
X98833454Y-79924855D01*
X98814158Y-79941575D01*
X98628597Y-80071505D01*
X98461505Y-80238597D01*
X98325965Y-80432169D01*
X98325964Y-80432171D01*
X98226098Y-80646335D01*
X98226094Y-80646344D01*
X98164938Y-80874586D01*
X98164936Y-80874596D01*
X98144341Y-81109999D01*
X98144341Y-81110000D01*
X98164936Y-81345403D01*
X98164938Y-81345413D01*
X98226094Y-81573655D01*
X98226096Y-81573659D01*
X98226097Y-81573663D01*
X98325965Y-81787830D01*
X98325967Y-81787834D01*
X98461501Y-81981395D01*
X98461506Y-81981402D01*
X98563083Y-82082979D01*
X98596568Y-82144302D01*
X98591584Y-82213994D01*
X98563083Y-82258341D01*
X95302133Y-85519292D01*
X95240810Y-85552777D01*
X95214452Y-85555611D01*
X80174500Y-85555611D01*
X80107461Y-85535926D01*
X80061706Y-85483122D01*
X80050500Y-85431611D01*
X80050500Y-79055690D01*
X87917792Y-79055690D01*
X87947386Y-79324649D01*
X87947388Y-79324660D01*
X87981937Y-79456811D01*
X88015827Y-79586441D01*
X88121654Y-79835473D01*
X88262610Y-80066438D01*
X88262617Y-80066448D01*
X88435696Y-80274425D01*
X88435698Y-80274427D01*
X88637224Y-80454994D01*
X88788705Y-80555214D01*
X88862891Y-80604295D01*
X89107893Y-80719147D01*
X89367005Y-80797102D01*
X89634707Y-80836500D01*
X89634712Y-80836500D01*
X90721557Y-80836500D01*
X90780300Y-80832200D01*
X90923864Y-80821693D01*
X91187976Y-80762859D01*
X91440707Y-80666198D01*
X91676671Y-80533768D01*
X91890838Y-80368394D01*
X92078644Y-80173598D01*
X92236087Y-79953534D01*
X92343798Y-79744035D01*
X92359803Y-79712906D01*
X92359805Y-79712899D01*
X92359810Y-79712891D01*
X92447083Y-79457075D01*
X92447173Y-79456811D01*
X92447173Y-79456807D01*
X92447177Y-79456798D01*
X92496325Y-79190713D01*
X92506207Y-78920308D01*
X92476613Y-78651346D01*
X92408173Y-78389559D01*
X92302346Y-78140527D01*
X92161387Y-77909557D01*
X91988301Y-77701572D01*
X91786776Y-77521006D01*
X91786775Y-77521005D01*
X91561110Y-77371705D01*
X91408148Y-77300000D01*
X91316107Y-77256853D01*
X91056995Y-77178898D01*
X91056992Y-77178897D01*
X90941482Y-77161897D01*
X90789293Y-77139500D01*
X89702449Y-77139500D01*
X89702443Y-77139500D01*
X89500136Y-77154307D01*
X89500126Y-77154308D01*
X89236028Y-77213139D01*
X89236023Y-77213141D01*
X88983290Y-77309803D01*
X88747330Y-77442231D01*
X88747327Y-77442233D01*
X88533161Y-77607606D01*
X88345364Y-77802392D01*
X88345358Y-77802399D01*
X88187914Y-78022464D01*
X88187911Y-78022469D01*
X88064196Y-78263093D01*
X88064187Y-78263115D01*
X87976826Y-78519188D01*
X87976822Y-78519206D01*
X87927676Y-78785275D01*
X87927674Y-78785295D01*
X87917792Y-79055690D01*
X80050500Y-79055690D01*
X80050500Y-69468129D01*
X87905767Y-69468129D01*
X87935552Y-69738827D01*
X87935554Y-69738840D01*
X88002049Y-69993190D01*
X88004438Y-70002326D01*
X88110953Y-70252975D01*
X88183477Y-70371810D01*
X88252824Y-70485439D01*
X88252831Y-70485449D01*
X88425154Y-70692517D01*
X88427037Y-70694779D01*
X88629869Y-70876518D01*
X88857002Y-71026788D01*
X89103594Y-71142386D01*
X89364389Y-71220847D01*
X89633829Y-71260500D01*
X89633834Y-71260500D01*
X90698005Y-71260500D01*
X90749780Y-71256710D01*
X90901616Y-71245597D01*
X91012723Y-71220847D01*
X91167435Y-71186384D01*
X91167437Y-71186383D01*
X91167442Y-71186382D01*
X91421814Y-71089093D01*
X91659310Y-70955804D01*
X91874868Y-70789355D01*
X92063894Y-70593295D01*
X92222358Y-70371802D01*
X92346885Y-70129597D01*
X92434819Y-69871841D01*
X92484286Y-69604029D01*
X92494232Y-69331869D01*
X92464446Y-69061161D01*
X92395562Y-68797674D01*
X92289047Y-68547025D01*
X92147173Y-68314556D01*
X91972963Y-68105221D01*
X91770131Y-67923482D01*
X91543000Y-67773213D01*
X91542998Y-67773212D01*
X91296406Y-67657614D01*
X91035611Y-67579153D01*
X91035609Y-67579152D01*
X91035607Y-67579152D01*
X90938996Y-67564934D01*
X90766171Y-67539500D01*
X89702000Y-67539500D01*
X89701995Y-67539500D01*
X89498384Y-67554403D01*
X89498370Y-67554405D01*
X89232564Y-67613615D01*
X89232557Y-67613618D01*
X88978183Y-67710908D01*
X88740691Y-67844195D01*
X88740686Y-67844198D01*
X88525133Y-68010643D01*
X88525124Y-68010652D01*
X88336109Y-68206701D01*
X88336102Y-68206709D01*
X88177647Y-68428189D01*
X88177640Y-68428201D01*
X88053117Y-68670397D01*
X88053111Y-68670411D01*
X87965184Y-68928145D01*
X87965180Y-68928163D01*
X87915715Y-69195959D01*
X87915713Y-69195979D01*
X87905767Y-69468129D01*
X80050500Y-69468129D01*
X80050500Y-62355690D01*
X87917792Y-62355690D01*
X87947386Y-62624649D01*
X87947388Y-62624660D01*
X88010571Y-62866337D01*
X88015827Y-62886441D01*
X88069559Y-63012884D01*
X88104277Y-63094583D01*
X88121654Y-63135473D01*
X88216769Y-63291325D01*
X88262610Y-63366438D01*
X88262617Y-63366448D01*
X88435696Y-63574425D01*
X88435698Y-63574427D01*
X88435699Y-63574428D01*
X88637224Y-63754994D01*
X88862891Y-63904295D01*
X89107893Y-64019147D01*
X89367005Y-64097102D01*
X89634707Y-64136500D01*
X89634712Y-64136500D01*
X90721557Y-64136500D01*
X90780300Y-64132200D01*
X90923864Y-64121693D01*
X91187976Y-64062859D01*
X91440707Y-63966198D01*
X91676671Y-63833768D01*
X91890838Y-63668394D01*
X92078644Y-63473598D01*
X92236087Y-63253534D01*
X92340589Y-63050277D01*
X92359803Y-63012906D01*
X92359805Y-63012899D01*
X92359810Y-63012891D01*
X92447177Y-62756798D01*
X92496325Y-62490713D01*
X92506207Y-62220308D01*
X92476613Y-61951346D01*
X92408173Y-61689559D01*
X92302346Y-61440527D01*
X92161387Y-61209557D01*
X92113780Y-61152351D01*
X91988303Y-61001574D01*
X91988301Y-61001572D01*
X91786775Y-60821005D01*
X91561110Y-60671705D01*
X91429058Y-60609802D01*
X91316107Y-60556853D01*
X91056995Y-60478898D01*
X91056992Y-60478897D01*
X90923164Y-60459202D01*
X90789293Y-60439500D01*
X89702449Y-60439500D01*
X89702443Y-60439500D01*
X89500136Y-60454307D01*
X89500126Y-60454308D01*
X89236028Y-60513139D01*
X89236023Y-60513141D01*
X88983290Y-60609803D01*
X88747330Y-60742231D01*
X88747327Y-60742233D01*
X88533161Y-60907606D01*
X88345364Y-61102392D01*
X88345358Y-61102399D01*
X88187914Y-61322464D01*
X88187911Y-61322469D01*
X88064196Y-61563093D01*
X88064187Y-61563115D01*
X87976826Y-61819188D01*
X87976822Y-61819206D01*
X87927676Y-62085275D01*
X87927674Y-62085295D01*
X87917792Y-62355690D01*
X80050500Y-62355690D01*
X80050500Y-52768129D01*
X87905767Y-52768129D01*
X87935552Y-53038827D01*
X87935554Y-53038840D01*
X87989054Y-53243484D01*
X88004438Y-53302326D01*
X88110953Y-53552975D01*
X88252824Y-53785439D01*
X88252831Y-53785449D01*
X88425154Y-53992517D01*
X88427037Y-53994779D01*
X88629869Y-54176518D01*
X88857002Y-54326788D01*
X89103594Y-54442386D01*
X89364389Y-54520847D01*
X89633829Y-54560500D01*
X89633834Y-54560500D01*
X90698005Y-54560500D01*
X90749780Y-54556710D01*
X90901616Y-54545597D01*
X91014281Y-54520500D01*
X91167435Y-54486384D01*
X91167437Y-54486383D01*
X91167442Y-54486382D01*
X91421814Y-54389093D01*
X91659310Y-54255804D01*
X91874868Y-54089355D01*
X92063894Y-53893295D01*
X92222358Y-53671802D01*
X92346885Y-53429597D01*
X92434819Y-53171841D01*
X92484286Y-52904029D01*
X92494232Y-52631869D01*
X92464446Y-52361161D01*
X92395562Y-52097674D01*
X92289047Y-51847025D01*
X92147173Y-51614556D01*
X91972963Y-51405221D01*
X91770131Y-51223482D01*
X91543000Y-51073213D01*
X91542998Y-51073212D01*
X91296406Y-50957614D01*
X91035611Y-50879153D01*
X91035609Y-50879152D01*
X91035607Y-50879152D01*
X90938996Y-50864934D01*
X90766171Y-50839500D01*
X89702000Y-50839500D01*
X89701995Y-50839500D01*
X89498384Y-50854403D01*
X89498370Y-50854405D01*
X89232564Y-50913615D01*
X89232557Y-50913618D01*
X88978183Y-51010908D01*
X88740691Y-51144195D01*
X88740686Y-51144198D01*
X88525133Y-51310643D01*
X88525124Y-51310652D01*
X88336109Y-51506701D01*
X88336102Y-51506709D01*
X88177647Y-51728189D01*
X88177640Y-51728201D01*
X88053117Y-51970397D01*
X88053111Y-51970411D01*
X87965184Y-52228145D01*
X87965180Y-52228163D01*
X87915715Y-52495959D01*
X87915713Y-52495979D01*
X87905767Y-52768129D01*
X80050500Y-52768129D01*
X80050500Y-49643428D01*
X80051031Y-49635326D01*
X80055682Y-49599999D01*
X80055682Y-49599998D01*
X80035044Y-49443239D01*
X80035042Y-49443234D01*
X79974538Y-49297163D01*
X79974538Y-49297162D01*
X79970778Y-49292262D01*
X79902450Y-49203215D01*
X79890366Y-49187466D01*
X79878283Y-49171718D01*
X79850009Y-49150023D01*
X79843912Y-49144677D01*
X77206516Y-46507281D01*
X77173031Y-46445958D01*
X77173992Y-46389159D01*
X77174061Y-46388884D01*
X77174063Y-46388881D01*
X77235108Y-46147821D01*
X77255643Y-45900000D01*
X77235108Y-45652179D01*
X77174063Y-45411119D01*
X77125102Y-45299500D01*
X77074173Y-45183393D01*
X76938166Y-44975217D01*
X76916557Y-44951744D01*
X76769744Y-44792262D01*
X76573509Y-44639526D01*
X76573507Y-44639525D01*
X76573506Y-44639524D01*
X76354811Y-44521172D01*
X76354802Y-44521169D01*
X76119616Y-44440429D01*
X75874335Y-44399500D01*
X75625665Y-44399500D01*
X75380383Y-44440429D01*
X75145197Y-44521169D01*
X75145188Y-44521172D01*
X74926493Y-44639524D01*
X74730257Y-44792261D01*
X74561833Y-44975217D01*
X74425827Y-45183391D01*
X74407440Y-45225311D01*
X74362483Y-45278796D01*
X74295747Y-45299486D01*
X74293884Y-45299500D01*
X70706116Y-45299500D01*
X70639077Y-45279815D01*
X70593322Y-45227011D01*
X70592560Y-45225311D01*
X70574172Y-45183391D01*
X70438166Y-44975217D01*
X70416557Y-44951744D01*
X70269744Y-44792262D01*
X70073509Y-44639526D01*
X70073507Y-44639525D01*
X70073506Y-44639524D01*
X69854811Y-44521172D01*
X69854802Y-44521169D01*
X69619616Y-44440429D01*
X69374335Y-44399500D01*
X69125665Y-44399500D01*
X68880383Y-44440429D01*
X68645197Y-44521169D01*
X68645188Y-44521172D01*
X68426493Y-44639524D01*
X68230257Y-44792261D01*
X68061833Y-44975217D01*
X67925826Y-45183393D01*
X67825936Y-45411118D01*
X67764892Y-45652175D01*
X67764890Y-45652187D01*
X67744357Y-45899994D01*
X67744357Y-45900005D01*
X67764890Y-46147812D01*
X67764892Y-46147824D01*
X67825936Y-46388881D01*
X67925826Y-46616606D01*
X68061833Y-46824782D01*
X68061836Y-46824785D01*
X68230256Y-47007738D01*
X68426491Y-47160474D01*
X68645190Y-47278828D01*
X68880386Y-47359571D01*
X69125665Y-47400500D01*
X69374335Y-47400500D01*
X69619614Y-47359571D01*
X69854810Y-47278828D01*
X70073509Y-47160474D01*
X70269744Y-47007738D01*
X70438164Y-46824785D01*
X70574173Y-46616607D01*
X70592560Y-46574689D01*
X70637517Y-46521204D01*
X70704253Y-46500514D01*
X70706116Y-46500500D01*
X74293884Y-46500500D01*
X74360923Y-46520185D01*
X74406678Y-46572989D01*
X74407440Y-46574689D01*
X74425827Y-46616608D01*
X74561833Y-46824782D01*
X74561836Y-46824785D01*
X74730256Y-47007738D01*
X74926491Y-47160474D01*
X75145190Y-47278828D01*
X75380386Y-47359571D01*
X75625665Y-47400500D01*
X75874335Y-47400500D01*
X76119608Y-47359572D01*
X76119607Y-47359572D01*
X76119614Y-47359571D01*
X76225607Y-47323182D01*
X76295402Y-47320033D01*
X76353548Y-47352783D01*
X78813181Y-49812416D01*
X78846666Y-49873739D01*
X78849500Y-49900097D01*
X78849500Y-55950903D01*
X78829815Y-56017942D01*
X78777011Y-56063697D01*
X78707853Y-56073641D01*
X78644297Y-56044616D01*
X78637819Y-56038584D01*
X77272931Y-54673696D01*
X77239446Y-54612373D01*
X77237036Y-54575775D01*
X77255643Y-54351227D01*
X77255643Y-54351216D01*
X77235109Y-54103409D01*
X77235107Y-54103397D01*
X77174063Y-53862340D01*
X77074173Y-53634615D01*
X76938166Y-53426439D01*
X76916557Y-53402966D01*
X76769744Y-53243484D01*
X76573509Y-53090748D01*
X76573507Y-53090747D01*
X76573506Y-53090746D01*
X76354811Y-52972394D01*
X76354802Y-52972391D01*
X76119616Y-52891651D01*
X75874335Y-52850722D01*
X75625665Y-52850722D01*
X75380383Y-52891651D01*
X75145197Y-52972391D01*
X75145188Y-52972394D01*
X74926493Y-53090746D01*
X74730257Y-53243483D01*
X74561833Y-53426439D01*
X74425827Y-53634613D01*
X74407440Y-53676533D01*
X74362483Y-53730018D01*
X74295747Y-53750708D01*
X74293884Y-53750722D01*
X70706116Y-53750722D01*
X70639077Y-53731037D01*
X70593322Y-53678233D01*
X70592560Y-53676533D01*
X70574172Y-53634613D01*
X70438166Y-53426439D01*
X70416557Y-53402966D01*
X70269744Y-53243484D01*
X70073509Y-53090748D01*
X70073507Y-53090747D01*
X70073506Y-53090746D01*
X69854811Y-52972394D01*
X69854802Y-52972391D01*
X69619616Y-52891651D01*
X69374335Y-52850722D01*
X69125665Y-52850722D01*
X68880383Y-52891651D01*
X68645197Y-52972391D01*
X68645188Y-52972394D01*
X68426493Y-53090746D01*
X68230257Y-53243483D01*
X68061833Y-53426439D01*
X67925826Y-53634615D01*
X67825936Y-53862340D01*
X67764892Y-54103397D01*
X67764890Y-54103409D01*
X67744357Y-54351216D01*
X67744357Y-54351227D01*
X67764890Y-54599034D01*
X67764892Y-54599046D01*
X67825936Y-54840103D01*
X67925826Y-55067828D01*
X68061833Y-55276004D01*
X68061836Y-55276007D01*
X68230256Y-55458960D01*
X68426491Y-55611696D01*
X68426493Y-55611697D01*
X68566017Y-55687204D01*
X68645190Y-55730050D01*
X68880386Y-55810793D01*
X69125665Y-55851722D01*
X69374335Y-55851722D01*
X69619614Y-55810793D01*
X69854810Y-55730050D01*
X70073509Y-55611696D01*
X70269744Y-55458960D01*
X70438164Y-55276007D01*
X70574173Y-55067829D01*
X70592560Y-55025911D01*
X70637517Y-54972426D01*
X70704253Y-54951736D01*
X70706116Y-54951722D01*
X74293884Y-54951722D01*
X74360923Y-54971407D01*
X74406678Y-55024211D01*
X74407440Y-55025911D01*
X74425827Y-55067830D01*
X74561833Y-55276004D01*
X74561836Y-55276007D01*
X74730256Y-55458960D01*
X74926491Y-55611696D01*
X74926493Y-55611697D01*
X75066017Y-55687204D01*
X75145190Y-55730050D01*
X75380386Y-55810793D01*
X75625665Y-55851722D01*
X75874335Y-55851722D01*
X76119614Y-55810793D01*
X76354810Y-55730050D01*
X76452581Y-55677137D01*
X76520905Y-55662543D01*
X76586277Y-55687204D01*
X76599277Y-55698512D01*
X78413181Y-57512416D01*
X78446666Y-57573739D01*
X78449500Y-57600097D01*
X78449500Y-64353347D01*
X78429815Y-64420386D01*
X78377011Y-64466141D01*
X78307853Y-64476085D01*
X78244297Y-64447060D01*
X78237819Y-64441028D01*
X77206516Y-63409725D01*
X77173031Y-63348402D01*
X77173992Y-63291603D01*
X77174061Y-63291328D01*
X77174063Y-63291325D01*
X77235108Y-63050265D01*
X77238205Y-63012891D01*
X77255643Y-62802449D01*
X77255643Y-62802438D01*
X77235109Y-62554631D01*
X77235107Y-62554619D01*
X77174063Y-62313562D01*
X77074173Y-62085837D01*
X76938166Y-61877661D01*
X76884354Y-61819206D01*
X76769744Y-61694706D01*
X76573509Y-61541970D01*
X76573507Y-61541969D01*
X76573506Y-61541968D01*
X76354811Y-61423616D01*
X76354802Y-61423613D01*
X76119616Y-61342873D01*
X75874335Y-61301944D01*
X75625665Y-61301944D01*
X75380383Y-61342873D01*
X75145197Y-61423613D01*
X75145188Y-61423616D01*
X74926493Y-61541968D01*
X74730257Y-61694705D01*
X74561833Y-61877661D01*
X74425827Y-62085835D01*
X74407440Y-62127755D01*
X74362483Y-62181240D01*
X74295747Y-62201930D01*
X74293884Y-62201944D01*
X70706116Y-62201944D01*
X70639077Y-62182259D01*
X70593322Y-62129455D01*
X70592560Y-62127755D01*
X70574172Y-62085835D01*
X70438166Y-61877661D01*
X70384354Y-61819206D01*
X70269744Y-61694706D01*
X70073509Y-61541970D01*
X70073507Y-61541969D01*
X70073506Y-61541968D01*
X69854811Y-61423616D01*
X69854802Y-61423613D01*
X69619616Y-61342873D01*
X69374335Y-61301944D01*
X69125665Y-61301944D01*
X68880383Y-61342873D01*
X68645197Y-61423613D01*
X68645188Y-61423616D01*
X68426493Y-61541968D01*
X68230257Y-61694705D01*
X68061833Y-61877661D01*
X67925826Y-62085837D01*
X67825936Y-62313562D01*
X67764892Y-62554619D01*
X67764890Y-62554631D01*
X67744357Y-62802438D01*
X67744357Y-62802449D01*
X67764890Y-63050256D01*
X67764892Y-63050268D01*
X67825936Y-63291325D01*
X67925826Y-63519050D01*
X68061833Y-63727226D01*
X68061836Y-63727229D01*
X68230256Y-63910182D01*
X68426491Y-64062918D01*
X68645190Y-64181272D01*
X68880386Y-64262015D01*
X69125665Y-64302944D01*
X69374335Y-64302944D01*
X69619614Y-64262015D01*
X69854810Y-64181272D01*
X70073509Y-64062918D01*
X70269744Y-63910182D01*
X70438164Y-63727229D01*
X70574173Y-63519051D01*
X70592560Y-63477133D01*
X70637517Y-63423648D01*
X70704253Y-63402958D01*
X70706116Y-63402944D01*
X74293884Y-63402944D01*
X74360923Y-63422629D01*
X74406678Y-63475433D01*
X74407440Y-63477133D01*
X74425827Y-63519052D01*
X74561833Y-63727226D01*
X74561836Y-63727229D01*
X74730256Y-63910182D01*
X74926491Y-64062918D01*
X75145190Y-64181272D01*
X75380386Y-64262015D01*
X75625665Y-64302944D01*
X75874335Y-64302944D01*
X76119608Y-64262016D01*
X76119607Y-64262016D01*
X76119614Y-64262015D01*
X76225607Y-64225626D01*
X76295402Y-64222477D01*
X76353548Y-64255227D01*
X78013181Y-65914860D01*
X78046666Y-65976183D01*
X78049500Y-66002541D01*
X78049500Y-72404569D01*
X78029815Y-72471608D01*
X77977011Y-72517363D01*
X77907853Y-72527307D01*
X77844297Y-72498282D01*
X77837819Y-72492250D01*
X77206516Y-71860947D01*
X77173031Y-71799624D01*
X77173992Y-71742825D01*
X77174061Y-71742550D01*
X77174063Y-71742547D01*
X77235108Y-71501487D01*
X77235109Y-71501478D01*
X77255643Y-71253671D01*
X77255643Y-71253660D01*
X77235109Y-71005853D01*
X77235107Y-71005841D01*
X77174063Y-70764784D01*
X77074173Y-70537059D01*
X76938166Y-70328883D01*
X76885957Y-70272169D01*
X76769744Y-70145928D01*
X76573509Y-69993192D01*
X76573507Y-69993191D01*
X76573506Y-69993190D01*
X76354811Y-69874838D01*
X76354802Y-69874835D01*
X76119616Y-69794095D01*
X75874335Y-69753166D01*
X75625665Y-69753166D01*
X75380383Y-69794095D01*
X75145197Y-69874835D01*
X75145188Y-69874838D01*
X74926493Y-69993190D01*
X74730257Y-70145927D01*
X74561833Y-70328883D01*
X74425827Y-70537057D01*
X74407440Y-70578977D01*
X74362483Y-70632462D01*
X74295747Y-70653152D01*
X74293884Y-70653166D01*
X70706116Y-70653166D01*
X70639077Y-70633481D01*
X70593322Y-70580677D01*
X70592560Y-70578977D01*
X70574172Y-70537057D01*
X70438166Y-70328883D01*
X70385957Y-70272169D01*
X70269744Y-70145928D01*
X70073509Y-69993192D01*
X70073507Y-69993191D01*
X70073506Y-69993190D01*
X69854811Y-69874838D01*
X69854802Y-69874835D01*
X69619616Y-69794095D01*
X69374335Y-69753166D01*
X69125665Y-69753166D01*
X68880383Y-69794095D01*
X68645197Y-69874835D01*
X68645188Y-69874838D01*
X68426493Y-69993190D01*
X68230257Y-70145927D01*
X68061833Y-70328883D01*
X67925826Y-70537059D01*
X67825936Y-70764784D01*
X67764892Y-71005841D01*
X67764890Y-71005853D01*
X67744357Y-71253660D01*
X67744357Y-71253671D01*
X60500500Y-71253671D01*
X60500500Y-67302449D01*
X67744357Y-67302449D01*
X67764890Y-67550256D01*
X67764892Y-67550268D01*
X67825936Y-67791325D01*
X67925826Y-68019050D01*
X68061833Y-68227226D01*
X68061836Y-68227229D01*
X68230256Y-68410182D01*
X68426491Y-68562918D01*
X68426493Y-68562919D01*
X68578926Y-68645412D01*
X68645190Y-68681272D01*
X68880386Y-68762015D01*
X69125665Y-68802944D01*
X69374335Y-68802944D01*
X69619614Y-68762015D01*
X69854810Y-68681272D01*
X70073509Y-68562918D01*
X70269744Y-68410182D01*
X70438164Y-68227229D01*
X70574173Y-68019051D01*
X70674063Y-67791325D01*
X70735108Y-67550265D01*
X70736075Y-67538597D01*
X70755643Y-67302449D01*
X74244357Y-67302449D01*
X74264890Y-67550256D01*
X74264892Y-67550268D01*
X74325936Y-67791325D01*
X74425826Y-68019050D01*
X74561833Y-68227226D01*
X74561836Y-68227229D01*
X74730256Y-68410182D01*
X74926491Y-68562918D01*
X74926493Y-68562919D01*
X75078926Y-68645412D01*
X75145190Y-68681272D01*
X75380386Y-68762015D01*
X75625665Y-68802944D01*
X75874335Y-68802944D01*
X76119614Y-68762015D01*
X76354810Y-68681272D01*
X76573509Y-68562918D01*
X76769744Y-68410182D01*
X76938164Y-68227229D01*
X77074173Y-68019051D01*
X77174063Y-67791325D01*
X77235108Y-67550265D01*
X77236075Y-67538597D01*
X77255643Y-67302449D01*
X77255643Y-67302438D01*
X77235109Y-67054631D01*
X77235107Y-67054619D01*
X77174063Y-66813562D01*
X77074173Y-66585837D01*
X76938166Y-66377661D01*
X76869351Y-66302908D01*
X76769744Y-66194706D01*
X76573509Y-66041970D01*
X76573507Y-66041969D01*
X76573506Y-66041968D01*
X76354811Y-65923616D01*
X76354802Y-65923613D01*
X76119616Y-65842873D01*
X75874335Y-65801944D01*
X75625665Y-65801944D01*
X75380383Y-65842873D01*
X75145197Y-65923613D01*
X75145188Y-65923616D01*
X74926493Y-66041968D01*
X74730257Y-66194705D01*
X74561833Y-66377661D01*
X74425826Y-66585837D01*
X74325936Y-66813562D01*
X74264892Y-67054619D01*
X74264890Y-67054631D01*
X74244357Y-67302438D01*
X74244357Y-67302449D01*
X70755643Y-67302449D01*
X70755643Y-67302438D01*
X70735109Y-67054631D01*
X70735107Y-67054619D01*
X70674063Y-66813562D01*
X70574173Y-66585837D01*
X70438166Y-66377661D01*
X70369351Y-66302908D01*
X70269744Y-66194706D01*
X70073509Y-66041970D01*
X70073507Y-66041969D01*
X70073506Y-66041968D01*
X69854811Y-65923616D01*
X69854802Y-65923613D01*
X69619616Y-65842873D01*
X69374335Y-65801944D01*
X69125665Y-65801944D01*
X68880383Y-65842873D01*
X68645197Y-65923613D01*
X68645188Y-65923616D01*
X68426493Y-66041968D01*
X68230257Y-66194705D01*
X68061833Y-66377661D01*
X67925826Y-66585837D01*
X67825936Y-66813562D01*
X67764892Y-67054619D01*
X67764890Y-67054631D01*
X67744357Y-67302438D01*
X67744357Y-67302449D01*
X60500500Y-67302449D01*
X60500500Y-58851227D01*
X67744357Y-58851227D01*
X67764890Y-59099034D01*
X67764892Y-59099046D01*
X67825936Y-59340103D01*
X67925826Y-59567828D01*
X68061833Y-59776004D01*
X68061836Y-59776007D01*
X68230256Y-59958960D01*
X68426491Y-60111696D01*
X68426493Y-60111697D01*
X68607852Y-60209844D01*
X68645190Y-60230050D01*
X68880386Y-60310793D01*
X69125665Y-60351722D01*
X69374335Y-60351722D01*
X69619614Y-60310793D01*
X69854810Y-60230050D01*
X70073509Y-60111696D01*
X70269744Y-59958960D01*
X70438164Y-59776007D01*
X70574173Y-59567829D01*
X70674063Y-59340103D01*
X70735108Y-59099043D01*
X70751560Y-58900500D01*
X70755643Y-58851227D01*
X74244357Y-58851227D01*
X74264890Y-59099034D01*
X74264892Y-59099046D01*
X74325936Y-59340103D01*
X74425826Y-59567828D01*
X74561833Y-59776004D01*
X74561836Y-59776007D01*
X74730256Y-59958960D01*
X74926491Y-60111696D01*
X74926493Y-60111697D01*
X75107852Y-60209844D01*
X75145190Y-60230050D01*
X75380386Y-60310793D01*
X75625665Y-60351722D01*
X75874335Y-60351722D01*
X76119614Y-60310793D01*
X76354810Y-60230050D01*
X76573509Y-60111696D01*
X76769744Y-59958960D01*
X76938164Y-59776007D01*
X77074173Y-59567829D01*
X77174063Y-59340103D01*
X77235108Y-59099043D01*
X77251560Y-58900500D01*
X77255643Y-58851227D01*
X77255643Y-58851216D01*
X77235109Y-58603409D01*
X77235107Y-58603397D01*
X77174063Y-58362340D01*
X77074173Y-58134615D01*
X76938166Y-57926439D01*
X76809199Y-57786344D01*
X76769744Y-57743484D01*
X76573509Y-57590748D01*
X76573507Y-57590747D01*
X76573506Y-57590746D01*
X76354811Y-57472394D01*
X76354802Y-57472391D01*
X76119616Y-57391651D01*
X75874335Y-57350722D01*
X75625665Y-57350722D01*
X75380383Y-57391651D01*
X75145197Y-57472391D01*
X75145188Y-57472394D01*
X74926493Y-57590746D01*
X74730257Y-57743483D01*
X74561833Y-57926439D01*
X74425826Y-58134615D01*
X74325936Y-58362340D01*
X74264892Y-58603397D01*
X74264890Y-58603409D01*
X74244357Y-58851216D01*
X74244357Y-58851227D01*
X70755643Y-58851227D01*
X70755643Y-58851216D01*
X70735109Y-58603409D01*
X70735107Y-58603397D01*
X70674063Y-58362340D01*
X70574173Y-58134615D01*
X70438166Y-57926439D01*
X70309199Y-57786344D01*
X70269744Y-57743484D01*
X70073509Y-57590748D01*
X70073507Y-57590747D01*
X70073506Y-57590746D01*
X69854811Y-57472394D01*
X69854802Y-57472391D01*
X69619616Y-57391651D01*
X69374335Y-57350722D01*
X69125665Y-57350722D01*
X68880383Y-57391651D01*
X68645197Y-57472391D01*
X68645188Y-57472394D01*
X68426493Y-57590746D01*
X68230257Y-57743483D01*
X68061833Y-57926439D01*
X67925826Y-58134615D01*
X67825936Y-58362340D01*
X67764892Y-58603397D01*
X67764890Y-58603409D01*
X67744357Y-58851216D01*
X67744357Y-58851227D01*
X60500500Y-58851227D01*
X60500500Y-50400005D01*
X67744357Y-50400005D01*
X67764890Y-50647812D01*
X67764892Y-50647824D01*
X67825936Y-50888881D01*
X67925826Y-51116606D01*
X68061833Y-51324782D01*
X68061836Y-51324785D01*
X68230256Y-51507738D01*
X68426491Y-51660474D01*
X68426493Y-51660475D01*
X68551639Y-51728201D01*
X68645190Y-51778828D01*
X68880386Y-51859571D01*
X69125665Y-51900500D01*
X69374335Y-51900500D01*
X69619614Y-51859571D01*
X69854810Y-51778828D01*
X70073509Y-51660474D01*
X70269744Y-51507738D01*
X70438164Y-51324785D01*
X70574173Y-51116607D01*
X70674063Y-50888881D01*
X70735108Y-50647821D01*
X70755643Y-50400005D01*
X74244357Y-50400005D01*
X74264890Y-50647812D01*
X74264892Y-50647824D01*
X74325936Y-50888881D01*
X74425826Y-51116606D01*
X74561833Y-51324782D01*
X74561836Y-51324785D01*
X74730256Y-51507738D01*
X74926491Y-51660474D01*
X74926493Y-51660475D01*
X75051639Y-51728201D01*
X75145190Y-51778828D01*
X75380386Y-51859571D01*
X75625665Y-51900500D01*
X75874335Y-51900500D01*
X76119614Y-51859571D01*
X76354810Y-51778828D01*
X76573509Y-51660474D01*
X76769744Y-51507738D01*
X76938164Y-51324785D01*
X77074173Y-51116607D01*
X77174063Y-50888881D01*
X77235108Y-50647821D01*
X77255643Y-50400000D01*
X77235108Y-50152179D01*
X77174063Y-49911119D01*
X77169228Y-49900097D01*
X77074173Y-49683393D01*
X76938166Y-49475217D01*
X76908723Y-49443234D01*
X76769744Y-49292262D01*
X76573509Y-49139526D01*
X76573507Y-49139525D01*
X76573506Y-49139524D01*
X76354811Y-49021172D01*
X76354802Y-49021169D01*
X76119616Y-48940429D01*
X75874335Y-48899500D01*
X75625665Y-48899500D01*
X75380383Y-48940429D01*
X75145197Y-49021169D01*
X75145188Y-49021172D01*
X74926493Y-49139524D01*
X74730257Y-49292261D01*
X74561833Y-49475217D01*
X74425826Y-49683393D01*
X74325936Y-49911118D01*
X74264892Y-50152175D01*
X74264890Y-50152187D01*
X74244357Y-50399994D01*
X74244357Y-50400005D01*
X70755643Y-50400005D01*
X70755643Y-50400000D01*
X70735108Y-50152179D01*
X70674063Y-49911119D01*
X70669228Y-49900097D01*
X70574173Y-49683393D01*
X70438166Y-49475217D01*
X70408723Y-49443234D01*
X70269744Y-49292262D01*
X70073509Y-49139526D01*
X70073507Y-49139525D01*
X70073506Y-49139524D01*
X69854811Y-49021172D01*
X69854802Y-49021169D01*
X69619616Y-48940429D01*
X69374335Y-48899500D01*
X69125665Y-48899500D01*
X68880383Y-48940429D01*
X68645197Y-49021169D01*
X68645188Y-49021172D01*
X68426493Y-49139524D01*
X68230257Y-49292261D01*
X68061833Y-49475217D01*
X67925826Y-49683393D01*
X67825936Y-49911118D01*
X67764892Y-50152175D01*
X67764890Y-50152187D01*
X67744357Y-50399994D01*
X67744357Y-50400005D01*
X60500500Y-50400005D01*
X60500500Y-43500000D01*
X62144341Y-43500000D01*
X62164936Y-43735403D01*
X62164938Y-43735413D01*
X62226094Y-43963655D01*
X62226096Y-43963659D01*
X62226097Y-43963663D01*
X62276031Y-44070746D01*
X62325964Y-44177828D01*
X62325965Y-44177830D01*
X62461505Y-44371402D01*
X62628597Y-44538494D01*
X62822169Y-44674034D01*
X62822171Y-44674035D01*
X63036337Y-44773903D01*
X63264592Y-44835063D01*
X63441034Y-44850500D01*
X63558966Y-44850500D01*
X63735408Y-44835063D01*
X63963663Y-44773903D01*
X64177829Y-44674035D01*
X64371401Y-44538495D01*
X64538495Y-44371401D01*
X64674035Y-44177830D01*
X64773903Y-43963663D01*
X64835063Y-43735408D01*
X64855659Y-43500000D01*
X100144341Y-43500000D01*
X100164936Y-43735403D01*
X100164938Y-43735413D01*
X100226094Y-43963655D01*
X100226096Y-43963659D01*
X100226097Y-43963663D01*
X100276031Y-44070746D01*
X100325964Y-44177828D01*
X100325965Y-44177830D01*
X100461505Y-44371402D01*
X100628597Y-44538494D01*
X100822169Y-44674034D01*
X100822171Y-44674035D01*
X101036337Y-44773903D01*
X101264592Y-44835063D01*
X101441034Y-44850500D01*
X101558966Y-44850500D01*
X101735408Y-44835063D01*
X101963663Y-44773903D01*
X102177829Y-44674035D01*
X102371401Y-44538495D01*
X102538495Y-44371401D01*
X102674035Y-44177830D01*
X102773903Y-43963663D01*
X102835063Y-43735408D01*
X102855659Y-43500000D01*
X102835063Y-43264592D01*
X102773903Y-43036337D01*
X102674035Y-42822171D01*
X102674034Y-42822169D01*
X102538494Y-42628597D01*
X102371402Y-42461505D01*
X102177830Y-42325965D01*
X102177828Y-42325964D01*
X102070746Y-42276031D01*
X101963663Y-42226097D01*
X101963659Y-42226096D01*
X101963655Y-42226094D01*
X101735413Y-42164938D01*
X101735403Y-42164936D01*
X101558966Y-42149500D01*
X101441034Y-42149500D01*
X101264596Y-42164936D01*
X101264586Y-42164938D01*
X101036344Y-42226094D01*
X101036335Y-42226098D01*
X100822171Y-42325964D01*
X100822169Y-42325965D01*
X100628597Y-42461505D01*
X100461506Y-42628597D01*
X100461501Y-42628604D01*
X100325967Y-42822165D01*
X100325965Y-42822169D01*
X100226098Y-43036335D01*
X100226094Y-43036344D01*
X100164938Y-43264586D01*
X100164936Y-43264596D01*
X100144341Y-43499999D01*
X100144341Y-43500000D01*
X64855659Y-43500000D01*
X64835063Y-43264592D01*
X64773903Y-43036337D01*
X64674035Y-42822171D01*
X64674034Y-42822169D01*
X64538494Y-42628597D01*
X64371402Y-42461505D01*
X64177830Y-42325965D01*
X64177828Y-42325964D01*
X64070746Y-42276031D01*
X63963663Y-42226097D01*
X63963659Y-42226096D01*
X63963655Y-42226094D01*
X63735413Y-42164938D01*
X63735403Y-42164936D01*
X63558966Y-42149500D01*
X63441034Y-42149500D01*
X63264596Y-42164936D01*
X63264586Y-42164938D01*
X63036344Y-42226094D01*
X63036335Y-42226098D01*
X62822171Y-42325964D01*
X62822169Y-42325965D01*
X62628597Y-42461505D01*
X62461506Y-42628597D01*
X62461501Y-42628604D01*
X62325967Y-42822165D01*
X62325965Y-42822169D01*
X62226098Y-43036335D01*
X62226094Y-43036344D01*
X62164938Y-43264586D01*
X62164936Y-43264596D01*
X62144341Y-43499999D01*
X62144341Y-43500000D01*
X60500500Y-43500000D01*
X60500500Y-41003482D01*
X60500890Y-40996535D01*
X60511459Y-40902731D01*
X60517635Y-40875670D01*
X60545353Y-40796456D01*
X60557396Y-40771450D01*
X60602046Y-40700389D01*
X60619351Y-40678690D01*
X60678690Y-40619351D01*
X60700389Y-40602046D01*
X60771450Y-40557396D01*
X60796456Y-40545353D01*
X60875670Y-40517635D01*
X60902733Y-40511459D01*
X60996541Y-40500889D01*
X61003483Y-40500500D01*
X61065892Y-40500500D01*
X103934108Y-40500500D01*
X103996517Y-40500500D01*
X104003458Y-40500889D01*
G37*
G04 #@! TD.AperFunction*
M02*
