%TF.GenerationSoftware,KiCad,Pcbnew,7.0.9*%
%TF.CreationDate,2024-01-02T17:06:05-06:00*%
%TF.ProjectId,basic_expander_v2.1,62617369-635f-4657-9870-616e6465725f,rev?*%
%TF.SameCoordinates,Original*%
%TF.FileFunction,Drillmap*%
%TF.FilePolarity,Positive*%
%FSLAX45Y45*%
G04 Gerber Fmt 4.5, Leading zero omitted, Abs format (unit mm)*
G04 Created by KiCad (PCBNEW 7.0.9) date 2024-01-02 17:06:05*
%MOMM*%
%LPD*%
G01*
G04 APERTURE LIST*
%ADD10C,0.050000*%
%ADD11C,0.200000*%
%ADD12C,0.220000*%
G04 APERTURE END LIST*
D10*
X6000000Y-4100000D02*
X6000000Y-9600000D01*
X6200000Y-9800000D02*
X10300000Y-9800000D01*
X10500000Y-4100000D02*
X10500000Y-9600000D01*
X6000000Y-9600000D02*
G75*
G03*
X6200000Y-9800000I200000J0D01*
G01*
X6100000Y-4000000D02*
G75*
G03*
X6000000Y-4100000I0J-100000D01*
G01*
X10300000Y-9800000D02*
G75*
G03*
X10500000Y-9600000I0J200000D01*
G01*
X6100000Y-4000000D02*
X10400000Y-4000000D01*
X10500000Y-4100000D02*
G75*
G03*
X10400000Y-4000000I-100000J0D01*
G01*
D11*
D12*
X6240000Y-4240000D02*
X6460000Y-4460000D01*
X6460000Y-4240000D02*
X6240000Y-4460000D01*
X6240000Y-9340000D02*
X6460000Y-9560000D01*
X6460000Y-9340000D02*
X6240000Y-9560000D01*
X10040000Y-4240000D02*
X10260000Y-4460000D01*
X10260000Y-4240000D02*
X10040000Y-4460000D01*
X10040000Y-9340000D02*
X10260000Y-9560000D01*
X10260000Y-9340000D02*
X10040000Y-9560000D01*
D11*
X6258277Y-10113984D02*
X6258277Y-9913984D01*
X6258277Y-9913984D02*
X6305896Y-9913984D01*
X6305896Y-9913984D02*
X6334467Y-9923508D01*
X6334467Y-9923508D02*
X6353515Y-9942555D01*
X6353515Y-9942555D02*
X6363039Y-9961603D01*
X6363039Y-9961603D02*
X6372562Y-9999698D01*
X6372562Y-9999698D02*
X6372562Y-10028270D01*
X6372562Y-10028270D02*
X6363039Y-10066365D01*
X6363039Y-10066365D02*
X6353515Y-10085412D01*
X6353515Y-10085412D02*
X6334467Y-10104460D01*
X6334467Y-10104460D02*
X6305896Y-10113984D01*
X6305896Y-10113984D02*
X6258277Y-10113984D01*
X6458277Y-10113984D02*
X6458277Y-9980650D01*
X6458277Y-10018746D02*
X6467801Y-9999698D01*
X6467801Y-9999698D02*
X6477324Y-9990174D01*
X6477324Y-9990174D02*
X6496372Y-9980650D01*
X6496372Y-9980650D02*
X6515420Y-9980650D01*
X6582086Y-10113984D02*
X6582086Y-9980650D01*
X6582086Y-9913984D02*
X6572562Y-9923508D01*
X6572562Y-9923508D02*
X6582086Y-9933031D01*
X6582086Y-9933031D02*
X6591610Y-9923508D01*
X6591610Y-9923508D02*
X6582086Y-9913984D01*
X6582086Y-9913984D02*
X6582086Y-9933031D01*
X6705896Y-10113984D02*
X6686848Y-10104460D01*
X6686848Y-10104460D02*
X6677324Y-10085412D01*
X6677324Y-10085412D02*
X6677324Y-9913984D01*
X6810658Y-10113984D02*
X6791610Y-10104460D01*
X6791610Y-10104460D02*
X6782086Y-10085412D01*
X6782086Y-10085412D02*
X6782086Y-9913984D01*
X7039229Y-10113984D02*
X7039229Y-9913984D01*
X7039229Y-9913984D02*
X7105896Y-10056841D01*
X7105896Y-10056841D02*
X7172562Y-9913984D01*
X7172562Y-9913984D02*
X7172562Y-10113984D01*
X7353515Y-10113984D02*
X7353515Y-10009222D01*
X7353515Y-10009222D02*
X7343991Y-9990174D01*
X7343991Y-9990174D02*
X7324943Y-9980650D01*
X7324943Y-9980650D02*
X7286848Y-9980650D01*
X7286848Y-9980650D02*
X7267801Y-9990174D01*
X7353515Y-10104460D02*
X7334467Y-10113984D01*
X7334467Y-10113984D02*
X7286848Y-10113984D01*
X7286848Y-10113984D02*
X7267801Y-10104460D01*
X7267801Y-10104460D02*
X7258277Y-10085412D01*
X7258277Y-10085412D02*
X7258277Y-10066365D01*
X7258277Y-10066365D02*
X7267801Y-10047317D01*
X7267801Y-10047317D02*
X7286848Y-10037793D01*
X7286848Y-10037793D02*
X7334467Y-10037793D01*
X7334467Y-10037793D02*
X7353515Y-10028270D01*
X7448753Y-9980650D02*
X7448753Y-10180650D01*
X7448753Y-9990174D02*
X7467801Y-9980650D01*
X7467801Y-9980650D02*
X7505896Y-9980650D01*
X7505896Y-9980650D02*
X7524943Y-9990174D01*
X7524943Y-9990174D02*
X7534467Y-9999698D01*
X7534467Y-9999698D02*
X7543991Y-10018746D01*
X7543991Y-10018746D02*
X7543991Y-10075889D01*
X7543991Y-10075889D02*
X7534467Y-10094936D01*
X7534467Y-10094936D02*
X7524943Y-10104460D01*
X7524943Y-10104460D02*
X7505896Y-10113984D01*
X7505896Y-10113984D02*
X7467801Y-10113984D01*
X7467801Y-10113984D02*
X7448753Y-10104460D01*
X7629705Y-10094936D02*
X7639229Y-10104460D01*
X7639229Y-10104460D02*
X7629705Y-10113984D01*
X7629705Y-10113984D02*
X7620182Y-10104460D01*
X7620182Y-10104460D02*
X7629705Y-10094936D01*
X7629705Y-10094936D02*
X7629705Y-10113984D01*
X7629705Y-9990174D02*
X7639229Y-9999698D01*
X7639229Y-9999698D02*
X7629705Y-10009222D01*
X7629705Y-10009222D02*
X7620182Y-9999698D01*
X7620182Y-9999698D02*
X7629705Y-9990174D01*
X7629705Y-9990174D02*
X7629705Y-10009222D01*
X5797500Y-10342500D02*
X5997500Y-10542500D01*
X5997500Y-10342500D02*
X5797500Y-10542500D01*
X6248753Y-10353031D02*
X6258277Y-10343508D01*
X6258277Y-10343508D02*
X6277324Y-10333984D01*
X6277324Y-10333984D02*
X6324943Y-10333984D01*
X6324943Y-10333984D02*
X6343991Y-10343508D01*
X6343991Y-10343508D02*
X6353515Y-10353031D01*
X6353515Y-10353031D02*
X6363039Y-10372079D01*
X6363039Y-10372079D02*
X6363039Y-10391127D01*
X6363039Y-10391127D02*
X6353515Y-10419698D01*
X6353515Y-10419698D02*
X6239229Y-10533984D01*
X6239229Y-10533984D02*
X6363039Y-10533984D01*
X6448753Y-10514936D02*
X6458277Y-10524460D01*
X6458277Y-10524460D02*
X6448753Y-10533984D01*
X6448753Y-10533984D02*
X6439229Y-10524460D01*
X6439229Y-10524460D02*
X6448753Y-10514936D01*
X6448753Y-10514936D02*
X6448753Y-10533984D01*
X6534467Y-10353031D02*
X6543991Y-10343508D01*
X6543991Y-10343508D02*
X6563039Y-10333984D01*
X6563039Y-10333984D02*
X6610658Y-10333984D01*
X6610658Y-10333984D02*
X6629705Y-10343508D01*
X6629705Y-10343508D02*
X6639229Y-10353031D01*
X6639229Y-10353031D02*
X6648753Y-10372079D01*
X6648753Y-10372079D02*
X6648753Y-10391127D01*
X6648753Y-10391127D02*
X6639229Y-10419698D01*
X6639229Y-10419698D02*
X6524943Y-10533984D01*
X6524943Y-10533984D02*
X6648753Y-10533984D01*
X6772562Y-10333984D02*
X6791610Y-10333984D01*
X6791610Y-10333984D02*
X6810658Y-10343508D01*
X6810658Y-10343508D02*
X6820182Y-10353031D01*
X6820182Y-10353031D02*
X6829705Y-10372079D01*
X6829705Y-10372079D02*
X6839229Y-10410174D01*
X6839229Y-10410174D02*
X6839229Y-10457793D01*
X6839229Y-10457793D02*
X6829705Y-10495889D01*
X6829705Y-10495889D02*
X6820182Y-10514936D01*
X6820182Y-10514936D02*
X6810658Y-10524460D01*
X6810658Y-10524460D02*
X6791610Y-10533984D01*
X6791610Y-10533984D02*
X6772562Y-10533984D01*
X6772562Y-10533984D02*
X6753515Y-10524460D01*
X6753515Y-10524460D02*
X6743991Y-10514936D01*
X6743991Y-10514936D02*
X6734467Y-10495889D01*
X6734467Y-10495889D02*
X6724943Y-10457793D01*
X6724943Y-10457793D02*
X6724943Y-10410174D01*
X6724943Y-10410174D02*
X6734467Y-10372079D01*
X6734467Y-10372079D02*
X6743991Y-10353031D01*
X6743991Y-10353031D02*
X6753515Y-10343508D01*
X6753515Y-10343508D02*
X6772562Y-10333984D01*
X6963039Y-10333984D02*
X6982086Y-10333984D01*
X6982086Y-10333984D02*
X7001134Y-10343508D01*
X7001134Y-10343508D02*
X7010658Y-10353031D01*
X7010658Y-10353031D02*
X7020182Y-10372079D01*
X7020182Y-10372079D02*
X7029705Y-10410174D01*
X7029705Y-10410174D02*
X7029705Y-10457793D01*
X7029705Y-10457793D02*
X7020182Y-10495889D01*
X7020182Y-10495889D02*
X7010658Y-10514936D01*
X7010658Y-10514936D02*
X7001134Y-10524460D01*
X7001134Y-10524460D02*
X6982086Y-10533984D01*
X6982086Y-10533984D02*
X6963039Y-10533984D01*
X6963039Y-10533984D02*
X6943991Y-10524460D01*
X6943991Y-10524460D02*
X6934467Y-10514936D01*
X6934467Y-10514936D02*
X6924943Y-10495889D01*
X6924943Y-10495889D02*
X6915420Y-10457793D01*
X6915420Y-10457793D02*
X6915420Y-10410174D01*
X6915420Y-10410174D02*
X6924943Y-10372079D01*
X6924943Y-10372079D02*
X6934467Y-10353031D01*
X6934467Y-10353031D02*
X6943991Y-10343508D01*
X6943991Y-10343508D02*
X6963039Y-10333984D01*
X7115420Y-10533984D02*
X7115420Y-10400650D01*
X7115420Y-10419698D02*
X7124943Y-10410174D01*
X7124943Y-10410174D02*
X7143991Y-10400650D01*
X7143991Y-10400650D02*
X7172563Y-10400650D01*
X7172563Y-10400650D02*
X7191610Y-10410174D01*
X7191610Y-10410174D02*
X7201134Y-10429222D01*
X7201134Y-10429222D02*
X7201134Y-10533984D01*
X7201134Y-10429222D02*
X7210658Y-10410174D01*
X7210658Y-10410174D02*
X7229705Y-10400650D01*
X7229705Y-10400650D02*
X7258277Y-10400650D01*
X7258277Y-10400650D02*
X7277324Y-10410174D01*
X7277324Y-10410174D02*
X7286848Y-10429222D01*
X7286848Y-10429222D02*
X7286848Y-10533984D01*
X7382086Y-10533984D02*
X7382086Y-10400650D01*
X7382086Y-10419698D02*
X7391610Y-10410174D01*
X7391610Y-10410174D02*
X7410658Y-10400650D01*
X7410658Y-10400650D02*
X7439229Y-10400650D01*
X7439229Y-10400650D02*
X7458277Y-10410174D01*
X7458277Y-10410174D02*
X7467801Y-10429222D01*
X7467801Y-10429222D02*
X7467801Y-10533984D01*
X7467801Y-10429222D02*
X7477324Y-10410174D01*
X7477324Y-10410174D02*
X7496372Y-10400650D01*
X7496372Y-10400650D02*
X7524943Y-10400650D01*
X7524943Y-10400650D02*
X7543991Y-10410174D01*
X7543991Y-10410174D02*
X7553515Y-10429222D01*
X7553515Y-10429222D02*
X7553515Y-10533984D01*
X7943991Y-10324460D02*
X7772563Y-10581603D01*
X8201134Y-10333984D02*
X8220182Y-10333984D01*
X8220182Y-10333984D02*
X8239229Y-10343508D01*
X8239229Y-10343508D02*
X8248753Y-10353031D01*
X8248753Y-10353031D02*
X8258277Y-10372079D01*
X8258277Y-10372079D02*
X8267801Y-10410174D01*
X8267801Y-10410174D02*
X8267801Y-10457793D01*
X8267801Y-10457793D02*
X8258277Y-10495889D01*
X8258277Y-10495889D02*
X8248753Y-10514936D01*
X8248753Y-10514936D02*
X8239229Y-10524460D01*
X8239229Y-10524460D02*
X8220182Y-10533984D01*
X8220182Y-10533984D02*
X8201134Y-10533984D01*
X8201134Y-10533984D02*
X8182086Y-10524460D01*
X8182086Y-10524460D02*
X8172563Y-10514936D01*
X8172563Y-10514936D02*
X8163039Y-10495889D01*
X8163039Y-10495889D02*
X8153515Y-10457793D01*
X8153515Y-10457793D02*
X8153515Y-10410174D01*
X8153515Y-10410174D02*
X8163039Y-10372079D01*
X8163039Y-10372079D02*
X8172563Y-10353031D01*
X8172563Y-10353031D02*
X8182086Y-10343508D01*
X8182086Y-10343508D02*
X8201134Y-10333984D01*
X8353515Y-10514936D02*
X8363039Y-10524460D01*
X8363039Y-10524460D02*
X8353515Y-10533984D01*
X8353515Y-10533984D02*
X8343991Y-10524460D01*
X8343991Y-10524460D02*
X8353515Y-10514936D01*
X8353515Y-10514936D02*
X8353515Y-10533984D01*
X8486848Y-10333984D02*
X8505896Y-10333984D01*
X8505896Y-10333984D02*
X8524944Y-10343508D01*
X8524944Y-10343508D02*
X8534468Y-10353031D01*
X8534468Y-10353031D02*
X8543991Y-10372079D01*
X8543991Y-10372079D02*
X8553515Y-10410174D01*
X8553515Y-10410174D02*
X8553515Y-10457793D01*
X8553515Y-10457793D02*
X8543991Y-10495889D01*
X8543991Y-10495889D02*
X8534468Y-10514936D01*
X8534468Y-10514936D02*
X8524944Y-10524460D01*
X8524944Y-10524460D02*
X8505896Y-10533984D01*
X8505896Y-10533984D02*
X8486848Y-10533984D01*
X8486848Y-10533984D02*
X8467801Y-10524460D01*
X8467801Y-10524460D02*
X8458277Y-10514936D01*
X8458277Y-10514936D02*
X8448753Y-10495889D01*
X8448753Y-10495889D02*
X8439229Y-10457793D01*
X8439229Y-10457793D02*
X8439229Y-10410174D01*
X8439229Y-10410174D02*
X8448753Y-10372079D01*
X8448753Y-10372079D02*
X8458277Y-10353031D01*
X8458277Y-10353031D02*
X8467801Y-10343508D01*
X8467801Y-10343508D02*
X8486848Y-10333984D01*
X8667801Y-10419698D02*
X8648753Y-10410174D01*
X8648753Y-10410174D02*
X8639229Y-10400650D01*
X8639229Y-10400650D02*
X8629706Y-10381603D01*
X8629706Y-10381603D02*
X8629706Y-10372079D01*
X8629706Y-10372079D02*
X8639229Y-10353031D01*
X8639229Y-10353031D02*
X8648753Y-10343508D01*
X8648753Y-10343508D02*
X8667801Y-10333984D01*
X8667801Y-10333984D02*
X8705896Y-10333984D01*
X8705896Y-10333984D02*
X8724944Y-10343508D01*
X8724944Y-10343508D02*
X8734468Y-10353031D01*
X8734468Y-10353031D02*
X8743991Y-10372079D01*
X8743991Y-10372079D02*
X8743991Y-10381603D01*
X8743991Y-10381603D02*
X8734468Y-10400650D01*
X8734468Y-10400650D02*
X8724944Y-10410174D01*
X8724944Y-10410174D02*
X8705896Y-10419698D01*
X8705896Y-10419698D02*
X8667801Y-10419698D01*
X8667801Y-10419698D02*
X8648753Y-10429222D01*
X8648753Y-10429222D02*
X8639229Y-10438746D01*
X8639229Y-10438746D02*
X8629706Y-10457793D01*
X8629706Y-10457793D02*
X8629706Y-10495889D01*
X8629706Y-10495889D02*
X8639229Y-10514936D01*
X8639229Y-10514936D02*
X8648753Y-10524460D01*
X8648753Y-10524460D02*
X8667801Y-10533984D01*
X8667801Y-10533984D02*
X8705896Y-10533984D01*
X8705896Y-10533984D02*
X8724944Y-10524460D01*
X8724944Y-10524460D02*
X8734468Y-10514936D01*
X8734468Y-10514936D02*
X8743991Y-10495889D01*
X8743991Y-10495889D02*
X8743991Y-10457793D01*
X8743991Y-10457793D02*
X8734468Y-10438746D01*
X8734468Y-10438746D02*
X8724944Y-10429222D01*
X8724944Y-10429222D02*
X8705896Y-10419698D01*
X8915420Y-10333984D02*
X8877325Y-10333984D01*
X8877325Y-10333984D02*
X8858277Y-10343508D01*
X8858277Y-10343508D02*
X8848753Y-10353031D01*
X8848753Y-10353031D02*
X8829706Y-10381603D01*
X8829706Y-10381603D02*
X8820182Y-10419698D01*
X8820182Y-10419698D02*
X8820182Y-10495889D01*
X8820182Y-10495889D02*
X8829706Y-10514936D01*
X8829706Y-10514936D02*
X8839229Y-10524460D01*
X8839229Y-10524460D02*
X8858277Y-10533984D01*
X8858277Y-10533984D02*
X8896372Y-10533984D01*
X8896372Y-10533984D02*
X8915420Y-10524460D01*
X8915420Y-10524460D02*
X8924944Y-10514936D01*
X8924944Y-10514936D02*
X8934468Y-10495889D01*
X8934468Y-10495889D02*
X8934468Y-10448270D01*
X8934468Y-10448270D02*
X8924944Y-10429222D01*
X8924944Y-10429222D02*
X8915420Y-10419698D01*
X8915420Y-10419698D02*
X8896372Y-10410174D01*
X8896372Y-10410174D02*
X8858277Y-10410174D01*
X8858277Y-10410174D02*
X8839229Y-10419698D01*
X8839229Y-10419698D02*
X8829706Y-10429222D01*
X8829706Y-10429222D02*
X8820182Y-10448270D01*
X9105896Y-10333984D02*
X9067801Y-10333984D01*
X9067801Y-10333984D02*
X9048753Y-10343508D01*
X9048753Y-10343508D02*
X9039229Y-10353031D01*
X9039229Y-10353031D02*
X9020182Y-10381603D01*
X9020182Y-10381603D02*
X9010658Y-10419698D01*
X9010658Y-10419698D02*
X9010658Y-10495889D01*
X9010658Y-10495889D02*
X9020182Y-10514936D01*
X9020182Y-10514936D02*
X9029706Y-10524460D01*
X9029706Y-10524460D02*
X9048753Y-10533984D01*
X9048753Y-10533984D02*
X9086849Y-10533984D01*
X9086849Y-10533984D02*
X9105896Y-10524460D01*
X9105896Y-10524460D02*
X9115420Y-10514936D01*
X9115420Y-10514936D02*
X9124944Y-10495889D01*
X9124944Y-10495889D02*
X9124944Y-10448270D01*
X9124944Y-10448270D02*
X9115420Y-10429222D01*
X9115420Y-10429222D02*
X9105896Y-10419698D01*
X9105896Y-10419698D02*
X9086849Y-10410174D01*
X9086849Y-10410174D02*
X9048753Y-10410174D01*
X9048753Y-10410174D02*
X9029706Y-10419698D01*
X9029706Y-10419698D02*
X9020182Y-10429222D01*
X9020182Y-10429222D02*
X9010658Y-10448270D01*
X9201134Y-10333984D02*
X9201134Y-10372079D01*
X9277325Y-10333984D02*
X9277325Y-10372079D01*
X9572563Y-10610174D02*
X9563039Y-10600650D01*
X9563039Y-10600650D02*
X9543991Y-10572079D01*
X9543991Y-10572079D02*
X9534468Y-10553031D01*
X9534468Y-10553031D02*
X9524944Y-10524460D01*
X9524944Y-10524460D02*
X9515420Y-10476841D01*
X9515420Y-10476841D02*
X9515420Y-10438746D01*
X9515420Y-10438746D02*
X9524944Y-10391127D01*
X9524944Y-10391127D02*
X9534468Y-10362555D01*
X9534468Y-10362555D02*
X9543991Y-10343508D01*
X9543991Y-10343508D02*
X9563039Y-10314936D01*
X9563039Y-10314936D02*
X9572563Y-10305412D01*
X9734468Y-10400650D02*
X9734468Y-10533984D01*
X9686849Y-10324460D02*
X9639230Y-10467317D01*
X9639230Y-10467317D02*
X9763039Y-10467317D01*
X9991611Y-10533984D02*
X9991611Y-10333984D01*
X10077325Y-10533984D02*
X10077325Y-10429222D01*
X10077325Y-10429222D02*
X10067801Y-10410174D01*
X10067801Y-10410174D02*
X10048753Y-10400650D01*
X10048753Y-10400650D02*
X10020182Y-10400650D01*
X10020182Y-10400650D02*
X10001134Y-10410174D01*
X10001134Y-10410174D02*
X9991611Y-10419698D01*
X10201134Y-10533984D02*
X10182087Y-10524460D01*
X10182087Y-10524460D02*
X10172563Y-10514936D01*
X10172563Y-10514936D02*
X10163039Y-10495889D01*
X10163039Y-10495889D02*
X10163039Y-10438746D01*
X10163039Y-10438746D02*
X10172563Y-10419698D01*
X10172563Y-10419698D02*
X10182087Y-10410174D01*
X10182087Y-10410174D02*
X10201134Y-10400650D01*
X10201134Y-10400650D02*
X10229706Y-10400650D01*
X10229706Y-10400650D02*
X10248753Y-10410174D01*
X10248753Y-10410174D02*
X10258277Y-10419698D01*
X10258277Y-10419698D02*
X10267801Y-10438746D01*
X10267801Y-10438746D02*
X10267801Y-10495889D01*
X10267801Y-10495889D02*
X10258277Y-10514936D01*
X10258277Y-10514936D02*
X10248753Y-10524460D01*
X10248753Y-10524460D02*
X10229706Y-10533984D01*
X10229706Y-10533984D02*
X10201134Y-10533984D01*
X10382087Y-10533984D02*
X10363039Y-10524460D01*
X10363039Y-10524460D02*
X10353515Y-10505412D01*
X10353515Y-10505412D02*
X10353515Y-10333984D01*
X10534468Y-10524460D02*
X10515420Y-10533984D01*
X10515420Y-10533984D02*
X10477325Y-10533984D01*
X10477325Y-10533984D02*
X10458277Y-10524460D01*
X10458277Y-10524460D02*
X10448753Y-10505412D01*
X10448753Y-10505412D02*
X10448753Y-10429222D01*
X10448753Y-10429222D02*
X10458277Y-10410174D01*
X10458277Y-10410174D02*
X10477325Y-10400650D01*
X10477325Y-10400650D02*
X10515420Y-10400650D01*
X10515420Y-10400650D02*
X10534468Y-10410174D01*
X10534468Y-10410174D02*
X10543992Y-10429222D01*
X10543992Y-10429222D02*
X10543992Y-10448270D01*
X10543992Y-10448270D02*
X10448753Y-10467317D01*
X10620182Y-10524460D02*
X10639230Y-10533984D01*
X10639230Y-10533984D02*
X10677325Y-10533984D01*
X10677325Y-10533984D02*
X10696373Y-10524460D01*
X10696373Y-10524460D02*
X10705896Y-10505412D01*
X10705896Y-10505412D02*
X10705896Y-10495889D01*
X10705896Y-10495889D02*
X10696373Y-10476841D01*
X10696373Y-10476841D02*
X10677325Y-10467317D01*
X10677325Y-10467317D02*
X10648753Y-10467317D01*
X10648753Y-10467317D02*
X10629706Y-10457793D01*
X10629706Y-10457793D02*
X10620182Y-10438746D01*
X10620182Y-10438746D02*
X10620182Y-10429222D01*
X10620182Y-10429222D02*
X10629706Y-10410174D01*
X10629706Y-10410174D02*
X10648753Y-10400650D01*
X10648753Y-10400650D02*
X10677325Y-10400650D01*
X10677325Y-10400650D02*
X10696373Y-10410174D01*
X10772563Y-10610174D02*
X10782087Y-10600650D01*
X10782087Y-10600650D02*
X10801134Y-10572079D01*
X10801134Y-10572079D02*
X10810658Y-10553031D01*
X10810658Y-10553031D02*
X10820182Y-10524460D01*
X10820182Y-10524460D02*
X10829706Y-10476841D01*
X10829706Y-10476841D02*
X10829706Y-10438746D01*
X10829706Y-10438746D02*
X10820182Y-10391127D01*
X10820182Y-10391127D02*
X10810658Y-10362555D01*
X10810658Y-10362555D02*
X10801134Y-10343508D01*
X10801134Y-10343508D02*
X10782087Y-10314936D01*
X10782087Y-10314936D02*
X10772563Y-10305412D01*
X11134468Y-10610174D02*
X11124944Y-10600650D01*
X11124944Y-10600650D02*
X11105896Y-10572079D01*
X11105896Y-10572079D02*
X11096373Y-10553031D01*
X11096373Y-10553031D02*
X11086849Y-10524460D01*
X11086849Y-10524460D02*
X11077325Y-10476841D01*
X11077325Y-10476841D02*
X11077325Y-10438746D01*
X11077325Y-10438746D02*
X11086849Y-10391127D01*
X11086849Y-10391127D02*
X11096373Y-10362555D01*
X11096373Y-10362555D02*
X11105896Y-10343508D01*
X11105896Y-10343508D02*
X11124944Y-10314936D01*
X11124944Y-10314936D02*
X11134468Y-10305412D01*
X11210658Y-10400650D02*
X11210658Y-10533984D01*
X11210658Y-10419698D02*
X11220182Y-10410174D01*
X11220182Y-10410174D02*
X11239230Y-10400650D01*
X11239230Y-10400650D02*
X11267801Y-10400650D01*
X11267801Y-10400650D02*
X11286849Y-10410174D01*
X11286849Y-10410174D02*
X11296372Y-10429222D01*
X11296372Y-10429222D02*
X11296372Y-10533984D01*
X11420182Y-10533984D02*
X11401134Y-10524460D01*
X11401134Y-10524460D02*
X11391611Y-10514936D01*
X11391611Y-10514936D02*
X11382087Y-10495889D01*
X11382087Y-10495889D02*
X11382087Y-10438746D01*
X11382087Y-10438746D02*
X11391611Y-10419698D01*
X11391611Y-10419698D02*
X11401134Y-10410174D01*
X11401134Y-10410174D02*
X11420182Y-10400650D01*
X11420182Y-10400650D02*
X11448753Y-10400650D01*
X11448753Y-10400650D02*
X11467801Y-10410174D01*
X11467801Y-10410174D02*
X11477325Y-10419698D01*
X11477325Y-10419698D02*
X11486849Y-10438746D01*
X11486849Y-10438746D02*
X11486849Y-10495889D01*
X11486849Y-10495889D02*
X11477325Y-10514936D01*
X11477325Y-10514936D02*
X11467801Y-10524460D01*
X11467801Y-10524460D02*
X11448753Y-10533984D01*
X11448753Y-10533984D02*
X11420182Y-10533984D01*
X11543992Y-10400650D02*
X11620182Y-10400650D01*
X11572563Y-10333984D02*
X11572563Y-10505412D01*
X11572563Y-10505412D02*
X11582087Y-10524460D01*
X11582087Y-10524460D02*
X11601134Y-10533984D01*
X11601134Y-10533984D02*
X11620182Y-10533984D01*
X11839230Y-10400650D02*
X11839230Y-10600650D01*
X11839230Y-10410174D02*
X11858277Y-10400650D01*
X11858277Y-10400650D02*
X11896373Y-10400650D01*
X11896373Y-10400650D02*
X11915420Y-10410174D01*
X11915420Y-10410174D02*
X11924944Y-10419698D01*
X11924944Y-10419698D02*
X11934468Y-10438746D01*
X11934468Y-10438746D02*
X11934468Y-10495889D01*
X11934468Y-10495889D02*
X11924944Y-10514936D01*
X11924944Y-10514936D02*
X11915420Y-10524460D01*
X11915420Y-10524460D02*
X11896373Y-10533984D01*
X11896373Y-10533984D02*
X11858277Y-10533984D01*
X11858277Y-10533984D02*
X11839230Y-10524460D01*
X12048753Y-10533984D02*
X12029706Y-10524460D01*
X12029706Y-10524460D02*
X12020182Y-10505412D01*
X12020182Y-10505412D02*
X12020182Y-10333984D01*
X12210658Y-10533984D02*
X12210658Y-10429222D01*
X12210658Y-10429222D02*
X12201134Y-10410174D01*
X12201134Y-10410174D02*
X12182087Y-10400650D01*
X12182087Y-10400650D02*
X12143992Y-10400650D01*
X12143992Y-10400650D02*
X12124944Y-10410174D01*
X12210658Y-10524460D02*
X12191611Y-10533984D01*
X12191611Y-10533984D02*
X12143992Y-10533984D01*
X12143992Y-10533984D02*
X12124944Y-10524460D01*
X12124944Y-10524460D02*
X12115420Y-10505412D01*
X12115420Y-10505412D02*
X12115420Y-10486365D01*
X12115420Y-10486365D02*
X12124944Y-10467317D01*
X12124944Y-10467317D02*
X12143992Y-10457793D01*
X12143992Y-10457793D02*
X12191611Y-10457793D01*
X12191611Y-10457793D02*
X12210658Y-10448270D01*
X12277325Y-10400650D02*
X12353515Y-10400650D01*
X12305896Y-10333984D02*
X12305896Y-10505412D01*
X12305896Y-10505412D02*
X12315420Y-10524460D01*
X12315420Y-10524460D02*
X12334468Y-10533984D01*
X12334468Y-10533984D02*
X12353515Y-10533984D01*
X12496373Y-10524460D02*
X12477325Y-10533984D01*
X12477325Y-10533984D02*
X12439230Y-10533984D01*
X12439230Y-10533984D02*
X12420182Y-10524460D01*
X12420182Y-10524460D02*
X12410658Y-10505412D01*
X12410658Y-10505412D02*
X12410658Y-10429222D01*
X12410658Y-10429222D02*
X12420182Y-10410174D01*
X12420182Y-10410174D02*
X12439230Y-10400650D01*
X12439230Y-10400650D02*
X12477325Y-10400650D01*
X12477325Y-10400650D02*
X12496373Y-10410174D01*
X12496373Y-10410174D02*
X12505896Y-10429222D01*
X12505896Y-10429222D02*
X12505896Y-10448270D01*
X12505896Y-10448270D02*
X12410658Y-10467317D01*
X12677325Y-10533984D02*
X12677325Y-10333984D01*
X12677325Y-10524460D02*
X12658277Y-10533984D01*
X12658277Y-10533984D02*
X12620182Y-10533984D01*
X12620182Y-10533984D02*
X12601134Y-10524460D01*
X12601134Y-10524460D02*
X12591611Y-10514936D01*
X12591611Y-10514936D02*
X12582087Y-10495889D01*
X12582087Y-10495889D02*
X12582087Y-10438746D01*
X12582087Y-10438746D02*
X12591611Y-10419698D01*
X12591611Y-10419698D02*
X12601134Y-10410174D01*
X12601134Y-10410174D02*
X12620182Y-10400650D01*
X12620182Y-10400650D02*
X12658277Y-10400650D01*
X12658277Y-10400650D02*
X12677325Y-10410174D01*
X12753515Y-10610174D02*
X12763039Y-10600650D01*
X12763039Y-10600650D02*
X12782087Y-10572079D01*
X12782087Y-10572079D02*
X12791611Y-10553031D01*
X12791611Y-10553031D02*
X12801134Y-10524460D01*
X12801134Y-10524460D02*
X12810658Y-10476841D01*
X12810658Y-10476841D02*
X12810658Y-10438746D01*
X12810658Y-10438746D02*
X12801134Y-10391127D01*
X12801134Y-10391127D02*
X12791611Y-10362555D01*
X12791611Y-10362555D02*
X12782087Y-10343508D01*
X12782087Y-10343508D02*
X12763039Y-10314936D01*
X12763039Y-10314936D02*
X12753515Y-10305412D01*
M02*
