M48
; DRILL file {KiCad 7.0.9} date Mon 18 Dec 2023 10:46:40 PM CST
; FORMAT={-:-/ absolute / metric / decimal}
; #@! TF.CreationDate,2023-12-18T22:46:40-06:00
; #@! TF.GenerationSoftware,Kicad,Pcbnew,7.0.9
; #@! TF.FileFunction,Plated,1,2,PTH
FMAT,2
METRIC
; #@! TA.AperFunction,Plated,PTH,ComponentDrill
T1C1.000
; #@! TA.AperFunction,Plated,PTH,ComponentDrill
T2C1.100
%
G90
G05
T1
X82.57Y-58.63
X82.57Y-61.13
X82.57Y-63.63
X82.57Y-72.5
X82.57Y-75.0
X82.57Y-77.5
X100.17Y-54.85
X100.17Y-57.39
X100.17Y-59.93
X100.17Y-62.47
X100.17Y-65.01
X100.17Y-67.55
X100.17Y-70.09
X100.17Y-72.63
X100.17Y-75.17
X100.17Y-77.71
X100.17Y-80.25
X100.17Y-82.79
T2
X69.25Y-45.9
X69.25Y-50.4
X69.25Y-54.351
X69.25Y-58.851
X69.25Y-62.802
X69.25Y-67.302
X69.25Y-71.254
X69.25Y-75.754
X69.273Y-79.705
X69.273Y-84.205
X69.273Y-88.156
X69.273Y-92.656
X75.75Y-45.9
X75.75Y-50.4
X75.75Y-54.351
X75.75Y-58.851
X75.75Y-62.802
X75.75Y-67.302
X75.75Y-71.254
X75.75Y-75.754
X75.773Y-79.705
X75.773Y-84.205
X75.773Y-88.156
X75.773Y-92.656
T2
X89.72Y-56.33G85X90.42Y-56.33
G05
X89.72Y-65.93G85X90.42Y-65.93
G05
X89.72Y-70.2G85X90.42Y-70.2
G05
X89.72Y-79.8G85X90.42Y-79.8
G05
T0
M30
