G04 #@! TF.GenerationSoftware,KiCad,Pcbnew,7.0.9*
G04 #@! TF.CreationDate,2023-12-18T22:45:15-06:00*
G04 #@! TF.ProjectId,pod_basic_expander2,706f645f-6261-4736-9963-5f657870616e,rev?*
G04 #@! TF.SameCoordinates,Original*
G04 #@! TF.FileFunction,Legend,Top*
G04 #@! TF.FilePolarity,Positive*
%FSLAX46Y46*%
G04 Gerber Fmt 4.6, Leading zero omitted, Abs format (unit mm)*
G04 Created by KiCad (PCBNEW 7.0.9) date 2023-12-18 22:45:15*
%MOMM*%
%LPD*%
G01*
G04 APERTURE LIST*
%ADD10C,0.100000*%
%ADD11C,0.150000*%
%ADD12C,0.120000*%
%ADD13O,3.240000X2.720000*%
%ADD14R,1.800000X1.800000*%
%ADD15C,1.800000*%
%ADD16C,2.000000*%
%ADD17R,1.700000X1.700000*%
%ADD18O,1.700000X1.700000*%
G04 APERTURE END LIST*
D10*
X80333333Y-91762419D02*
X80333333Y-90762419D01*
X80904761Y-91762419D02*
X80476190Y-91190990D01*
X80904761Y-90762419D02*
X80333333Y-91333847D01*
X81333333Y-91095752D02*
X81333333Y-91762419D01*
X81333333Y-91190990D02*
X81380952Y-91143371D01*
X81380952Y-91143371D02*
X81476190Y-91095752D01*
X81476190Y-91095752D02*
X81619047Y-91095752D01*
X81619047Y-91095752D02*
X81714285Y-91143371D01*
X81714285Y-91143371D02*
X81761904Y-91238609D01*
X81761904Y-91238609D02*
X81761904Y-91762419D01*
X82238095Y-91762419D02*
X82238095Y-91095752D01*
X82238095Y-90762419D02*
X82190476Y-90810038D01*
X82190476Y-90810038D02*
X82238095Y-90857657D01*
X82238095Y-90857657D02*
X82285714Y-90810038D01*
X82285714Y-90810038D02*
X82238095Y-90762419D01*
X82238095Y-90762419D02*
X82238095Y-90857657D01*
X83142856Y-91095752D02*
X83142856Y-91905276D01*
X83142856Y-91905276D02*
X83095237Y-92000514D01*
X83095237Y-92000514D02*
X83047618Y-92048133D01*
X83047618Y-92048133D02*
X82952380Y-92095752D01*
X82952380Y-92095752D02*
X82809523Y-92095752D01*
X82809523Y-92095752D02*
X82714285Y-92048133D01*
X83142856Y-91714800D02*
X83047618Y-91762419D01*
X83047618Y-91762419D02*
X82857142Y-91762419D01*
X82857142Y-91762419D02*
X82761904Y-91714800D01*
X82761904Y-91714800D02*
X82714285Y-91667180D01*
X82714285Y-91667180D02*
X82666666Y-91571942D01*
X82666666Y-91571942D02*
X82666666Y-91286228D01*
X82666666Y-91286228D02*
X82714285Y-91190990D01*
X82714285Y-91190990D02*
X82761904Y-91143371D01*
X82761904Y-91143371D02*
X82857142Y-91095752D01*
X82857142Y-91095752D02*
X83047618Y-91095752D01*
X83047618Y-91095752D02*
X83142856Y-91143371D01*
X83619047Y-91762419D02*
X83619047Y-90762419D01*
X84047618Y-91762419D02*
X84047618Y-91238609D01*
X84047618Y-91238609D02*
X83999999Y-91143371D01*
X83999999Y-91143371D02*
X83904761Y-91095752D01*
X83904761Y-91095752D02*
X83761904Y-91095752D01*
X83761904Y-91095752D02*
X83666666Y-91143371D01*
X83666666Y-91143371D02*
X83619047Y-91190990D01*
X84380952Y-91095752D02*
X84761904Y-91095752D01*
X84523809Y-90762419D02*
X84523809Y-91619561D01*
X84523809Y-91619561D02*
X84571428Y-91714800D01*
X84571428Y-91714800D02*
X84666666Y-91762419D01*
X84666666Y-91762419D02*
X84761904Y-91762419D01*
X85095238Y-91762419D02*
X85095238Y-90762419D01*
X85095238Y-91238609D02*
X85666666Y-91238609D01*
X85666666Y-91762419D02*
X85666666Y-90762419D01*
X86142857Y-91762419D02*
X86142857Y-91095752D01*
X86142857Y-90762419D02*
X86095238Y-90810038D01*
X86095238Y-90810038D02*
X86142857Y-90857657D01*
X86142857Y-90857657D02*
X86190476Y-90810038D01*
X86190476Y-90810038D02*
X86142857Y-90762419D01*
X86142857Y-90762419D02*
X86142857Y-90857657D01*
X86761904Y-91762419D02*
X86666666Y-91714800D01*
X86666666Y-91714800D02*
X86619047Y-91619561D01*
X86619047Y-91619561D02*
X86619047Y-90762419D01*
X87285714Y-91762419D02*
X87190476Y-91714800D01*
X87190476Y-91714800D02*
X87142857Y-91619561D01*
X87142857Y-91619561D02*
X87142857Y-90762419D01*
X88428572Y-91238609D02*
X88761905Y-91238609D01*
X88904762Y-91762419D02*
X88428572Y-91762419D01*
X88428572Y-91762419D02*
X88428572Y-90762419D01*
X88428572Y-90762419D02*
X88904762Y-90762419D01*
X89333334Y-91095752D02*
X89333334Y-91762419D01*
X89333334Y-91190990D02*
X89380953Y-91143371D01*
X89380953Y-91143371D02*
X89476191Y-91095752D01*
X89476191Y-91095752D02*
X89619048Y-91095752D01*
X89619048Y-91095752D02*
X89714286Y-91143371D01*
X89714286Y-91143371D02*
X89761905Y-91238609D01*
X89761905Y-91238609D02*
X89761905Y-91762419D01*
X90666667Y-91095752D02*
X90666667Y-91905276D01*
X90666667Y-91905276D02*
X90619048Y-92000514D01*
X90619048Y-92000514D02*
X90571429Y-92048133D01*
X90571429Y-92048133D02*
X90476191Y-92095752D01*
X90476191Y-92095752D02*
X90333334Y-92095752D01*
X90333334Y-92095752D02*
X90238096Y-92048133D01*
X90666667Y-91714800D02*
X90571429Y-91762419D01*
X90571429Y-91762419D02*
X90380953Y-91762419D01*
X90380953Y-91762419D02*
X90285715Y-91714800D01*
X90285715Y-91714800D02*
X90238096Y-91667180D01*
X90238096Y-91667180D02*
X90190477Y-91571942D01*
X90190477Y-91571942D02*
X90190477Y-91286228D01*
X90190477Y-91286228D02*
X90238096Y-91190990D01*
X90238096Y-91190990D02*
X90285715Y-91143371D01*
X90285715Y-91143371D02*
X90380953Y-91095752D01*
X90380953Y-91095752D02*
X90571429Y-91095752D01*
X90571429Y-91095752D02*
X90666667Y-91143371D01*
X91142858Y-91762419D02*
X91142858Y-91095752D01*
X91142858Y-90762419D02*
X91095239Y-90810038D01*
X91095239Y-90810038D02*
X91142858Y-90857657D01*
X91142858Y-90857657D02*
X91190477Y-90810038D01*
X91190477Y-90810038D02*
X91142858Y-90762419D01*
X91142858Y-90762419D02*
X91142858Y-90857657D01*
X91619048Y-91095752D02*
X91619048Y-91762419D01*
X91619048Y-91190990D02*
X91666667Y-91143371D01*
X91666667Y-91143371D02*
X91761905Y-91095752D01*
X91761905Y-91095752D02*
X91904762Y-91095752D01*
X91904762Y-91095752D02*
X92000000Y-91143371D01*
X92000000Y-91143371D02*
X92047619Y-91238609D01*
X92047619Y-91238609D02*
X92047619Y-91762419D01*
X92904762Y-91714800D02*
X92809524Y-91762419D01*
X92809524Y-91762419D02*
X92619048Y-91762419D01*
X92619048Y-91762419D02*
X92523810Y-91714800D01*
X92523810Y-91714800D02*
X92476191Y-91619561D01*
X92476191Y-91619561D02*
X92476191Y-91238609D01*
X92476191Y-91238609D02*
X92523810Y-91143371D01*
X92523810Y-91143371D02*
X92619048Y-91095752D01*
X92619048Y-91095752D02*
X92809524Y-91095752D01*
X92809524Y-91095752D02*
X92904762Y-91143371D01*
X92904762Y-91143371D02*
X92952381Y-91238609D01*
X92952381Y-91238609D02*
X92952381Y-91333847D01*
X92952381Y-91333847D02*
X92476191Y-91429085D01*
X93761905Y-91714800D02*
X93666667Y-91762419D01*
X93666667Y-91762419D02*
X93476191Y-91762419D01*
X93476191Y-91762419D02*
X93380953Y-91714800D01*
X93380953Y-91714800D02*
X93333334Y-91619561D01*
X93333334Y-91619561D02*
X93333334Y-91238609D01*
X93333334Y-91238609D02*
X93380953Y-91143371D01*
X93380953Y-91143371D02*
X93476191Y-91095752D01*
X93476191Y-91095752D02*
X93666667Y-91095752D01*
X93666667Y-91095752D02*
X93761905Y-91143371D01*
X93761905Y-91143371D02*
X93809524Y-91238609D01*
X93809524Y-91238609D02*
X93809524Y-91333847D01*
X93809524Y-91333847D02*
X93333334Y-91429085D01*
X94238096Y-91762419D02*
X94238096Y-91095752D01*
X94238096Y-91286228D02*
X94285715Y-91190990D01*
X94285715Y-91190990D02*
X94333334Y-91143371D01*
X94333334Y-91143371D02*
X94428572Y-91095752D01*
X94428572Y-91095752D02*
X94523810Y-91095752D01*
X94857144Y-91762419D02*
X94857144Y-91095752D01*
X94857144Y-90762419D02*
X94809525Y-90810038D01*
X94809525Y-90810038D02*
X94857144Y-90857657D01*
X94857144Y-90857657D02*
X94904763Y-90810038D01*
X94904763Y-90810038D02*
X94857144Y-90762419D01*
X94857144Y-90762419D02*
X94857144Y-90857657D01*
X95333334Y-91095752D02*
X95333334Y-91762419D01*
X95333334Y-91190990D02*
X95380953Y-91143371D01*
X95380953Y-91143371D02*
X95476191Y-91095752D01*
X95476191Y-91095752D02*
X95619048Y-91095752D01*
X95619048Y-91095752D02*
X95714286Y-91143371D01*
X95714286Y-91143371D02*
X95761905Y-91238609D01*
X95761905Y-91238609D02*
X95761905Y-91762419D01*
X96666667Y-91095752D02*
X96666667Y-91905276D01*
X96666667Y-91905276D02*
X96619048Y-92000514D01*
X96619048Y-92000514D02*
X96571429Y-92048133D01*
X96571429Y-92048133D02*
X96476191Y-92095752D01*
X96476191Y-92095752D02*
X96333334Y-92095752D01*
X96333334Y-92095752D02*
X96238096Y-92048133D01*
X96666667Y-91714800D02*
X96571429Y-91762419D01*
X96571429Y-91762419D02*
X96380953Y-91762419D01*
X96380953Y-91762419D02*
X96285715Y-91714800D01*
X96285715Y-91714800D02*
X96238096Y-91667180D01*
X96238096Y-91667180D02*
X96190477Y-91571942D01*
X96190477Y-91571942D02*
X96190477Y-91286228D01*
X96190477Y-91286228D02*
X96238096Y-91190990D01*
X96238096Y-91190990D02*
X96285715Y-91143371D01*
X96285715Y-91143371D02*
X96380953Y-91095752D01*
X96380953Y-91095752D02*
X96571429Y-91095752D01*
X96571429Y-91095752D02*
X96666667Y-91143371D01*
X80452380Y-92848609D02*
X80785713Y-92848609D01*
X80928570Y-93372419D02*
X80452380Y-93372419D01*
X80452380Y-93372419D02*
X80452380Y-92372419D01*
X80452380Y-92372419D02*
X80928570Y-92372419D01*
X82071427Y-92324800D02*
X81214285Y-93610514D01*
X82357142Y-93324800D02*
X82499999Y-93372419D01*
X82499999Y-93372419D02*
X82738094Y-93372419D01*
X82738094Y-93372419D02*
X82833332Y-93324800D01*
X82833332Y-93324800D02*
X82880951Y-93277180D01*
X82880951Y-93277180D02*
X82928570Y-93181942D01*
X82928570Y-93181942D02*
X82928570Y-93086704D01*
X82928570Y-93086704D02*
X82880951Y-92991466D01*
X82880951Y-92991466D02*
X82833332Y-92943847D01*
X82833332Y-92943847D02*
X82738094Y-92896228D01*
X82738094Y-92896228D02*
X82547618Y-92848609D01*
X82547618Y-92848609D02*
X82452380Y-92800990D01*
X82452380Y-92800990D02*
X82404761Y-92753371D01*
X82404761Y-92753371D02*
X82357142Y-92658133D01*
X82357142Y-92658133D02*
X82357142Y-92562895D01*
X82357142Y-92562895D02*
X82404761Y-92467657D01*
X82404761Y-92467657D02*
X82452380Y-92420038D01*
X82452380Y-92420038D02*
X82547618Y-92372419D01*
X82547618Y-92372419D02*
X82785713Y-92372419D01*
X82785713Y-92372419D02*
X82928570Y-92420038D01*
X84119047Y-93372419D02*
X84119047Y-92372419D01*
X84119047Y-92372419D02*
X84499999Y-92372419D01*
X84499999Y-92372419D02*
X84595237Y-92420038D01*
X84595237Y-92420038D02*
X84642856Y-92467657D01*
X84642856Y-92467657D02*
X84690475Y-92562895D01*
X84690475Y-92562895D02*
X84690475Y-92705752D01*
X84690475Y-92705752D02*
X84642856Y-92800990D01*
X84642856Y-92800990D02*
X84595237Y-92848609D01*
X84595237Y-92848609D02*
X84499999Y-92896228D01*
X84499999Y-92896228D02*
X84119047Y-92896228D01*
X85261904Y-93372419D02*
X85166666Y-93324800D01*
X85166666Y-93324800D02*
X85119047Y-93277180D01*
X85119047Y-93277180D02*
X85071428Y-93181942D01*
X85071428Y-93181942D02*
X85071428Y-92896228D01*
X85071428Y-92896228D02*
X85119047Y-92800990D01*
X85119047Y-92800990D02*
X85166666Y-92753371D01*
X85166666Y-92753371D02*
X85261904Y-92705752D01*
X85261904Y-92705752D02*
X85404761Y-92705752D01*
X85404761Y-92705752D02*
X85499999Y-92753371D01*
X85499999Y-92753371D02*
X85547618Y-92800990D01*
X85547618Y-92800990D02*
X85595237Y-92896228D01*
X85595237Y-92896228D02*
X85595237Y-93181942D01*
X85595237Y-93181942D02*
X85547618Y-93277180D01*
X85547618Y-93277180D02*
X85499999Y-93324800D01*
X85499999Y-93324800D02*
X85404761Y-93372419D01*
X85404761Y-93372419D02*
X85261904Y-93372419D01*
X86452380Y-93372419D02*
X86452380Y-92372419D01*
X86452380Y-93324800D02*
X86357142Y-93372419D01*
X86357142Y-93372419D02*
X86166666Y-93372419D01*
X86166666Y-93372419D02*
X86071428Y-93324800D01*
X86071428Y-93324800D02*
X86023809Y-93277180D01*
X86023809Y-93277180D02*
X85976190Y-93181942D01*
X85976190Y-93181942D02*
X85976190Y-92896228D01*
X85976190Y-92896228D02*
X86023809Y-92800990D01*
X86023809Y-92800990D02*
X86071428Y-92753371D01*
X86071428Y-92753371D02*
X86166666Y-92705752D01*
X86166666Y-92705752D02*
X86357142Y-92705752D01*
X86357142Y-92705752D02*
X86452380Y-92753371D01*
X88071428Y-93324800D02*
X87976190Y-93372419D01*
X87976190Y-93372419D02*
X87785714Y-93372419D01*
X87785714Y-93372419D02*
X87690476Y-93324800D01*
X87690476Y-93324800D02*
X87642857Y-93229561D01*
X87642857Y-93229561D02*
X87642857Y-92848609D01*
X87642857Y-92848609D02*
X87690476Y-92753371D01*
X87690476Y-92753371D02*
X87785714Y-92705752D01*
X87785714Y-92705752D02*
X87976190Y-92705752D01*
X87976190Y-92705752D02*
X88071428Y-92753371D01*
X88071428Y-92753371D02*
X88119047Y-92848609D01*
X88119047Y-92848609D02*
X88119047Y-92943847D01*
X88119047Y-92943847D02*
X87642857Y-93039085D01*
X88452381Y-93372419D02*
X88976190Y-92705752D01*
X88452381Y-92705752D02*
X88976190Y-93372419D01*
X89357143Y-92705752D02*
X89357143Y-93705752D01*
X89357143Y-92753371D02*
X89452381Y-92705752D01*
X89452381Y-92705752D02*
X89642857Y-92705752D01*
X89642857Y-92705752D02*
X89738095Y-92753371D01*
X89738095Y-92753371D02*
X89785714Y-92800990D01*
X89785714Y-92800990D02*
X89833333Y-92896228D01*
X89833333Y-92896228D02*
X89833333Y-93181942D01*
X89833333Y-93181942D02*
X89785714Y-93277180D01*
X89785714Y-93277180D02*
X89738095Y-93324800D01*
X89738095Y-93324800D02*
X89642857Y-93372419D01*
X89642857Y-93372419D02*
X89452381Y-93372419D01*
X89452381Y-93372419D02*
X89357143Y-93324800D01*
X90690476Y-93372419D02*
X90690476Y-92848609D01*
X90690476Y-92848609D02*
X90642857Y-92753371D01*
X90642857Y-92753371D02*
X90547619Y-92705752D01*
X90547619Y-92705752D02*
X90357143Y-92705752D01*
X90357143Y-92705752D02*
X90261905Y-92753371D01*
X90690476Y-93324800D02*
X90595238Y-93372419D01*
X90595238Y-93372419D02*
X90357143Y-93372419D01*
X90357143Y-93372419D02*
X90261905Y-93324800D01*
X90261905Y-93324800D02*
X90214286Y-93229561D01*
X90214286Y-93229561D02*
X90214286Y-93134323D01*
X90214286Y-93134323D02*
X90261905Y-93039085D01*
X90261905Y-93039085D02*
X90357143Y-92991466D01*
X90357143Y-92991466D02*
X90595238Y-92991466D01*
X90595238Y-92991466D02*
X90690476Y-92943847D01*
X91166667Y-92705752D02*
X91166667Y-93372419D01*
X91166667Y-92800990D02*
X91214286Y-92753371D01*
X91214286Y-92753371D02*
X91309524Y-92705752D01*
X91309524Y-92705752D02*
X91452381Y-92705752D01*
X91452381Y-92705752D02*
X91547619Y-92753371D01*
X91547619Y-92753371D02*
X91595238Y-92848609D01*
X91595238Y-92848609D02*
X91595238Y-93372419D01*
X92500000Y-93372419D02*
X92500000Y-92372419D01*
X92500000Y-93324800D02*
X92404762Y-93372419D01*
X92404762Y-93372419D02*
X92214286Y-93372419D01*
X92214286Y-93372419D02*
X92119048Y-93324800D01*
X92119048Y-93324800D02*
X92071429Y-93277180D01*
X92071429Y-93277180D02*
X92023810Y-93181942D01*
X92023810Y-93181942D02*
X92023810Y-92896228D01*
X92023810Y-92896228D02*
X92071429Y-92800990D01*
X92071429Y-92800990D02*
X92119048Y-92753371D01*
X92119048Y-92753371D02*
X92214286Y-92705752D01*
X92214286Y-92705752D02*
X92404762Y-92705752D01*
X92404762Y-92705752D02*
X92500000Y-92753371D01*
X93357143Y-93324800D02*
X93261905Y-93372419D01*
X93261905Y-93372419D02*
X93071429Y-93372419D01*
X93071429Y-93372419D02*
X92976191Y-93324800D01*
X92976191Y-93324800D02*
X92928572Y-93229561D01*
X92928572Y-93229561D02*
X92928572Y-92848609D01*
X92928572Y-92848609D02*
X92976191Y-92753371D01*
X92976191Y-92753371D02*
X93071429Y-92705752D01*
X93071429Y-92705752D02*
X93261905Y-92705752D01*
X93261905Y-92705752D02*
X93357143Y-92753371D01*
X93357143Y-92753371D02*
X93404762Y-92848609D01*
X93404762Y-92848609D02*
X93404762Y-92943847D01*
X93404762Y-92943847D02*
X92928572Y-93039085D01*
X93833334Y-93372419D02*
X93833334Y-92705752D01*
X93833334Y-92896228D02*
X93880953Y-92800990D01*
X93880953Y-92800990D02*
X93928572Y-92753371D01*
X93928572Y-92753371D02*
X94023810Y-92705752D01*
X94023810Y-92705752D02*
X94119048Y-92705752D01*
X95071430Y-92372419D02*
X95404763Y-93372419D01*
X95404763Y-93372419D02*
X95738096Y-92372419D01*
X96595239Y-93372419D02*
X96023811Y-93372419D01*
X96309525Y-93372419D02*
X96309525Y-92372419D01*
X96309525Y-92372419D02*
X96214287Y-92515276D01*
X96214287Y-92515276D02*
X96119049Y-92610514D01*
X96119049Y-92610514D02*
X96023811Y-92658133D01*
D11*
X89474761Y-75384819D02*
X89141428Y-74908628D01*
X88903333Y-75384819D02*
X88903333Y-74384819D01*
X88903333Y-74384819D02*
X89284285Y-74384819D01*
X89284285Y-74384819D02*
X89379523Y-74432438D01*
X89379523Y-74432438D02*
X89427142Y-74480057D01*
X89427142Y-74480057D02*
X89474761Y-74575295D01*
X89474761Y-74575295D02*
X89474761Y-74718152D01*
X89474761Y-74718152D02*
X89427142Y-74813390D01*
X89427142Y-74813390D02*
X89379523Y-74861009D01*
X89379523Y-74861009D02*
X89284285Y-74908628D01*
X89284285Y-74908628D02*
X88903333Y-74908628D01*
X89760476Y-74384819D02*
X90093809Y-75384819D01*
X90093809Y-75384819D02*
X90427142Y-74384819D01*
X90712857Y-74480057D02*
X90760476Y-74432438D01*
X90760476Y-74432438D02*
X90855714Y-74384819D01*
X90855714Y-74384819D02*
X91093809Y-74384819D01*
X91093809Y-74384819D02*
X91189047Y-74432438D01*
X91189047Y-74432438D02*
X91236666Y-74480057D01*
X91236666Y-74480057D02*
X91284285Y-74575295D01*
X91284285Y-74575295D02*
X91284285Y-74670533D01*
X91284285Y-74670533D02*
X91236666Y-74813390D01*
X91236666Y-74813390D02*
X90665238Y-75384819D01*
X90665238Y-75384819D02*
X91284285Y-75384819D01*
X71166667Y-52758422D02*
X71309524Y-52806041D01*
X71309524Y-52806041D02*
X71547619Y-52806041D01*
X71547619Y-52806041D02*
X71642857Y-52758422D01*
X71642857Y-52758422D02*
X71690476Y-52710802D01*
X71690476Y-52710802D02*
X71738095Y-52615564D01*
X71738095Y-52615564D02*
X71738095Y-52520326D01*
X71738095Y-52520326D02*
X71690476Y-52425088D01*
X71690476Y-52425088D02*
X71642857Y-52377469D01*
X71642857Y-52377469D02*
X71547619Y-52329850D01*
X71547619Y-52329850D02*
X71357143Y-52282231D01*
X71357143Y-52282231D02*
X71261905Y-52234612D01*
X71261905Y-52234612D02*
X71214286Y-52186993D01*
X71214286Y-52186993D02*
X71166667Y-52091755D01*
X71166667Y-52091755D02*
X71166667Y-51996517D01*
X71166667Y-51996517D02*
X71214286Y-51901279D01*
X71214286Y-51901279D02*
X71261905Y-51853660D01*
X71261905Y-51853660D02*
X71357143Y-51806041D01*
X71357143Y-51806041D02*
X71595238Y-51806041D01*
X71595238Y-51806041D02*
X71738095Y-51853660D01*
X72071429Y-51806041D02*
X72309524Y-52806041D01*
X72309524Y-52806041D02*
X72500000Y-52091755D01*
X72500000Y-52091755D02*
X72690476Y-52806041D01*
X72690476Y-52806041D02*
X72928572Y-51806041D01*
X73261905Y-51901279D02*
X73309524Y-51853660D01*
X73309524Y-51853660D02*
X73404762Y-51806041D01*
X73404762Y-51806041D02*
X73642857Y-51806041D01*
X73642857Y-51806041D02*
X73738095Y-51853660D01*
X73738095Y-51853660D02*
X73785714Y-51901279D01*
X73785714Y-51901279D02*
X73833333Y-51996517D01*
X73833333Y-51996517D02*
X73833333Y-52091755D01*
X73833333Y-52091755D02*
X73785714Y-52234612D01*
X73785714Y-52234612D02*
X73214286Y-52806041D01*
X73214286Y-52806041D02*
X73833333Y-52806041D01*
X71189982Y-86563311D02*
X71332839Y-86610930D01*
X71332839Y-86610930D02*
X71570934Y-86610930D01*
X71570934Y-86610930D02*
X71666172Y-86563311D01*
X71666172Y-86563311D02*
X71713791Y-86515691D01*
X71713791Y-86515691D02*
X71761410Y-86420453D01*
X71761410Y-86420453D02*
X71761410Y-86325215D01*
X71761410Y-86325215D02*
X71713791Y-86229977D01*
X71713791Y-86229977D02*
X71666172Y-86182358D01*
X71666172Y-86182358D02*
X71570934Y-86134739D01*
X71570934Y-86134739D02*
X71380458Y-86087120D01*
X71380458Y-86087120D02*
X71285220Y-86039501D01*
X71285220Y-86039501D02*
X71237601Y-85991882D01*
X71237601Y-85991882D02*
X71189982Y-85896644D01*
X71189982Y-85896644D02*
X71189982Y-85801406D01*
X71189982Y-85801406D02*
X71237601Y-85706168D01*
X71237601Y-85706168D02*
X71285220Y-85658549D01*
X71285220Y-85658549D02*
X71380458Y-85610930D01*
X71380458Y-85610930D02*
X71618553Y-85610930D01*
X71618553Y-85610930D02*
X71761410Y-85658549D01*
X72094744Y-85610930D02*
X72332839Y-86610930D01*
X72332839Y-86610930D02*
X72523315Y-85896644D01*
X72523315Y-85896644D02*
X72713791Y-86610930D01*
X72713791Y-86610930D02*
X72951887Y-85610930D01*
X73761410Y-85610930D02*
X73570934Y-85610930D01*
X73570934Y-85610930D02*
X73475696Y-85658549D01*
X73475696Y-85658549D02*
X73428077Y-85706168D01*
X73428077Y-85706168D02*
X73332839Y-85849025D01*
X73332839Y-85849025D02*
X73285220Y-86039501D01*
X73285220Y-86039501D02*
X73285220Y-86420453D01*
X73285220Y-86420453D02*
X73332839Y-86515691D01*
X73332839Y-86515691D02*
X73380458Y-86563311D01*
X73380458Y-86563311D02*
X73475696Y-86610930D01*
X73475696Y-86610930D02*
X73666172Y-86610930D01*
X73666172Y-86610930D02*
X73761410Y-86563311D01*
X73761410Y-86563311D02*
X73809029Y-86515691D01*
X73809029Y-86515691D02*
X73856648Y-86420453D01*
X73856648Y-86420453D02*
X73856648Y-86182358D01*
X73856648Y-86182358D02*
X73809029Y-86087120D01*
X73809029Y-86087120D02*
X73761410Y-86039501D01*
X73761410Y-86039501D02*
X73666172Y-85991882D01*
X73666172Y-85991882D02*
X73475696Y-85991882D01*
X73475696Y-85991882D02*
X73380458Y-86039501D01*
X73380458Y-86039501D02*
X73332839Y-86087120D01*
X73332839Y-86087120D02*
X73285220Y-86182358D01*
X100010561Y-85176331D02*
X100010561Y-85890616D01*
X100010561Y-85890616D02*
X99962942Y-86033473D01*
X99962942Y-86033473D02*
X99867704Y-86128712D01*
X99867704Y-86128712D02*
X99724847Y-86176331D01*
X99724847Y-86176331D02*
X99629609Y-86176331D01*
X101010561Y-86176331D02*
X100439133Y-86176331D01*
X100724847Y-86176331D02*
X100724847Y-85176331D01*
X100724847Y-85176331D02*
X100629609Y-85319188D01*
X100629609Y-85319188D02*
X100534371Y-85414426D01*
X100534371Y-85414426D02*
X100439133Y-85462045D01*
X71166667Y-44307200D02*
X71309524Y-44354819D01*
X71309524Y-44354819D02*
X71547619Y-44354819D01*
X71547619Y-44354819D02*
X71642857Y-44307200D01*
X71642857Y-44307200D02*
X71690476Y-44259580D01*
X71690476Y-44259580D02*
X71738095Y-44164342D01*
X71738095Y-44164342D02*
X71738095Y-44069104D01*
X71738095Y-44069104D02*
X71690476Y-43973866D01*
X71690476Y-43973866D02*
X71642857Y-43926247D01*
X71642857Y-43926247D02*
X71547619Y-43878628D01*
X71547619Y-43878628D02*
X71357143Y-43831009D01*
X71357143Y-43831009D02*
X71261905Y-43783390D01*
X71261905Y-43783390D02*
X71214286Y-43735771D01*
X71214286Y-43735771D02*
X71166667Y-43640533D01*
X71166667Y-43640533D02*
X71166667Y-43545295D01*
X71166667Y-43545295D02*
X71214286Y-43450057D01*
X71214286Y-43450057D02*
X71261905Y-43402438D01*
X71261905Y-43402438D02*
X71357143Y-43354819D01*
X71357143Y-43354819D02*
X71595238Y-43354819D01*
X71595238Y-43354819D02*
X71738095Y-43402438D01*
X72071429Y-43354819D02*
X72309524Y-44354819D01*
X72309524Y-44354819D02*
X72500000Y-43640533D01*
X72500000Y-43640533D02*
X72690476Y-44354819D01*
X72690476Y-44354819D02*
X72928572Y-43354819D01*
X73833333Y-44354819D02*
X73261905Y-44354819D01*
X73547619Y-44354819D02*
X73547619Y-43354819D01*
X73547619Y-43354819D02*
X73452381Y-43497676D01*
X73452381Y-43497676D02*
X73357143Y-43592914D01*
X73357143Y-43592914D02*
X73261905Y-43640533D01*
X71189982Y-78112088D02*
X71332839Y-78159707D01*
X71332839Y-78159707D02*
X71570934Y-78159707D01*
X71570934Y-78159707D02*
X71666172Y-78112088D01*
X71666172Y-78112088D02*
X71713791Y-78064468D01*
X71713791Y-78064468D02*
X71761410Y-77969230D01*
X71761410Y-77969230D02*
X71761410Y-77873992D01*
X71761410Y-77873992D02*
X71713791Y-77778754D01*
X71713791Y-77778754D02*
X71666172Y-77731135D01*
X71666172Y-77731135D02*
X71570934Y-77683516D01*
X71570934Y-77683516D02*
X71380458Y-77635897D01*
X71380458Y-77635897D02*
X71285220Y-77588278D01*
X71285220Y-77588278D02*
X71237601Y-77540659D01*
X71237601Y-77540659D02*
X71189982Y-77445421D01*
X71189982Y-77445421D02*
X71189982Y-77350183D01*
X71189982Y-77350183D02*
X71237601Y-77254945D01*
X71237601Y-77254945D02*
X71285220Y-77207326D01*
X71285220Y-77207326D02*
X71380458Y-77159707D01*
X71380458Y-77159707D02*
X71618553Y-77159707D01*
X71618553Y-77159707D02*
X71761410Y-77207326D01*
X72094744Y-77159707D02*
X72332839Y-78159707D01*
X72332839Y-78159707D02*
X72523315Y-77445421D01*
X72523315Y-77445421D02*
X72713791Y-78159707D01*
X72713791Y-78159707D02*
X72951887Y-77159707D01*
X73809029Y-77159707D02*
X73332839Y-77159707D01*
X73332839Y-77159707D02*
X73285220Y-77635897D01*
X73285220Y-77635897D02*
X73332839Y-77588278D01*
X73332839Y-77588278D02*
X73428077Y-77540659D01*
X73428077Y-77540659D02*
X73666172Y-77540659D01*
X73666172Y-77540659D02*
X73761410Y-77588278D01*
X73761410Y-77588278D02*
X73809029Y-77635897D01*
X73809029Y-77635897D02*
X73856648Y-77731135D01*
X73856648Y-77731135D02*
X73856648Y-77969230D01*
X73856648Y-77969230D02*
X73809029Y-78064468D01*
X73809029Y-78064468D02*
X73761410Y-78112088D01*
X73761410Y-78112088D02*
X73666172Y-78159707D01*
X73666172Y-78159707D02*
X73428077Y-78159707D01*
X73428077Y-78159707D02*
X73332839Y-78112088D01*
X73332839Y-78112088D02*
X73285220Y-78064468D01*
X71166667Y-61209644D02*
X71309524Y-61257263D01*
X71309524Y-61257263D02*
X71547619Y-61257263D01*
X71547619Y-61257263D02*
X71642857Y-61209644D01*
X71642857Y-61209644D02*
X71690476Y-61162024D01*
X71690476Y-61162024D02*
X71738095Y-61066786D01*
X71738095Y-61066786D02*
X71738095Y-60971548D01*
X71738095Y-60971548D02*
X71690476Y-60876310D01*
X71690476Y-60876310D02*
X71642857Y-60828691D01*
X71642857Y-60828691D02*
X71547619Y-60781072D01*
X71547619Y-60781072D02*
X71357143Y-60733453D01*
X71357143Y-60733453D02*
X71261905Y-60685834D01*
X71261905Y-60685834D02*
X71214286Y-60638215D01*
X71214286Y-60638215D02*
X71166667Y-60542977D01*
X71166667Y-60542977D02*
X71166667Y-60447739D01*
X71166667Y-60447739D02*
X71214286Y-60352501D01*
X71214286Y-60352501D02*
X71261905Y-60304882D01*
X71261905Y-60304882D02*
X71357143Y-60257263D01*
X71357143Y-60257263D02*
X71595238Y-60257263D01*
X71595238Y-60257263D02*
X71738095Y-60304882D01*
X72071429Y-60257263D02*
X72309524Y-61257263D01*
X72309524Y-61257263D02*
X72500000Y-60542977D01*
X72500000Y-60542977D02*
X72690476Y-61257263D01*
X72690476Y-61257263D02*
X72928572Y-60257263D01*
X73214286Y-60257263D02*
X73833333Y-60257263D01*
X73833333Y-60257263D02*
X73500000Y-60638215D01*
X73500000Y-60638215D02*
X73642857Y-60638215D01*
X73642857Y-60638215D02*
X73738095Y-60685834D01*
X73738095Y-60685834D02*
X73785714Y-60733453D01*
X73785714Y-60733453D02*
X73833333Y-60828691D01*
X73833333Y-60828691D02*
X73833333Y-61066786D01*
X73833333Y-61066786D02*
X73785714Y-61162024D01*
X73785714Y-61162024D02*
X73738095Y-61209644D01*
X73738095Y-61209644D02*
X73642857Y-61257263D01*
X73642857Y-61257263D02*
X73357143Y-61257263D01*
X73357143Y-61257263D02*
X73261905Y-61209644D01*
X73261905Y-61209644D02*
X73214286Y-61162024D01*
X89576668Y-61610226D02*
X89243335Y-61134035D01*
X89005240Y-61610226D02*
X89005240Y-60610226D01*
X89005240Y-60610226D02*
X89386192Y-60610226D01*
X89386192Y-60610226D02*
X89481430Y-60657845D01*
X89481430Y-60657845D02*
X89529049Y-60705464D01*
X89529049Y-60705464D02*
X89576668Y-60800702D01*
X89576668Y-60800702D02*
X89576668Y-60943559D01*
X89576668Y-60943559D02*
X89529049Y-61038797D01*
X89529049Y-61038797D02*
X89481430Y-61086416D01*
X89481430Y-61086416D02*
X89386192Y-61134035D01*
X89386192Y-61134035D02*
X89005240Y-61134035D01*
X89862383Y-60610226D02*
X90195716Y-61610226D01*
X90195716Y-61610226D02*
X90529049Y-60610226D01*
X91386192Y-61610226D02*
X90814764Y-61610226D01*
X91100478Y-61610226D02*
X91100478Y-60610226D01*
X91100478Y-60610226D02*
X91005240Y-60753083D01*
X91005240Y-60753083D02*
X90910002Y-60848321D01*
X90910002Y-60848321D02*
X90814764Y-60895940D01*
X71166667Y-69660866D02*
X71309524Y-69708485D01*
X71309524Y-69708485D02*
X71547619Y-69708485D01*
X71547619Y-69708485D02*
X71642857Y-69660866D01*
X71642857Y-69660866D02*
X71690476Y-69613246D01*
X71690476Y-69613246D02*
X71738095Y-69518008D01*
X71738095Y-69518008D02*
X71738095Y-69422770D01*
X71738095Y-69422770D02*
X71690476Y-69327532D01*
X71690476Y-69327532D02*
X71642857Y-69279913D01*
X71642857Y-69279913D02*
X71547619Y-69232294D01*
X71547619Y-69232294D02*
X71357143Y-69184675D01*
X71357143Y-69184675D02*
X71261905Y-69137056D01*
X71261905Y-69137056D02*
X71214286Y-69089437D01*
X71214286Y-69089437D02*
X71166667Y-68994199D01*
X71166667Y-68994199D02*
X71166667Y-68898961D01*
X71166667Y-68898961D02*
X71214286Y-68803723D01*
X71214286Y-68803723D02*
X71261905Y-68756104D01*
X71261905Y-68756104D02*
X71357143Y-68708485D01*
X71357143Y-68708485D02*
X71595238Y-68708485D01*
X71595238Y-68708485D02*
X71738095Y-68756104D01*
X72071429Y-68708485D02*
X72309524Y-69708485D01*
X72309524Y-69708485D02*
X72500000Y-68994199D01*
X72500000Y-68994199D02*
X72690476Y-69708485D01*
X72690476Y-69708485D02*
X72928572Y-68708485D01*
X73738095Y-69041818D02*
X73738095Y-69708485D01*
X73500000Y-68660866D02*
X73261905Y-69375151D01*
X73261905Y-69375151D02*
X73880952Y-69375151D01*
D12*
X83450000Y-70120000D02*
X88170000Y-70120000D01*
X83450000Y-71310000D02*
X83450000Y-70130000D01*
X83450000Y-74210000D02*
X83450000Y-73680000D01*
X83450000Y-76660000D02*
X83450000Y-75830000D01*
X83450000Y-79870000D02*
X83450000Y-78380000D01*
X83450000Y-79870000D02*
X88170000Y-79870000D01*
X91980000Y-70130000D02*
X95040000Y-70130000D01*
X91980000Y-79870000D02*
X95040000Y-79870000D01*
X95040000Y-79870000D02*
X95040000Y-70130000D01*
X69000000Y-55851222D02*
X69000000Y-57351222D01*
X70250000Y-59851222D02*
X74750000Y-59851222D01*
X74750000Y-53351222D02*
X70250000Y-53351222D01*
X76000000Y-57351222D02*
X76000000Y-55851222D01*
X69023315Y-89656111D02*
X69023315Y-91156111D01*
X70273315Y-93656111D02*
X74773315Y-93656111D01*
X74773315Y-87156111D02*
X70273315Y-87156111D01*
X76023315Y-91156111D02*
X76023315Y-89656111D01*
X101500000Y-84120000D02*
X100170000Y-84120000D01*
X101500000Y-82790000D02*
X101500000Y-84120000D01*
X101500000Y-81520000D02*
X101500000Y-53520000D01*
X101500000Y-81520000D02*
X98840000Y-81520000D01*
X101500000Y-53520000D02*
X98840000Y-53520000D01*
X98840000Y-81520000D02*
X98840000Y-53520000D01*
X69000000Y-47400000D02*
X69000000Y-48900000D01*
X70250000Y-51400000D02*
X74750000Y-51400000D01*
X74750000Y-44900000D02*
X70250000Y-44900000D01*
X76000000Y-48900000D02*
X76000000Y-47400000D01*
X69023315Y-81204888D02*
X69023315Y-82704888D01*
X70273315Y-85204888D02*
X74773315Y-85204888D01*
X74773315Y-78704888D02*
X70273315Y-78704888D01*
X76023315Y-82704888D02*
X76023315Y-81204888D01*
X69000000Y-64302444D02*
X69000000Y-65802444D01*
X70250000Y-68302444D02*
X74750000Y-68302444D01*
X74750000Y-61802444D02*
X70250000Y-61802444D01*
X76000000Y-65802444D02*
X76000000Y-64302444D01*
X83450000Y-56250000D02*
X88170000Y-56250000D01*
X83450000Y-57440000D02*
X83450000Y-56260000D01*
X83450000Y-60340000D02*
X83450000Y-59810000D01*
X83450000Y-62790000D02*
X83450000Y-61960000D01*
X83450000Y-66000000D02*
X83450000Y-64510000D01*
X83450000Y-66000000D02*
X88170000Y-66000000D01*
X91980000Y-56260000D02*
X95040000Y-56260000D01*
X91980000Y-66000000D02*
X95040000Y-66000000D01*
X95040000Y-66000000D02*
X95040000Y-56260000D01*
X69000000Y-72753666D02*
X69000000Y-74253666D01*
X70250000Y-76753666D02*
X74750000Y-76753666D01*
X74750000Y-70253666D02*
X70250000Y-70253666D01*
X76000000Y-74253666D02*
X76000000Y-72753666D01*
%LPC*%
D13*
X90070000Y-70200000D03*
X90070000Y-79800000D03*
D14*
X82570000Y-72500000D03*
D15*
X82570000Y-75000000D03*
X82570000Y-77500000D03*
D16*
X69250000Y-54351222D03*
X75750000Y-54351222D03*
X69250000Y-58851222D03*
X75750000Y-58851222D03*
X69273315Y-88156111D03*
X75773315Y-88156111D03*
X69273315Y-92656111D03*
X75773315Y-92656111D03*
D17*
X100170000Y-82790000D03*
D18*
X100170000Y-80250000D03*
X100170000Y-77710000D03*
X100170000Y-75170000D03*
X100170000Y-72630000D03*
X100170000Y-70090000D03*
X100170000Y-67550000D03*
X100170000Y-65010000D03*
X100170000Y-62470000D03*
X100170000Y-59930000D03*
X100170000Y-57390000D03*
X100170000Y-54850000D03*
D16*
X69250000Y-45900000D03*
X75750000Y-45900000D03*
X69250000Y-50400000D03*
X75750000Y-50400000D03*
X69273315Y-79704888D03*
X75773315Y-79704888D03*
X69273315Y-84204888D03*
X75773315Y-84204888D03*
X69250000Y-62802444D03*
X75750000Y-62802444D03*
X69250000Y-67302444D03*
X75750000Y-67302444D03*
D13*
X90070000Y-56330000D03*
X90070000Y-65930000D03*
D14*
X82570000Y-58630000D03*
D15*
X82570000Y-61130000D03*
X82570000Y-63630000D03*
D16*
X69250000Y-71253666D03*
X75750000Y-71253666D03*
X69250000Y-75753666D03*
X75750000Y-75753666D03*
%LPD*%
M02*
