%TF.GenerationSoftware,KiCad,Pcbnew,7.0.9*%
%TF.CreationDate,2023-12-18T22:47:56-06:00*%
%TF.ProjectId,pod_basic_expander2,706f645f-6261-4736-9963-5f657870616e,rev?*%
%TF.SameCoordinates,Original*%
%TF.FileFunction,Drillmap*%
%TF.FilePolarity,Positive*%
%FSLAX45Y45*%
G04 Gerber Fmt 4.5, Leading zero omitted, Abs format (unit mm)*
G04 Created by KiCad (PCBNEW 7.0.9) date 2023-12-18 22:47:56*
%MOMM*%
%LPD*%
G01*
G04 APERTURE LIST*
%ADD10C,0.050000*%
%ADD11C,0.200000*%
G04 APERTURE END LIST*
D10*
X6491421Y-9450000D02*
G75*
G03*
X6491421Y-9450000I-141421J0D01*
G01*
X6000000Y-4100000D02*
X6000000Y-9600000D01*
X6200000Y-9800000D02*
X10300000Y-9800000D01*
X10500000Y-4100000D02*
X10500000Y-9600000D01*
X6000000Y-9600000D02*
G75*
G03*
X6200000Y-9800000I200000J0D01*
G01*
X6100000Y-4000000D02*
G75*
G03*
X6000000Y-4100000I0J-100000D01*
G01*
X10341421Y-4300000D02*
G75*
G03*
X10341421Y-4300000I-141421J0D01*
G01*
X10300000Y-9800000D02*
G75*
G03*
X10500000Y-9600000I0J200000D01*
G01*
X10291421Y-9450000D02*
G75*
G03*
X10291421Y-9450000I-141421J0D01*
G01*
X6100000Y-4000000D02*
X10400000Y-4000000D01*
X6441421Y-4300000D02*
G75*
G03*
X6441421Y-4300000I-141421J0D01*
G01*
X10500000Y-4100000D02*
G75*
G03*
X10400000Y-4000000I-100000J0D01*
G01*
D11*
X6258277Y-10113984D02*
X6258277Y-9913984D01*
X6258277Y-9913984D02*
X6305896Y-9913984D01*
X6305896Y-9913984D02*
X6334467Y-9923508D01*
X6334467Y-9923508D02*
X6353515Y-9942555D01*
X6353515Y-9942555D02*
X6363039Y-9961603D01*
X6363039Y-9961603D02*
X6372562Y-9999698D01*
X6372562Y-9999698D02*
X6372562Y-10028270D01*
X6372562Y-10028270D02*
X6363039Y-10066365D01*
X6363039Y-10066365D02*
X6353515Y-10085412D01*
X6353515Y-10085412D02*
X6334467Y-10104460D01*
X6334467Y-10104460D02*
X6305896Y-10113984D01*
X6305896Y-10113984D02*
X6258277Y-10113984D01*
X6458277Y-10113984D02*
X6458277Y-9980650D01*
X6458277Y-10018746D02*
X6467801Y-9999698D01*
X6467801Y-9999698D02*
X6477324Y-9990174D01*
X6477324Y-9990174D02*
X6496372Y-9980650D01*
X6496372Y-9980650D02*
X6515420Y-9980650D01*
X6582086Y-10113984D02*
X6582086Y-9980650D01*
X6582086Y-9913984D02*
X6572562Y-9923508D01*
X6572562Y-9923508D02*
X6582086Y-9933031D01*
X6582086Y-9933031D02*
X6591610Y-9923508D01*
X6591610Y-9923508D02*
X6582086Y-9913984D01*
X6582086Y-9913984D02*
X6582086Y-9933031D01*
X6705896Y-10113984D02*
X6686848Y-10104460D01*
X6686848Y-10104460D02*
X6677324Y-10085412D01*
X6677324Y-10085412D02*
X6677324Y-9913984D01*
X6810658Y-10113984D02*
X6791610Y-10104460D01*
X6791610Y-10104460D02*
X6782086Y-10085412D01*
X6782086Y-10085412D02*
X6782086Y-9913984D01*
X7039229Y-10113984D02*
X7039229Y-9913984D01*
X7039229Y-9913984D02*
X7105896Y-10056841D01*
X7105896Y-10056841D02*
X7172562Y-9913984D01*
X7172562Y-9913984D02*
X7172562Y-10113984D01*
X7353515Y-10113984D02*
X7353515Y-10009222D01*
X7353515Y-10009222D02*
X7343991Y-9990174D01*
X7343991Y-9990174D02*
X7324943Y-9980650D01*
X7324943Y-9980650D02*
X7286848Y-9980650D01*
X7286848Y-9980650D02*
X7267801Y-9990174D01*
X7353515Y-10104460D02*
X7334467Y-10113984D01*
X7334467Y-10113984D02*
X7286848Y-10113984D01*
X7286848Y-10113984D02*
X7267801Y-10104460D01*
X7267801Y-10104460D02*
X7258277Y-10085412D01*
X7258277Y-10085412D02*
X7258277Y-10066365D01*
X7258277Y-10066365D02*
X7267801Y-10047317D01*
X7267801Y-10047317D02*
X7286848Y-10037793D01*
X7286848Y-10037793D02*
X7334467Y-10037793D01*
X7334467Y-10037793D02*
X7353515Y-10028270D01*
X7448753Y-9980650D02*
X7448753Y-10180650D01*
X7448753Y-9990174D02*
X7467801Y-9980650D01*
X7467801Y-9980650D02*
X7505896Y-9980650D01*
X7505896Y-9980650D02*
X7524943Y-9990174D01*
X7524943Y-9990174D02*
X7534467Y-9999698D01*
X7534467Y-9999698D02*
X7543991Y-10018746D01*
X7543991Y-10018746D02*
X7543991Y-10075889D01*
X7543991Y-10075889D02*
X7534467Y-10094936D01*
X7534467Y-10094936D02*
X7524943Y-10104460D01*
X7524943Y-10104460D02*
X7505896Y-10113984D01*
X7505896Y-10113984D02*
X7467801Y-10113984D01*
X7467801Y-10113984D02*
X7448753Y-10104460D01*
X7629705Y-10094936D02*
X7639229Y-10104460D01*
X7639229Y-10104460D02*
X7629705Y-10113984D01*
X7629705Y-10113984D02*
X7620182Y-10104460D01*
X7620182Y-10104460D02*
X7629705Y-10094936D01*
X7629705Y-10094936D02*
X7629705Y-10113984D01*
X7629705Y-9990174D02*
X7639229Y-9999698D01*
X7639229Y-9999698D02*
X7629705Y-10009222D01*
X7629705Y-10009222D02*
X7620182Y-9999698D01*
X7620182Y-9999698D02*
X7629705Y-9990174D01*
X7629705Y-9990174D02*
X7629705Y-10009222D01*
M02*
