G04 #@! TF.GenerationSoftware,KiCad,Pcbnew,7.0.9*
G04 #@! TF.CreationDate,2023-12-18T22:45:15-06:00*
G04 #@! TF.ProjectId,pod_basic_expander2,706f645f-6261-4736-9963-5f657870616e,rev?*
G04 #@! TF.SameCoordinates,Original*
G04 #@! TF.FileFunction,Copper,L1,Top*
G04 #@! TF.FilePolarity,Positive*
%FSLAX46Y46*%
G04 Gerber Fmt 4.6, Leading zero omitted, Abs format (unit mm)*
G04 Created by KiCad (PCBNEW 7.0.9) date 2023-12-18 22:45:15*
%MOMM*%
%LPD*%
G01*
G04 APERTURE LIST*
G04 #@! TA.AperFunction,ComponentPad*
%ADD10O,3.240000X2.720000*%
G04 #@! TD*
G04 #@! TA.AperFunction,ComponentPad*
%ADD11R,1.800000X1.800000*%
G04 #@! TD*
G04 #@! TA.AperFunction,ComponentPad*
%ADD12C,1.800000*%
G04 #@! TD*
G04 #@! TA.AperFunction,ComponentPad*
%ADD13C,2.000000*%
G04 #@! TD*
G04 #@! TA.AperFunction,ComponentPad*
%ADD14R,1.700000X1.700000*%
G04 #@! TD*
G04 #@! TA.AperFunction,ComponentPad*
%ADD15O,1.700000X1.700000*%
G04 #@! TD*
G04 #@! TA.AperFunction,Conductor*
%ADD16C,0.200000*%
G04 #@! TD*
G04 APERTURE END LIST*
D10*
X90070000Y-70200000D03*
X90070000Y-79800000D03*
D11*
X82570000Y-72500000D03*
D12*
X82570000Y-75000000D03*
X82570000Y-77500000D03*
D13*
X69250000Y-54351222D03*
X75750000Y-54351222D03*
X69250000Y-58851222D03*
X75750000Y-58851222D03*
X69273315Y-88156111D03*
X75773315Y-88156111D03*
X69273315Y-92656111D03*
X75773315Y-92656111D03*
D14*
X100170000Y-82790000D03*
D15*
X100170000Y-80250000D03*
X100170000Y-77710000D03*
X100170000Y-75170000D03*
X100170000Y-72630000D03*
X100170000Y-70090000D03*
X100170000Y-67550000D03*
X100170000Y-65010000D03*
X100170000Y-62470000D03*
X100170000Y-59930000D03*
X100170000Y-57390000D03*
X100170000Y-54850000D03*
D13*
X69250000Y-45900000D03*
X75750000Y-45900000D03*
X69250000Y-50400000D03*
X75750000Y-50400000D03*
X69273315Y-79704888D03*
X75773315Y-79704888D03*
X69273315Y-84204888D03*
X75773315Y-84204888D03*
X69250000Y-62802444D03*
X75750000Y-62802444D03*
X69250000Y-67302444D03*
X75750000Y-67302444D03*
D10*
X90070000Y-56330000D03*
X90070000Y-65930000D03*
D11*
X82570000Y-58630000D03*
D12*
X82570000Y-61130000D03*
X82570000Y-63630000D03*
D13*
X69250000Y-71253666D03*
X75750000Y-71253666D03*
X69250000Y-75753666D03*
X75750000Y-75753666D03*
D16*
X100170000Y-70090000D02*
X96910000Y-70090000D01*
X96910000Y-70090000D02*
X92000000Y-75000000D01*
X92000000Y-75000000D02*
X82570000Y-75000000D01*
X99000000Y-66380000D02*
X100170000Y-67550000D01*
X99693654Y-63860000D02*
X99000000Y-64553654D01*
X99000000Y-64553654D02*
X99000000Y-66380000D01*
X103000000Y-66104314D02*
X100755686Y-63860000D01*
X100755686Y-63860000D02*
X99693654Y-63860000D01*
X69273315Y-88156111D02*
X75773315Y-88156111D01*
X99915686Y-87900000D02*
X103000000Y-84815686D01*
X75773315Y-88156111D02*
X75517204Y-87900000D01*
X103000000Y-84815686D02*
X103000000Y-66104314D01*
X75517204Y-87900000D02*
X99915686Y-87900000D01*
X75773315Y-79606111D02*
X83667204Y-87500000D01*
X69273315Y-79606111D02*
X75773315Y-79606111D01*
X102500000Y-66170000D02*
X101340000Y-65010000D01*
X83667204Y-87500000D02*
X99750000Y-87500000D01*
X99750000Y-87500000D02*
X102500000Y-84750000D01*
X101340000Y-65010000D02*
X100170000Y-65010000D01*
X102500000Y-84750000D02*
X102500000Y-66170000D01*
X94640000Y-68000000D02*
X100170000Y-62470000D01*
X75750000Y-71250000D02*
X79000000Y-68000000D01*
X79000000Y-68000000D02*
X94640000Y-68000000D01*
X69250000Y-71250000D02*
X75750000Y-71250000D01*
X69250000Y-62700000D02*
X75750000Y-62700000D01*
X77800000Y-62700000D02*
X78000000Y-62500000D01*
X98857157Y-58617157D02*
X100170000Y-59930000D01*
X80950000Y-54550000D02*
X96764314Y-54550000D01*
X78000000Y-57500000D02*
X80950000Y-54550000D01*
X98857157Y-56642843D02*
X98857157Y-58617157D01*
X75750000Y-62700000D02*
X76020000Y-62430000D01*
X96764314Y-54550000D02*
X98857157Y-56642843D01*
X75750000Y-62700000D02*
X77800000Y-62700000D01*
X78000000Y-62500000D02*
X78000000Y-57500000D01*
X75750000Y-54150000D02*
X96930000Y-54150000D01*
X69250000Y-54150000D02*
X75750000Y-54150000D01*
X96930000Y-54150000D02*
X100170000Y-57390000D01*
X69250000Y-45600000D02*
X75750000Y-45600000D01*
X91220000Y-45900000D02*
X100170000Y-54850000D01*
X75750000Y-45900000D02*
X91220000Y-45900000D01*
G04 #@! TA.AperFunction,Conductor*
G36*
X104003458Y-40500889D02*
G01*
X104097266Y-40511459D01*
X104124331Y-40517636D01*
X104203540Y-40545352D01*
X104228553Y-40557398D01*
X104299606Y-40602043D01*
X104321313Y-40619355D01*
X104380644Y-40678686D01*
X104397957Y-40700395D01*
X104442600Y-40771444D01*
X104454648Y-40796462D01*
X104482362Y-40875666D01*
X104488540Y-40902735D01*
X104493133Y-40943501D01*
X104499110Y-40996535D01*
X104499500Y-41003482D01*
X104499500Y-95997786D01*
X104499342Y-96002210D01*
X104484869Y-96204557D01*
X104482351Y-96222068D01*
X104440646Y-96413787D01*
X104435662Y-96430763D01*
X104367090Y-96614609D01*
X104359740Y-96630701D01*
X104265711Y-96802904D01*
X104256146Y-96817789D01*
X104138558Y-96974867D01*
X104126972Y-96988237D01*
X103988237Y-97126972D01*
X103974867Y-97138558D01*
X103817789Y-97256146D01*
X103802904Y-97265711D01*
X103630701Y-97359740D01*
X103614609Y-97367090D01*
X103430763Y-97435662D01*
X103413787Y-97440646D01*
X103222068Y-97482351D01*
X103204557Y-97484869D01*
X103023733Y-97497802D01*
X103002208Y-97499342D01*
X102997786Y-97499500D01*
X62002214Y-97499500D01*
X61997791Y-97499342D01*
X61973413Y-97497598D01*
X61795442Y-97484869D01*
X61777931Y-97482351D01*
X61586212Y-97440646D01*
X61569236Y-97435662D01*
X61385390Y-97367090D01*
X61369298Y-97359740D01*
X61197095Y-97265711D01*
X61182210Y-97256146D01*
X61025132Y-97138558D01*
X61011762Y-97126972D01*
X60873027Y-96988237D01*
X60861441Y-96974867D01*
X60743849Y-96817784D01*
X60734288Y-96802904D01*
X60640259Y-96630701D01*
X60632909Y-96614609D01*
X60572091Y-96451551D01*
X60564334Y-96430755D01*
X60559355Y-96413797D01*
X60517647Y-96222063D01*
X60515130Y-96204556D01*
X60500658Y-96002210D01*
X60500500Y-95997786D01*
X60500500Y-94500001D01*
X61580395Y-94500001D01*
X61599934Y-94773188D01*
X61599935Y-94773195D01*
X61657337Y-95037068D01*
X61658152Y-95040815D01*
X61753866Y-95297433D01*
X61753868Y-95297438D01*
X61885122Y-95537811D01*
X61885127Y-95537819D01*
X62049252Y-95757066D01*
X62049268Y-95757084D01*
X62242915Y-95950731D01*
X62242933Y-95950747D01*
X62462180Y-96114872D01*
X62462188Y-96114877D01*
X62702561Y-96246131D01*
X62702560Y-96246131D01*
X62702564Y-96246132D01*
X62702567Y-96246134D01*
X62959185Y-96341848D01*
X63226812Y-96400066D01*
X63480460Y-96418207D01*
X63499999Y-96419605D01*
X63500000Y-96419605D01*
X63500001Y-96419605D01*
X63518235Y-96418300D01*
X63773188Y-96400066D01*
X64040815Y-96341848D01*
X64297433Y-96246134D01*
X64537817Y-96114874D01*
X64757074Y-95950741D01*
X64950741Y-95757074D01*
X65114874Y-95537817D01*
X65246134Y-95297433D01*
X65341848Y-95040815D01*
X65400066Y-94773188D01*
X65419605Y-94500001D01*
X99580395Y-94500001D01*
X99599934Y-94773188D01*
X99599935Y-94773195D01*
X99657337Y-95037068D01*
X99658152Y-95040815D01*
X99753866Y-95297433D01*
X99753868Y-95297438D01*
X99885122Y-95537811D01*
X99885127Y-95537819D01*
X100049252Y-95757066D01*
X100049268Y-95757084D01*
X100242915Y-95950731D01*
X100242933Y-95950747D01*
X100462180Y-96114872D01*
X100462188Y-96114877D01*
X100702561Y-96246131D01*
X100702560Y-96246131D01*
X100702564Y-96246132D01*
X100702567Y-96246134D01*
X100959185Y-96341848D01*
X101226812Y-96400066D01*
X101480460Y-96418207D01*
X101499999Y-96419605D01*
X101500000Y-96419605D01*
X101500001Y-96419605D01*
X101518235Y-96418300D01*
X101773188Y-96400066D01*
X102040815Y-96341848D01*
X102297433Y-96246134D01*
X102537817Y-96114874D01*
X102757074Y-95950741D01*
X102950741Y-95757074D01*
X103114874Y-95537817D01*
X103246134Y-95297433D01*
X103341848Y-95040815D01*
X103400066Y-94773188D01*
X103419605Y-94500000D01*
X103400066Y-94226812D01*
X103341848Y-93959185D01*
X103246134Y-93702567D01*
X103179696Y-93580896D01*
X103114877Y-93462188D01*
X103114872Y-93462180D01*
X102950747Y-93242933D01*
X102950731Y-93242915D01*
X102757084Y-93049268D01*
X102757066Y-93049252D01*
X102537819Y-92885127D01*
X102537811Y-92885122D01*
X102297438Y-92753868D01*
X102297439Y-92753868D01*
X102247468Y-92735230D01*
X102040815Y-92658152D01*
X102040808Y-92658150D01*
X102040807Y-92658150D01*
X101773195Y-92599935D01*
X101773188Y-92599934D01*
X101500001Y-92580395D01*
X101499999Y-92580395D01*
X101226811Y-92599934D01*
X101226804Y-92599935D01*
X100959192Y-92658150D01*
X100959188Y-92658151D01*
X100959185Y-92658152D01*
X100774489Y-92727040D01*
X100702561Y-92753868D01*
X100462188Y-92885122D01*
X100462180Y-92885127D01*
X100242933Y-93049252D01*
X100242915Y-93049268D01*
X100049268Y-93242915D01*
X100049252Y-93242933D01*
X99885127Y-93462180D01*
X99885122Y-93462188D01*
X99753868Y-93702561D01*
X99753866Y-93702567D01*
X99658152Y-93959185D01*
X99658151Y-93959188D01*
X99658150Y-93959192D01*
X99599935Y-94226804D01*
X99599934Y-94226811D01*
X99580395Y-94499998D01*
X99580395Y-94500001D01*
X65419605Y-94500001D01*
X65419605Y-94500000D01*
X65400066Y-94226812D01*
X65341848Y-93959185D01*
X65246134Y-93702567D01*
X65179696Y-93580896D01*
X65114877Y-93462188D01*
X65114872Y-93462180D01*
X64950747Y-93242933D01*
X64950731Y-93242915D01*
X64757084Y-93049268D01*
X64757066Y-93049252D01*
X64537819Y-92885127D01*
X64537811Y-92885122D01*
X64297438Y-92753868D01*
X64297439Y-92753868D01*
X64247468Y-92735230D01*
X64040815Y-92658152D01*
X64040808Y-92658150D01*
X64040807Y-92658150D01*
X64031457Y-92656116D01*
X67767672Y-92656116D01*
X67788205Y-92903923D01*
X67788207Y-92903935D01*
X67849251Y-93144992D01*
X67949141Y-93372717D01*
X68085148Y-93580893D01*
X68085151Y-93580896D01*
X68253571Y-93763849D01*
X68449806Y-93916585D01*
X68668505Y-94034939D01*
X68903701Y-94115682D01*
X69148980Y-94156611D01*
X69397650Y-94156611D01*
X69642929Y-94115682D01*
X69878125Y-94034939D01*
X70096824Y-93916585D01*
X70293059Y-93763849D01*
X70461479Y-93580896D01*
X70597488Y-93372718D01*
X70697378Y-93144992D01*
X70758423Y-92903932D01*
X70759981Y-92885127D01*
X70778958Y-92656116D01*
X74267672Y-92656116D01*
X74288205Y-92903923D01*
X74288207Y-92903935D01*
X74349251Y-93144992D01*
X74449141Y-93372717D01*
X74585148Y-93580893D01*
X74585151Y-93580896D01*
X74753571Y-93763849D01*
X74949806Y-93916585D01*
X75168505Y-94034939D01*
X75403701Y-94115682D01*
X75648980Y-94156611D01*
X75897650Y-94156611D01*
X76142929Y-94115682D01*
X76378125Y-94034939D01*
X76596824Y-93916585D01*
X76793059Y-93763849D01*
X76961479Y-93580896D01*
X77097488Y-93372718D01*
X77197378Y-93144992D01*
X77258423Y-92903932D01*
X77259981Y-92885127D01*
X77278958Y-92656116D01*
X77278958Y-92656105D01*
X77258424Y-92408298D01*
X77258422Y-92408286D01*
X77197378Y-92167229D01*
X77097488Y-91939504D01*
X76961481Y-91731328D01*
X76939872Y-91707855D01*
X76793059Y-91548373D01*
X76596824Y-91395637D01*
X76596822Y-91395636D01*
X76596821Y-91395635D01*
X76378126Y-91277283D01*
X76378117Y-91277280D01*
X76142931Y-91196540D01*
X75897650Y-91155611D01*
X75648980Y-91155611D01*
X75403698Y-91196540D01*
X75168512Y-91277280D01*
X75168503Y-91277283D01*
X74949808Y-91395635D01*
X74753572Y-91548372D01*
X74585148Y-91731328D01*
X74449141Y-91939504D01*
X74349251Y-92167229D01*
X74288207Y-92408286D01*
X74288205Y-92408298D01*
X74267672Y-92656105D01*
X74267672Y-92656116D01*
X70778958Y-92656116D01*
X70778958Y-92656105D01*
X70758424Y-92408298D01*
X70758422Y-92408286D01*
X70697378Y-92167229D01*
X70597488Y-91939504D01*
X70461481Y-91731328D01*
X70439872Y-91707855D01*
X70293059Y-91548373D01*
X70096824Y-91395637D01*
X70096822Y-91395636D01*
X70096821Y-91395635D01*
X69878126Y-91277283D01*
X69878117Y-91277280D01*
X69642931Y-91196540D01*
X69397650Y-91155611D01*
X69148980Y-91155611D01*
X68903698Y-91196540D01*
X68668512Y-91277280D01*
X68668503Y-91277283D01*
X68449808Y-91395635D01*
X68253572Y-91548372D01*
X68085148Y-91731328D01*
X67949141Y-91939504D01*
X67849251Y-92167229D01*
X67788207Y-92408286D01*
X67788205Y-92408298D01*
X67767672Y-92656105D01*
X67767672Y-92656116D01*
X64031457Y-92656116D01*
X63773195Y-92599935D01*
X63773188Y-92599934D01*
X63500001Y-92580395D01*
X63499999Y-92580395D01*
X63226811Y-92599934D01*
X63226804Y-92599935D01*
X62959192Y-92658150D01*
X62959188Y-92658151D01*
X62959185Y-92658152D01*
X62774489Y-92727040D01*
X62702561Y-92753868D01*
X62462188Y-92885122D01*
X62462180Y-92885127D01*
X62242933Y-93049252D01*
X62242915Y-93049268D01*
X62049268Y-93242915D01*
X62049252Y-93242933D01*
X61885127Y-93462180D01*
X61885122Y-93462188D01*
X61753868Y-93702561D01*
X61753866Y-93702567D01*
X61658152Y-93959185D01*
X61658151Y-93959188D01*
X61658150Y-93959192D01*
X61599935Y-94226804D01*
X61599934Y-94226811D01*
X61580395Y-94499998D01*
X61580395Y-94500001D01*
X60500500Y-94500001D01*
X60500500Y-84204893D01*
X67767672Y-84204893D01*
X67788205Y-84452700D01*
X67788207Y-84452712D01*
X67849251Y-84693769D01*
X67949141Y-84921494D01*
X68085148Y-85129670D01*
X68085151Y-85129673D01*
X68253571Y-85312626D01*
X68449806Y-85465362D01*
X68668505Y-85583716D01*
X68903701Y-85664459D01*
X69148980Y-85705388D01*
X69397650Y-85705388D01*
X69642929Y-85664459D01*
X69878125Y-85583716D01*
X70096824Y-85465362D01*
X70293059Y-85312626D01*
X70461479Y-85129673D01*
X70597488Y-84921495D01*
X70697378Y-84693769D01*
X70758423Y-84452709D01*
X70778958Y-84204893D01*
X74267672Y-84204893D01*
X74288205Y-84452700D01*
X74288207Y-84452712D01*
X74349251Y-84693769D01*
X74449141Y-84921494D01*
X74585148Y-85129670D01*
X74585151Y-85129673D01*
X74753571Y-85312626D01*
X74949806Y-85465362D01*
X75168505Y-85583716D01*
X75403701Y-85664459D01*
X75648980Y-85705388D01*
X75897650Y-85705388D01*
X76142929Y-85664459D01*
X76378125Y-85583716D01*
X76596824Y-85465362D01*
X76793059Y-85312626D01*
X76961479Y-85129673D01*
X77097488Y-84921495D01*
X77197378Y-84693769D01*
X77258423Y-84452709D01*
X77278958Y-84204888D01*
X77268924Y-84083797D01*
X77258424Y-83957075D01*
X77258422Y-83957063D01*
X77197378Y-83716006D01*
X77097488Y-83488281D01*
X76961481Y-83280105D01*
X76939872Y-83256632D01*
X76793059Y-83097150D01*
X76596824Y-82944414D01*
X76596822Y-82944413D01*
X76596821Y-82944412D01*
X76378126Y-82826060D01*
X76378117Y-82826057D01*
X76142931Y-82745317D01*
X75897650Y-82704388D01*
X75648980Y-82704388D01*
X75403698Y-82745317D01*
X75168512Y-82826057D01*
X75168503Y-82826060D01*
X74949808Y-82944412D01*
X74753572Y-83097149D01*
X74585148Y-83280105D01*
X74449141Y-83488281D01*
X74349251Y-83716006D01*
X74288207Y-83957063D01*
X74288205Y-83957075D01*
X74267672Y-84204882D01*
X74267672Y-84204893D01*
X70778958Y-84204893D01*
X70778958Y-84204888D01*
X70768924Y-84083797D01*
X70758424Y-83957075D01*
X70758422Y-83957063D01*
X70697378Y-83716006D01*
X70597488Y-83488281D01*
X70461481Y-83280105D01*
X70439872Y-83256632D01*
X70293059Y-83097150D01*
X70096824Y-82944414D01*
X70096822Y-82944413D01*
X70096821Y-82944412D01*
X69878126Y-82826060D01*
X69878117Y-82826057D01*
X69642931Y-82745317D01*
X69397650Y-82704388D01*
X69148980Y-82704388D01*
X68903698Y-82745317D01*
X68668512Y-82826057D01*
X68668503Y-82826060D01*
X68449808Y-82944412D01*
X68253572Y-83097149D01*
X68085148Y-83280105D01*
X67949141Y-83488281D01*
X67849251Y-83716006D01*
X67788207Y-83957063D01*
X67788205Y-83957075D01*
X67767672Y-84204882D01*
X67767672Y-84204893D01*
X60500500Y-84204893D01*
X60500500Y-75753671D01*
X67744357Y-75753671D01*
X67764890Y-76001478D01*
X67764892Y-76001490D01*
X67825936Y-76242547D01*
X67925826Y-76470272D01*
X68061833Y-76678448D01*
X68061836Y-76678451D01*
X68230256Y-76861404D01*
X68426491Y-77014140D01*
X68645190Y-77132494D01*
X68880386Y-77213237D01*
X69125665Y-77254166D01*
X69374335Y-77254166D01*
X69619614Y-77213237D01*
X69854810Y-77132494D01*
X70073509Y-77014140D01*
X70269744Y-76861404D01*
X70438164Y-76678451D01*
X70574173Y-76470273D01*
X70674063Y-76242547D01*
X70735108Y-76001487D01*
X70746571Y-75863153D01*
X70755643Y-75753671D01*
X74244357Y-75753671D01*
X74264890Y-76001478D01*
X74264892Y-76001490D01*
X74325936Y-76242547D01*
X74425826Y-76470272D01*
X74561833Y-76678448D01*
X74561836Y-76678451D01*
X74730256Y-76861404D01*
X74926491Y-77014140D01*
X75145190Y-77132494D01*
X75380386Y-77213237D01*
X75625665Y-77254166D01*
X75874335Y-77254166D01*
X76119614Y-77213237D01*
X76354810Y-77132494D01*
X76573509Y-77014140D01*
X76769744Y-76861404D01*
X76938164Y-76678451D01*
X77074173Y-76470273D01*
X77174063Y-76242547D01*
X77235108Y-76001487D01*
X77246571Y-75863153D01*
X77255643Y-75753671D01*
X77255643Y-75753660D01*
X77235109Y-75505853D01*
X77235107Y-75505841D01*
X77174063Y-75264784D01*
X77074173Y-75037059D01*
X76938166Y-74828883D01*
X76825516Y-74706513D01*
X76769744Y-74645928D01*
X76573509Y-74493192D01*
X76573507Y-74493191D01*
X76573506Y-74493190D01*
X76354811Y-74374838D01*
X76354802Y-74374835D01*
X76119616Y-74294095D01*
X75874335Y-74253166D01*
X75625665Y-74253166D01*
X75380383Y-74294095D01*
X75145197Y-74374835D01*
X75145188Y-74374838D01*
X74926493Y-74493190D01*
X74730257Y-74645927D01*
X74561833Y-74828883D01*
X74425826Y-75037059D01*
X74325936Y-75264784D01*
X74264892Y-75505841D01*
X74264890Y-75505853D01*
X74244357Y-75753660D01*
X74244357Y-75753671D01*
X70755643Y-75753671D01*
X70755643Y-75753660D01*
X70735109Y-75505853D01*
X70735107Y-75505841D01*
X70674063Y-75264784D01*
X70574173Y-75037059D01*
X70438166Y-74828883D01*
X70325516Y-74706513D01*
X70269744Y-74645928D01*
X70073509Y-74493192D01*
X70073507Y-74493191D01*
X70073506Y-74493190D01*
X69854811Y-74374838D01*
X69854802Y-74374835D01*
X69619616Y-74294095D01*
X69374335Y-74253166D01*
X69125665Y-74253166D01*
X68880383Y-74294095D01*
X68645197Y-74374835D01*
X68645188Y-74374838D01*
X68426493Y-74493190D01*
X68230257Y-74645927D01*
X68061833Y-74828883D01*
X67925826Y-75037059D01*
X67825936Y-75264784D01*
X67764892Y-75505841D01*
X67764890Y-75505853D01*
X67744357Y-75753660D01*
X67744357Y-75753671D01*
X60500500Y-75753671D01*
X60500500Y-71253671D01*
X67744357Y-71253671D01*
X67764890Y-71501478D01*
X67764892Y-71501490D01*
X67825936Y-71742547D01*
X67925826Y-71970272D01*
X68061833Y-72178448D01*
X68061836Y-72178451D01*
X68230256Y-72361404D01*
X68426491Y-72514140D01*
X68426493Y-72514141D01*
X68640579Y-72629999D01*
X68645190Y-72632494D01*
X68880386Y-72713237D01*
X69125665Y-72754166D01*
X69374335Y-72754166D01*
X69619614Y-72713237D01*
X69854810Y-72632494D01*
X70073509Y-72514140D01*
X70269744Y-72361404D01*
X70438164Y-72178451D01*
X70574173Y-71970273D01*
X70594168Y-71924689D01*
X70639124Y-71871204D01*
X70705860Y-71850514D01*
X70707724Y-71850500D01*
X74292276Y-71850500D01*
X74359315Y-71870185D01*
X74405070Y-71922989D01*
X74405832Y-71924689D01*
X74425827Y-71970274D01*
X74561833Y-72178448D01*
X74561836Y-72178451D01*
X74730256Y-72361404D01*
X74926491Y-72514140D01*
X74926493Y-72514141D01*
X75140579Y-72629999D01*
X75145190Y-72632494D01*
X75380386Y-72713237D01*
X75625665Y-72754166D01*
X75874335Y-72754166D01*
X76119614Y-72713237D01*
X76354810Y-72632494D01*
X76573509Y-72514140D01*
X76769744Y-72361404D01*
X76938164Y-72178451D01*
X77074173Y-71970273D01*
X77174063Y-71742547D01*
X77235108Y-71501487D01*
X77244073Y-71393295D01*
X77255643Y-71253671D01*
X77255643Y-71253660D01*
X77235109Y-71005853D01*
X77235107Y-71005841D01*
X77173251Y-70761578D01*
X77175876Y-70691758D01*
X77205774Y-70643459D01*
X79212416Y-68636819D01*
X79273739Y-68603334D01*
X79300097Y-68600500D01*
X88475940Y-68600500D01*
X88542979Y-68620185D01*
X88588734Y-68672989D01*
X88598678Y-68742147D01*
X88569653Y-68805703D01*
X88565208Y-68810565D01*
X88376109Y-69006701D01*
X88376102Y-69006709D01*
X88217647Y-69228189D01*
X88217640Y-69228201D01*
X88093117Y-69470397D01*
X88093111Y-69470411D01*
X88005184Y-69728145D01*
X88005180Y-69728163D01*
X87955715Y-69995959D01*
X87955713Y-69995979D01*
X87945767Y-70268129D01*
X87975552Y-70538827D01*
X87975554Y-70538840D01*
X88035420Y-70767834D01*
X88044438Y-70802326D01*
X88150953Y-71052975D01*
X88273433Y-71253666D01*
X88292824Y-71285439D01*
X88292831Y-71285449D01*
X88434735Y-71455965D01*
X88467037Y-71494779D01*
X88669869Y-71676518D01*
X88897002Y-71826788D01*
X89143594Y-71942386D01*
X89404389Y-72020847D01*
X89673829Y-72060500D01*
X89673834Y-72060500D01*
X90398005Y-72060500D01*
X90449780Y-72056710D01*
X90601616Y-72045597D01*
X90712723Y-72020847D01*
X90867435Y-71986384D01*
X90867437Y-71986383D01*
X90867442Y-71986382D01*
X91121814Y-71889093D01*
X91359310Y-71755804D01*
X91574868Y-71589355D01*
X91763894Y-71393295D01*
X91922358Y-71171802D01*
X92046885Y-70929597D01*
X92103111Y-70764785D01*
X92134815Y-70671854D01*
X92134815Y-70671850D01*
X92134819Y-70671841D01*
X92184286Y-70404029D01*
X92194232Y-70131869D01*
X92164446Y-69861161D01*
X92095562Y-69597674D01*
X91989047Y-69347025D01*
X91847173Y-69114556D01*
X91672963Y-68905221D01*
X91672957Y-68905215D01*
X91574338Y-68816851D01*
X91537545Y-68757454D01*
X91538705Y-68687594D01*
X91577451Y-68629451D01*
X91641480Y-68601486D01*
X91657086Y-68600500D01*
X94596572Y-68600500D01*
X94604670Y-68601030D01*
X94640000Y-68605682D01*
X94640001Y-68605682D01*
X94692254Y-68598802D01*
X94796762Y-68585044D01*
X94942841Y-68524536D01*
X94953899Y-68516050D01*
X94962385Y-68509540D01*
X95068279Y-68428284D01*
X95068278Y-68428284D01*
X95068282Y-68428282D01*
X95089984Y-68399998D01*
X95095310Y-68393923D01*
X98187821Y-65301413D01*
X98249142Y-65267930D01*
X98318834Y-65272914D01*
X98374767Y-65314786D01*
X98399184Y-65380250D01*
X98399500Y-65389096D01*
X98399500Y-66336571D01*
X98398969Y-66344669D01*
X98394318Y-66380000D01*
X98397193Y-66401841D01*
X98399500Y-66419360D01*
X98414955Y-66536760D01*
X98414956Y-66536762D01*
X98475464Y-66682841D01*
X98571718Y-66808282D01*
X98599995Y-66829980D01*
X98606085Y-66835320D01*
X98786204Y-67015439D01*
X98837233Y-67066468D01*
X98870718Y-67127791D01*
X98869327Y-67186241D01*
X98834939Y-67314583D01*
X98834936Y-67314596D01*
X98814341Y-67549999D01*
X98814341Y-67550000D01*
X98834936Y-67785403D01*
X98834938Y-67785413D01*
X98896094Y-68013655D01*
X98896096Y-68013659D01*
X98896097Y-68013663D01*
X98995683Y-68227226D01*
X98995965Y-68227830D01*
X98995967Y-68227834D01*
X99104281Y-68382521D01*
X99123649Y-68410182D01*
X99131501Y-68421395D01*
X99131506Y-68421402D01*
X99298597Y-68588493D01*
X99298603Y-68588498D01*
X99484158Y-68718425D01*
X99527783Y-68773002D01*
X99534977Y-68842500D01*
X99503454Y-68904855D01*
X99484158Y-68921575D01*
X99298597Y-69051505D01*
X99131506Y-69218596D01*
X98995965Y-69412170D01*
X98995962Y-69412175D01*
X98993289Y-69417909D01*
X98947115Y-69470346D01*
X98880909Y-69489500D01*
X96953434Y-69489500D01*
X96945334Y-69488969D01*
X96910000Y-69484317D01*
X96909999Y-69484317D01*
X96753238Y-69504955D01*
X96607157Y-69565464D01*
X96481719Y-69661716D01*
X96460019Y-69689994D01*
X96454667Y-69696096D01*
X94105168Y-72045597D01*
X91787584Y-74363181D01*
X91726261Y-74396666D01*
X91699903Y-74399500D01*
X83916801Y-74399500D01*
X83849762Y-74379815D01*
X83807747Y-74334519D01*
X83805924Y-74331151D01*
X83678983Y-74136852D01*
X83678980Y-74136849D01*
X83678979Y-74136847D01*
X83611241Y-74063264D01*
X83580321Y-74000612D01*
X83588181Y-73931186D01*
X83632329Y-73877031D01*
X83659140Y-73863102D01*
X83712086Y-73843354D01*
X83712093Y-73843350D01*
X83827187Y-73757190D01*
X83827190Y-73757187D01*
X83913350Y-73642093D01*
X83913354Y-73642086D01*
X83963596Y-73507379D01*
X83963598Y-73507372D01*
X83969999Y-73447844D01*
X83970000Y-73447827D01*
X83970000Y-72750000D01*
X83003686Y-72750000D01*
X83029493Y-72709844D01*
X83070000Y-72571889D01*
X83070000Y-72428111D01*
X83029493Y-72290156D01*
X83003686Y-72250000D01*
X83970000Y-72250000D01*
X83970000Y-71552172D01*
X83969999Y-71552155D01*
X83963598Y-71492627D01*
X83963596Y-71492620D01*
X83913354Y-71357913D01*
X83913350Y-71357906D01*
X83827190Y-71242812D01*
X83827187Y-71242809D01*
X83712093Y-71156649D01*
X83712086Y-71156645D01*
X83577379Y-71106403D01*
X83577372Y-71106401D01*
X83517844Y-71100000D01*
X82820000Y-71100000D01*
X82820000Y-72064498D01*
X82712315Y-72015320D01*
X82605763Y-72000000D01*
X82534237Y-72000000D01*
X82427685Y-72015320D01*
X82320000Y-72064498D01*
X82320000Y-71100000D01*
X81622155Y-71100000D01*
X81562627Y-71106401D01*
X81562620Y-71106403D01*
X81427913Y-71156645D01*
X81427906Y-71156649D01*
X81312812Y-71242809D01*
X81312809Y-71242812D01*
X81226649Y-71357906D01*
X81226645Y-71357913D01*
X81176403Y-71492620D01*
X81176401Y-71492627D01*
X81170000Y-71552155D01*
X81170000Y-72250000D01*
X82136314Y-72250000D01*
X82110507Y-72290156D01*
X82070000Y-72428111D01*
X82070000Y-72571889D01*
X82110507Y-72709844D01*
X82136314Y-72750000D01*
X81170000Y-72750000D01*
X81170000Y-73447844D01*
X81176401Y-73507372D01*
X81176403Y-73507379D01*
X81226645Y-73642086D01*
X81226649Y-73642093D01*
X81312809Y-73757187D01*
X81312812Y-73757190D01*
X81427906Y-73843350D01*
X81427913Y-73843354D01*
X81480859Y-73863102D01*
X81536793Y-73904973D01*
X81561210Y-73970438D01*
X81546358Y-74038711D01*
X81528757Y-74063265D01*
X81461021Y-74136847D01*
X81461019Y-74136848D01*
X81461016Y-74136853D01*
X81334075Y-74331151D01*
X81240842Y-74543699D01*
X81183866Y-74768691D01*
X81183864Y-74768702D01*
X81164700Y-74999993D01*
X81164700Y-75000006D01*
X81183864Y-75231297D01*
X81183866Y-75231308D01*
X81240842Y-75456300D01*
X81334075Y-75668848D01*
X81461016Y-75863147D01*
X81461019Y-75863151D01*
X81461021Y-75863153D01*
X81618216Y-76033913D01*
X81618219Y-76033915D01*
X81618222Y-76033918D01*
X81770122Y-76152147D01*
X81810935Y-76208857D01*
X81814610Y-76278630D01*
X81779978Y-76339313D01*
X81770122Y-76347853D01*
X81618222Y-76466081D01*
X81618219Y-76466084D01*
X81618216Y-76466086D01*
X81618216Y-76466087D01*
X81614363Y-76470273D01*
X81461016Y-76636852D01*
X81334075Y-76831151D01*
X81240842Y-77043699D01*
X81183866Y-77268691D01*
X81183864Y-77268702D01*
X81164700Y-77499993D01*
X81164700Y-77500006D01*
X81183864Y-77731297D01*
X81183866Y-77731308D01*
X81240842Y-77956300D01*
X81334075Y-78168848D01*
X81461016Y-78363147D01*
X81461019Y-78363151D01*
X81461021Y-78363153D01*
X81618216Y-78533913D01*
X81618219Y-78533915D01*
X81618222Y-78533918D01*
X81801365Y-78676464D01*
X81801371Y-78676468D01*
X81801374Y-78676470D01*
X82005497Y-78786936D01*
X82119487Y-78826068D01*
X82225015Y-78862297D01*
X82225017Y-78862297D01*
X82225019Y-78862298D01*
X82453951Y-78900500D01*
X82453952Y-78900500D01*
X82686048Y-78900500D01*
X82686049Y-78900500D01*
X82914981Y-78862298D01*
X83134503Y-78786936D01*
X83338626Y-78676470D01*
X83521784Y-78533913D01*
X83678979Y-78363153D01*
X83805924Y-78168849D01*
X83899157Y-77956300D01*
X83956134Y-77731305D01*
X83956135Y-77731297D01*
X83975300Y-77500006D01*
X83975300Y-77499993D01*
X83956135Y-77268702D01*
X83956133Y-77268691D01*
X83899157Y-77043699D01*
X83805924Y-76831151D01*
X83678983Y-76636852D01*
X83678980Y-76636849D01*
X83678979Y-76636847D01*
X83521784Y-76466087D01*
X83369876Y-76347852D01*
X83329064Y-76291143D01*
X83325389Y-76221370D01*
X83360020Y-76160687D01*
X83369876Y-76152147D01*
X83521784Y-76033913D01*
X83678979Y-75863153D01*
X83805924Y-75668849D01*
X83805926Y-75668843D01*
X83807747Y-75665481D01*
X83856967Y-75615891D01*
X83916801Y-75600500D01*
X91956572Y-75600500D01*
X91964670Y-75601030D01*
X92000000Y-75605682D01*
X92000001Y-75605682D01*
X92052254Y-75598802D01*
X92156762Y-75585044D01*
X92302841Y-75524536D01*
X92391768Y-75456300D01*
X92428282Y-75428282D01*
X92449984Y-75399998D01*
X92455310Y-75393923D01*
X97122416Y-70726819D01*
X97183739Y-70693334D01*
X97210097Y-70690500D01*
X98880909Y-70690500D01*
X98947948Y-70710185D01*
X98993292Y-70762097D01*
X98995965Y-70767830D01*
X99109229Y-70929588D01*
X99131501Y-70961395D01*
X99131506Y-70961402D01*
X99298597Y-71128493D01*
X99298603Y-71128498D01*
X99484158Y-71258425D01*
X99527783Y-71313002D01*
X99534977Y-71382500D01*
X99503454Y-71444855D01*
X99484158Y-71461575D01*
X99298597Y-71591505D01*
X99131505Y-71758597D01*
X98995965Y-71952169D01*
X98995964Y-71952171D01*
X98896098Y-72166335D01*
X98896094Y-72166344D01*
X98834938Y-72394586D01*
X98834936Y-72394596D01*
X98814341Y-72629999D01*
X98814341Y-72630000D01*
X98834936Y-72865403D01*
X98834938Y-72865413D01*
X98896094Y-73093655D01*
X98896096Y-73093659D01*
X98896097Y-73093663D01*
X98995965Y-73307830D01*
X98995967Y-73307834D01*
X99093992Y-73447827D01*
X99131505Y-73501401D01*
X99298599Y-73668495D01*
X99425268Y-73757190D01*
X99484594Y-73798730D01*
X99528219Y-73853307D01*
X99535413Y-73922805D01*
X99503890Y-73985160D01*
X99484595Y-74001880D01*
X99298922Y-74131890D01*
X99298920Y-74131891D01*
X99131891Y-74298920D01*
X99131886Y-74298926D01*
X98996400Y-74492420D01*
X98996399Y-74492422D01*
X98896570Y-74706507D01*
X98896567Y-74706513D01*
X98839364Y-74919999D01*
X98839364Y-74920000D01*
X99736314Y-74920000D01*
X99710507Y-74960156D01*
X99670000Y-75098111D01*
X99670000Y-75241889D01*
X99710507Y-75379844D01*
X99736314Y-75420000D01*
X98839364Y-75420000D01*
X98896567Y-75633486D01*
X98896570Y-75633492D01*
X98996399Y-75847578D01*
X99131894Y-76041082D01*
X99298917Y-76208105D01*
X99484595Y-76338119D01*
X99528219Y-76392696D01*
X99535412Y-76462195D01*
X99503890Y-76524549D01*
X99484595Y-76541269D01*
X99298594Y-76671508D01*
X99131505Y-76838597D01*
X98995965Y-77032169D01*
X98995964Y-77032171D01*
X98896098Y-77246335D01*
X98896094Y-77246344D01*
X98834938Y-77474586D01*
X98834936Y-77474596D01*
X98814341Y-77709999D01*
X98814341Y-77710000D01*
X98834936Y-77945403D01*
X98834938Y-77945413D01*
X98896094Y-78173655D01*
X98896096Y-78173659D01*
X98896097Y-78173663D01*
X98928988Y-78244198D01*
X98995965Y-78387830D01*
X98995967Y-78387834D01*
X99131501Y-78581395D01*
X99131506Y-78581402D01*
X99298597Y-78748493D01*
X99298603Y-78748498D01*
X99484158Y-78878425D01*
X99527783Y-78933002D01*
X99534977Y-79002500D01*
X99503454Y-79064855D01*
X99484158Y-79081575D01*
X99298597Y-79211505D01*
X99131505Y-79378597D01*
X98995965Y-79572169D01*
X98995964Y-79572171D01*
X98896098Y-79786335D01*
X98896094Y-79786344D01*
X98834938Y-80014586D01*
X98834936Y-80014596D01*
X98814341Y-80249999D01*
X98814341Y-80250000D01*
X98834936Y-80485403D01*
X98834938Y-80485413D01*
X98896094Y-80713655D01*
X98896096Y-80713659D01*
X98896097Y-80713663D01*
X98976198Y-80885439D01*
X98995965Y-80927830D01*
X98995967Y-80927834D01*
X99041804Y-80993295D01*
X99131501Y-81121396D01*
X99131506Y-81121402D01*
X99253430Y-81243326D01*
X99286915Y-81304649D01*
X99281931Y-81374341D01*
X99240059Y-81430274D01*
X99209083Y-81447189D01*
X99077669Y-81496203D01*
X99077664Y-81496206D01*
X98962455Y-81582452D01*
X98962452Y-81582455D01*
X98876206Y-81697664D01*
X98876202Y-81697671D01*
X98825908Y-81832517D01*
X98819501Y-81892116D01*
X98819501Y-81892123D01*
X98819500Y-81892135D01*
X98819500Y-83687870D01*
X98819501Y-83687876D01*
X98825908Y-83747483D01*
X98876202Y-83882328D01*
X98876206Y-83882335D01*
X98962452Y-83997544D01*
X98962455Y-83997547D01*
X99077664Y-84083793D01*
X99077671Y-84083797D01*
X99212517Y-84134091D01*
X99212516Y-84134091D01*
X99219444Y-84134835D01*
X99272127Y-84140500D01*
X101067872Y-84140499D01*
X101127483Y-84134091D01*
X101262331Y-84083796D01*
X101377546Y-83997546D01*
X101463796Y-83882331D01*
X101514091Y-83747483D01*
X101520500Y-83687873D01*
X101520499Y-81892128D01*
X101514091Y-81832517D01*
X101463796Y-81697669D01*
X101463795Y-81697668D01*
X101463793Y-81697664D01*
X101377547Y-81582455D01*
X101377544Y-81582452D01*
X101262335Y-81496206D01*
X101262328Y-81496202D01*
X101130917Y-81447189D01*
X101074983Y-81405318D01*
X101050566Y-81339853D01*
X101065418Y-81271580D01*
X101086563Y-81243332D01*
X101208495Y-81121401D01*
X101344035Y-80927830D01*
X101443903Y-80713663D01*
X101505063Y-80485408D01*
X101525659Y-80250000D01*
X101524202Y-80233352D01*
X101518837Y-80172029D01*
X101505063Y-80014592D01*
X101443903Y-79786337D01*
X101344035Y-79572171D01*
X101266306Y-79461161D01*
X101208494Y-79378597D01*
X101041402Y-79211506D01*
X101041396Y-79211501D01*
X100855842Y-79081575D01*
X100812217Y-79026998D01*
X100805023Y-78957500D01*
X100836546Y-78895145D01*
X100855842Y-78878425D01*
X100927586Y-78828189D01*
X101041401Y-78748495D01*
X101208495Y-78581401D01*
X101344035Y-78387830D01*
X101443903Y-78173663D01*
X101505063Y-77945408D01*
X101525659Y-77710000D01*
X101505063Y-77474592D01*
X101443903Y-77246337D01*
X101344035Y-77032171D01*
X101331411Y-77014141D01*
X101208494Y-76838597D01*
X101041402Y-76671506D01*
X101041401Y-76671505D01*
X100855405Y-76541269D01*
X100811781Y-76486692D01*
X100804588Y-76417193D01*
X100836110Y-76354839D01*
X100855405Y-76338119D01*
X101041082Y-76208105D01*
X101208105Y-76041082D01*
X101343600Y-75847578D01*
X101443429Y-75633492D01*
X101443432Y-75633486D01*
X101500636Y-75420000D01*
X100603686Y-75420000D01*
X100629493Y-75379844D01*
X100670000Y-75241889D01*
X100670000Y-75098111D01*
X100629493Y-74960156D01*
X100603686Y-74920000D01*
X101500636Y-74920000D01*
X101500635Y-74919999D01*
X101443432Y-74706513D01*
X101443429Y-74706507D01*
X101343600Y-74492422D01*
X101343599Y-74492420D01*
X101208113Y-74298926D01*
X101208108Y-74298920D01*
X101041078Y-74131890D01*
X100855405Y-74001879D01*
X100811780Y-73947302D01*
X100804588Y-73877804D01*
X100836110Y-73815449D01*
X100855406Y-73798730D01*
X101041401Y-73668495D01*
X101208495Y-73501401D01*
X101344035Y-73307830D01*
X101443903Y-73093663D01*
X101505063Y-72865408D01*
X101525659Y-72630000D01*
X101505063Y-72394592D01*
X101443903Y-72166337D01*
X101344035Y-71952171D01*
X101337184Y-71942386D01*
X101208494Y-71758597D01*
X101041402Y-71591506D01*
X101041396Y-71591501D01*
X100855842Y-71461575D01*
X100812217Y-71406998D01*
X100805023Y-71337500D01*
X100836546Y-71275145D01*
X100855842Y-71258425D01*
X100878144Y-71242809D01*
X101041401Y-71128495D01*
X101208495Y-70961401D01*
X101344035Y-70767830D01*
X101443903Y-70553663D01*
X101505063Y-70325408D01*
X101525659Y-70090000D01*
X101505063Y-69854592D01*
X101443903Y-69626337D01*
X101344035Y-69412171D01*
X101344034Y-69412169D01*
X101208494Y-69218597D01*
X101041402Y-69051506D01*
X101041396Y-69051501D01*
X100855842Y-68921575D01*
X100812217Y-68866998D01*
X100805023Y-68797500D01*
X100836546Y-68735145D01*
X100855842Y-68718425D01*
X100920731Y-68672989D01*
X101041401Y-68588495D01*
X101208495Y-68421401D01*
X101344035Y-68227830D01*
X101443903Y-68013663D01*
X101505063Y-67785408D01*
X101525659Y-67550000D01*
X101505063Y-67314592D01*
X101443903Y-67086337D01*
X101344035Y-66872171D01*
X101318238Y-66835328D01*
X101208494Y-66678597D01*
X101041402Y-66511506D01*
X101041396Y-66511501D01*
X100855842Y-66381575D01*
X100812217Y-66326998D01*
X100805023Y-66257500D01*
X100836546Y-66195145D01*
X100855842Y-66178425D01*
X100905470Y-66143675D01*
X101041401Y-66048495D01*
X101197652Y-65892243D01*
X101258972Y-65858761D01*
X101328663Y-65863745D01*
X101373011Y-65892246D01*
X101863181Y-66382416D01*
X101896666Y-66443739D01*
X101899500Y-66470097D01*
X101899500Y-84449903D01*
X101879815Y-84516942D01*
X101863181Y-84537584D01*
X99537584Y-86863181D01*
X99476261Y-86896666D01*
X99449903Y-86899500D01*
X83967301Y-86899500D01*
X83900262Y-86879815D01*
X83879620Y-86863181D01*
X77249791Y-80233352D01*
X77216306Y-80172029D01*
X77217267Y-80115230D01*
X77258420Y-79952721D01*
X77258422Y-79952712D01*
X77258423Y-79952709D01*
X77258424Y-79952700D01*
X77265432Y-79868129D01*
X87945767Y-79868129D01*
X87975552Y-80138827D01*
X87975554Y-80138840D01*
X88012222Y-80279100D01*
X88044438Y-80402326D01*
X88150953Y-80652975D01*
X88292827Y-80885444D01*
X88467037Y-81094779D01*
X88669869Y-81276518D01*
X88897002Y-81426788D01*
X89143594Y-81542386D01*
X89404389Y-81620847D01*
X89673829Y-81660500D01*
X89673834Y-81660500D01*
X90398005Y-81660500D01*
X90449780Y-81656710D01*
X90601616Y-81645597D01*
X90712723Y-81620847D01*
X90867435Y-81586384D01*
X90867437Y-81586383D01*
X90867442Y-81586382D01*
X91121814Y-81489093D01*
X91359310Y-81355804D01*
X91574868Y-81189355D01*
X91763894Y-80993295D01*
X91922358Y-80771802D01*
X92046885Y-80529597D01*
X92090306Y-80402320D01*
X92134815Y-80271854D01*
X92134815Y-80271850D01*
X92134819Y-80271841D01*
X92184286Y-80004029D01*
X92194232Y-79731869D01*
X92164446Y-79461161D01*
X92095562Y-79197674D01*
X91989047Y-78947025D01*
X91847173Y-78714556D01*
X91672963Y-78505221D01*
X91470131Y-78323482D01*
X91351985Y-78245317D01*
X91243000Y-78173213D01*
X91233689Y-78168848D01*
X90996406Y-78057614D01*
X90735611Y-77979153D01*
X90735609Y-77979152D01*
X90735607Y-77979152D01*
X90638996Y-77964934D01*
X90466171Y-77939500D01*
X89742000Y-77939500D01*
X89741995Y-77939500D01*
X89538384Y-77954403D01*
X89538370Y-77954405D01*
X89272564Y-78013615D01*
X89272557Y-78013618D01*
X89018183Y-78110908D01*
X88780691Y-78244195D01*
X88780686Y-78244198D01*
X88565133Y-78410643D01*
X88565124Y-78410652D01*
X88376109Y-78606701D01*
X88376102Y-78606709D01*
X88217647Y-78828189D01*
X88217640Y-78828201D01*
X88093117Y-79070397D01*
X88093111Y-79070411D01*
X88005184Y-79328145D01*
X88005180Y-79328163D01*
X87955715Y-79595959D01*
X87955713Y-79595979D01*
X87945767Y-79868129D01*
X77265432Y-79868129D01*
X77278958Y-79704893D01*
X77278958Y-79704882D01*
X77258424Y-79457075D01*
X77258422Y-79457063D01*
X77197378Y-79216006D01*
X77097488Y-78988281D01*
X76961481Y-78780105D01*
X76901142Y-78714560D01*
X76793059Y-78597150D01*
X76596824Y-78444414D01*
X76596822Y-78444413D01*
X76596821Y-78444412D01*
X76378126Y-78326060D01*
X76378117Y-78326057D01*
X76142931Y-78245317D01*
X75897650Y-78204388D01*
X75648980Y-78204388D01*
X75403698Y-78245317D01*
X75168512Y-78326057D01*
X75168503Y-78326060D01*
X74949808Y-78444412D01*
X74753572Y-78597149D01*
X74585148Y-78780105D01*
X74474523Y-78949432D01*
X74421377Y-78994789D01*
X74370714Y-79005611D01*
X70675916Y-79005611D01*
X70608877Y-78985926D01*
X70572107Y-78949432D01*
X70461481Y-78780105D01*
X70401142Y-78714560D01*
X70293059Y-78597150D01*
X70096824Y-78444414D01*
X70096822Y-78444413D01*
X70096821Y-78444412D01*
X69878126Y-78326060D01*
X69878117Y-78326057D01*
X69642931Y-78245317D01*
X69397650Y-78204388D01*
X69148980Y-78204388D01*
X68903698Y-78245317D01*
X68668512Y-78326057D01*
X68668503Y-78326060D01*
X68449808Y-78444412D01*
X68253572Y-78597149D01*
X68085148Y-78780105D01*
X67949141Y-78988281D01*
X67849251Y-79216006D01*
X67788207Y-79457063D01*
X67788205Y-79457075D01*
X67767672Y-79704882D01*
X67767672Y-79704893D01*
X67788205Y-79952700D01*
X67788207Y-79952712D01*
X67849251Y-80193769D01*
X67949141Y-80421494D01*
X68085148Y-80629670D01*
X68085151Y-80629673D01*
X68253571Y-80812626D01*
X68449806Y-80965362D01*
X68668505Y-81083716D01*
X68903701Y-81164459D01*
X69148980Y-81205388D01*
X69397650Y-81205388D01*
X69642929Y-81164459D01*
X69878125Y-81083716D01*
X70096824Y-80965362D01*
X70293059Y-80812626D01*
X70461479Y-80629673D01*
X70597488Y-80421495D01*
X70659202Y-80280800D01*
X70704158Y-80227315D01*
X70770894Y-80206625D01*
X70772758Y-80206611D01*
X74273872Y-80206611D01*
X74340911Y-80226296D01*
X74386666Y-80279100D01*
X74387428Y-80280801D01*
X74449141Y-80421494D01*
X74585148Y-80629670D01*
X74585151Y-80629673D01*
X74753571Y-80812626D01*
X74949806Y-80965362D01*
X75168505Y-81083716D01*
X75403701Y-81164459D01*
X75648980Y-81205388D01*
X75897650Y-81205388D01*
X76142929Y-81164459D01*
X76322453Y-81102827D01*
X76392251Y-81099678D01*
X76450397Y-81132428D01*
X82405788Y-87087819D01*
X82439273Y-87149142D01*
X82434289Y-87218834D01*
X82392417Y-87274767D01*
X82326953Y-87299184D01*
X82318107Y-87299500D01*
X77073125Y-87299500D01*
X77006086Y-87279815D01*
X76969316Y-87243321D01*
X76961481Y-87231328D01*
X76885823Y-87149142D01*
X76793059Y-87048373D01*
X76596824Y-86895637D01*
X76596822Y-86895636D01*
X76596821Y-86895635D01*
X76378126Y-86777283D01*
X76378117Y-86777280D01*
X76142931Y-86696540D01*
X75897650Y-86655611D01*
X75648980Y-86655611D01*
X75403698Y-86696540D01*
X75168512Y-86777280D01*
X75168503Y-86777283D01*
X74949808Y-86895635D01*
X74753572Y-87048372D01*
X74585148Y-87231328D01*
X74449142Y-87439502D01*
X74430755Y-87481422D01*
X74385798Y-87534907D01*
X74319062Y-87555597D01*
X74317199Y-87555611D01*
X70729431Y-87555611D01*
X70662392Y-87535926D01*
X70616637Y-87483122D01*
X70615875Y-87481422D01*
X70597487Y-87439502D01*
X70461481Y-87231328D01*
X70385823Y-87149142D01*
X70293059Y-87048373D01*
X70096824Y-86895637D01*
X70096822Y-86895636D01*
X70096821Y-86895635D01*
X69878126Y-86777283D01*
X69878117Y-86777280D01*
X69642931Y-86696540D01*
X69397650Y-86655611D01*
X69148980Y-86655611D01*
X68903698Y-86696540D01*
X68668512Y-86777280D01*
X68668503Y-86777283D01*
X68449808Y-86895635D01*
X68253572Y-87048372D01*
X68085148Y-87231328D01*
X67949141Y-87439504D01*
X67849251Y-87667229D01*
X67788207Y-87908286D01*
X67788205Y-87908298D01*
X67767672Y-88156105D01*
X67767672Y-88156116D01*
X67788205Y-88403923D01*
X67788207Y-88403935D01*
X67849251Y-88644992D01*
X67949141Y-88872717D01*
X68085148Y-89080893D01*
X68085151Y-89080896D01*
X68253571Y-89263849D01*
X68449806Y-89416585D01*
X68668505Y-89534939D01*
X68903701Y-89615682D01*
X69148980Y-89656611D01*
X69397650Y-89656611D01*
X69642929Y-89615682D01*
X69878125Y-89534939D01*
X70096824Y-89416585D01*
X70293059Y-89263849D01*
X70461479Y-89080896D01*
X70597488Y-88872718D01*
X70615875Y-88830800D01*
X70660832Y-88777315D01*
X70727568Y-88756625D01*
X70729431Y-88756611D01*
X74317199Y-88756611D01*
X74384238Y-88776296D01*
X74429993Y-88829100D01*
X74430755Y-88830800D01*
X74449142Y-88872719D01*
X74585148Y-89080893D01*
X74585151Y-89080896D01*
X74753571Y-89263849D01*
X74949806Y-89416585D01*
X75168505Y-89534939D01*
X75403701Y-89615682D01*
X75648980Y-89656611D01*
X75897650Y-89656611D01*
X76142929Y-89615682D01*
X76378125Y-89534939D01*
X76596824Y-89416585D01*
X76793059Y-89263849D01*
X76961479Y-89080896D01*
X77097488Y-88872718D01*
X77197378Y-88644992D01*
X77210277Y-88594055D01*
X77245815Y-88533904D01*
X77308236Y-88502512D01*
X77330481Y-88500500D01*
X99872258Y-88500500D01*
X99880356Y-88501030D01*
X99915686Y-88505682D01*
X99915687Y-88505682D01*
X99967940Y-88498802D01*
X100072448Y-88485044D01*
X100218527Y-88424536D01*
X100299967Y-88362045D01*
X100343968Y-88328282D01*
X100365669Y-88299999D01*
X100370997Y-88293922D01*
X103393922Y-85270997D01*
X103399999Y-85265669D01*
X103428282Y-85243968D01*
X103524536Y-85118527D01*
X103585044Y-84972448D01*
X103600500Y-84855047D01*
X103605682Y-84815686D01*
X103601030Y-84780355D01*
X103600500Y-84772257D01*
X103600500Y-66147741D01*
X103601031Y-66139640D01*
X103605682Y-66104314D01*
X103605682Y-66104312D01*
X103585044Y-65947553D01*
X103585044Y-65947552D01*
X103524536Y-65801473D01*
X103502853Y-65773215D01*
X103428282Y-65676032D01*
X103400005Y-65654334D01*
X103393904Y-65648983D01*
X101231753Y-63486832D01*
X101198268Y-63425509D01*
X101203252Y-63355817D01*
X101217857Y-63328030D01*
X101344035Y-63147830D01*
X101443903Y-62933663D01*
X101505063Y-62705408D01*
X101525659Y-62470000D01*
X101505063Y-62234592D01*
X101443903Y-62006337D01*
X101344035Y-61792171D01*
X101208495Y-61598599D01*
X101208494Y-61598597D01*
X101041402Y-61431506D01*
X101041396Y-61431501D01*
X100855842Y-61301575D01*
X100812217Y-61246998D01*
X100805023Y-61177500D01*
X100836546Y-61115145D01*
X100855842Y-61098425D01*
X100878026Y-61082891D01*
X101041401Y-60968495D01*
X101208495Y-60801401D01*
X101344035Y-60607830D01*
X101443903Y-60393663D01*
X101505063Y-60165408D01*
X101525659Y-59930000D01*
X101505063Y-59694592D01*
X101443903Y-59466337D01*
X101344035Y-59252171D01*
X101258491Y-59130000D01*
X101208494Y-59058597D01*
X101041402Y-58891506D01*
X101041396Y-58891501D01*
X100855842Y-58761575D01*
X100812217Y-58706998D01*
X100805023Y-58637500D01*
X100836546Y-58575145D01*
X100855842Y-58558425D01*
X100878026Y-58542891D01*
X101041401Y-58428495D01*
X101208495Y-58261401D01*
X101344035Y-58067830D01*
X101443903Y-57853663D01*
X101505063Y-57625408D01*
X101525659Y-57390000D01*
X101505063Y-57154592D01*
X101443903Y-56926337D01*
X101344035Y-56712171D01*
X101313695Y-56668840D01*
X101208494Y-56518597D01*
X101041402Y-56351506D01*
X101041396Y-56351501D01*
X100855842Y-56221575D01*
X100812217Y-56166998D01*
X100805023Y-56097500D01*
X100836546Y-56035145D01*
X100855842Y-56018425D01*
X100894782Y-55991159D01*
X101041401Y-55888495D01*
X101208495Y-55721401D01*
X101344035Y-55527830D01*
X101443903Y-55313663D01*
X101505063Y-55085408D01*
X101525659Y-54850000D01*
X101524793Y-54840107D01*
X101505063Y-54614596D01*
X101505063Y-54614592D01*
X101443903Y-54386337D01*
X101344035Y-54172171D01*
X101295880Y-54103397D01*
X101208494Y-53978597D01*
X101041402Y-53811506D01*
X101041395Y-53811501D01*
X100847834Y-53675967D01*
X100847830Y-53675965D01*
X100633663Y-53576097D01*
X100633659Y-53576096D01*
X100633655Y-53576094D01*
X100405413Y-53514938D01*
X100405403Y-53514936D01*
X100170001Y-53494341D01*
X100169999Y-53494341D01*
X99934596Y-53514936D01*
X99934583Y-53514939D01*
X99806241Y-53549327D01*
X99736392Y-53547664D01*
X99686468Y-53517233D01*
X95852628Y-49683393D01*
X91675320Y-45506085D01*
X91669980Y-45499995D01*
X91648282Y-45471718D01*
X91522841Y-45375464D01*
X91376762Y-45314956D01*
X91376760Y-45314955D01*
X91259361Y-45299500D01*
X91220000Y-45294318D01*
X91184670Y-45298969D01*
X91176572Y-45299500D01*
X77206116Y-45299500D01*
X77139077Y-45279815D01*
X77093322Y-45227011D01*
X77092560Y-45225311D01*
X77074172Y-45183391D01*
X76938166Y-44975217D01*
X76886971Y-44919605D01*
X76769744Y-44792262D01*
X76573509Y-44639526D01*
X76573507Y-44639525D01*
X76573506Y-44639524D01*
X76354811Y-44521172D01*
X76354802Y-44521169D01*
X76119616Y-44440429D01*
X75874335Y-44399500D01*
X75625665Y-44399500D01*
X75380383Y-44440429D01*
X75145197Y-44521169D01*
X75145188Y-44521172D01*
X74926493Y-44639524D01*
X74789525Y-44746131D01*
X74730256Y-44792262D01*
X74576317Y-44959483D01*
X74516432Y-44995473D01*
X74485089Y-44999500D01*
X70514911Y-44999500D01*
X70447872Y-44979815D01*
X70423684Y-44959485D01*
X70269744Y-44792262D01*
X70073509Y-44639526D01*
X70073507Y-44639525D01*
X70073506Y-44639524D01*
X69854811Y-44521172D01*
X69854802Y-44521169D01*
X69619616Y-44440429D01*
X69374335Y-44399500D01*
X69125665Y-44399500D01*
X68880383Y-44440429D01*
X68645197Y-44521169D01*
X68645188Y-44521172D01*
X68426493Y-44639524D01*
X68230257Y-44792261D01*
X68061833Y-44975217D01*
X67925826Y-45183393D01*
X67825936Y-45411118D01*
X67764892Y-45652175D01*
X67764890Y-45652187D01*
X67744357Y-45899994D01*
X67744357Y-45900005D01*
X67764890Y-46147812D01*
X67764892Y-46147824D01*
X67825936Y-46388881D01*
X67925826Y-46616606D01*
X68061833Y-46824782D01*
X68061836Y-46824785D01*
X68230256Y-47007738D01*
X68426491Y-47160474D01*
X68645190Y-47278828D01*
X68880386Y-47359571D01*
X69125665Y-47400500D01*
X69374335Y-47400500D01*
X69619614Y-47359571D01*
X69854810Y-47278828D01*
X70073509Y-47160474D01*
X70269744Y-47007738D01*
X70438164Y-46824785D01*
X70574173Y-46616607D01*
X70674063Y-46388881D01*
X70698075Y-46294059D01*
X70733615Y-46233904D01*
X70796035Y-46202512D01*
X70818281Y-46200500D01*
X74181719Y-46200500D01*
X74248758Y-46220185D01*
X74294513Y-46272989D01*
X74301925Y-46294060D01*
X74325937Y-46388881D01*
X74425826Y-46616606D01*
X74561833Y-46824782D01*
X74561836Y-46824785D01*
X74730256Y-47007738D01*
X74926491Y-47160474D01*
X75145190Y-47278828D01*
X75380386Y-47359571D01*
X75625665Y-47400500D01*
X75874335Y-47400500D01*
X76119614Y-47359571D01*
X76354810Y-47278828D01*
X76573509Y-47160474D01*
X76769744Y-47007738D01*
X76938164Y-46824785D01*
X77074173Y-46616607D01*
X77092560Y-46574689D01*
X77137517Y-46521204D01*
X77204253Y-46500514D01*
X77206116Y-46500500D01*
X90919903Y-46500500D01*
X90986942Y-46520185D01*
X91007584Y-46536819D01*
X98837233Y-54366468D01*
X98870718Y-54427791D01*
X98869327Y-54486241D01*
X98834939Y-54614583D01*
X98834936Y-54614596D01*
X98814341Y-54849999D01*
X98814341Y-54850000D01*
X98816777Y-54877844D01*
X98803010Y-54946344D01*
X98754395Y-54996528D01*
X98686367Y-55012461D01*
X98620523Y-54989086D01*
X98605568Y-54976333D01*
X97995703Y-54366468D01*
X97385320Y-53756085D01*
X97379980Y-53749995D01*
X97358282Y-53721718D01*
X97232841Y-53625464D01*
X97113651Y-53576094D01*
X97086762Y-53564956D01*
X97086760Y-53564955D01*
X96969361Y-53549500D01*
X96930000Y-53544318D01*
X96894670Y-53548969D01*
X96886572Y-53549500D01*
X77085671Y-53549500D01*
X77018632Y-53529815D01*
X76981862Y-53493322D01*
X76938164Y-53426437D01*
X76769744Y-53243484D01*
X76573509Y-53090748D01*
X76573507Y-53090747D01*
X76573506Y-53090746D01*
X76354811Y-52972394D01*
X76354802Y-52972391D01*
X76119616Y-52891651D01*
X75874335Y-52850722D01*
X75625665Y-52850722D01*
X75380383Y-52891651D01*
X75145197Y-52972391D01*
X75145188Y-52972394D01*
X74926493Y-53090746D01*
X74730257Y-53243483D01*
X74561836Y-53426437D01*
X74518138Y-53493322D01*
X74464991Y-53538678D01*
X74414329Y-53549500D01*
X70585671Y-53549500D01*
X70518632Y-53529815D01*
X70481862Y-53493322D01*
X70438164Y-53426437D01*
X70269744Y-53243484D01*
X70073509Y-53090748D01*
X70073507Y-53090747D01*
X70073506Y-53090746D01*
X69854811Y-52972394D01*
X69854802Y-52972391D01*
X69619616Y-52891651D01*
X69374335Y-52850722D01*
X69125665Y-52850722D01*
X68880383Y-52891651D01*
X68645197Y-52972391D01*
X68645188Y-52972394D01*
X68426493Y-53090746D01*
X68230257Y-53243483D01*
X68061833Y-53426439D01*
X67925826Y-53634615D01*
X67825936Y-53862340D01*
X67764892Y-54103397D01*
X67764890Y-54103409D01*
X67744357Y-54351216D01*
X67744357Y-54351227D01*
X67764890Y-54599034D01*
X67764892Y-54599046D01*
X67825936Y-54840103D01*
X67925826Y-55067828D01*
X68061833Y-55276004D01*
X68061836Y-55276007D01*
X68230256Y-55458960D01*
X68426491Y-55611696D01*
X68426493Y-55611697D01*
X68640799Y-55727674D01*
X68645190Y-55730050D01*
X68880386Y-55810793D01*
X69125665Y-55851722D01*
X69374335Y-55851722D01*
X69619614Y-55810793D01*
X69854810Y-55730050D01*
X70073509Y-55611696D01*
X70269744Y-55458960D01*
X70438164Y-55276007D01*
X70574173Y-55067829D01*
X70674063Y-54840103D01*
X70674064Y-54840096D01*
X70675725Y-54835260D01*
X70677832Y-54835983D01*
X70708597Y-54783907D01*
X70771016Y-54752512D01*
X70793266Y-54750500D01*
X74206734Y-54750500D01*
X74273773Y-54770185D01*
X74319528Y-54822989D01*
X74323890Y-54835391D01*
X74324275Y-54835260D01*
X74325938Y-54840107D01*
X74425826Y-55067828D01*
X74561833Y-55276004D01*
X74561836Y-55276007D01*
X74730256Y-55458960D01*
X74926491Y-55611696D01*
X74926493Y-55611697D01*
X75140799Y-55727674D01*
X75145190Y-55730050D01*
X75380386Y-55810793D01*
X75625665Y-55851722D01*
X75874335Y-55851722D01*
X76119614Y-55810793D01*
X76354810Y-55730050D01*
X76573509Y-55611696D01*
X76769744Y-55458960D01*
X76938164Y-55276007D01*
X77074173Y-55067829D01*
X77174063Y-54840103D01*
X77174064Y-54840096D01*
X77175725Y-54835260D01*
X77177832Y-54835983D01*
X77208597Y-54783907D01*
X77271016Y-54752512D01*
X77293266Y-54750500D01*
X79600903Y-54750500D01*
X79667942Y-54770185D01*
X79713697Y-54822989D01*
X79723641Y-54892147D01*
X79694616Y-54955703D01*
X79688585Y-54962179D01*
X78632339Y-56018425D01*
X77606096Y-57044668D01*
X77599993Y-57050020D01*
X77571719Y-57071716D01*
X77547550Y-57103215D01*
X77475461Y-57197162D01*
X77475461Y-57197163D01*
X77414957Y-57343234D01*
X77414955Y-57343239D01*
X77394318Y-57499998D01*
X77394318Y-57499999D01*
X77398969Y-57535326D01*
X77399500Y-57543428D01*
X77399500Y-58284902D01*
X77379815Y-58351941D01*
X77327011Y-58397696D01*
X77257853Y-58407640D01*
X77194297Y-58378615D01*
X77161944Y-58334712D01*
X77074173Y-58134615D01*
X76938166Y-57926439D01*
X76900756Y-57885801D01*
X76769744Y-57743484D01*
X76573509Y-57590748D01*
X76573507Y-57590747D01*
X76573506Y-57590746D01*
X76354811Y-57472394D01*
X76354802Y-57472391D01*
X76119616Y-57391651D01*
X75874335Y-57350722D01*
X75625665Y-57350722D01*
X75380383Y-57391651D01*
X75145197Y-57472391D01*
X75145188Y-57472394D01*
X74926493Y-57590746D01*
X74730257Y-57743483D01*
X74561833Y-57926439D01*
X74425826Y-58134615D01*
X74325936Y-58362340D01*
X74264892Y-58603397D01*
X74264890Y-58603409D01*
X74244357Y-58851216D01*
X74244357Y-58851227D01*
X74264890Y-59099034D01*
X74264892Y-59099046D01*
X74325936Y-59340103D01*
X74425826Y-59567828D01*
X74561833Y-59776004D01*
X74561836Y-59776007D01*
X74730256Y-59958960D01*
X74926491Y-60111696D01*
X75145190Y-60230050D01*
X75380386Y-60310793D01*
X75625665Y-60351722D01*
X75874335Y-60351722D01*
X76119614Y-60310793D01*
X76354810Y-60230050D01*
X76573509Y-60111696D01*
X76769744Y-59958960D01*
X76938164Y-59776007D01*
X77074173Y-59567829D01*
X77161944Y-59367730D01*
X77206900Y-59314245D01*
X77273636Y-59293555D01*
X77340964Y-59312230D01*
X77387507Y-59364340D01*
X77399500Y-59417541D01*
X77399500Y-61975500D01*
X77379815Y-62042539D01*
X77327011Y-62088294D01*
X77275500Y-62099500D01*
X77150205Y-62099500D01*
X77083166Y-62079815D01*
X77046396Y-62043321D01*
X76938166Y-61877661D01*
X76865613Y-61798848D01*
X76769744Y-61694706D01*
X76573509Y-61541970D01*
X76573507Y-61541969D01*
X76573506Y-61541968D01*
X76354811Y-61423616D01*
X76354802Y-61423613D01*
X76119616Y-61342873D01*
X75874335Y-61301944D01*
X75625665Y-61301944D01*
X75380383Y-61342873D01*
X75145197Y-61423613D01*
X75145188Y-61423616D01*
X74926493Y-61541968D01*
X74730257Y-61694705D01*
X74561833Y-61877661D01*
X74453604Y-62043321D01*
X74400458Y-62088678D01*
X74349795Y-62099500D01*
X70650205Y-62099500D01*
X70583166Y-62079815D01*
X70546396Y-62043321D01*
X70438166Y-61877661D01*
X70365613Y-61798848D01*
X70269744Y-61694706D01*
X70073509Y-61541970D01*
X70073507Y-61541969D01*
X70073506Y-61541968D01*
X69854811Y-61423616D01*
X69854802Y-61423613D01*
X69619616Y-61342873D01*
X69374335Y-61301944D01*
X69125665Y-61301944D01*
X68880383Y-61342873D01*
X68645197Y-61423613D01*
X68645188Y-61423616D01*
X68426493Y-61541968D01*
X68230257Y-61694705D01*
X68061833Y-61877661D01*
X67925826Y-62085837D01*
X67825936Y-62313562D01*
X67764892Y-62554619D01*
X67764890Y-62554631D01*
X67744357Y-62802438D01*
X67744357Y-62802449D01*
X67764890Y-63050256D01*
X67764892Y-63050268D01*
X67825936Y-63291325D01*
X67925826Y-63519050D01*
X68061833Y-63727226D01*
X68061836Y-63727229D01*
X68230256Y-63910182D01*
X68426491Y-64062918D01*
X68469697Y-64086300D01*
X68575611Y-64143618D01*
X68645190Y-64181272D01*
X68880386Y-64262015D01*
X69125665Y-64302944D01*
X69374335Y-64302944D01*
X69619614Y-64262015D01*
X69854810Y-64181272D01*
X70073509Y-64062918D01*
X70269744Y-63910182D01*
X70438164Y-63727229D01*
X70574173Y-63519051D01*
X70637495Y-63374689D01*
X70682451Y-63321204D01*
X70749187Y-63300514D01*
X70751051Y-63300500D01*
X74248949Y-63300500D01*
X74315988Y-63320185D01*
X74361743Y-63372989D01*
X74362487Y-63374650D01*
X74373034Y-63398695D01*
X74425826Y-63519050D01*
X74561833Y-63727226D01*
X74561836Y-63727229D01*
X74730256Y-63910182D01*
X74926491Y-64062918D01*
X74969697Y-64086300D01*
X75075611Y-64143618D01*
X75145190Y-64181272D01*
X75380386Y-64262015D01*
X75625665Y-64302944D01*
X75874335Y-64302944D01*
X76119614Y-64262015D01*
X76354810Y-64181272D01*
X76573509Y-64062918D01*
X76769744Y-63910182D01*
X76938164Y-63727229D01*
X77001683Y-63630006D01*
X81164700Y-63630006D01*
X81183864Y-63861297D01*
X81183866Y-63861308D01*
X81240842Y-64086300D01*
X81334075Y-64298848D01*
X81461016Y-64493147D01*
X81461019Y-64493151D01*
X81461021Y-64493153D01*
X81618216Y-64663913D01*
X81618219Y-64663915D01*
X81618222Y-64663918D01*
X81801365Y-64806464D01*
X81801371Y-64806468D01*
X81801374Y-64806470D01*
X82005497Y-64916936D01*
X82119487Y-64956068D01*
X82225015Y-64992297D01*
X82225017Y-64992297D01*
X82225019Y-64992298D01*
X82453951Y-65030500D01*
X82453952Y-65030500D01*
X82686048Y-65030500D01*
X82686049Y-65030500D01*
X82914981Y-64992298D01*
X83134503Y-64916936D01*
X83338626Y-64806470D01*
X83521784Y-64663913D01*
X83678979Y-64493153D01*
X83805924Y-64298849D01*
X83899157Y-64086300D01*
X83956134Y-63861305D01*
X83975300Y-63630000D01*
X83975300Y-63629993D01*
X83956135Y-63398702D01*
X83956133Y-63398691D01*
X83899157Y-63173699D01*
X83805924Y-62961151D01*
X83678983Y-62766852D01*
X83678980Y-62766849D01*
X83678979Y-62766847D01*
X83521784Y-62596087D01*
X83369876Y-62477852D01*
X83329064Y-62421143D01*
X83325389Y-62351370D01*
X83360020Y-62290687D01*
X83369876Y-62282147D01*
X83521784Y-62163913D01*
X83678979Y-61993153D01*
X83805924Y-61798849D01*
X83899157Y-61586300D01*
X83956134Y-61361305D01*
X83956135Y-61361297D01*
X83975300Y-61130006D01*
X83975300Y-61129993D01*
X83956135Y-60898702D01*
X83956133Y-60898691D01*
X83899157Y-60673699D01*
X83805924Y-60461151D01*
X83678983Y-60266852D01*
X83678980Y-60266849D01*
X83678979Y-60266847D01*
X83611241Y-60193264D01*
X83580321Y-60130612D01*
X83588181Y-60061186D01*
X83632329Y-60007031D01*
X83659140Y-59993102D01*
X83712086Y-59973354D01*
X83712093Y-59973350D01*
X83827187Y-59887190D01*
X83827190Y-59887187D01*
X83913350Y-59772093D01*
X83913354Y-59772086D01*
X83963596Y-59637379D01*
X83963598Y-59637372D01*
X83969999Y-59577844D01*
X83970000Y-59577827D01*
X83970000Y-58880000D01*
X83003686Y-58880000D01*
X83029493Y-58839844D01*
X83070000Y-58701889D01*
X83070000Y-58558111D01*
X83029493Y-58420156D01*
X83003686Y-58380000D01*
X83970000Y-58380000D01*
X83970000Y-57682172D01*
X83969999Y-57682155D01*
X83963598Y-57622627D01*
X83963596Y-57622620D01*
X83913354Y-57487913D01*
X83913350Y-57487906D01*
X83827190Y-57372812D01*
X83827187Y-57372809D01*
X83712093Y-57286649D01*
X83712086Y-57286645D01*
X83577379Y-57236403D01*
X83577372Y-57236401D01*
X83517844Y-57230000D01*
X82820000Y-57230000D01*
X82820000Y-58194498D01*
X82712315Y-58145320D01*
X82605763Y-58130000D01*
X82534237Y-58130000D01*
X82427685Y-58145320D01*
X82320000Y-58194498D01*
X82320000Y-57230000D01*
X81622155Y-57230000D01*
X81562627Y-57236401D01*
X81562620Y-57236403D01*
X81427913Y-57286645D01*
X81427906Y-57286649D01*
X81312812Y-57372809D01*
X81312809Y-57372812D01*
X81226649Y-57487906D01*
X81226645Y-57487913D01*
X81176403Y-57622620D01*
X81176401Y-57622627D01*
X81170000Y-57682155D01*
X81170000Y-58380000D01*
X82136314Y-58380000D01*
X82110507Y-58420156D01*
X82070000Y-58558111D01*
X82070000Y-58701889D01*
X82110507Y-58839844D01*
X82136314Y-58880000D01*
X81170000Y-58880000D01*
X81170000Y-59577844D01*
X81176401Y-59637372D01*
X81176403Y-59637379D01*
X81226645Y-59772086D01*
X81226649Y-59772093D01*
X81312809Y-59887187D01*
X81312812Y-59887190D01*
X81427906Y-59973350D01*
X81427913Y-59973354D01*
X81480859Y-59993102D01*
X81536793Y-60034973D01*
X81561210Y-60100438D01*
X81546358Y-60168711D01*
X81528757Y-60193265D01*
X81461021Y-60266847D01*
X81461019Y-60266848D01*
X81461016Y-60266853D01*
X81334075Y-60461151D01*
X81240842Y-60673699D01*
X81183866Y-60898691D01*
X81183864Y-60898702D01*
X81164700Y-61129993D01*
X81164700Y-61130006D01*
X81183864Y-61361297D01*
X81183866Y-61361308D01*
X81240842Y-61586300D01*
X81334075Y-61798848D01*
X81461016Y-61993147D01*
X81461019Y-61993151D01*
X81461021Y-61993153D01*
X81618216Y-62163913D01*
X81618219Y-62163915D01*
X81618222Y-62163918D01*
X81770122Y-62282147D01*
X81810935Y-62338857D01*
X81814610Y-62408630D01*
X81779978Y-62469313D01*
X81770122Y-62477853D01*
X81618222Y-62596081D01*
X81618219Y-62596084D01*
X81461016Y-62766852D01*
X81334075Y-62961151D01*
X81240842Y-63173699D01*
X81183866Y-63398691D01*
X81183864Y-63398702D01*
X81164700Y-63629993D01*
X81164700Y-63630006D01*
X77001683Y-63630006D01*
X77074173Y-63519051D01*
X77137495Y-63374689D01*
X77182451Y-63321204D01*
X77249187Y-63300514D01*
X77251051Y-63300500D01*
X77756572Y-63300500D01*
X77764670Y-63301030D01*
X77800000Y-63305682D01*
X77800001Y-63305682D01*
X77852254Y-63298802D01*
X77956762Y-63285044D01*
X78102841Y-63224536D01*
X78126479Y-63206398D01*
X78228282Y-63128282D01*
X78249983Y-63099999D01*
X78255311Y-63093922D01*
X78393922Y-62955311D01*
X78399999Y-62949983D01*
X78428282Y-62928282D01*
X78524536Y-62802841D01*
X78585044Y-62656762D01*
X78600500Y-62539361D01*
X78605682Y-62500000D01*
X78601030Y-62464669D01*
X78600500Y-62456571D01*
X78600500Y-57800097D01*
X78620185Y-57733058D01*
X78636819Y-57712416D01*
X81162416Y-55186819D01*
X81223739Y-55153334D01*
X81250097Y-55150500D01*
X88125055Y-55150500D01*
X88192094Y-55170185D01*
X88237849Y-55222989D01*
X88247793Y-55292147D01*
X88225904Y-55346649D01*
X88217642Y-55358197D01*
X88217640Y-55358199D01*
X88093118Y-55600397D01*
X88093111Y-55600411D01*
X88005184Y-55858145D01*
X88005180Y-55858163D01*
X87955715Y-56125959D01*
X87955713Y-56125979D01*
X87945767Y-56398129D01*
X87975552Y-56668827D01*
X87975554Y-56668840D01*
X88042871Y-56926335D01*
X88044438Y-56932326D01*
X88150953Y-57182975D01*
X88223477Y-57301810D01*
X88292824Y-57415439D01*
X88292831Y-57415449D01*
X88438714Y-57590746D01*
X88467037Y-57624779D01*
X88669869Y-57806518D01*
X88897002Y-57956788D01*
X89143594Y-58072386D01*
X89404389Y-58150847D01*
X89673829Y-58190500D01*
X89673834Y-58190500D01*
X90398005Y-58190500D01*
X90449780Y-58186710D01*
X90601616Y-58175597D01*
X90712723Y-58150847D01*
X90867435Y-58116384D01*
X90867437Y-58116383D01*
X90867442Y-58116382D01*
X91121814Y-58019093D01*
X91359310Y-57885804D01*
X91574868Y-57719355D01*
X91763894Y-57523295D01*
X91922358Y-57301802D01*
X92046885Y-57059597D01*
X92104205Y-56891578D01*
X92134815Y-56801854D01*
X92134815Y-56801850D01*
X92134819Y-56801841D01*
X92184286Y-56534029D01*
X92194232Y-56261869D01*
X92164446Y-55991161D01*
X92095562Y-55727674D01*
X91989047Y-55477025D01*
X91904869Y-55339095D01*
X91886750Y-55271617D01*
X91907987Y-55205054D01*
X91961841Y-55160539D01*
X92010716Y-55150500D01*
X96464217Y-55150500D01*
X96531256Y-55170185D01*
X96551898Y-55186819D01*
X98220338Y-56855259D01*
X98253823Y-56916582D01*
X98256657Y-56942940D01*
X98256657Y-58573728D01*
X98256126Y-58581826D01*
X98251475Y-58617157D01*
X98256657Y-58656518D01*
X98259000Y-58674316D01*
X98272112Y-58773917D01*
X98272113Y-58773919D01*
X98304130Y-58851216D01*
X98332621Y-58919998D01*
X98428875Y-59045439D01*
X98457152Y-59067137D01*
X98463242Y-59072477D01*
X98684320Y-59293555D01*
X98837233Y-59446468D01*
X98870718Y-59507791D01*
X98869327Y-59566241D01*
X98834939Y-59694583D01*
X98834936Y-59694596D01*
X98814341Y-59929999D01*
X98814341Y-59930000D01*
X98834936Y-60165403D01*
X98834938Y-60165413D01*
X98896094Y-60393655D01*
X98896096Y-60393659D01*
X98896097Y-60393663D01*
X98995965Y-60607830D01*
X98995967Y-60607834D01*
X99131501Y-60801395D01*
X99131506Y-60801402D01*
X99298597Y-60968493D01*
X99298603Y-60968498D01*
X99484158Y-61098425D01*
X99527783Y-61153002D01*
X99534977Y-61222500D01*
X99503454Y-61284855D01*
X99484158Y-61301575D01*
X99298597Y-61431505D01*
X99131505Y-61598597D01*
X98995965Y-61792169D01*
X98995964Y-61792171D01*
X98896098Y-62006335D01*
X98896094Y-62006344D01*
X98834938Y-62234586D01*
X98834936Y-62234596D01*
X98814341Y-62469999D01*
X98814341Y-62470000D01*
X98834936Y-62705403D01*
X98834938Y-62705413D01*
X98869327Y-62833756D01*
X98867664Y-62903606D01*
X98837233Y-62953530D01*
X94427584Y-67363181D01*
X94366261Y-67396666D01*
X94339903Y-67399500D01*
X91789395Y-67399500D01*
X91722356Y-67379815D01*
X91676601Y-67327011D01*
X91666657Y-67257853D01*
X91695682Y-67194297D01*
X91700127Y-67189435D01*
X91705900Y-67183446D01*
X91763894Y-67123295D01*
X91922358Y-66901802D01*
X92046885Y-66659597D01*
X92072048Y-66585837D01*
X92134815Y-66401854D01*
X92134815Y-66401850D01*
X92134819Y-66401841D01*
X92184286Y-66134029D01*
X92194232Y-65861869D01*
X92164446Y-65591161D01*
X92095562Y-65327674D01*
X91989047Y-65077025D01*
X91847173Y-64844556D01*
X91672963Y-64635221D01*
X91470131Y-64453482D01*
X91243000Y-64303213D01*
X91233689Y-64298848D01*
X90996406Y-64187614D01*
X90735611Y-64109153D01*
X90735609Y-64109152D01*
X90735607Y-64109152D01*
X90638996Y-64094934D01*
X90466171Y-64069500D01*
X89742000Y-64069500D01*
X89741995Y-64069500D01*
X89538384Y-64084403D01*
X89538370Y-64084405D01*
X89272564Y-64143615D01*
X89272557Y-64143618D01*
X89018183Y-64240908D01*
X88780691Y-64374195D01*
X88780686Y-64374198D01*
X88565133Y-64540643D01*
X88565124Y-64540652D01*
X88376109Y-64736701D01*
X88376102Y-64736709D01*
X88217647Y-64958189D01*
X88217640Y-64958201D01*
X88093117Y-65200397D01*
X88093111Y-65200411D01*
X88005184Y-65458145D01*
X88005180Y-65458163D01*
X87955715Y-65725959D01*
X87955713Y-65725979D01*
X87945767Y-65998129D01*
X87975552Y-66268827D01*
X87975554Y-66268840D01*
X88038994Y-66511505D01*
X88044438Y-66532326D01*
X88150953Y-66782975D01*
X88223477Y-66901810D01*
X88292824Y-67015439D01*
X88292831Y-67015449D01*
X88443237Y-67196181D01*
X88470990Y-67260302D01*
X88459671Y-67329249D01*
X88412873Y-67381130D01*
X88347925Y-67399500D01*
X79043428Y-67399500D01*
X79035329Y-67398969D01*
X79000000Y-67394318D01*
X78999999Y-67394318D01*
X78843239Y-67414955D01*
X78843237Y-67414956D01*
X78697160Y-67475463D01*
X78571714Y-67571721D01*
X78550024Y-67599990D01*
X78544671Y-67606094D01*
X76350819Y-69799944D01*
X76289496Y-69833429D01*
X76222875Y-69829544D01*
X76119616Y-69794095D01*
X75874335Y-69753166D01*
X75625665Y-69753166D01*
X75380383Y-69794095D01*
X75145197Y-69874835D01*
X75145188Y-69874838D01*
X74926493Y-69993190D01*
X74730257Y-70145927D01*
X74561833Y-70328883D01*
X74425827Y-70537057D01*
X74409048Y-70575311D01*
X74364091Y-70628796D01*
X74297355Y-70649486D01*
X74295492Y-70649500D01*
X70704508Y-70649500D01*
X70637469Y-70629815D01*
X70591714Y-70577011D01*
X70590952Y-70575311D01*
X70574954Y-70538839D01*
X70574173Y-70537059D01*
X70487268Y-70404040D01*
X70438166Y-70328883D01*
X70416557Y-70305410D01*
X70269744Y-70145928D01*
X70073509Y-69993192D01*
X70073507Y-69993191D01*
X70073506Y-69993190D01*
X69854811Y-69874838D01*
X69854802Y-69874835D01*
X69619616Y-69794095D01*
X69374335Y-69753166D01*
X69125665Y-69753166D01*
X68880383Y-69794095D01*
X68645197Y-69874835D01*
X68645188Y-69874838D01*
X68426493Y-69993190D01*
X68230257Y-70145927D01*
X68061833Y-70328883D01*
X67925826Y-70537059D01*
X67825936Y-70764784D01*
X67764892Y-71005841D01*
X67764890Y-71005853D01*
X67744357Y-71253660D01*
X67744357Y-71253671D01*
X60500500Y-71253671D01*
X60500500Y-67302449D01*
X67744357Y-67302449D01*
X67764890Y-67550256D01*
X67764892Y-67550268D01*
X67825936Y-67791325D01*
X67925826Y-68019050D01*
X68061833Y-68227226D01*
X68061836Y-68227229D01*
X68230256Y-68410182D01*
X68426491Y-68562918D01*
X68645190Y-68681272D01*
X68880386Y-68762015D01*
X69125665Y-68802944D01*
X69374335Y-68802944D01*
X69619614Y-68762015D01*
X69854810Y-68681272D01*
X70073509Y-68562918D01*
X70269744Y-68410182D01*
X70438164Y-68227229D01*
X70574173Y-68019051D01*
X70674063Y-67791325D01*
X70735108Y-67550265D01*
X70741306Y-67475464D01*
X70755643Y-67302449D01*
X74244357Y-67302449D01*
X74264890Y-67550256D01*
X74264892Y-67550268D01*
X74325936Y-67791325D01*
X74425826Y-68019050D01*
X74561833Y-68227226D01*
X74561836Y-68227229D01*
X74730256Y-68410182D01*
X74926491Y-68562918D01*
X75145190Y-68681272D01*
X75380386Y-68762015D01*
X75625665Y-68802944D01*
X75874335Y-68802944D01*
X76119614Y-68762015D01*
X76354810Y-68681272D01*
X76573509Y-68562918D01*
X76769744Y-68410182D01*
X76938164Y-68227229D01*
X77074173Y-68019051D01*
X77174063Y-67791325D01*
X77235108Y-67550265D01*
X77241306Y-67475464D01*
X77255643Y-67302449D01*
X77255643Y-67302438D01*
X77235109Y-67054631D01*
X77235107Y-67054619D01*
X77174063Y-66813562D01*
X77074173Y-66585837D01*
X76938166Y-66377661D01*
X76891527Y-66326998D01*
X76769744Y-66194706D01*
X76573509Y-66041970D01*
X76573507Y-66041969D01*
X76573506Y-66041968D01*
X76354811Y-65923616D01*
X76354802Y-65923613D01*
X76119616Y-65842873D01*
X75874335Y-65801944D01*
X75625665Y-65801944D01*
X75380383Y-65842873D01*
X75145197Y-65923613D01*
X75145188Y-65923616D01*
X74926493Y-66041968D01*
X74730257Y-66194705D01*
X74561833Y-66377661D01*
X74425826Y-66585837D01*
X74325936Y-66813562D01*
X74264892Y-67054619D01*
X74264890Y-67054631D01*
X74244357Y-67302438D01*
X74244357Y-67302449D01*
X70755643Y-67302449D01*
X70755643Y-67302438D01*
X70735109Y-67054631D01*
X70735107Y-67054619D01*
X70674063Y-66813562D01*
X70574173Y-66585837D01*
X70438166Y-66377661D01*
X70391527Y-66326998D01*
X70269744Y-66194706D01*
X70073509Y-66041970D01*
X70073507Y-66041969D01*
X70073506Y-66041968D01*
X69854811Y-65923616D01*
X69854802Y-65923613D01*
X69619616Y-65842873D01*
X69374335Y-65801944D01*
X69125665Y-65801944D01*
X68880383Y-65842873D01*
X68645197Y-65923613D01*
X68645188Y-65923616D01*
X68426493Y-66041968D01*
X68230257Y-66194705D01*
X68061833Y-66377661D01*
X67925826Y-66585837D01*
X67825936Y-66813562D01*
X67764892Y-67054619D01*
X67764890Y-67054631D01*
X67744357Y-67302438D01*
X67744357Y-67302449D01*
X60500500Y-67302449D01*
X60500500Y-58851227D01*
X67744357Y-58851227D01*
X67764890Y-59099034D01*
X67764892Y-59099046D01*
X67825936Y-59340103D01*
X67925826Y-59567828D01*
X68061833Y-59776004D01*
X68061836Y-59776007D01*
X68230256Y-59958960D01*
X68426491Y-60111696D01*
X68645190Y-60230050D01*
X68880386Y-60310793D01*
X69125665Y-60351722D01*
X69374335Y-60351722D01*
X69619614Y-60310793D01*
X69854810Y-60230050D01*
X70073509Y-60111696D01*
X70269744Y-59958960D01*
X70438164Y-59776007D01*
X70574173Y-59567829D01*
X70674063Y-59340103D01*
X70735108Y-59099043D01*
X70737752Y-59067132D01*
X70755643Y-58851227D01*
X70755643Y-58851216D01*
X70735109Y-58603409D01*
X70735107Y-58603397D01*
X70674063Y-58362340D01*
X70574173Y-58134615D01*
X70438166Y-57926439D01*
X70400756Y-57885801D01*
X70269744Y-57743484D01*
X70073509Y-57590748D01*
X70073507Y-57590747D01*
X70073506Y-57590746D01*
X69854811Y-57472394D01*
X69854802Y-57472391D01*
X69619616Y-57391651D01*
X69374335Y-57350722D01*
X69125665Y-57350722D01*
X68880383Y-57391651D01*
X68645197Y-57472391D01*
X68645188Y-57472394D01*
X68426493Y-57590746D01*
X68230257Y-57743483D01*
X68061833Y-57926439D01*
X67925826Y-58134615D01*
X67825936Y-58362340D01*
X67764892Y-58603397D01*
X67764890Y-58603409D01*
X67744357Y-58851216D01*
X67744357Y-58851227D01*
X60500500Y-58851227D01*
X60500500Y-50400005D01*
X67744357Y-50400005D01*
X67764890Y-50647812D01*
X67764892Y-50647824D01*
X67825936Y-50888881D01*
X67925826Y-51116606D01*
X68061833Y-51324782D01*
X68061836Y-51324785D01*
X68230256Y-51507738D01*
X68426491Y-51660474D01*
X68645190Y-51778828D01*
X68880386Y-51859571D01*
X69125665Y-51900500D01*
X69374335Y-51900500D01*
X69619614Y-51859571D01*
X69854810Y-51778828D01*
X70073509Y-51660474D01*
X70269744Y-51507738D01*
X70438164Y-51324785D01*
X70574173Y-51116607D01*
X70674063Y-50888881D01*
X70735108Y-50647821D01*
X70755643Y-50400005D01*
X74244357Y-50400005D01*
X74264890Y-50647812D01*
X74264892Y-50647824D01*
X74325936Y-50888881D01*
X74425826Y-51116606D01*
X74561833Y-51324782D01*
X74561836Y-51324785D01*
X74730256Y-51507738D01*
X74926491Y-51660474D01*
X75145190Y-51778828D01*
X75380386Y-51859571D01*
X75625665Y-51900500D01*
X75874335Y-51900500D01*
X76119614Y-51859571D01*
X76354810Y-51778828D01*
X76573509Y-51660474D01*
X76769744Y-51507738D01*
X76938164Y-51324785D01*
X77074173Y-51116607D01*
X77174063Y-50888881D01*
X77235108Y-50647821D01*
X77255643Y-50400000D01*
X77235108Y-50152179D01*
X77174063Y-49911119D01*
X77074173Y-49683393D01*
X76938166Y-49475217D01*
X76916557Y-49451744D01*
X76769744Y-49292262D01*
X76573509Y-49139526D01*
X76573507Y-49139525D01*
X76573506Y-49139524D01*
X76354811Y-49021172D01*
X76354802Y-49021169D01*
X76119616Y-48940429D01*
X75874335Y-48899500D01*
X75625665Y-48899500D01*
X75380383Y-48940429D01*
X75145197Y-49021169D01*
X75145188Y-49021172D01*
X74926493Y-49139524D01*
X74730257Y-49292261D01*
X74561833Y-49475217D01*
X74425826Y-49683393D01*
X74325936Y-49911118D01*
X74264892Y-50152175D01*
X74264890Y-50152187D01*
X74244357Y-50399994D01*
X74244357Y-50400005D01*
X70755643Y-50400005D01*
X70755643Y-50400000D01*
X70735108Y-50152179D01*
X70674063Y-49911119D01*
X70574173Y-49683393D01*
X70438166Y-49475217D01*
X70416557Y-49451744D01*
X70269744Y-49292262D01*
X70073509Y-49139526D01*
X70073507Y-49139525D01*
X70073506Y-49139524D01*
X69854811Y-49021172D01*
X69854802Y-49021169D01*
X69619616Y-48940429D01*
X69374335Y-48899500D01*
X69125665Y-48899500D01*
X68880383Y-48940429D01*
X68645197Y-49021169D01*
X68645188Y-49021172D01*
X68426493Y-49139524D01*
X68230257Y-49292261D01*
X68061833Y-49475217D01*
X67925826Y-49683393D01*
X67825936Y-49911118D01*
X67764892Y-50152175D01*
X67764890Y-50152187D01*
X67744357Y-50399994D01*
X67744357Y-50400005D01*
X60500500Y-50400005D01*
X60500500Y-43000001D01*
X61080395Y-43000001D01*
X61099934Y-43273188D01*
X61099935Y-43273195D01*
X61157337Y-43537068D01*
X61158152Y-43540815D01*
X61253866Y-43797433D01*
X61253868Y-43797438D01*
X61385122Y-44037811D01*
X61385127Y-44037819D01*
X61549252Y-44257066D01*
X61549268Y-44257084D01*
X61742915Y-44450731D01*
X61742933Y-44450747D01*
X61962180Y-44614872D01*
X61962188Y-44614877D01*
X62202561Y-44746131D01*
X62202560Y-44746131D01*
X62202564Y-44746132D01*
X62202567Y-44746134D01*
X62459185Y-44841848D01*
X62726812Y-44900066D01*
X62980460Y-44918207D01*
X62999999Y-44919605D01*
X63000000Y-44919605D01*
X63000001Y-44919605D01*
X63018235Y-44918300D01*
X63273188Y-44900066D01*
X63540815Y-44841848D01*
X63797433Y-44746134D01*
X64037817Y-44614874D01*
X64257074Y-44450741D01*
X64450741Y-44257074D01*
X64614874Y-44037817D01*
X64746134Y-43797433D01*
X64841848Y-43540815D01*
X64900066Y-43273188D01*
X64919605Y-43000001D01*
X100080395Y-43000001D01*
X100099934Y-43273188D01*
X100099935Y-43273195D01*
X100157337Y-43537068D01*
X100158152Y-43540815D01*
X100253866Y-43797433D01*
X100253868Y-43797438D01*
X100385122Y-44037811D01*
X100385127Y-44037819D01*
X100549252Y-44257066D01*
X100549268Y-44257084D01*
X100742915Y-44450731D01*
X100742933Y-44450747D01*
X100962180Y-44614872D01*
X100962188Y-44614877D01*
X101202561Y-44746131D01*
X101202560Y-44746131D01*
X101202564Y-44746132D01*
X101202567Y-44746134D01*
X101459185Y-44841848D01*
X101726812Y-44900066D01*
X101980460Y-44918207D01*
X101999999Y-44919605D01*
X102000000Y-44919605D01*
X102000001Y-44919605D01*
X102018235Y-44918300D01*
X102273188Y-44900066D01*
X102540815Y-44841848D01*
X102797433Y-44746134D01*
X103037817Y-44614874D01*
X103257074Y-44450741D01*
X103450741Y-44257074D01*
X103614874Y-44037817D01*
X103746134Y-43797433D01*
X103841848Y-43540815D01*
X103900066Y-43273188D01*
X103919605Y-43000000D01*
X103900066Y-42726812D01*
X103841848Y-42459185D01*
X103746134Y-42202567D01*
X103614874Y-41962183D01*
X103614872Y-41962180D01*
X103450747Y-41742933D01*
X103450731Y-41742915D01*
X103257084Y-41549268D01*
X103257066Y-41549252D01*
X103037819Y-41385127D01*
X103037811Y-41385122D01*
X102797438Y-41253868D01*
X102797439Y-41253868D01*
X102747468Y-41235230D01*
X102540815Y-41158152D01*
X102540808Y-41158150D01*
X102540807Y-41158150D01*
X102273195Y-41099935D01*
X102273188Y-41099934D01*
X102000001Y-41080395D01*
X101999999Y-41080395D01*
X101726811Y-41099934D01*
X101726804Y-41099935D01*
X101459192Y-41158150D01*
X101459188Y-41158151D01*
X101459185Y-41158152D01*
X101274489Y-41227040D01*
X101202561Y-41253868D01*
X100962188Y-41385122D01*
X100962180Y-41385127D01*
X100742933Y-41549252D01*
X100742915Y-41549268D01*
X100549268Y-41742915D01*
X100549252Y-41742933D01*
X100385127Y-41962180D01*
X100385122Y-41962188D01*
X100253868Y-42202561D01*
X100253866Y-42202567D01*
X100158152Y-42459185D01*
X100158151Y-42459188D01*
X100158150Y-42459192D01*
X100099935Y-42726804D01*
X100099934Y-42726811D01*
X100080395Y-42999998D01*
X100080395Y-43000001D01*
X64919605Y-43000001D01*
X64919605Y-43000000D01*
X64900066Y-42726812D01*
X64841848Y-42459185D01*
X64746134Y-42202567D01*
X64614874Y-41962183D01*
X64614872Y-41962180D01*
X64450747Y-41742933D01*
X64450731Y-41742915D01*
X64257084Y-41549268D01*
X64257066Y-41549252D01*
X64037819Y-41385127D01*
X64037811Y-41385122D01*
X63797438Y-41253868D01*
X63797439Y-41253868D01*
X63747468Y-41235230D01*
X63540815Y-41158152D01*
X63540808Y-41158150D01*
X63540807Y-41158150D01*
X63273195Y-41099935D01*
X63273188Y-41099934D01*
X63000001Y-41080395D01*
X62999999Y-41080395D01*
X62726811Y-41099934D01*
X62726804Y-41099935D01*
X62459192Y-41158150D01*
X62459188Y-41158151D01*
X62459185Y-41158152D01*
X62274489Y-41227040D01*
X62202561Y-41253868D01*
X61962188Y-41385122D01*
X61962180Y-41385127D01*
X61742933Y-41549252D01*
X61742915Y-41549268D01*
X61549268Y-41742915D01*
X61549252Y-41742933D01*
X61385127Y-41962180D01*
X61385122Y-41962188D01*
X61253868Y-42202561D01*
X61253866Y-42202567D01*
X61158152Y-42459185D01*
X61158151Y-42459188D01*
X61158150Y-42459192D01*
X61099935Y-42726804D01*
X61099934Y-42726811D01*
X61080395Y-42999998D01*
X61080395Y-43000001D01*
X60500500Y-43000001D01*
X60500500Y-41003482D01*
X60500890Y-40996535D01*
X60511459Y-40902731D01*
X60517635Y-40875670D01*
X60545353Y-40796456D01*
X60557396Y-40771450D01*
X60602046Y-40700389D01*
X60619351Y-40678690D01*
X60678690Y-40619351D01*
X60700389Y-40602046D01*
X60771450Y-40557396D01*
X60796456Y-40545353D01*
X60875670Y-40517635D01*
X60902733Y-40511459D01*
X60996541Y-40500889D01*
X61003483Y-40500500D01*
X61065892Y-40500500D01*
X103934108Y-40500500D01*
X103996517Y-40500500D01*
X104003458Y-40500889D01*
G37*
G04 #@! TD.AperFunction*
M02*
