G04 #@! TF.GenerationSoftware,KiCad,Pcbnew,7.0.9*
G04 #@! TF.CreationDate,2023-12-18T22:45:15-06:00*
G04 #@! TF.ProjectId,pod_basic_expander2,706f645f-6261-4736-9963-5f657870616e,rev?*
G04 #@! TF.SameCoordinates,Original*
G04 #@! TF.FileFunction,Soldermask,Top*
G04 #@! TF.FilePolarity,Negative*
%FSLAX46Y46*%
G04 Gerber Fmt 4.6, Leading zero omitted, Abs format (unit mm)*
G04 Created by KiCad (PCBNEW 7.0.9) date 2023-12-18 22:45:15*
%MOMM*%
%LPD*%
G01*
G04 APERTURE LIST*
%ADD10O,3.240000X2.720000*%
%ADD11R,1.800000X1.800000*%
%ADD12C,1.800000*%
%ADD13C,2.000000*%
%ADD14R,1.700000X1.700000*%
%ADD15O,1.700000X1.700000*%
G04 APERTURE END LIST*
D10*
X90070000Y-70200000D03*
X90070000Y-79800000D03*
D11*
X82570000Y-72500000D03*
D12*
X82570000Y-75000000D03*
X82570000Y-77500000D03*
D13*
X69250000Y-54351222D03*
X75750000Y-54351222D03*
X69250000Y-58851222D03*
X75750000Y-58851222D03*
X69273315Y-88156111D03*
X75773315Y-88156111D03*
X69273315Y-92656111D03*
X75773315Y-92656111D03*
D14*
X100170000Y-82790000D03*
D15*
X100170000Y-80250000D03*
X100170000Y-77710000D03*
X100170000Y-75170000D03*
X100170000Y-72630000D03*
X100170000Y-70090000D03*
X100170000Y-67550000D03*
X100170000Y-65010000D03*
X100170000Y-62470000D03*
X100170000Y-59930000D03*
X100170000Y-57390000D03*
X100170000Y-54850000D03*
D13*
X69250000Y-45900000D03*
X75750000Y-45900000D03*
X69250000Y-50400000D03*
X75750000Y-50400000D03*
X69273315Y-79704888D03*
X75773315Y-79704888D03*
X69273315Y-84204888D03*
X75773315Y-84204888D03*
X69250000Y-62802444D03*
X75750000Y-62802444D03*
X69250000Y-67302444D03*
X75750000Y-67302444D03*
D10*
X90070000Y-56330000D03*
X90070000Y-65930000D03*
D11*
X82570000Y-58630000D03*
D12*
X82570000Y-61130000D03*
X82570000Y-63630000D03*
D13*
X69250000Y-71253666D03*
X75750000Y-71253666D03*
X69250000Y-75753666D03*
X75750000Y-75753666D03*
M02*
