G04 #@! TF.GenerationSoftware,KiCad,Pcbnew,7.0.9*
G04 #@! TF.CreationDate,2023-12-18T22:45:15-06:00*
G04 #@! TF.ProjectId,pod_basic_expander2,706f645f-6261-4736-9963-5f657870616e,rev?*
G04 #@! TF.SameCoordinates,Original*
G04 #@! TF.FileFunction,Copper,L2,Bot*
G04 #@! TF.FilePolarity,Positive*
%FSLAX46Y46*%
G04 Gerber Fmt 4.6, Leading zero omitted, Abs format (unit mm)*
G04 Created by KiCad (PCBNEW 7.0.9) date 2023-12-18 22:45:15*
%MOMM*%
%LPD*%
G01*
G04 APERTURE LIST*
G04 #@! TA.AperFunction,ComponentPad*
%ADD10O,3.240000X2.720000*%
G04 #@! TD*
G04 #@! TA.AperFunction,ComponentPad*
%ADD11R,1.800000X1.800000*%
G04 #@! TD*
G04 #@! TA.AperFunction,ComponentPad*
%ADD12C,1.800000*%
G04 #@! TD*
G04 #@! TA.AperFunction,ComponentPad*
%ADD13C,2.000000*%
G04 #@! TD*
G04 #@! TA.AperFunction,ComponentPad*
%ADD14R,1.700000X1.700000*%
G04 #@! TD*
G04 #@! TA.AperFunction,ComponentPad*
%ADD15O,1.700000X1.700000*%
G04 #@! TD*
G04 #@! TA.AperFunction,Conductor*
%ADD16C,0.200000*%
G04 #@! TD*
G04 APERTURE END LIST*
D10*
X90070000Y-70200000D03*
X90070000Y-79800000D03*
D11*
X82570000Y-72500000D03*
D12*
X82570000Y-75000000D03*
X82570000Y-77500000D03*
D13*
X69250000Y-54351222D03*
X75750000Y-54351222D03*
X69250000Y-58851222D03*
X75750000Y-58851222D03*
X69273315Y-88156111D03*
X75773315Y-88156111D03*
X69273315Y-92656111D03*
X75773315Y-92656111D03*
D14*
X100170000Y-82790000D03*
D15*
X100170000Y-80250000D03*
X100170000Y-77710000D03*
X100170000Y-75170000D03*
X100170000Y-72630000D03*
X100170000Y-70090000D03*
X100170000Y-67550000D03*
X100170000Y-65010000D03*
X100170000Y-62470000D03*
X100170000Y-59930000D03*
X100170000Y-57390000D03*
X100170000Y-54850000D03*
D13*
X69250000Y-45900000D03*
X75750000Y-45900000D03*
X69250000Y-50400000D03*
X75750000Y-50400000D03*
X69273315Y-79704888D03*
X75773315Y-79704888D03*
X69273315Y-84204888D03*
X75773315Y-84204888D03*
X69250000Y-62802444D03*
X75750000Y-62802444D03*
X69250000Y-67302444D03*
X75750000Y-67302444D03*
D10*
X90070000Y-56330000D03*
X90070000Y-65930000D03*
D11*
X82570000Y-58630000D03*
D12*
X82570000Y-61130000D03*
X82570000Y-63630000D03*
D13*
X69250000Y-71253666D03*
X75750000Y-71253666D03*
X69250000Y-75753666D03*
X75750000Y-75753666D03*
D16*
X69273315Y-84106111D02*
X75773315Y-84106111D01*
X69273315Y-92656111D02*
X75773315Y-92656111D01*
X96070000Y-69930000D02*
X98770000Y-72630000D01*
X82570000Y-61130000D02*
X91270000Y-61130000D01*
X96070000Y-65930000D02*
X96070000Y-69930000D01*
X91270000Y-61130000D02*
X96070000Y-65930000D01*
X98770000Y-72630000D02*
X100170000Y-72630000D01*
G04 #@! TA.AperFunction,Conductor*
G36*
X104003458Y-40500889D02*
G01*
X104097266Y-40511459D01*
X104124331Y-40517636D01*
X104203540Y-40545352D01*
X104228553Y-40557398D01*
X104299606Y-40602043D01*
X104321313Y-40619355D01*
X104380644Y-40678686D01*
X104397957Y-40700395D01*
X104442600Y-40771444D01*
X104454648Y-40796462D01*
X104482362Y-40875666D01*
X104488540Y-40902735D01*
X104493133Y-40943501D01*
X104499110Y-40996535D01*
X104499500Y-41003482D01*
X104499500Y-95997786D01*
X104499342Y-96002210D01*
X104484869Y-96204557D01*
X104482351Y-96222068D01*
X104440646Y-96413787D01*
X104435662Y-96430763D01*
X104367090Y-96614609D01*
X104359740Y-96630701D01*
X104265711Y-96802904D01*
X104256146Y-96817789D01*
X104138558Y-96974867D01*
X104126972Y-96988237D01*
X103988237Y-97126972D01*
X103974867Y-97138558D01*
X103817789Y-97256146D01*
X103802904Y-97265711D01*
X103630701Y-97359740D01*
X103614609Y-97367090D01*
X103430763Y-97435662D01*
X103413787Y-97440646D01*
X103222068Y-97482351D01*
X103204557Y-97484869D01*
X103023733Y-97497802D01*
X103002208Y-97499342D01*
X102997786Y-97499500D01*
X62002214Y-97499500D01*
X61997791Y-97499342D01*
X61973413Y-97497598D01*
X61795442Y-97484869D01*
X61777931Y-97482351D01*
X61586212Y-97440646D01*
X61569236Y-97435662D01*
X61385390Y-97367090D01*
X61369298Y-97359740D01*
X61197095Y-97265711D01*
X61182210Y-97256146D01*
X61025132Y-97138558D01*
X61011762Y-97126972D01*
X60873027Y-96988237D01*
X60861441Y-96974867D01*
X60743849Y-96817784D01*
X60734288Y-96802904D01*
X60640259Y-96630701D01*
X60632909Y-96614609D01*
X60572091Y-96451551D01*
X60564334Y-96430755D01*
X60559355Y-96413797D01*
X60517647Y-96222063D01*
X60515130Y-96204556D01*
X60500658Y-96002210D01*
X60500500Y-95997786D01*
X60500500Y-94500001D01*
X61580395Y-94500001D01*
X61599934Y-94773188D01*
X61599935Y-94773195D01*
X61657337Y-95037068D01*
X61658152Y-95040815D01*
X61753866Y-95297433D01*
X61753868Y-95297438D01*
X61885122Y-95537811D01*
X61885127Y-95537819D01*
X62049252Y-95757066D01*
X62049268Y-95757084D01*
X62242915Y-95950731D01*
X62242933Y-95950747D01*
X62462180Y-96114872D01*
X62462188Y-96114877D01*
X62702561Y-96246131D01*
X62702560Y-96246131D01*
X62702564Y-96246132D01*
X62702567Y-96246134D01*
X62959185Y-96341848D01*
X63226812Y-96400066D01*
X63480460Y-96418207D01*
X63499999Y-96419605D01*
X63500000Y-96419605D01*
X63500001Y-96419605D01*
X63518235Y-96418300D01*
X63773188Y-96400066D01*
X64040815Y-96341848D01*
X64297433Y-96246134D01*
X64537817Y-96114874D01*
X64757074Y-95950741D01*
X64950741Y-95757074D01*
X65114874Y-95537817D01*
X65246134Y-95297433D01*
X65341848Y-95040815D01*
X65400066Y-94773188D01*
X65419605Y-94500001D01*
X99580395Y-94500001D01*
X99599934Y-94773188D01*
X99599935Y-94773195D01*
X99657337Y-95037068D01*
X99658152Y-95040815D01*
X99753866Y-95297433D01*
X99753868Y-95297438D01*
X99885122Y-95537811D01*
X99885127Y-95537819D01*
X100049252Y-95757066D01*
X100049268Y-95757084D01*
X100242915Y-95950731D01*
X100242933Y-95950747D01*
X100462180Y-96114872D01*
X100462188Y-96114877D01*
X100702561Y-96246131D01*
X100702560Y-96246131D01*
X100702564Y-96246132D01*
X100702567Y-96246134D01*
X100959185Y-96341848D01*
X101226812Y-96400066D01*
X101480460Y-96418207D01*
X101499999Y-96419605D01*
X101500000Y-96419605D01*
X101500001Y-96419605D01*
X101518235Y-96418300D01*
X101773188Y-96400066D01*
X102040815Y-96341848D01*
X102297433Y-96246134D01*
X102537817Y-96114874D01*
X102757074Y-95950741D01*
X102950741Y-95757074D01*
X103114874Y-95537817D01*
X103246134Y-95297433D01*
X103341848Y-95040815D01*
X103400066Y-94773188D01*
X103419605Y-94500000D01*
X103400066Y-94226812D01*
X103341848Y-93959185D01*
X103246134Y-93702567D01*
X103114874Y-93462183D01*
X103114872Y-93462180D01*
X102950747Y-93242933D01*
X102950731Y-93242915D01*
X102757084Y-93049268D01*
X102757066Y-93049252D01*
X102537819Y-92885127D01*
X102537811Y-92885122D01*
X102297438Y-92753868D01*
X102297439Y-92753868D01*
X102247468Y-92735230D01*
X102040815Y-92658152D01*
X102040808Y-92658150D01*
X102040807Y-92658150D01*
X101773195Y-92599935D01*
X101773188Y-92599934D01*
X101500001Y-92580395D01*
X101499999Y-92580395D01*
X101226811Y-92599934D01*
X101226804Y-92599935D01*
X100959192Y-92658150D01*
X100959188Y-92658151D01*
X100959185Y-92658152D01*
X100774489Y-92727040D01*
X100702561Y-92753868D01*
X100462188Y-92885122D01*
X100462180Y-92885127D01*
X100242933Y-93049252D01*
X100242915Y-93049268D01*
X100049268Y-93242915D01*
X100049252Y-93242933D01*
X99885127Y-93462180D01*
X99885122Y-93462188D01*
X99753868Y-93702561D01*
X99753866Y-93702567D01*
X99658152Y-93959185D01*
X99658151Y-93959188D01*
X99658150Y-93959192D01*
X99599935Y-94226804D01*
X99599934Y-94226811D01*
X99580395Y-94499998D01*
X99580395Y-94500001D01*
X65419605Y-94500001D01*
X65419605Y-94500000D01*
X65400066Y-94226812D01*
X65341848Y-93959185D01*
X65246134Y-93702567D01*
X65114874Y-93462183D01*
X65114872Y-93462180D01*
X64950747Y-93242933D01*
X64950731Y-93242915D01*
X64757084Y-93049268D01*
X64757066Y-93049252D01*
X64537819Y-92885127D01*
X64537811Y-92885122D01*
X64297438Y-92753868D01*
X64297439Y-92753868D01*
X64247468Y-92735230D01*
X64040815Y-92658152D01*
X64040808Y-92658150D01*
X64040807Y-92658150D01*
X64031457Y-92656116D01*
X67768174Y-92656116D01*
X67788700Y-92903840D01*
X67788702Y-92903849D01*
X67849727Y-93144828D01*
X67949581Y-93372475D01*
X68049879Y-93525993D01*
X68747385Y-92828487D01*
X68750199Y-92842026D01*
X68819757Y-92976267D01*
X68922953Y-93086763D01*
X69052134Y-93165320D01*
X69103317Y-93179660D01*
X68403257Y-93879720D01*
X68450083Y-93916166D01*
X68450085Y-93916167D01*
X68668700Y-94034475D01*
X68668711Y-94034480D01*
X68903821Y-94115194D01*
X69149022Y-94156111D01*
X69397608Y-94156111D01*
X69642808Y-94115194D01*
X69877918Y-94034480D01*
X69877929Y-94034475D01*
X70096543Y-93916168D01*
X70096546Y-93916166D01*
X70143371Y-93879720D01*
X69444883Y-93181232D01*
X69561773Y-93130460D01*
X69679054Y-93035045D01*
X69766243Y-92911526D01*
X69796669Y-92825913D01*
X70496749Y-93525993D01*
X70597046Y-93372480D01*
X70696902Y-93144828D01*
X70757927Y-92903849D01*
X70757929Y-92903840D01*
X70778456Y-92656116D01*
X74268174Y-92656116D01*
X74288700Y-92903840D01*
X74288702Y-92903849D01*
X74349727Y-93144828D01*
X74449581Y-93372475D01*
X74549879Y-93525993D01*
X75247385Y-92828487D01*
X75250199Y-92842026D01*
X75319757Y-92976267D01*
X75422953Y-93086763D01*
X75552134Y-93165320D01*
X75603317Y-93179660D01*
X74903257Y-93879720D01*
X74950083Y-93916166D01*
X74950085Y-93916167D01*
X75168700Y-94034475D01*
X75168711Y-94034480D01*
X75403821Y-94115194D01*
X75649022Y-94156111D01*
X75897608Y-94156111D01*
X76142808Y-94115194D01*
X76377918Y-94034480D01*
X76377929Y-94034475D01*
X76596543Y-93916168D01*
X76596546Y-93916166D01*
X76643371Y-93879720D01*
X75944883Y-93181232D01*
X76061773Y-93130460D01*
X76179054Y-93035045D01*
X76266243Y-92911526D01*
X76296669Y-92825913D01*
X76996749Y-93525993D01*
X77097046Y-93372480D01*
X77196902Y-93144828D01*
X77257927Y-92903849D01*
X77257929Y-92903840D01*
X77278456Y-92656116D01*
X77278456Y-92656105D01*
X77257929Y-92408381D01*
X77257927Y-92408372D01*
X77196902Y-92167393D01*
X77097046Y-91939741D01*
X76996749Y-91786227D01*
X76299244Y-92483733D01*
X76296431Y-92470196D01*
X76226873Y-92335955D01*
X76123677Y-92225459D01*
X75994496Y-92146902D01*
X75943312Y-92132561D01*
X76643372Y-91432501D01*
X76643371Y-91432500D01*
X76596544Y-91396054D01*
X76377929Y-91277746D01*
X76377918Y-91277741D01*
X76142808Y-91197027D01*
X75897608Y-91156111D01*
X75649022Y-91156111D01*
X75403821Y-91197027D01*
X75168711Y-91277741D01*
X75168705Y-91277743D01*
X74950076Y-91396060D01*
X74903257Y-91432499D01*
X74903257Y-91432501D01*
X75601746Y-92130989D01*
X75484857Y-92181762D01*
X75367576Y-92277177D01*
X75280387Y-92400696D01*
X75249960Y-92486308D01*
X74549879Y-91786227D01*
X74449582Y-91939743D01*
X74349727Y-92167393D01*
X74288702Y-92408372D01*
X74288700Y-92408381D01*
X74268174Y-92656105D01*
X74268174Y-92656116D01*
X70778456Y-92656116D01*
X70778456Y-92656105D01*
X70757929Y-92408381D01*
X70757927Y-92408372D01*
X70696902Y-92167393D01*
X70597046Y-91939741D01*
X70496749Y-91786227D01*
X69799244Y-92483733D01*
X69796431Y-92470196D01*
X69726873Y-92335955D01*
X69623677Y-92225459D01*
X69494496Y-92146902D01*
X69443312Y-92132561D01*
X70143372Y-91432501D01*
X70143371Y-91432500D01*
X70096544Y-91396054D01*
X69877929Y-91277746D01*
X69877918Y-91277741D01*
X69642808Y-91197027D01*
X69397608Y-91156111D01*
X69149022Y-91156111D01*
X68903821Y-91197027D01*
X68668711Y-91277741D01*
X68668705Y-91277743D01*
X68450076Y-91396060D01*
X68403257Y-91432499D01*
X68403257Y-91432501D01*
X69101746Y-92130989D01*
X68984857Y-92181762D01*
X68867576Y-92277177D01*
X68780387Y-92400696D01*
X68749960Y-92486308D01*
X68049879Y-91786227D01*
X67949582Y-91939743D01*
X67849727Y-92167393D01*
X67788702Y-92408372D01*
X67788700Y-92408381D01*
X67768174Y-92656105D01*
X67768174Y-92656116D01*
X64031457Y-92656116D01*
X63773195Y-92599935D01*
X63773188Y-92599934D01*
X63500001Y-92580395D01*
X63499999Y-92580395D01*
X63226811Y-92599934D01*
X63226804Y-92599935D01*
X62959192Y-92658150D01*
X62959188Y-92658151D01*
X62959185Y-92658152D01*
X62774489Y-92727040D01*
X62702561Y-92753868D01*
X62462188Y-92885122D01*
X62462180Y-92885127D01*
X62242933Y-93049252D01*
X62242915Y-93049268D01*
X62049268Y-93242915D01*
X62049252Y-93242933D01*
X61885127Y-93462180D01*
X61885122Y-93462188D01*
X61753868Y-93702561D01*
X61753866Y-93702567D01*
X61658152Y-93959185D01*
X61658151Y-93959188D01*
X61658150Y-93959192D01*
X61599935Y-94226804D01*
X61599934Y-94226811D01*
X61580395Y-94499998D01*
X61580395Y-94500001D01*
X60500500Y-94500001D01*
X60500500Y-88156116D01*
X67767672Y-88156116D01*
X67788205Y-88403923D01*
X67788207Y-88403935D01*
X67849251Y-88644992D01*
X67949141Y-88872717D01*
X68085148Y-89080893D01*
X68085151Y-89080896D01*
X68253571Y-89263849D01*
X68449806Y-89416585D01*
X68668505Y-89534939D01*
X68903701Y-89615682D01*
X69148980Y-89656611D01*
X69397650Y-89656611D01*
X69642929Y-89615682D01*
X69878125Y-89534939D01*
X70096824Y-89416585D01*
X70293059Y-89263849D01*
X70461479Y-89080896D01*
X70597488Y-88872718D01*
X70697378Y-88644992D01*
X70758423Y-88403932D01*
X70778958Y-88156116D01*
X74267672Y-88156116D01*
X74288205Y-88403923D01*
X74288207Y-88403935D01*
X74349251Y-88644992D01*
X74449141Y-88872717D01*
X74585148Y-89080893D01*
X74585151Y-89080896D01*
X74753571Y-89263849D01*
X74949806Y-89416585D01*
X75168505Y-89534939D01*
X75403701Y-89615682D01*
X75648980Y-89656611D01*
X75897650Y-89656611D01*
X76142929Y-89615682D01*
X76378125Y-89534939D01*
X76596824Y-89416585D01*
X76793059Y-89263849D01*
X76961479Y-89080896D01*
X77097488Y-88872718D01*
X77197378Y-88644992D01*
X77258423Y-88403932D01*
X77278958Y-88156111D01*
X77258423Y-87908290D01*
X77197378Y-87667230D01*
X77097488Y-87439504D01*
X76961481Y-87231328D01*
X76939872Y-87207855D01*
X76793059Y-87048373D01*
X76596824Y-86895637D01*
X76596822Y-86895636D01*
X76596821Y-86895635D01*
X76378126Y-86777283D01*
X76378117Y-86777280D01*
X76142931Y-86696540D01*
X75897650Y-86655611D01*
X75648980Y-86655611D01*
X75403698Y-86696540D01*
X75168512Y-86777280D01*
X75168503Y-86777283D01*
X74949808Y-86895635D01*
X74753572Y-87048372D01*
X74585148Y-87231328D01*
X74449141Y-87439504D01*
X74349251Y-87667229D01*
X74288207Y-87908286D01*
X74288205Y-87908298D01*
X74267672Y-88156105D01*
X74267672Y-88156116D01*
X70778958Y-88156116D01*
X70778958Y-88156111D01*
X70758423Y-87908290D01*
X70697378Y-87667230D01*
X70597488Y-87439504D01*
X70461481Y-87231328D01*
X70439872Y-87207855D01*
X70293059Y-87048373D01*
X70096824Y-86895637D01*
X70096822Y-86895636D01*
X70096821Y-86895635D01*
X69878126Y-86777283D01*
X69878117Y-86777280D01*
X69642931Y-86696540D01*
X69397650Y-86655611D01*
X69148980Y-86655611D01*
X68903698Y-86696540D01*
X68668512Y-86777280D01*
X68668503Y-86777283D01*
X68449808Y-86895635D01*
X68253572Y-87048372D01*
X68085148Y-87231328D01*
X67949141Y-87439504D01*
X67849251Y-87667229D01*
X67788207Y-87908286D01*
X67788205Y-87908298D01*
X67767672Y-88156105D01*
X67767672Y-88156116D01*
X60500500Y-88156116D01*
X60500500Y-84204893D01*
X67768174Y-84204893D01*
X67788700Y-84452617D01*
X67788702Y-84452626D01*
X67849727Y-84693605D01*
X67949581Y-84921252D01*
X68049879Y-85074770D01*
X68747385Y-84377264D01*
X68750199Y-84390803D01*
X68819757Y-84525044D01*
X68922953Y-84635540D01*
X69052134Y-84714097D01*
X69103317Y-84728437D01*
X68403257Y-85428497D01*
X68450083Y-85464943D01*
X68450085Y-85464944D01*
X68668700Y-85583252D01*
X68668711Y-85583257D01*
X68903821Y-85663971D01*
X69149022Y-85704888D01*
X69397608Y-85704888D01*
X69642808Y-85663971D01*
X69877918Y-85583257D01*
X69877929Y-85583252D01*
X70096543Y-85464945D01*
X70096546Y-85464943D01*
X70143371Y-85428497D01*
X69444883Y-84730009D01*
X69561773Y-84679237D01*
X69679054Y-84583822D01*
X69766243Y-84460303D01*
X69796669Y-84374690D01*
X70496749Y-85074770D01*
X70597046Y-84921257D01*
X70696902Y-84693605D01*
X70757927Y-84452626D01*
X70757929Y-84452617D01*
X70778456Y-84204893D01*
X74268174Y-84204893D01*
X74288700Y-84452617D01*
X74288702Y-84452626D01*
X74349727Y-84693605D01*
X74449581Y-84921252D01*
X74549879Y-85074770D01*
X75247385Y-84377264D01*
X75250199Y-84390803D01*
X75319757Y-84525044D01*
X75422953Y-84635540D01*
X75552134Y-84714097D01*
X75603317Y-84728437D01*
X74903257Y-85428497D01*
X74950083Y-85464943D01*
X74950085Y-85464944D01*
X75168700Y-85583252D01*
X75168711Y-85583257D01*
X75403821Y-85663971D01*
X75649022Y-85704888D01*
X75897608Y-85704888D01*
X76142808Y-85663971D01*
X76377918Y-85583257D01*
X76377929Y-85583252D01*
X76596543Y-85464945D01*
X76596546Y-85464943D01*
X76643371Y-85428497D01*
X75944883Y-84730009D01*
X76061773Y-84679237D01*
X76179054Y-84583822D01*
X76266243Y-84460303D01*
X76296669Y-84374690D01*
X76996749Y-85074770D01*
X77097046Y-84921257D01*
X77196902Y-84693605D01*
X77257927Y-84452626D01*
X77257929Y-84452617D01*
X77278456Y-84204893D01*
X77278456Y-84204882D01*
X77257929Y-83957158D01*
X77257927Y-83957149D01*
X77196902Y-83716170D01*
X77097046Y-83488518D01*
X76996749Y-83335004D01*
X76299244Y-84032510D01*
X76296431Y-84018973D01*
X76226873Y-83884732D01*
X76123677Y-83774236D01*
X75994496Y-83695679D01*
X75943312Y-83681338D01*
X76643372Y-82981278D01*
X76643371Y-82981277D01*
X76596544Y-82944831D01*
X76377929Y-82826523D01*
X76377918Y-82826518D01*
X76142808Y-82745804D01*
X75897608Y-82704888D01*
X75649022Y-82704888D01*
X75403821Y-82745804D01*
X75168711Y-82826518D01*
X75168705Y-82826520D01*
X74950076Y-82944837D01*
X74903257Y-82981276D01*
X74903257Y-82981278D01*
X75601746Y-83679766D01*
X75484857Y-83730539D01*
X75367576Y-83825954D01*
X75280387Y-83949473D01*
X75249960Y-84035085D01*
X74549879Y-83335004D01*
X74449582Y-83488520D01*
X74349727Y-83716170D01*
X74288702Y-83957149D01*
X74288700Y-83957158D01*
X74268174Y-84204882D01*
X74268174Y-84204893D01*
X70778456Y-84204893D01*
X70778456Y-84204882D01*
X70757929Y-83957158D01*
X70757927Y-83957149D01*
X70696902Y-83716170D01*
X70597046Y-83488518D01*
X70496749Y-83335004D01*
X69799244Y-84032510D01*
X69796431Y-84018973D01*
X69726873Y-83884732D01*
X69623677Y-83774236D01*
X69494496Y-83695679D01*
X69443312Y-83681338D01*
X70143372Y-82981278D01*
X70143371Y-82981277D01*
X70096544Y-82944831D01*
X69877929Y-82826523D01*
X69877918Y-82826518D01*
X69642808Y-82745804D01*
X69397608Y-82704888D01*
X69149022Y-82704888D01*
X68903821Y-82745804D01*
X68668711Y-82826518D01*
X68668705Y-82826520D01*
X68450076Y-82944837D01*
X68403257Y-82981276D01*
X68403257Y-82981278D01*
X69101746Y-83679766D01*
X68984857Y-83730539D01*
X68867576Y-83825954D01*
X68780387Y-83949473D01*
X68749960Y-84035085D01*
X68049879Y-83335004D01*
X67949582Y-83488520D01*
X67849727Y-83716170D01*
X67788702Y-83957149D01*
X67788700Y-83957158D01*
X67768174Y-84204882D01*
X67768174Y-84204893D01*
X60500500Y-84204893D01*
X60500500Y-79704893D01*
X67767672Y-79704893D01*
X67788205Y-79952700D01*
X67788207Y-79952712D01*
X67849251Y-80193769D01*
X67949141Y-80421494D01*
X68085148Y-80629670D01*
X68085151Y-80629673D01*
X68253571Y-80812626D01*
X68449806Y-80965362D01*
X68668505Y-81083716D01*
X68903701Y-81164459D01*
X69148980Y-81205388D01*
X69397650Y-81205388D01*
X69642929Y-81164459D01*
X69878125Y-81083716D01*
X70096824Y-80965362D01*
X70293059Y-80812626D01*
X70461479Y-80629673D01*
X70597488Y-80421495D01*
X70697378Y-80193769D01*
X70758423Y-79952709D01*
X70758424Y-79952700D01*
X70778958Y-79704893D01*
X74267672Y-79704893D01*
X74288205Y-79952700D01*
X74288207Y-79952712D01*
X74349251Y-80193769D01*
X74449141Y-80421494D01*
X74585148Y-80629670D01*
X74585151Y-80629673D01*
X74753571Y-80812626D01*
X74949806Y-80965362D01*
X75168505Y-81083716D01*
X75403701Y-81164459D01*
X75648980Y-81205388D01*
X75897650Y-81205388D01*
X76142929Y-81164459D01*
X76378125Y-81083716D01*
X76596824Y-80965362D01*
X76793059Y-80812626D01*
X76961479Y-80629673D01*
X77097488Y-80421495D01*
X77197378Y-80193769D01*
X77258423Y-79952709D01*
X77258424Y-79952700D01*
X77265432Y-79868129D01*
X87945767Y-79868129D01*
X87975552Y-80138827D01*
X87975554Y-80138840D01*
X88010323Y-80271836D01*
X88044438Y-80402326D01*
X88150953Y-80652975D01*
X88292827Y-80885444D01*
X88467037Y-81094779D01*
X88669869Y-81276518D01*
X88897002Y-81426788D01*
X89143594Y-81542386D01*
X89404389Y-81620847D01*
X89673829Y-81660500D01*
X89673834Y-81660500D01*
X90398005Y-81660500D01*
X90449780Y-81656710D01*
X90601616Y-81645597D01*
X90712723Y-81620847D01*
X90867435Y-81586384D01*
X90867437Y-81586383D01*
X90867442Y-81586382D01*
X91121814Y-81489093D01*
X91359310Y-81355804D01*
X91574868Y-81189355D01*
X91763894Y-80993295D01*
X91922358Y-80771802D01*
X92046885Y-80529597D01*
X92134819Y-80271841D01*
X92184286Y-80004029D01*
X92194232Y-79731869D01*
X92164446Y-79461161D01*
X92095562Y-79197674D01*
X91989047Y-78947025D01*
X91847173Y-78714556D01*
X91672963Y-78505221D01*
X91470131Y-78323482D01*
X91351985Y-78245317D01*
X91243000Y-78173213D01*
X91233179Y-78168609D01*
X90996406Y-78057614D01*
X90735611Y-77979153D01*
X90735609Y-77979152D01*
X90735607Y-77979152D01*
X90638996Y-77964934D01*
X90466171Y-77939500D01*
X89742000Y-77939500D01*
X89741995Y-77939500D01*
X89538384Y-77954403D01*
X89538370Y-77954405D01*
X89272564Y-78013615D01*
X89272557Y-78013618D01*
X89018183Y-78110908D01*
X88780691Y-78244195D01*
X88780686Y-78244198D01*
X88565133Y-78410643D01*
X88565124Y-78410652D01*
X88376109Y-78606701D01*
X88376102Y-78606709D01*
X88217647Y-78828189D01*
X88217640Y-78828201D01*
X88093117Y-79070397D01*
X88093111Y-79070411D01*
X88005184Y-79328145D01*
X88005180Y-79328163D01*
X87955715Y-79595959D01*
X87955713Y-79595979D01*
X87945767Y-79868129D01*
X77265432Y-79868129D01*
X77278958Y-79704893D01*
X77278958Y-79704882D01*
X77258424Y-79457075D01*
X77258422Y-79457063D01*
X77197378Y-79216006D01*
X77097488Y-78988281D01*
X76961481Y-78780105D01*
X76901142Y-78714560D01*
X76793059Y-78597150D01*
X76596824Y-78444414D01*
X76596822Y-78444413D01*
X76596821Y-78444412D01*
X76378126Y-78326060D01*
X76378117Y-78326057D01*
X76142931Y-78245317D01*
X75897650Y-78204388D01*
X75648980Y-78204388D01*
X75403698Y-78245317D01*
X75168512Y-78326057D01*
X75168503Y-78326060D01*
X74949808Y-78444412D01*
X74753572Y-78597149D01*
X74585148Y-78780105D01*
X74449141Y-78988281D01*
X74349251Y-79216006D01*
X74288207Y-79457063D01*
X74288205Y-79457075D01*
X74267672Y-79704882D01*
X74267672Y-79704893D01*
X70778958Y-79704893D01*
X70778958Y-79704882D01*
X70758424Y-79457075D01*
X70758422Y-79457063D01*
X70697378Y-79216006D01*
X70597488Y-78988281D01*
X70461481Y-78780105D01*
X70401142Y-78714560D01*
X70293059Y-78597150D01*
X70096824Y-78444414D01*
X70096822Y-78444413D01*
X70096821Y-78444412D01*
X69878126Y-78326060D01*
X69878117Y-78326057D01*
X69642931Y-78245317D01*
X69397650Y-78204388D01*
X69148980Y-78204388D01*
X68903698Y-78245317D01*
X68668512Y-78326057D01*
X68668503Y-78326060D01*
X68449808Y-78444412D01*
X68253572Y-78597149D01*
X68085148Y-78780105D01*
X67949141Y-78988281D01*
X67849251Y-79216006D01*
X67788207Y-79457063D01*
X67788205Y-79457075D01*
X67767672Y-79704882D01*
X67767672Y-79704893D01*
X60500500Y-79704893D01*
X60500500Y-75753671D01*
X67744859Y-75753671D01*
X67765385Y-76001395D01*
X67765387Y-76001404D01*
X67826412Y-76242383D01*
X67926266Y-76470030D01*
X68026564Y-76623548D01*
X68724070Y-75926042D01*
X68726884Y-75939581D01*
X68796442Y-76073822D01*
X68899638Y-76184318D01*
X69028819Y-76262875D01*
X69080002Y-76277215D01*
X68379942Y-76977275D01*
X68426768Y-77013721D01*
X68426770Y-77013722D01*
X68645385Y-77132030D01*
X68645396Y-77132035D01*
X68880506Y-77212749D01*
X69125707Y-77253666D01*
X69374293Y-77253666D01*
X69619493Y-77212749D01*
X69854603Y-77132035D01*
X69854614Y-77132030D01*
X70073228Y-77013723D01*
X70073231Y-77013721D01*
X70120056Y-76977275D01*
X69421568Y-76278787D01*
X69538458Y-76228015D01*
X69655739Y-76132600D01*
X69742928Y-76009081D01*
X69773354Y-75923468D01*
X70473434Y-76623548D01*
X70573731Y-76470035D01*
X70673587Y-76242383D01*
X70734612Y-76001404D01*
X70734614Y-76001395D01*
X70755141Y-75753671D01*
X74244859Y-75753671D01*
X74265385Y-76001395D01*
X74265387Y-76001404D01*
X74326412Y-76242383D01*
X74426266Y-76470030D01*
X74526564Y-76623548D01*
X75224070Y-75926042D01*
X75226884Y-75939581D01*
X75296442Y-76073822D01*
X75399638Y-76184318D01*
X75528819Y-76262875D01*
X75580002Y-76277215D01*
X74879942Y-76977275D01*
X74926768Y-77013721D01*
X74926770Y-77013722D01*
X75145385Y-77132030D01*
X75145396Y-77132035D01*
X75380506Y-77212749D01*
X75625707Y-77253666D01*
X75874293Y-77253666D01*
X76119493Y-77212749D01*
X76354603Y-77132035D01*
X76354614Y-77132030D01*
X76573228Y-77013723D01*
X76573231Y-77013721D01*
X76620056Y-76977275D01*
X75921568Y-76278787D01*
X76038458Y-76228015D01*
X76155739Y-76132600D01*
X76242928Y-76009081D01*
X76273354Y-75923468D01*
X76973434Y-76623548D01*
X77073731Y-76470035D01*
X77173587Y-76242383D01*
X77234612Y-76001404D01*
X77234614Y-76001395D01*
X77255141Y-75753671D01*
X77255141Y-75753660D01*
X77234614Y-75505936D01*
X77234612Y-75505927D01*
X77173587Y-75264948D01*
X77073731Y-75037296D01*
X77049368Y-75000006D01*
X81164700Y-75000006D01*
X81183864Y-75231297D01*
X81183866Y-75231308D01*
X81240842Y-75456300D01*
X81334075Y-75668848D01*
X81461016Y-75863147D01*
X81461019Y-75863151D01*
X81461021Y-75863153D01*
X81618216Y-76033913D01*
X81770529Y-76152462D01*
X81811341Y-76209172D01*
X81815016Y-76278945D01*
X81780385Y-76339628D01*
X81771204Y-76347582D01*
X81771200Y-76347647D01*
X82437466Y-77013913D01*
X82427685Y-77015320D01*
X82296900Y-77075048D01*
X82188239Y-77169202D01*
X82110507Y-77290156D01*
X82086923Y-77370476D01*
X81418812Y-76702365D01*
X81334516Y-76831391D01*
X81334514Y-76831395D01*
X81241317Y-77043864D01*
X81184361Y-77268781D01*
X81165202Y-77499994D01*
X81165202Y-77500005D01*
X81184361Y-77731218D01*
X81241317Y-77956135D01*
X81334516Y-78168609D01*
X81418811Y-78297633D01*
X82086922Y-77629523D01*
X82110507Y-77709844D01*
X82188239Y-77830798D01*
X82296900Y-77924952D01*
X82427685Y-77984680D01*
X82437466Y-77986086D01*
X81771199Y-78652351D01*
X81801650Y-78676050D01*
X82005697Y-78786476D01*
X82005706Y-78786479D01*
X82225139Y-78861811D01*
X82453993Y-78900000D01*
X82686007Y-78900000D01*
X82914860Y-78861811D01*
X83134293Y-78786479D01*
X83134302Y-78786476D01*
X83338350Y-78676050D01*
X83368798Y-78652351D01*
X82702533Y-77986086D01*
X82712315Y-77984680D01*
X82843100Y-77924952D01*
X82951761Y-77830798D01*
X83029493Y-77709844D01*
X83053076Y-77629524D01*
X83721186Y-78297634D01*
X83805484Y-78168606D01*
X83898682Y-77956135D01*
X83955638Y-77731218D01*
X83974798Y-77500005D01*
X83974798Y-77499994D01*
X83955638Y-77268781D01*
X83898682Y-77043864D01*
X83805483Y-76831390D01*
X83721186Y-76702364D01*
X83053076Y-77370475D01*
X83029493Y-77290156D01*
X82951761Y-77169202D01*
X82843100Y-77075048D01*
X82712315Y-77015320D01*
X82702534Y-77013913D01*
X83368799Y-76347648D01*
X83368770Y-76347195D01*
X83328658Y-76291460D01*
X83324983Y-76221687D01*
X83359614Y-76161004D01*
X83369465Y-76152466D01*
X83521784Y-76033913D01*
X83678979Y-75863153D01*
X83805924Y-75668849D01*
X83899157Y-75456300D01*
X83956134Y-75231305D01*
X83957147Y-75219082D01*
X83975300Y-75000006D01*
X83975300Y-74999993D01*
X83956135Y-74768702D01*
X83956133Y-74768691D01*
X83899157Y-74543699D01*
X83805924Y-74331151D01*
X83678981Y-74136849D01*
X83611608Y-74063662D01*
X83580686Y-74001008D01*
X83588547Y-73931582D01*
X83632694Y-73877426D01*
X83659499Y-73863500D01*
X83712331Y-73843796D01*
X83827546Y-73757546D01*
X83913796Y-73642331D01*
X83964091Y-73507483D01*
X83970500Y-73447873D01*
X83970499Y-71552128D01*
X83964091Y-71492517D01*
X83952550Y-71461575D01*
X83913797Y-71357671D01*
X83913793Y-71357664D01*
X83827547Y-71242455D01*
X83827544Y-71242452D01*
X83712335Y-71156206D01*
X83712328Y-71156202D01*
X83577482Y-71105908D01*
X83577483Y-71105908D01*
X83517883Y-71099501D01*
X83517881Y-71099500D01*
X83517873Y-71099500D01*
X83517864Y-71099500D01*
X81622129Y-71099500D01*
X81622123Y-71099501D01*
X81562516Y-71105908D01*
X81427671Y-71156202D01*
X81427664Y-71156206D01*
X81312455Y-71242452D01*
X81312452Y-71242455D01*
X81226206Y-71357664D01*
X81226202Y-71357671D01*
X81175908Y-71492517D01*
X81169501Y-71552116D01*
X81169501Y-71552123D01*
X81169500Y-71552135D01*
X81169500Y-73447870D01*
X81169501Y-73447876D01*
X81175908Y-73507483D01*
X81226202Y-73642328D01*
X81226206Y-73642335D01*
X81312452Y-73757544D01*
X81312455Y-73757547D01*
X81427664Y-73843793D01*
X81427673Y-73843798D01*
X81480493Y-73863498D01*
X81536427Y-73905368D01*
X81560845Y-73970832D01*
X81545994Y-74039105D01*
X81528392Y-74063662D01*
X81461021Y-74136847D01*
X81461019Y-74136848D01*
X81461016Y-74136853D01*
X81334075Y-74331151D01*
X81240842Y-74543699D01*
X81183866Y-74768691D01*
X81183864Y-74768702D01*
X81164700Y-74999993D01*
X81164700Y-75000006D01*
X77049368Y-75000006D01*
X76973434Y-74883782D01*
X76275929Y-75581288D01*
X76273116Y-75567751D01*
X76203558Y-75433510D01*
X76100362Y-75323014D01*
X75971181Y-75244457D01*
X75919997Y-75230116D01*
X76620057Y-74530056D01*
X76620056Y-74530055D01*
X76573229Y-74493609D01*
X76354614Y-74375301D01*
X76354603Y-74375296D01*
X76119493Y-74294582D01*
X75874293Y-74253666D01*
X75625707Y-74253666D01*
X75380506Y-74294582D01*
X75145396Y-74375296D01*
X75145390Y-74375298D01*
X74926761Y-74493615D01*
X74879942Y-74530054D01*
X74879942Y-74530056D01*
X75578431Y-75228544D01*
X75461542Y-75279317D01*
X75344261Y-75374732D01*
X75257072Y-75498251D01*
X75226645Y-75583863D01*
X74526564Y-74883782D01*
X74426267Y-75037298D01*
X74326412Y-75264948D01*
X74265387Y-75505927D01*
X74265385Y-75505936D01*
X74244859Y-75753660D01*
X74244859Y-75753671D01*
X70755141Y-75753671D01*
X70755141Y-75753660D01*
X70734614Y-75505936D01*
X70734612Y-75505927D01*
X70673587Y-75264948D01*
X70573731Y-75037296D01*
X70473434Y-74883782D01*
X69775929Y-75581288D01*
X69773116Y-75567751D01*
X69703558Y-75433510D01*
X69600362Y-75323014D01*
X69471181Y-75244457D01*
X69419997Y-75230116D01*
X70120057Y-74530056D01*
X70120056Y-74530055D01*
X70073229Y-74493609D01*
X69854614Y-74375301D01*
X69854603Y-74375296D01*
X69619493Y-74294582D01*
X69374293Y-74253666D01*
X69125707Y-74253666D01*
X68880506Y-74294582D01*
X68645396Y-74375296D01*
X68645390Y-74375298D01*
X68426761Y-74493615D01*
X68379942Y-74530054D01*
X68379942Y-74530056D01*
X69078431Y-75228544D01*
X68961542Y-75279317D01*
X68844261Y-75374732D01*
X68757072Y-75498251D01*
X68726645Y-75583863D01*
X68026564Y-74883782D01*
X67926267Y-75037298D01*
X67826412Y-75264948D01*
X67765387Y-75505927D01*
X67765385Y-75505936D01*
X67744859Y-75753660D01*
X67744859Y-75753671D01*
X60500500Y-75753671D01*
X60500500Y-71253671D01*
X67744357Y-71253671D01*
X67764890Y-71501478D01*
X67764892Y-71501490D01*
X67825936Y-71742547D01*
X67925826Y-71970272D01*
X68061833Y-72178448D01*
X68061836Y-72178451D01*
X68230256Y-72361404D01*
X68426491Y-72514140D01*
X68426493Y-72514141D01*
X68640579Y-72629999D01*
X68645190Y-72632494D01*
X68880386Y-72713237D01*
X69125665Y-72754166D01*
X69374335Y-72754166D01*
X69619614Y-72713237D01*
X69854810Y-72632494D01*
X70073509Y-72514140D01*
X70269744Y-72361404D01*
X70438164Y-72178451D01*
X70574173Y-71970273D01*
X70674063Y-71742547D01*
X70735108Y-71501487D01*
X70735664Y-71494777D01*
X70755643Y-71253671D01*
X74244357Y-71253671D01*
X74264890Y-71501478D01*
X74264892Y-71501490D01*
X74325936Y-71742547D01*
X74425826Y-71970272D01*
X74561833Y-72178448D01*
X74561836Y-72178451D01*
X74730256Y-72361404D01*
X74926491Y-72514140D01*
X74926493Y-72514141D01*
X75140579Y-72629999D01*
X75145190Y-72632494D01*
X75380386Y-72713237D01*
X75625665Y-72754166D01*
X75874335Y-72754166D01*
X76119614Y-72713237D01*
X76354810Y-72632494D01*
X76573509Y-72514140D01*
X76769744Y-72361404D01*
X76938164Y-72178451D01*
X77074173Y-71970273D01*
X77174063Y-71742547D01*
X77235108Y-71501487D01*
X77235664Y-71494777D01*
X77255643Y-71253671D01*
X77255643Y-71253660D01*
X77235109Y-71005853D01*
X77235107Y-71005841D01*
X77174063Y-70764784D01*
X77074173Y-70537059D01*
X76938166Y-70328883D01*
X76916557Y-70305410D01*
X76882238Y-70268129D01*
X87945767Y-70268129D01*
X87975552Y-70538827D01*
X87975554Y-70538840D01*
X88035420Y-70767834D01*
X88044438Y-70802326D01*
X88150953Y-71052975D01*
X88273433Y-71253666D01*
X88292824Y-71285439D01*
X88292831Y-71285449D01*
X88465154Y-71492517D01*
X88467037Y-71494779D01*
X88669869Y-71676518D01*
X88897002Y-71826788D01*
X89143594Y-71942386D01*
X89404389Y-72020847D01*
X89673829Y-72060500D01*
X89673834Y-72060500D01*
X90398005Y-72060500D01*
X90449780Y-72056710D01*
X90601616Y-72045597D01*
X90712723Y-72020847D01*
X90867435Y-71986384D01*
X90867437Y-71986383D01*
X90867442Y-71986382D01*
X91121814Y-71889093D01*
X91359310Y-71755804D01*
X91574868Y-71589355D01*
X91763894Y-71393295D01*
X91922358Y-71171802D01*
X92046885Y-70929597D01*
X92103111Y-70764785D01*
X92134815Y-70671854D01*
X92134815Y-70671850D01*
X92134819Y-70671841D01*
X92184286Y-70404029D01*
X92194232Y-70131869D01*
X92164446Y-69861161D01*
X92095562Y-69597674D01*
X91989047Y-69347025D01*
X91847173Y-69114556D01*
X91672963Y-68905221D01*
X91470131Y-68723482D01*
X91405629Y-68680808D01*
X91243000Y-68573213D01*
X91220145Y-68562499D01*
X90996406Y-68457614D01*
X90735611Y-68379153D01*
X90735609Y-68379152D01*
X90735607Y-68379152D01*
X90638996Y-68364934D01*
X90466171Y-68339500D01*
X89742000Y-68339500D01*
X89741995Y-68339500D01*
X89538384Y-68354403D01*
X89538370Y-68354405D01*
X89272564Y-68413615D01*
X89272557Y-68413618D01*
X89018183Y-68510908D01*
X88780691Y-68644195D01*
X88780686Y-68644198D01*
X88565133Y-68810643D01*
X88565124Y-68810652D01*
X88376109Y-69006701D01*
X88376102Y-69006709D01*
X88217647Y-69228189D01*
X88217640Y-69228201D01*
X88093117Y-69470397D01*
X88093111Y-69470411D01*
X88005184Y-69728145D01*
X88005180Y-69728163D01*
X87955715Y-69995959D01*
X87955713Y-69995979D01*
X87945767Y-70268129D01*
X76882238Y-70268129D01*
X76769744Y-70145928D01*
X76573509Y-69993192D01*
X76573507Y-69993191D01*
X76573506Y-69993190D01*
X76354811Y-69874838D01*
X76354802Y-69874835D01*
X76119616Y-69794095D01*
X75874335Y-69753166D01*
X75625665Y-69753166D01*
X75380383Y-69794095D01*
X75145197Y-69874835D01*
X75145188Y-69874838D01*
X74926493Y-69993190D01*
X74730257Y-70145927D01*
X74561833Y-70328883D01*
X74425826Y-70537059D01*
X74325936Y-70764784D01*
X74264892Y-71005841D01*
X74264890Y-71005853D01*
X74244357Y-71253660D01*
X74244357Y-71253671D01*
X70755643Y-71253671D01*
X70755643Y-71253660D01*
X70735109Y-71005853D01*
X70735107Y-71005841D01*
X70674063Y-70764784D01*
X70574173Y-70537059D01*
X70438166Y-70328883D01*
X70416557Y-70305410D01*
X70269744Y-70145928D01*
X70073509Y-69993192D01*
X70073507Y-69993191D01*
X70073506Y-69993190D01*
X69854811Y-69874838D01*
X69854802Y-69874835D01*
X69619616Y-69794095D01*
X69374335Y-69753166D01*
X69125665Y-69753166D01*
X68880383Y-69794095D01*
X68645197Y-69874835D01*
X68645188Y-69874838D01*
X68426493Y-69993190D01*
X68230257Y-70145927D01*
X68061833Y-70328883D01*
X67925826Y-70537059D01*
X67825936Y-70764784D01*
X67764892Y-71005841D01*
X67764890Y-71005853D01*
X67744357Y-71253660D01*
X67744357Y-71253671D01*
X60500500Y-71253671D01*
X60500500Y-67302449D01*
X67744859Y-67302449D01*
X67765385Y-67550173D01*
X67765387Y-67550182D01*
X67826411Y-67791159D01*
X67926266Y-68018808D01*
X68026564Y-68172326D01*
X68724070Y-67474820D01*
X68726884Y-67488359D01*
X68796442Y-67622600D01*
X68899638Y-67733096D01*
X69028819Y-67811653D01*
X69080002Y-67825993D01*
X68379942Y-68526053D01*
X68426768Y-68562499D01*
X68426770Y-68562500D01*
X68645385Y-68680808D01*
X68645396Y-68680813D01*
X68880506Y-68761527D01*
X69125707Y-68802444D01*
X69374293Y-68802444D01*
X69619493Y-68761527D01*
X69854603Y-68680813D01*
X69854614Y-68680808D01*
X70073228Y-68562501D01*
X70073231Y-68562499D01*
X70120056Y-68526053D01*
X69421568Y-67827565D01*
X69538458Y-67776793D01*
X69655739Y-67681378D01*
X69742928Y-67557859D01*
X69773354Y-67472246D01*
X70473434Y-68172326D01*
X70573731Y-68018813D01*
X70673588Y-67791159D01*
X70673589Y-67791159D01*
X70734612Y-67550182D01*
X70734614Y-67550173D01*
X70755141Y-67302449D01*
X74244859Y-67302449D01*
X74265385Y-67550173D01*
X74265387Y-67550182D01*
X74326411Y-67791159D01*
X74426266Y-68018808D01*
X74526564Y-68172326D01*
X75224070Y-67474820D01*
X75226884Y-67488359D01*
X75296442Y-67622600D01*
X75399638Y-67733096D01*
X75528819Y-67811653D01*
X75580002Y-67825993D01*
X74879942Y-68526053D01*
X74926768Y-68562499D01*
X74926770Y-68562500D01*
X75145385Y-68680808D01*
X75145396Y-68680813D01*
X75380506Y-68761527D01*
X75625707Y-68802444D01*
X75874293Y-68802444D01*
X76119493Y-68761527D01*
X76354603Y-68680813D01*
X76354614Y-68680808D01*
X76573228Y-68562501D01*
X76573231Y-68562499D01*
X76620056Y-68526053D01*
X75921568Y-67827565D01*
X76038458Y-67776793D01*
X76155739Y-67681378D01*
X76242928Y-67557859D01*
X76273354Y-67472246D01*
X76973434Y-68172326D01*
X77073731Y-68018813D01*
X77173588Y-67791159D01*
X77173589Y-67791159D01*
X77234612Y-67550182D01*
X77234614Y-67550173D01*
X77255141Y-67302449D01*
X77255141Y-67302438D01*
X77234614Y-67054714D01*
X77234612Y-67054705D01*
X77173587Y-66813726D01*
X77073731Y-66586074D01*
X76973434Y-66432560D01*
X76275929Y-67130066D01*
X76273116Y-67116529D01*
X76203558Y-66982288D01*
X76100362Y-66871792D01*
X75971181Y-66793235D01*
X75919997Y-66778894D01*
X76620057Y-66078834D01*
X76620056Y-66078833D01*
X76573229Y-66042387D01*
X76491447Y-65998129D01*
X87945767Y-65998129D01*
X87975552Y-66268827D01*
X87975554Y-66268840D01*
X88038994Y-66511505D01*
X88044438Y-66532326D01*
X88150953Y-66782975D01*
X88252210Y-66948891D01*
X88292824Y-67015439D01*
X88292831Y-67015449D01*
X88376950Y-67116529D01*
X88467037Y-67224779D01*
X88669869Y-67406518D01*
X88897002Y-67556788D01*
X89143594Y-67672386D01*
X89404389Y-67750847D01*
X89673829Y-67790500D01*
X89673834Y-67790500D01*
X90398005Y-67790500D01*
X90449780Y-67786710D01*
X90601616Y-67775597D01*
X90712723Y-67750847D01*
X90867435Y-67716384D01*
X90867437Y-67716383D01*
X90867442Y-67716382D01*
X91121814Y-67619093D01*
X91359310Y-67485804D01*
X91574868Y-67319355D01*
X91763894Y-67123295D01*
X91922358Y-66901802D01*
X92046885Y-66659597D01*
X92097408Y-66511501D01*
X92134815Y-66401854D01*
X92134815Y-66401850D01*
X92134819Y-66401841D01*
X92184286Y-66134029D01*
X92194232Y-65861869D01*
X92164446Y-65591161D01*
X92095562Y-65327674D01*
X91989047Y-65077025D01*
X91847173Y-64844556D01*
X91788952Y-64774596D01*
X91672964Y-64635222D01*
X91470131Y-64453482D01*
X91243000Y-64303213D01*
X91233179Y-64298609D01*
X90996406Y-64187614D01*
X90735611Y-64109153D01*
X90735609Y-64109152D01*
X90735607Y-64109152D01*
X90638996Y-64094934D01*
X90466171Y-64069500D01*
X89742000Y-64069500D01*
X89741995Y-64069500D01*
X89538384Y-64084403D01*
X89538370Y-64084405D01*
X89272564Y-64143615D01*
X89272557Y-64143618D01*
X89018183Y-64240908D01*
X88780691Y-64374195D01*
X88780686Y-64374198D01*
X88565133Y-64540643D01*
X88565124Y-64540652D01*
X88376109Y-64736701D01*
X88376102Y-64736709D01*
X88217647Y-64958189D01*
X88217640Y-64958201D01*
X88093117Y-65200397D01*
X88093111Y-65200411D01*
X88005184Y-65458145D01*
X88005180Y-65458163D01*
X87955715Y-65725959D01*
X87955713Y-65725979D01*
X87945767Y-65998129D01*
X76491447Y-65998129D01*
X76354614Y-65924079D01*
X76354603Y-65924074D01*
X76119493Y-65843360D01*
X75874293Y-65802444D01*
X75625707Y-65802444D01*
X75380506Y-65843360D01*
X75145396Y-65924074D01*
X75145390Y-65924076D01*
X74926761Y-66042393D01*
X74879942Y-66078832D01*
X74879942Y-66078834D01*
X75578431Y-66777322D01*
X75461542Y-66828095D01*
X75344261Y-66923510D01*
X75257072Y-67047029D01*
X75226645Y-67132641D01*
X74526564Y-66432560D01*
X74426267Y-66586076D01*
X74326412Y-66813726D01*
X74265387Y-67054705D01*
X74265385Y-67054714D01*
X74244859Y-67302438D01*
X74244859Y-67302449D01*
X70755141Y-67302449D01*
X70755141Y-67302438D01*
X70734614Y-67054714D01*
X70734612Y-67054705D01*
X70673587Y-66813726D01*
X70573731Y-66586074D01*
X70473434Y-66432560D01*
X69775929Y-67130066D01*
X69773116Y-67116529D01*
X69703558Y-66982288D01*
X69600362Y-66871792D01*
X69471181Y-66793235D01*
X69419997Y-66778894D01*
X70120057Y-66078834D01*
X70120056Y-66078833D01*
X70073229Y-66042387D01*
X69854614Y-65924079D01*
X69854603Y-65924074D01*
X69619493Y-65843360D01*
X69374293Y-65802444D01*
X69125707Y-65802444D01*
X68880506Y-65843360D01*
X68645396Y-65924074D01*
X68645390Y-65924076D01*
X68426761Y-66042393D01*
X68379942Y-66078832D01*
X68379942Y-66078834D01*
X69078431Y-66777322D01*
X68961542Y-66828095D01*
X68844261Y-66923510D01*
X68757072Y-67047029D01*
X68726645Y-67132641D01*
X68026564Y-66432560D01*
X67926267Y-66586076D01*
X67826412Y-66813726D01*
X67765387Y-67054705D01*
X67765385Y-67054714D01*
X67744859Y-67302438D01*
X67744859Y-67302449D01*
X60500500Y-67302449D01*
X60500500Y-62802449D01*
X67744357Y-62802449D01*
X67764890Y-63050256D01*
X67764892Y-63050268D01*
X67825936Y-63291325D01*
X67925826Y-63519050D01*
X68061833Y-63727226D01*
X68094245Y-63762435D01*
X68230256Y-63910182D01*
X68426491Y-64062918D01*
X68469392Y-64086135D01*
X68575611Y-64143618D01*
X68645190Y-64181272D01*
X68880386Y-64262015D01*
X69125665Y-64302944D01*
X69374335Y-64302944D01*
X69619614Y-64262015D01*
X69854810Y-64181272D01*
X70073509Y-64062918D01*
X70269744Y-63910182D01*
X70438164Y-63727229D01*
X70574173Y-63519051D01*
X70674063Y-63291325D01*
X70735108Y-63050265D01*
X70742472Y-62961395D01*
X70755643Y-62802449D01*
X74244357Y-62802449D01*
X74264890Y-63050256D01*
X74264892Y-63050268D01*
X74325936Y-63291325D01*
X74425826Y-63519050D01*
X74561833Y-63727226D01*
X74594245Y-63762435D01*
X74730256Y-63910182D01*
X74926491Y-64062918D01*
X74969392Y-64086135D01*
X75075611Y-64143618D01*
X75145190Y-64181272D01*
X75380386Y-64262015D01*
X75625665Y-64302944D01*
X75874335Y-64302944D01*
X76119614Y-64262015D01*
X76354810Y-64181272D01*
X76573509Y-64062918D01*
X76769744Y-63910182D01*
X76938164Y-63727229D01*
X77074173Y-63519051D01*
X77174063Y-63291325D01*
X77235108Y-63050265D01*
X77242472Y-62961395D01*
X77255643Y-62802449D01*
X77255643Y-62802438D01*
X77235109Y-62554631D01*
X77235107Y-62554619D01*
X77174063Y-62313562D01*
X77074173Y-62085837D01*
X76938166Y-61877661D01*
X76865613Y-61798848D01*
X76769744Y-61694706D01*
X76573509Y-61541970D01*
X76573507Y-61541969D01*
X76573506Y-61541968D01*
X76354811Y-61423616D01*
X76354802Y-61423613D01*
X76119616Y-61342873D01*
X75874335Y-61301944D01*
X75625665Y-61301944D01*
X75380383Y-61342873D01*
X75145197Y-61423613D01*
X75145188Y-61423616D01*
X74926493Y-61541968D01*
X74730257Y-61694705D01*
X74561833Y-61877661D01*
X74425826Y-62085837D01*
X74325936Y-62313562D01*
X74264892Y-62554619D01*
X74264890Y-62554631D01*
X74244357Y-62802438D01*
X74244357Y-62802449D01*
X70755643Y-62802449D01*
X70755643Y-62802438D01*
X70735109Y-62554631D01*
X70735107Y-62554619D01*
X70674063Y-62313562D01*
X70574173Y-62085837D01*
X70438166Y-61877661D01*
X70365613Y-61798848D01*
X70269744Y-61694706D01*
X70073509Y-61541970D01*
X70073507Y-61541969D01*
X70073506Y-61541968D01*
X69854811Y-61423616D01*
X69854802Y-61423613D01*
X69619616Y-61342873D01*
X69374335Y-61301944D01*
X69125665Y-61301944D01*
X68880383Y-61342873D01*
X68645197Y-61423613D01*
X68645188Y-61423616D01*
X68426493Y-61541968D01*
X68230257Y-61694705D01*
X68061833Y-61877661D01*
X67925826Y-62085837D01*
X67825936Y-62313562D01*
X67764892Y-62554619D01*
X67764890Y-62554631D01*
X67744357Y-62802438D01*
X67744357Y-62802449D01*
X60500500Y-62802449D01*
X60500500Y-61130006D01*
X81164700Y-61130006D01*
X81183864Y-61361297D01*
X81183866Y-61361308D01*
X81240842Y-61586300D01*
X81334075Y-61798848D01*
X81461016Y-61993147D01*
X81461019Y-61993151D01*
X81461021Y-61993153D01*
X81618216Y-62163913D01*
X81770529Y-62282462D01*
X81811341Y-62339172D01*
X81815016Y-62408945D01*
X81780385Y-62469628D01*
X81771204Y-62477582D01*
X81771200Y-62477647D01*
X82437466Y-63143913D01*
X82427685Y-63145320D01*
X82296900Y-63205048D01*
X82188239Y-63299202D01*
X82110507Y-63420156D01*
X82086923Y-63500476D01*
X81418812Y-62832365D01*
X81334516Y-62961391D01*
X81334514Y-62961395D01*
X81241317Y-63173864D01*
X81184361Y-63398781D01*
X81165202Y-63629994D01*
X81165202Y-63630005D01*
X81184361Y-63861218D01*
X81241317Y-64086135D01*
X81334516Y-64298609D01*
X81418811Y-64427633D01*
X82086922Y-63759523D01*
X82110507Y-63839844D01*
X82188239Y-63960798D01*
X82296900Y-64054952D01*
X82427685Y-64114680D01*
X82437466Y-64116086D01*
X81771199Y-64782351D01*
X81801650Y-64806050D01*
X82005697Y-64916476D01*
X82005706Y-64916479D01*
X82225139Y-64991811D01*
X82453993Y-65030000D01*
X82686007Y-65030000D01*
X82914860Y-64991811D01*
X83134293Y-64916479D01*
X83134302Y-64916476D01*
X83338350Y-64806050D01*
X83368798Y-64782351D01*
X82702533Y-64116086D01*
X82712315Y-64114680D01*
X82843100Y-64054952D01*
X82951761Y-63960798D01*
X83029493Y-63839844D01*
X83053076Y-63759524D01*
X83721186Y-64427634D01*
X83805484Y-64298606D01*
X83898682Y-64086135D01*
X83955638Y-63861218D01*
X83974798Y-63630005D01*
X83974798Y-63629994D01*
X83955638Y-63398781D01*
X83898682Y-63173864D01*
X83805483Y-62961390D01*
X83721186Y-62832364D01*
X83053076Y-63500475D01*
X83029493Y-63420156D01*
X82951761Y-63299202D01*
X82843100Y-63205048D01*
X82712315Y-63145320D01*
X82702534Y-63143913D01*
X83368799Y-62477648D01*
X83368770Y-62477195D01*
X83328658Y-62421460D01*
X83324983Y-62351687D01*
X83359614Y-62291004D01*
X83369465Y-62282466D01*
X83521784Y-62163913D01*
X83678979Y-61993153D01*
X83805924Y-61798849D01*
X83805926Y-61798843D01*
X83807747Y-61795481D01*
X83856967Y-61745891D01*
X83916801Y-61730500D01*
X90969903Y-61730500D01*
X91036942Y-61750185D01*
X91057584Y-61766819D01*
X95433181Y-66142416D01*
X95466666Y-66203739D01*
X95469500Y-66230097D01*
X95469500Y-69886571D01*
X95468969Y-69894673D01*
X95464318Y-69929999D01*
X95464318Y-69930000D01*
X95469500Y-69969360D01*
X95484955Y-70086760D01*
X95484956Y-70086762D01*
X95545464Y-70232841D01*
X95641718Y-70358282D01*
X95669995Y-70379980D01*
X95676085Y-70385320D01*
X97033312Y-71742547D01*
X98314669Y-73023904D01*
X98320022Y-73030007D01*
X98341718Y-73058283D01*
X98387818Y-73093655D01*
X98387828Y-73093663D01*
X98467159Y-73154536D01*
X98467162Y-73154537D01*
X98467163Y-73154538D01*
X98540198Y-73184790D01*
X98613238Y-73215044D01*
X98691619Y-73225363D01*
X98769999Y-73235682D01*
X98770000Y-73235682D01*
X98805329Y-73231030D01*
X98813428Y-73230500D01*
X98880909Y-73230500D01*
X98947948Y-73250185D01*
X98993292Y-73302097D01*
X98995965Y-73307830D01*
X99094031Y-73447883D01*
X99131501Y-73501395D01*
X99131506Y-73501402D01*
X99298597Y-73668493D01*
X99298603Y-73668498D01*
X99484158Y-73798425D01*
X99527783Y-73853002D01*
X99534977Y-73922500D01*
X99503454Y-73984855D01*
X99484158Y-74001575D01*
X99298597Y-74131505D01*
X99131505Y-74298597D01*
X98995965Y-74492169D01*
X98995964Y-74492171D01*
X98896098Y-74706335D01*
X98896094Y-74706344D01*
X98834938Y-74934586D01*
X98834936Y-74934596D01*
X98814341Y-75169999D01*
X98814341Y-75170000D01*
X98834936Y-75405403D01*
X98834938Y-75405413D01*
X98896094Y-75633655D01*
X98896096Y-75633659D01*
X98896097Y-75633663D01*
X98952056Y-75753667D01*
X98995965Y-75847830D01*
X98995967Y-75847834D01*
X99131501Y-76041395D01*
X99131506Y-76041402D01*
X99298597Y-76208493D01*
X99298603Y-76208498D01*
X99484158Y-76338425D01*
X99527783Y-76393002D01*
X99534977Y-76462500D01*
X99503454Y-76524855D01*
X99484158Y-76541575D01*
X99298597Y-76671505D01*
X99131505Y-76838597D01*
X98995965Y-77032169D01*
X98995964Y-77032171D01*
X98896098Y-77246335D01*
X98896094Y-77246344D01*
X98834938Y-77474586D01*
X98834936Y-77474596D01*
X98814341Y-77709999D01*
X98814341Y-77710000D01*
X98834936Y-77945403D01*
X98834938Y-77945413D01*
X98896094Y-78173655D01*
X98896096Y-78173659D01*
X98896097Y-78173663D01*
X98953906Y-78297634D01*
X98995965Y-78387830D01*
X98995967Y-78387834D01*
X99131501Y-78581395D01*
X99131506Y-78581402D01*
X99298597Y-78748493D01*
X99298603Y-78748498D01*
X99484158Y-78878425D01*
X99527783Y-78933002D01*
X99534977Y-79002500D01*
X99503454Y-79064855D01*
X99484158Y-79081575D01*
X99298597Y-79211505D01*
X99131505Y-79378597D01*
X98995965Y-79572169D01*
X98995964Y-79572171D01*
X98896098Y-79786335D01*
X98896094Y-79786344D01*
X98834938Y-80014586D01*
X98834936Y-80014596D01*
X98814341Y-80249999D01*
X98814341Y-80250000D01*
X98834936Y-80485403D01*
X98834938Y-80485413D01*
X98896094Y-80713655D01*
X98896096Y-80713659D01*
X98896097Y-80713663D01*
X98976198Y-80885439D01*
X98995965Y-80927830D01*
X98995967Y-80927834D01*
X99041804Y-80993295D01*
X99131501Y-81121396D01*
X99131506Y-81121402D01*
X99253818Y-81243714D01*
X99287303Y-81305037D01*
X99282319Y-81374729D01*
X99240447Y-81430662D01*
X99209471Y-81447577D01*
X99077912Y-81496646D01*
X99077906Y-81496649D01*
X98962812Y-81582809D01*
X98962809Y-81582812D01*
X98876649Y-81697906D01*
X98876645Y-81697913D01*
X98826403Y-81832620D01*
X98826401Y-81832627D01*
X98820000Y-81892155D01*
X98820000Y-82540000D01*
X99736314Y-82540000D01*
X99710507Y-82580156D01*
X99670000Y-82718111D01*
X99670000Y-82861889D01*
X99710507Y-82999844D01*
X99736314Y-83040000D01*
X98820000Y-83040000D01*
X98820000Y-83687844D01*
X98826401Y-83747372D01*
X98826403Y-83747379D01*
X98876645Y-83882086D01*
X98876649Y-83882093D01*
X98962809Y-83997187D01*
X98962812Y-83997190D01*
X99077906Y-84083350D01*
X99077913Y-84083354D01*
X99212620Y-84133596D01*
X99212627Y-84133598D01*
X99272155Y-84139999D01*
X99272172Y-84140000D01*
X99920000Y-84140000D01*
X99920000Y-83225501D01*
X100027685Y-83274680D01*
X100134237Y-83290000D01*
X100205763Y-83290000D01*
X100312315Y-83274680D01*
X100420000Y-83225501D01*
X100420000Y-84140000D01*
X101067828Y-84140000D01*
X101067844Y-84139999D01*
X101127372Y-84133598D01*
X101127379Y-84133596D01*
X101262086Y-84083354D01*
X101262093Y-84083350D01*
X101377187Y-83997190D01*
X101377190Y-83997187D01*
X101463350Y-83882093D01*
X101463354Y-83882086D01*
X101513596Y-83747379D01*
X101513598Y-83747372D01*
X101519999Y-83687844D01*
X101520000Y-83687827D01*
X101520000Y-83040000D01*
X100603686Y-83040000D01*
X100629493Y-82999844D01*
X100670000Y-82861889D01*
X100670000Y-82718111D01*
X100629493Y-82580156D01*
X100603686Y-82540000D01*
X101520000Y-82540000D01*
X101520000Y-81892172D01*
X101519999Y-81892155D01*
X101513598Y-81832627D01*
X101513596Y-81832620D01*
X101463354Y-81697913D01*
X101463350Y-81697906D01*
X101377190Y-81582812D01*
X101377187Y-81582809D01*
X101262093Y-81496649D01*
X101262088Y-81496646D01*
X101130528Y-81447577D01*
X101074595Y-81405705D01*
X101050178Y-81340241D01*
X101065030Y-81271968D01*
X101086175Y-81243720D01*
X101208495Y-81121401D01*
X101344035Y-80927830D01*
X101443903Y-80713663D01*
X101505063Y-80485408D01*
X101525659Y-80250000D01*
X101505063Y-80014592D01*
X101443903Y-79786337D01*
X101344035Y-79572171D01*
X101266306Y-79461161D01*
X101208494Y-79378597D01*
X101041402Y-79211506D01*
X101041396Y-79211501D01*
X100855842Y-79081575D01*
X100812217Y-79026998D01*
X100805023Y-78957500D01*
X100836546Y-78895145D01*
X100855842Y-78878425D01*
X100987154Y-78786479D01*
X101041401Y-78748495D01*
X101208495Y-78581401D01*
X101344035Y-78387830D01*
X101443903Y-78173663D01*
X101505063Y-77945408D01*
X101525659Y-77710000D01*
X101505063Y-77474592D01*
X101443903Y-77246337D01*
X101344035Y-77032171D01*
X101331117Y-77013721D01*
X101208494Y-76838597D01*
X101041402Y-76671506D01*
X101041396Y-76671501D01*
X100855842Y-76541575D01*
X100812217Y-76486998D01*
X100805023Y-76417500D01*
X100836546Y-76355145D01*
X100855842Y-76338425D01*
X100963738Y-76262875D01*
X101041401Y-76208495D01*
X101208495Y-76041401D01*
X101344035Y-75847830D01*
X101443903Y-75633663D01*
X101505063Y-75405408D01*
X101525659Y-75170000D01*
X101505063Y-74934592D01*
X101443903Y-74706337D01*
X101344035Y-74492171D01*
X101208495Y-74298599D01*
X101208494Y-74298597D01*
X101041402Y-74131506D01*
X101041396Y-74131501D01*
X100855842Y-74001575D01*
X100812217Y-73946998D01*
X100805023Y-73877500D01*
X100836546Y-73815145D01*
X100855842Y-73798425D01*
X100914226Y-73757544D01*
X101041401Y-73668495D01*
X101208495Y-73501401D01*
X101344035Y-73307830D01*
X101443903Y-73093663D01*
X101505063Y-72865408D01*
X101525659Y-72630000D01*
X101505063Y-72394592D01*
X101443903Y-72166337D01*
X101344035Y-71952171D01*
X101337184Y-71942386D01*
X101208494Y-71758597D01*
X101041402Y-71591506D01*
X101041396Y-71591501D01*
X100855842Y-71461575D01*
X100812217Y-71406998D01*
X100805023Y-71337500D01*
X100836546Y-71275145D01*
X100855842Y-71258425D01*
X100878654Y-71242452D01*
X101041401Y-71128495D01*
X101208495Y-70961401D01*
X101344035Y-70767830D01*
X101443903Y-70553663D01*
X101505063Y-70325408D01*
X101525659Y-70090000D01*
X101505063Y-69854592D01*
X101451921Y-69656261D01*
X101443905Y-69626344D01*
X101443904Y-69626343D01*
X101443903Y-69626337D01*
X101344035Y-69412171D01*
X101298420Y-69347025D01*
X101208494Y-69218597D01*
X101041402Y-69051506D01*
X101041396Y-69051501D01*
X100855842Y-68921575D01*
X100812217Y-68866998D01*
X100805023Y-68797500D01*
X100836546Y-68735145D01*
X100855842Y-68718425D01*
X100961849Y-68644198D01*
X101041401Y-68588495D01*
X101208495Y-68421401D01*
X101344035Y-68227830D01*
X101443903Y-68013663D01*
X101505063Y-67785408D01*
X101525659Y-67550000D01*
X101505063Y-67314592D01*
X101443903Y-67086337D01*
X101344035Y-66872171D01*
X101208495Y-66678599D01*
X101208494Y-66678597D01*
X101041402Y-66511506D01*
X101041396Y-66511501D01*
X100855842Y-66381575D01*
X100812217Y-66326998D01*
X100805023Y-66257500D01*
X100836546Y-66195145D01*
X100855842Y-66178425D01*
X100998072Y-66078834D01*
X101041401Y-66048495D01*
X101208495Y-65881401D01*
X101344035Y-65687830D01*
X101443903Y-65473663D01*
X101505063Y-65245408D01*
X101525659Y-65010000D01*
X101505063Y-64774592D01*
X101443903Y-64546337D01*
X101344035Y-64332171D01*
X101323759Y-64303213D01*
X101208494Y-64138597D01*
X101041402Y-63971506D01*
X101041396Y-63971501D01*
X100855842Y-63841575D01*
X100812217Y-63786998D01*
X100805023Y-63717500D01*
X100836546Y-63655145D01*
X100855842Y-63638425D01*
X101026325Y-63519051D01*
X101041401Y-63508495D01*
X101208495Y-63341401D01*
X101344035Y-63147830D01*
X101443903Y-62933663D01*
X101505063Y-62705408D01*
X101525659Y-62470000D01*
X101525626Y-62469628D01*
X101511972Y-62313562D01*
X101505063Y-62234592D01*
X101443903Y-62006337D01*
X101344035Y-61792171D01*
X101326284Y-61766819D01*
X101208494Y-61598597D01*
X101041402Y-61431506D01*
X101041396Y-61431501D01*
X100855842Y-61301575D01*
X100812217Y-61246998D01*
X100805023Y-61177500D01*
X100836546Y-61115145D01*
X100855842Y-61098425D01*
X100878026Y-61082891D01*
X101041401Y-60968495D01*
X101208495Y-60801401D01*
X101344035Y-60607830D01*
X101443903Y-60393663D01*
X101505063Y-60165408D01*
X101525659Y-59930000D01*
X101521944Y-59887544D01*
X101511864Y-59772328D01*
X101505063Y-59694592D01*
X101443903Y-59466337D01*
X101344035Y-59252171D01*
X101310849Y-59204775D01*
X101208494Y-59058597D01*
X101041402Y-58891506D01*
X101041396Y-58891501D01*
X100855842Y-58761575D01*
X100812217Y-58706998D01*
X100805023Y-58637500D01*
X100836546Y-58575145D01*
X100855842Y-58558425D01*
X100878026Y-58542891D01*
X101041401Y-58428495D01*
X101208495Y-58261401D01*
X101344035Y-58067830D01*
X101443903Y-57853663D01*
X101505063Y-57625408D01*
X101525659Y-57390000D01*
X101505063Y-57154592D01*
X101443903Y-56926337D01*
X101344035Y-56712171D01*
X101313695Y-56668840D01*
X101208494Y-56518597D01*
X101041402Y-56351506D01*
X101041396Y-56351501D01*
X100855842Y-56221575D01*
X100812217Y-56166998D01*
X100805023Y-56097500D01*
X100836546Y-56035145D01*
X100855842Y-56018425D01*
X100894782Y-55991159D01*
X101041401Y-55888495D01*
X101208495Y-55721401D01*
X101344035Y-55527830D01*
X101443903Y-55313663D01*
X101505063Y-55085408D01*
X101525659Y-54850000D01*
X101505063Y-54614592D01*
X101443903Y-54386337D01*
X101344035Y-54172171D01*
X101295880Y-54103397D01*
X101208494Y-53978597D01*
X101041402Y-53811506D01*
X101041395Y-53811501D01*
X100847834Y-53675967D01*
X100847830Y-53675965D01*
X100847828Y-53675964D01*
X100633663Y-53576097D01*
X100633659Y-53576096D01*
X100633655Y-53576094D01*
X100405413Y-53514938D01*
X100405403Y-53514936D01*
X100170001Y-53494341D01*
X100169999Y-53494341D01*
X99934596Y-53514936D01*
X99934586Y-53514938D01*
X99706344Y-53576094D01*
X99706335Y-53576098D01*
X99492171Y-53675964D01*
X99492169Y-53675965D01*
X99298597Y-53811505D01*
X99131505Y-53978597D01*
X98995965Y-54172169D01*
X98995964Y-54172171D01*
X98896098Y-54386335D01*
X98896094Y-54386344D01*
X98834938Y-54614586D01*
X98834936Y-54614596D01*
X98814341Y-54849999D01*
X98814341Y-54850000D01*
X98834936Y-55085403D01*
X98834938Y-55085413D01*
X98896094Y-55313655D01*
X98896096Y-55313659D01*
X98896097Y-55313663D01*
X98963850Y-55458960D01*
X98995965Y-55527830D01*
X98995967Y-55527834D01*
X99131501Y-55721395D01*
X99131506Y-55721402D01*
X99298597Y-55888493D01*
X99298603Y-55888498D01*
X99484158Y-56018425D01*
X99527783Y-56073002D01*
X99534977Y-56142500D01*
X99503454Y-56204855D01*
X99484158Y-56221575D01*
X99298597Y-56351505D01*
X99131505Y-56518597D01*
X98995965Y-56712169D01*
X98995964Y-56712171D01*
X98896098Y-56926335D01*
X98896094Y-56926344D01*
X98834938Y-57154586D01*
X98834936Y-57154596D01*
X98814341Y-57389999D01*
X98814341Y-57390000D01*
X98834936Y-57625403D01*
X98834938Y-57625413D01*
X98896094Y-57853655D01*
X98896096Y-57853659D01*
X98896097Y-57853663D01*
X98995965Y-58067830D01*
X98995967Y-58067834D01*
X99131501Y-58261395D01*
X99131506Y-58261402D01*
X99298597Y-58428493D01*
X99298603Y-58428498D01*
X99484158Y-58558425D01*
X99527783Y-58613002D01*
X99534977Y-58682500D01*
X99503454Y-58744855D01*
X99484158Y-58761575D01*
X99298597Y-58891505D01*
X99131505Y-59058597D01*
X98995965Y-59252169D01*
X98995964Y-59252171D01*
X98896098Y-59466335D01*
X98896094Y-59466344D01*
X98834938Y-59694586D01*
X98834936Y-59694596D01*
X98814341Y-59929999D01*
X98814341Y-59930000D01*
X98834936Y-60165403D01*
X98834938Y-60165413D01*
X98896094Y-60393655D01*
X98896096Y-60393659D01*
X98896097Y-60393663D01*
X98959439Y-60529500D01*
X98995965Y-60607830D01*
X98995967Y-60607834D01*
X99131501Y-60801395D01*
X99131506Y-60801402D01*
X99298597Y-60968493D01*
X99298603Y-60968498D01*
X99484158Y-61098425D01*
X99527783Y-61153002D01*
X99534977Y-61222500D01*
X99503454Y-61284855D01*
X99484158Y-61301575D01*
X99298597Y-61431505D01*
X99131505Y-61598597D01*
X98995965Y-61792169D01*
X98995964Y-61792171D01*
X98896098Y-62006335D01*
X98896094Y-62006344D01*
X98834938Y-62234586D01*
X98834936Y-62234596D01*
X98814341Y-62469999D01*
X98814341Y-62470000D01*
X98834936Y-62705403D01*
X98834938Y-62705413D01*
X98896094Y-62933655D01*
X98896096Y-62933659D01*
X98896097Y-62933663D01*
X98950470Y-63050265D01*
X98995965Y-63147830D01*
X98995967Y-63147834D01*
X99131501Y-63341395D01*
X99131506Y-63341402D01*
X99298597Y-63508493D01*
X99298603Y-63508498D01*
X99484158Y-63638425D01*
X99527783Y-63693002D01*
X99534977Y-63762500D01*
X99503454Y-63824855D01*
X99484158Y-63841575D01*
X99298597Y-63971505D01*
X99131505Y-64138597D01*
X98995965Y-64332169D01*
X98995964Y-64332171D01*
X98896098Y-64546335D01*
X98896094Y-64546344D01*
X98834938Y-64774586D01*
X98834936Y-64774596D01*
X98814341Y-65009999D01*
X98814341Y-65010000D01*
X98834936Y-65245403D01*
X98834938Y-65245413D01*
X98896094Y-65473655D01*
X98896096Y-65473659D01*
X98896097Y-65473663D01*
X98995965Y-65687830D01*
X98995967Y-65687834D01*
X99131501Y-65881395D01*
X99131506Y-65881402D01*
X99298597Y-66048493D01*
X99298603Y-66048498D01*
X99484158Y-66178425D01*
X99527783Y-66233002D01*
X99534977Y-66302500D01*
X99503454Y-66364855D01*
X99484158Y-66381575D01*
X99298597Y-66511505D01*
X99131505Y-66678597D01*
X98995965Y-66872169D01*
X98995964Y-66872171D01*
X98896098Y-67086335D01*
X98896094Y-67086344D01*
X98834938Y-67314586D01*
X98834936Y-67314596D01*
X98814341Y-67549999D01*
X98814341Y-67550000D01*
X98834936Y-67785403D01*
X98834938Y-67785413D01*
X98896094Y-68013655D01*
X98896096Y-68013659D01*
X98896097Y-68013663D01*
X98970083Y-68172326D01*
X98995965Y-68227830D01*
X98995967Y-68227834D01*
X99131501Y-68421395D01*
X99131506Y-68421402D01*
X99298597Y-68588493D01*
X99298603Y-68588498D01*
X99484158Y-68718425D01*
X99527783Y-68773002D01*
X99534977Y-68842500D01*
X99503454Y-68904855D01*
X99484158Y-68921575D01*
X99298597Y-69051505D01*
X99131505Y-69218597D01*
X98995965Y-69412169D01*
X98995964Y-69412171D01*
X98896098Y-69626335D01*
X98896094Y-69626344D01*
X98834938Y-69854586D01*
X98834936Y-69854596D01*
X98814341Y-70089999D01*
X98814341Y-70090000D01*
X98834936Y-70325403D01*
X98834938Y-70325413D01*
X98896094Y-70553655D01*
X98896096Y-70553659D01*
X98896097Y-70553663D01*
X98951211Y-70671854D01*
X98995965Y-70767830D01*
X98995967Y-70767834D01*
X99131501Y-70961395D01*
X99131506Y-70961402D01*
X99298597Y-71128493D01*
X99298603Y-71128498D01*
X99484158Y-71258425D01*
X99527783Y-71313002D01*
X99534977Y-71382500D01*
X99503454Y-71444855D01*
X99484158Y-71461575D01*
X99298597Y-71591505D01*
X99131504Y-71758598D01*
X99058255Y-71863208D01*
X99003678Y-71906833D01*
X98934180Y-71914025D01*
X98871825Y-71882502D01*
X98869000Y-71879765D01*
X96706819Y-69717584D01*
X96673334Y-69656261D01*
X96670500Y-69629903D01*
X96670500Y-65973427D01*
X96671031Y-65965326D01*
X96675682Y-65930000D01*
X96675682Y-65929998D01*
X96655044Y-65773239D01*
X96655042Y-65773234D01*
X96594538Y-65627163D01*
X96594538Y-65627162D01*
X96566922Y-65591172D01*
X96522450Y-65533215D01*
X96510366Y-65517466D01*
X96498283Y-65501718D01*
X96470009Y-65480023D01*
X96463912Y-65474677D01*
X91725320Y-60736085D01*
X91719980Y-60729995D01*
X91698282Y-60701718D01*
X91572841Y-60605464D01*
X91426762Y-60544956D01*
X91426760Y-60544955D01*
X91309361Y-60529500D01*
X91270000Y-60524318D01*
X91234670Y-60528969D01*
X91226572Y-60529500D01*
X83916801Y-60529500D01*
X83849762Y-60509815D01*
X83807747Y-60464519D01*
X83805924Y-60461151D01*
X83678981Y-60266849D01*
X83611608Y-60193662D01*
X83580686Y-60131008D01*
X83588547Y-60061582D01*
X83632694Y-60007426D01*
X83659499Y-59993500D01*
X83712331Y-59973796D01*
X83827546Y-59887546D01*
X83913796Y-59772331D01*
X83964091Y-59637483D01*
X83970500Y-59577873D01*
X83970499Y-57682128D01*
X83964639Y-57627611D01*
X83964091Y-57622516D01*
X83913797Y-57487671D01*
X83913793Y-57487664D01*
X83827547Y-57372455D01*
X83827544Y-57372452D01*
X83712335Y-57286206D01*
X83712328Y-57286202D01*
X83577482Y-57235908D01*
X83577483Y-57235908D01*
X83517883Y-57229501D01*
X83517881Y-57229500D01*
X83517873Y-57229500D01*
X83517864Y-57229500D01*
X81622129Y-57229500D01*
X81622123Y-57229501D01*
X81562516Y-57235908D01*
X81427671Y-57286202D01*
X81427664Y-57286206D01*
X81312455Y-57372452D01*
X81312452Y-57372455D01*
X81226206Y-57487664D01*
X81226202Y-57487671D01*
X81175908Y-57622517D01*
X81169501Y-57682116D01*
X81169501Y-57682123D01*
X81169500Y-57682135D01*
X81169500Y-59577870D01*
X81169501Y-59577876D01*
X81175908Y-59637483D01*
X81226202Y-59772328D01*
X81226206Y-59772335D01*
X81312452Y-59887544D01*
X81312455Y-59887547D01*
X81427664Y-59973793D01*
X81427673Y-59973798D01*
X81480493Y-59993498D01*
X81536427Y-60035368D01*
X81560845Y-60100832D01*
X81545994Y-60169105D01*
X81528392Y-60193662D01*
X81461021Y-60266847D01*
X81461019Y-60266848D01*
X81461016Y-60266853D01*
X81334075Y-60461151D01*
X81240842Y-60673699D01*
X81183866Y-60898691D01*
X81183864Y-60898702D01*
X81164700Y-61129993D01*
X81164700Y-61130006D01*
X60500500Y-61130006D01*
X60500500Y-58851227D01*
X67744859Y-58851227D01*
X67765385Y-59098951D01*
X67765387Y-59098960D01*
X67826412Y-59339939D01*
X67926266Y-59567586D01*
X68026564Y-59721104D01*
X68724070Y-59023598D01*
X68726884Y-59037137D01*
X68796442Y-59171378D01*
X68899638Y-59281874D01*
X69028819Y-59360431D01*
X69080002Y-59374771D01*
X68379942Y-60074831D01*
X68426768Y-60111277D01*
X68426770Y-60111278D01*
X68645385Y-60229586D01*
X68645396Y-60229591D01*
X68880506Y-60310305D01*
X69125707Y-60351222D01*
X69374293Y-60351222D01*
X69619493Y-60310305D01*
X69854603Y-60229591D01*
X69854614Y-60229586D01*
X70073228Y-60111279D01*
X70073231Y-60111277D01*
X70120056Y-60074831D01*
X69421568Y-59376343D01*
X69538458Y-59325571D01*
X69655739Y-59230156D01*
X69742928Y-59106637D01*
X69773354Y-59021024D01*
X70473434Y-59721104D01*
X70573731Y-59567591D01*
X70673587Y-59339939D01*
X70734612Y-59098960D01*
X70734614Y-59098951D01*
X70755141Y-58851227D01*
X74244859Y-58851227D01*
X74265385Y-59098951D01*
X74265387Y-59098960D01*
X74326412Y-59339939D01*
X74426266Y-59567586D01*
X74526564Y-59721104D01*
X75224070Y-59023598D01*
X75226884Y-59037137D01*
X75296442Y-59171378D01*
X75399638Y-59281874D01*
X75528819Y-59360431D01*
X75580002Y-59374771D01*
X74879942Y-60074831D01*
X74926768Y-60111277D01*
X74926770Y-60111278D01*
X75145385Y-60229586D01*
X75145396Y-60229591D01*
X75380506Y-60310305D01*
X75625707Y-60351222D01*
X75874293Y-60351222D01*
X76119493Y-60310305D01*
X76354603Y-60229591D01*
X76354614Y-60229586D01*
X76573228Y-60111279D01*
X76573231Y-60111277D01*
X76620056Y-60074831D01*
X75921568Y-59376343D01*
X76038458Y-59325571D01*
X76155739Y-59230156D01*
X76242928Y-59106637D01*
X76273354Y-59021024D01*
X76973434Y-59721104D01*
X77073731Y-59567591D01*
X77173587Y-59339939D01*
X77234612Y-59098960D01*
X77234614Y-59098951D01*
X77255141Y-58851227D01*
X77255141Y-58851216D01*
X77234614Y-58603492D01*
X77234612Y-58603483D01*
X77173587Y-58362504D01*
X77073731Y-58134852D01*
X76973434Y-57981338D01*
X76275929Y-58678844D01*
X76273116Y-58665307D01*
X76203558Y-58531066D01*
X76100362Y-58420570D01*
X75971181Y-58342013D01*
X75919997Y-58327672D01*
X76620057Y-57627612D01*
X76620056Y-57627611D01*
X76573229Y-57591165D01*
X76354614Y-57472857D01*
X76354603Y-57472852D01*
X76119493Y-57392138D01*
X75874293Y-57351222D01*
X75625707Y-57351222D01*
X75380506Y-57392138D01*
X75145396Y-57472852D01*
X75145390Y-57472854D01*
X74926761Y-57591171D01*
X74879942Y-57627610D01*
X74879942Y-57627612D01*
X75578431Y-58326100D01*
X75461542Y-58376873D01*
X75344261Y-58472288D01*
X75257072Y-58595807D01*
X75226645Y-58681419D01*
X74526564Y-57981338D01*
X74426267Y-58134854D01*
X74326412Y-58362504D01*
X74265387Y-58603483D01*
X74265385Y-58603492D01*
X74244859Y-58851216D01*
X74244859Y-58851227D01*
X70755141Y-58851227D01*
X70755141Y-58851216D01*
X70734614Y-58603492D01*
X70734612Y-58603483D01*
X70673587Y-58362504D01*
X70573731Y-58134852D01*
X70473434Y-57981338D01*
X69775929Y-58678844D01*
X69773116Y-58665307D01*
X69703558Y-58531066D01*
X69600362Y-58420570D01*
X69471181Y-58342013D01*
X69419997Y-58327672D01*
X70120057Y-57627612D01*
X70120056Y-57627611D01*
X70073229Y-57591165D01*
X69854614Y-57472857D01*
X69854603Y-57472852D01*
X69619493Y-57392138D01*
X69374293Y-57351222D01*
X69125707Y-57351222D01*
X68880506Y-57392138D01*
X68645396Y-57472852D01*
X68645390Y-57472854D01*
X68426761Y-57591171D01*
X68379942Y-57627610D01*
X68379942Y-57627612D01*
X69078431Y-58326100D01*
X68961542Y-58376873D01*
X68844261Y-58472288D01*
X68757072Y-58595807D01*
X68726645Y-58681419D01*
X68026564Y-57981338D01*
X67926267Y-58134854D01*
X67826412Y-58362504D01*
X67765387Y-58603483D01*
X67765385Y-58603492D01*
X67744859Y-58851216D01*
X67744859Y-58851227D01*
X60500500Y-58851227D01*
X60500500Y-56398129D01*
X87945767Y-56398129D01*
X87975552Y-56668827D01*
X87975554Y-56668840D01*
X88042871Y-56926335D01*
X88044438Y-56932326D01*
X88150953Y-57182975D01*
X88223477Y-57301810D01*
X88292824Y-57415439D01*
X88292831Y-57415449D01*
X88465154Y-57622517D01*
X88467037Y-57624779D01*
X88669869Y-57806518D01*
X88897002Y-57956788D01*
X89143594Y-58072386D01*
X89404389Y-58150847D01*
X89673829Y-58190500D01*
X89673834Y-58190500D01*
X90398005Y-58190500D01*
X90449780Y-58186710D01*
X90601616Y-58175597D01*
X90712723Y-58150847D01*
X90867435Y-58116384D01*
X90867437Y-58116383D01*
X90867442Y-58116382D01*
X91121814Y-58019093D01*
X91359310Y-57885804D01*
X91574868Y-57719355D01*
X91763894Y-57523295D01*
X91922358Y-57301802D01*
X92046885Y-57059597D01*
X92134819Y-56801841D01*
X92184286Y-56534029D01*
X92194232Y-56261869D01*
X92164446Y-55991161D01*
X92095562Y-55727674D01*
X91989047Y-55477025D01*
X91847173Y-55244556D01*
X91672963Y-55035221D01*
X91470131Y-54853482D01*
X91449909Y-54840103D01*
X91243000Y-54703213D01*
X91242998Y-54703212D01*
X90996406Y-54587614D01*
X90735611Y-54509153D01*
X90735609Y-54509152D01*
X90735607Y-54509152D01*
X90638996Y-54494934D01*
X90466171Y-54469500D01*
X89742000Y-54469500D01*
X89741995Y-54469500D01*
X89538384Y-54484403D01*
X89538370Y-54484405D01*
X89272564Y-54543615D01*
X89272557Y-54543618D01*
X89018183Y-54640908D01*
X88780691Y-54774195D01*
X88780686Y-54774198D01*
X88565133Y-54940643D01*
X88565124Y-54940652D01*
X88376109Y-55136701D01*
X88376102Y-55136709D01*
X88217647Y-55358189D01*
X88217640Y-55358201D01*
X88093117Y-55600397D01*
X88093111Y-55600411D01*
X88005184Y-55858145D01*
X88005180Y-55858163D01*
X87955715Y-56125959D01*
X87955713Y-56125979D01*
X87945767Y-56398129D01*
X60500500Y-56398129D01*
X60500500Y-54351227D01*
X67744357Y-54351227D01*
X67764890Y-54599034D01*
X67764892Y-54599046D01*
X67825936Y-54840103D01*
X67925826Y-55067828D01*
X68061833Y-55276004D01*
X68061836Y-55276007D01*
X68230256Y-55458960D01*
X68426491Y-55611696D01*
X68426493Y-55611697D01*
X68640799Y-55727674D01*
X68645190Y-55730050D01*
X68880386Y-55810793D01*
X69125665Y-55851722D01*
X69374335Y-55851722D01*
X69619614Y-55810793D01*
X69854810Y-55730050D01*
X70073509Y-55611696D01*
X70269744Y-55458960D01*
X70438164Y-55276007D01*
X70574173Y-55067829D01*
X70674063Y-54840103D01*
X70735108Y-54599043D01*
X70739701Y-54543615D01*
X70755643Y-54351227D01*
X74244357Y-54351227D01*
X74264890Y-54599034D01*
X74264892Y-54599046D01*
X74325936Y-54840103D01*
X74425826Y-55067828D01*
X74561833Y-55276004D01*
X74561836Y-55276007D01*
X74730256Y-55458960D01*
X74926491Y-55611696D01*
X74926493Y-55611697D01*
X75140799Y-55727674D01*
X75145190Y-55730050D01*
X75380386Y-55810793D01*
X75625665Y-55851722D01*
X75874335Y-55851722D01*
X76119614Y-55810793D01*
X76354810Y-55730050D01*
X76573509Y-55611696D01*
X76769744Y-55458960D01*
X76938164Y-55276007D01*
X77074173Y-55067829D01*
X77174063Y-54840103D01*
X77235108Y-54599043D01*
X77239701Y-54543615D01*
X77255643Y-54351227D01*
X77255643Y-54351216D01*
X77235109Y-54103409D01*
X77235107Y-54103397D01*
X77174063Y-53862340D01*
X77074173Y-53634615D01*
X76938166Y-53426439D01*
X76916557Y-53402966D01*
X76769744Y-53243484D01*
X76573509Y-53090748D01*
X76573507Y-53090747D01*
X76573506Y-53090746D01*
X76354811Y-52972394D01*
X76354802Y-52972391D01*
X76119616Y-52891651D01*
X75874335Y-52850722D01*
X75625665Y-52850722D01*
X75380383Y-52891651D01*
X75145197Y-52972391D01*
X75145188Y-52972394D01*
X74926493Y-53090746D01*
X74730257Y-53243483D01*
X74561833Y-53426439D01*
X74425826Y-53634615D01*
X74325936Y-53862340D01*
X74264892Y-54103397D01*
X74264890Y-54103409D01*
X74244357Y-54351216D01*
X74244357Y-54351227D01*
X70755643Y-54351227D01*
X70755643Y-54351216D01*
X70735109Y-54103409D01*
X70735107Y-54103397D01*
X70674063Y-53862340D01*
X70574173Y-53634615D01*
X70438166Y-53426439D01*
X70416557Y-53402966D01*
X70269744Y-53243484D01*
X70073509Y-53090748D01*
X70073507Y-53090747D01*
X70073506Y-53090746D01*
X69854811Y-52972394D01*
X69854802Y-52972391D01*
X69619616Y-52891651D01*
X69374335Y-52850722D01*
X69125665Y-52850722D01*
X68880383Y-52891651D01*
X68645197Y-52972391D01*
X68645188Y-52972394D01*
X68426493Y-53090746D01*
X68230257Y-53243483D01*
X68061833Y-53426439D01*
X67925826Y-53634615D01*
X67825936Y-53862340D01*
X67764892Y-54103397D01*
X67764890Y-54103409D01*
X67744357Y-54351216D01*
X67744357Y-54351227D01*
X60500500Y-54351227D01*
X60500500Y-50400005D01*
X67744859Y-50400005D01*
X67765385Y-50647729D01*
X67765387Y-50647738D01*
X67826412Y-50888717D01*
X67926266Y-51116364D01*
X68026564Y-51269882D01*
X68724070Y-50572376D01*
X68726884Y-50585915D01*
X68796442Y-50720156D01*
X68899638Y-50830652D01*
X69028819Y-50909209D01*
X69080002Y-50923549D01*
X68379942Y-51623609D01*
X68426768Y-51660055D01*
X68426770Y-51660056D01*
X68645385Y-51778364D01*
X68645396Y-51778369D01*
X68880506Y-51859083D01*
X69125707Y-51900000D01*
X69374293Y-51900000D01*
X69619493Y-51859083D01*
X69854603Y-51778369D01*
X69854614Y-51778364D01*
X70073228Y-51660057D01*
X70073231Y-51660055D01*
X70120056Y-51623609D01*
X69421568Y-50925121D01*
X69538458Y-50874349D01*
X69655739Y-50778934D01*
X69742928Y-50655415D01*
X69773354Y-50569802D01*
X70473434Y-51269882D01*
X70573731Y-51116369D01*
X70673587Y-50888717D01*
X70734612Y-50647738D01*
X70734614Y-50647729D01*
X70755141Y-50400005D01*
X74244859Y-50400005D01*
X74265385Y-50647729D01*
X74265387Y-50647738D01*
X74326412Y-50888717D01*
X74426266Y-51116364D01*
X74526564Y-51269882D01*
X75224070Y-50572376D01*
X75226884Y-50585915D01*
X75296442Y-50720156D01*
X75399638Y-50830652D01*
X75528819Y-50909209D01*
X75580002Y-50923549D01*
X74879942Y-51623609D01*
X74926768Y-51660055D01*
X74926770Y-51660056D01*
X75145385Y-51778364D01*
X75145396Y-51778369D01*
X75380506Y-51859083D01*
X75625707Y-51900000D01*
X75874293Y-51900000D01*
X76119493Y-51859083D01*
X76354603Y-51778369D01*
X76354614Y-51778364D01*
X76573228Y-51660057D01*
X76573231Y-51660055D01*
X76620056Y-51623609D01*
X75921568Y-50925121D01*
X76038458Y-50874349D01*
X76155739Y-50778934D01*
X76242928Y-50655415D01*
X76273354Y-50569802D01*
X76973434Y-51269882D01*
X77073731Y-51116369D01*
X77173587Y-50888717D01*
X77234612Y-50647738D01*
X77234614Y-50647729D01*
X77255141Y-50400005D01*
X77255141Y-50399994D01*
X77234614Y-50152270D01*
X77234612Y-50152261D01*
X77173587Y-49911282D01*
X77073731Y-49683630D01*
X76973434Y-49530116D01*
X76275929Y-50227622D01*
X76273116Y-50214085D01*
X76203558Y-50079844D01*
X76100362Y-49969348D01*
X75971181Y-49890791D01*
X75919997Y-49876450D01*
X76620057Y-49176390D01*
X76620056Y-49176389D01*
X76573229Y-49139943D01*
X76354614Y-49021635D01*
X76354603Y-49021630D01*
X76119493Y-48940916D01*
X75874293Y-48900000D01*
X75625707Y-48900000D01*
X75380506Y-48940916D01*
X75145396Y-49021630D01*
X75145390Y-49021632D01*
X74926761Y-49139949D01*
X74879942Y-49176388D01*
X74879942Y-49176390D01*
X75578431Y-49874878D01*
X75461542Y-49925651D01*
X75344261Y-50021066D01*
X75257072Y-50144585D01*
X75226645Y-50230197D01*
X74526564Y-49530116D01*
X74426267Y-49683632D01*
X74326412Y-49911282D01*
X74265387Y-50152261D01*
X74265385Y-50152270D01*
X74244859Y-50399994D01*
X74244859Y-50400005D01*
X70755141Y-50400005D01*
X70755141Y-50399994D01*
X70734614Y-50152270D01*
X70734612Y-50152261D01*
X70673587Y-49911282D01*
X70573731Y-49683630D01*
X70473434Y-49530116D01*
X69775929Y-50227622D01*
X69773116Y-50214085D01*
X69703558Y-50079844D01*
X69600362Y-49969348D01*
X69471181Y-49890791D01*
X69419997Y-49876450D01*
X70120057Y-49176390D01*
X70120056Y-49176389D01*
X70073229Y-49139943D01*
X69854614Y-49021635D01*
X69854603Y-49021630D01*
X69619493Y-48940916D01*
X69374293Y-48900000D01*
X69125707Y-48900000D01*
X68880506Y-48940916D01*
X68645396Y-49021630D01*
X68645390Y-49021632D01*
X68426761Y-49139949D01*
X68379942Y-49176388D01*
X68379942Y-49176390D01*
X69078431Y-49874878D01*
X68961542Y-49925651D01*
X68844261Y-50021066D01*
X68757072Y-50144585D01*
X68726645Y-50230197D01*
X68026564Y-49530116D01*
X67926267Y-49683632D01*
X67826412Y-49911282D01*
X67765387Y-50152261D01*
X67765385Y-50152270D01*
X67744859Y-50399994D01*
X67744859Y-50400005D01*
X60500500Y-50400005D01*
X60500500Y-45900005D01*
X67744357Y-45900005D01*
X67764890Y-46147812D01*
X67764892Y-46147824D01*
X67825936Y-46388881D01*
X67925826Y-46616606D01*
X68061833Y-46824782D01*
X68061836Y-46824785D01*
X68230256Y-47007738D01*
X68426491Y-47160474D01*
X68645190Y-47278828D01*
X68880386Y-47359571D01*
X69125665Y-47400500D01*
X69374335Y-47400500D01*
X69619614Y-47359571D01*
X69854810Y-47278828D01*
X70073509Y-47160474D01*
X70269744Y-47007738D01*
X70438164Y-46824785D01*
X70574173Y-46616607D01*
X70674063Y-46388881D01*
X70735108Y-46147821D01*
X70755643Y-45900005D01*
X74244357Y-45900005D01*
X74264890Y-46147812D01*
X74264892Y-46147824D01*
X74325936Y-46388881D01*
X74425826Y-46616606D01*
X74561833Y-46824782D01*
X74561836Y-46824785D01*
X74730256Y-47007738D01*
X74926491Y-47160474D01*
X75145190Y-47278828D01*
X75380386Y-47359571D01*
X75625665Y-47400500D01*
X75874335Y-47400500D01*
X76119614Y-47359571D01*
X76354810Y-47278828D01*
X76573509Y-47160474D01*
X76769744Y-47007738D01*
X76938164Y-46824785D01*
X77074173Y-46616607D01*
X77174063Y-46388881D01*
X77235108Y-46147821D01*
X77255643Y-45900000D01*
X77235108Y-45652179D01*
X77174063Y-45411119D01*
X77074173Y-45183393D01*
X76938166Y-44975217D01*
X76886971Y-44919605D01*
X76769744Y-44792262D01*
X76573509Y-44639526D01*
X76573507Y-44639525D01*
X76573506Y-44639524D01*
X76354811Y-44521172D01*
X76354802Y-44521169D01*
X76119616Y-44440429D01*
X75874335Y-44399500D01*
X75625665Y-44399500D01*
X75380383Y-44440429D01*
X75145197Y-44521169D01*
X75145188Y-44521172D01*
X74926493Y-44639524D01*
X74730257Y-44792261D01*
X74561833Y-44975217D01*
X74425826Y-45183393D01*
X74325936Y-45411118D01*
X74264892Y-45652175D01*
X74264890Y-45652187D01*
X74244357Y-45899994D01*
X74244357Y-45900005D01*
X70755643Y-45900005D01*
X70755643Y-45900000D01*
X70735108Y-45652179D01*
X70674063Y-45411119D01*
X70574173Y-45183393D01*
X70438166Y-44975217D01*
X70386971Y-44919605D01*
X70269744Y-44792262D01*
X70073509Y-44639526D01*
X70073507Y-44639525D01*
X70073506Y-44639524D01*
X69854811Y-44521172D01*
X69854802Y-44521169D01*
X69619616Y-44440429D01*
X69374335Y-44399500D01*
X69125665Y-44399500D01*
X68880383Y-44440429D01*
X68645197Y-44521169D01*
X68645188Y-44521172D01*
X68426493Y-44639524D01*
X68230257Y-44792261D01*
X68061833Y-44975217D01*
X67925826Y-45183393D01*
X67825936Y-45411118D01*
X67764892Y-45652175D01*
X67764890Y-45652187D01*
X67744357Y-45899994D01*
X67744357Y-45900005D01*
X60500500Y-45900005D01*
X60500500Y-43000001D01*
X61080395Y-43000001D01*
X61099934Y-43273188D01*
X61099935Y-43273195D01*
X61157337Y-43537068D01*
X61158152Y-43540815D01*
X61253866Y-43797433D01*
X61253868Y-43797438D01*
X61385122Y-44037811D01*
X61385127Y-44037819D01*
X61549252Y-44257066D01*
X61549268Y-44257084D01*
X61742915Y-44450731D01*
X61742933Y-44450747D01*
X61962180Y-44614872D01*
X61962188Y-44614877D01*
X62202561Y-44746131D01*
X62202560Y-44746131D01*
X62202564Y-44746132D01*
X62202567Y-44746134D01*
X62459185Y-44841848D01*
X62726812Y-44900066D01*
X62980460Y-44918207D01*
X62999999Y-44919605D01*
X63000000Y-44919605D01*
X63000001Y-44919605D01*
X63018235Y-44918300D01*
X63273188Y-44900066D01*
X63540815Y-44841848D01*
X63797433Y-44746134D01*
X64037817Y-44614874D01*
X64257074Y-44450741D01*
X64450741Y-44257074D01*
X64614874Y-44037817D01*
X64746134Y-43797433D01*
X64841848Y-43540815D01*
X64900066Y-43273188D01*
X64919605Y-43000001D01*
X100080395Y-43000001D01*
X100099934Y-43273188D01*
X100099935Y-43273195D01*
X100157337Y-43537068D01*
X100158152Y-43540815D01*
X100253866Y-43797433D01*
X100253868Y-43797438D01*
X100385122Y-44037811D01*
X100385127Y-44037819D01*
X100549252Y-44257066D01*
X100549268Y-44257084D01*
X100742915Y-44450731D01*
X100742933Y-44450747D01*
X100962180Y-44614872D01*
X100962188Y-44614877D01*
X101202561Y-44746131D01*
X101202560Y-44746131D01*
X101202564Y-44746132D01*
X101202567Y-44746134D01*
X101459185Y-44841848D01*
X101726812Y-44900066D01*
X101980460Y-44918207D01*
X101999999Y-44919605D01*
X102000000Y-44919605D01*
X102000001Y-44919605D01*
X102018235Y-44918300D01*
X102273188Y-44900066D01*
X102540815Y-44841848D01*
X102797433Y-44746134D01*
X103037817Y-44614874D01*
X103257074Y-44450741D01*
X103450741Y-44257074D01*
X103614874Y-44037817D01*
X103746134Y-43797433D01*
X103841848Y-43540815D01*
X103900066Y-43273188D01*
X103919605Y-43000000D01*
X103900066Y-42726812D01*
X103841848Y-42459185D01*
X103746134Y-42202567D01*
X103614874Y-41962183D01*
X103614872Y-41962180D01*
X103450747Y-41742933D01*
X103450731Y-41742915D01*
X103257084Y-41549268D01*
X103257066Y-41549252D01*
X103037819Y-41385127D01*
X103037811Y-41385122D01*
X102797438Y-41253868D01*
X102797439Y-41253868D01*
X102747468Y-41235230D01*
X102540815Y-41158152D01*
X102540808Y-41158150D01*
X102540807Y-41158150D01*
X102273195Y-41099935D01*
X102273188Y-41099934D01*
X102000001Y-41080395D01*
X101999999Y-41080395D01*
X101726811Y-41099934D01*
X101726804Y-41099935D01*
X101459192Y-41158150D01*
X101459188Y-41158151D01*
X101459185Y-41158152D01*
X101274489Y-41227040D01*
X101202561Y-41253868D01*
X100962188Y-41385122D01*
X100962180Y-41385127D01*
X100742933Y-41549252D01*
X100742915Y-41549268D01*
X100549268Y-41742915D01*
X100549252Y-41742933D01*
X100385127Y-41962180D01*
X100385122Y-41962188D01*
X100253868Y-42202561D01*
X100253866Y-42202567D01*
X100158152Y-42459185D01*
X100158151Y-42459188D01*
X100158150Y-42459192D01*
X100099935Y-42726804D01*
X100099934Y-42726811D01*
X100080395Y-42999998D01*
X100080395Y-43000001D01*
X64919605Y-43000001D01*
X64919605Y-43000000D01*
X64900066Y-42726812D01*
X64841848Y-42459185D01*
X64746134Y-42202567D01*
X64614874Y-41962183D01*
X64614872Y-41962180D01*
X64450747Y-41742933D01*
X64450731Y-41742915D01*
X64257084Y-41549268D01*
X64257066Y-41549252D01*
X64037819Y-41385127D01*
X64037811Y-41385122D01*
X63797438Y-41253868D01*
X63797439Y-41253868D01*
X63747468Y-41235230D01*
X63540815Y-41158152D01*
X63540808Y-41158150D01*
X63540807Y-41158150D01*
X63273195Y-41099935D01*
X63273188Y-41099934D01*
X63000001Y-41080395D01*
X62999999Y-41080395D01*
X62726811Y-41099934D01*
X62726804Y-41099935D01*
X62459192Y-41158150D01*
X62459188Y-41158151D01*
X62459185Y-41158152D01*
X62274489Y-41227040D01*
X62202561Y-41253868D01*
X61962188Y-41385122D01*
X61962180Y-41385127D01*
X61742933Y-41549252D01*
X61742915Y-41549268D01*
X61549268Y-41742915D01*
X61549252Y-41742933D01*
X61385127Y-41962180D01*
X61385122Y-41962188D01*
X61253868Y-42202561D01*
X61253866Y-42202567D01*
X61158152Y-42459185D01*
X61158151Y-42459188D01*
X61158150Y-42459192D01*
X61099935Y-42726804D01*
X61099934Y-42726811D01*
X61080395Y-42999998D01*
X61080395Y-43000001D01*
X60500500Y-43000001D01*
X60500500Y-41003482D01*
X60500890Y-40996535D01*
X60511459Y-40902731D01*
X60517635Y-40875670D01*
X60545353Y-40796456D01*
X60557396Y-40771450D01*
X60602046Y-40700389D01*
X60619351Y-40678690D01*
X60678690Y-40619351D01*
X60700389Y-40602046D01*
X60771450Y-40557396D01*
X60796456Y-40545353D01*
X60875670Y-40517635D01*
X60902733Y-40511459D01*
X60996541Y-40500889D01*
X61003483Y-40500500D01*
X61065892Y-40500500D01*
X103934108Y-40500500D01*
X103996517Y-40500500D01*
X104003458Y-40500889D01*
G37*
G04 #@! TD.AperFunction*
M02*
